<svg xmlns="http://www.w3.org/2000/svg" xmlns:xlink="http://www.w3.org/1999/xlink" width="407.8" height="437.921" viewBox="0 0 407.8 437.921">
  <defs>
    <linearGradient id="linear-gradient" y1="0.5" x2="1" y2="0.5" gradientUnits="objectBoundingBox">
      <stop offset="0" stop-color="#d1d7e0"/>
      <stop offset="1" stop-color="#ebebff"/>
    </linearGradient>
  </defs>
  <g id="Grupo_10725" data-name="Grupo 10725" transform="translate(-1026.174 -233.704)">
    <path id="Rectángulo_2721" data-name="Rectángulo 2721" d="M58.669,0H78.342a58.67,58.67,0,0,1,58.67,58.67V78.342a58.67,58.67,0,0,1-58.67,58.67H58.67A58.67,58.67,0,0,1,0,78.342V58.669A58.669,58.669,0,0,1,58.669,0Z" transform="translate(1086.906 301.958)" fill="#eceffe"/>
    <rect id="Rectángulo_2722" data-name="Rectángulo 2722" width="63.434" height="3.134" transform="translate(1123.695 407.777)" fill="#96bfe6"/>
    <rect id="Rectángulo_2723" data-name="Rectángulo 2723" width="45.465" height="3.134" transform="translate(1132.679 417.651)" fill="#96bfe6"/>
    <path id="Rectángulo_2724" data-name="Rectángulo 2724" d="M69.116,0H118.4a69.115,69.115,0,0,1,69.115,69.115v81.872A69.115,69.115,0,0,1,118.4,220.1H69.115A69.115,69.115,0,0,1,0,150.987V69.116A69.116,69.116,0,0,1,69.116,0Z" transform="translate(1246.458 349.477)" fill="#eceffe"/>
    <g id="Grupo_10600" data-name="Grupo 10600" transform="translate(1331.479 479.323)">
      <rect id="Rectángulo_2725" data-name="Rectángulo 2725" width="14.872" height="2.755" fill="#4598e6"/>
    </g>
    <g id="Grupo_10601" data-name="Grupo 10601" transform="translate(1275.016 504.563)">
      <rect id="Rectángulo_2726" data-name="Rectángulo 2726" width="86.541" height="5.333" fill="#96bfe6"/>
      <rect id="Rectángulo_2727" data-name="Rectángulo 2727" width="69.981" height="5.333" transform="translate(0 25.603)" fill="#96bfe6"/>
      <rect id="Rectángulo_2728" data-name="Rectángulo 2728" width="41.026" height="5.333" transform="translate(0 12.802)" fill="#96bfe6"/>
    </g>
    <g id="Grupo_10602" data-name="Grupo 10602" transform="translate(1276.506 371.427)">
      <path id="Trazado_10906" data-name="Trazado 10906" d="M2097.584,763.9V766.6h15.859v14.884h2.693V763.9Zm-107.692,17.577h2.693V766.6h15.858V763.9h-18.552Zm123.55,76.8v14.889h-15.859v2.693h18.552V858.278Zm-120.857,0h-2.693V875.86h18.552v-2.693h-15.858Z" transform="translate(-1989.892 -763.902)" fill="#4598e6"/>
    </g>
    <g id="Grupo_10605" data-name="Grupo 10605" transform="translate(1378.493 504.172)">
      <g id="Grupo_10603" data-name="Grupo 10603" transform="translate(0)">
        <path id="Trazado_10907" data-name="Trazado 10907" d="M2398.381,1306.66a15.86,15.86,0,1,1,15.86-15.86A15.878,15.878,0,0,1,2398.381,1306.66Zm0-28.65a12.79,12.79,0,1,0,12.79,12.79A12.8,12.8,0,0,0,2398.381,1278.01Z" transform="translate(-2382.521 -1274.94)" fill="#4598e6"/>
      </g>
      <g id="Grupo_10604" data-name="Grupo 10604" transform="translate(7.643 10.703)">
        <path id="Trazado_10908" data-name="Trazado 10908" d="M2419.149,1327.543l-7.205-7.206,2.17-2.17,5.035,5.035,7.058-7.058,2.171,2.17Z" transform="translate(-2411.944 -1316.144)" fill="#4598e6"/>
      </g>
    </g>
    <path id="Trazado_10909" data-name="Trazado 10909" d="M1285.221,1838.9c0,6.652-57.99,12.045-129.524,12.045s-129.524-5.393-129.524-12.045,57.99-12.044,129.524-12.044S1285.221,1832.249,1285.221,1838.9Z" transform="translate(0 -1179.321)" fill="#eceffe"/>
    <rect id="Rectángulo_2730" data-name="Rectángulo 2730" width="100.663" height="90.66" rx="45.33" transform="translate(1237.376 251.22)" fill="#eceffe"/>
    <g id="Grupo_10606" data-name="Grupo 10606" transform="translate(1283.334 324.733)">
      <rect id="Rectángulo_2731" data-name="Rectángulo 2731" width="7.983" height="1.479" transform="translate(0 0)" fill="#4598e6"/>
    </g>
    <g id="Grupo_10607" data-name="Grupo 10607" transform="translate(1253.822 267.627)">
      <path id="Trazado_10910" data-name="Trazado 10910" d="M1960.378,364.3v1.446h8.513v7.99h1.446V364.3Zm-57.811,9.436h1.446v-7.99h8.513V364.3h-9.959Zm66.324,41.227v7.993h-8.513V424.4h9.959V414.96Zm-64.879,0h-1.446V424.4h9.959v-1.446h-8.513Z" transform="translate(-1902.567 -364.297)" fill="#4598e6"/>
    </g>
    <g id="Grupo_10608" data-name="Grupo 10608" transform="translate(1150.08 392.468)">
      <rect id="Rectángulo_2732" data-name="Rectángulo 2732" width="10.664" height="1.975" transform="translate(0 0)" fill="#4598e6"/>
    </g>
    <g id="Grupo_10609" data-name="Grupo 10609" transform="translate(1110.151 316.191)">
      <path id="Trazado_10911" data-name="Trazado 10911" d="M1426.686,551.257v1.931h11.371V563.86h1.931v-12.6Zm-77.219,12.6h1.931V553.188h11.371v-1.931h-13.3Zm88.589,55.067V629.6h-11.371v1.931h13.3V618.927Zm-86.658,0h-1.931v12.607h13.3V629.6H1351.4Z" transform="translate(-1349.467 -551.257)" fill="#4598e6"/>
    </g>
    <g id="Grupo_10620" data-name="Grupo 10620" transform="translate(1277.628 323.282)">
      <g id="Grupo_10610" data-name="Grupo 10610" transform="translate(0 61.302)">
        <path id="Trazado_10912" data-name="Trazado 10912" d="M2113.429,884.695H2095.64c-1.17-8.517-2.609-18.241-2.609-18.241s-.719,8.024-1.594,18.241h-71.185c-.649-9.187-1.432-16.062-1.713-16.2-.409-.2-2.947,7.946-5.056,16.2h-19.27c4.957-21.35,14.2-55.6,19.545-57.655,7.608-2.926,38.632-12.487,38.632-12.487h17.7s31.461,8.976,34.387,18.734C2106.808,841.064,2111.941,866.708,2113.429,884.695Z" transform="translate(-1994.213 -814.553)" fill="#e65353"/>
      </g>
      <g id="Grupo_10611" data-name="Grupo 10611" transform="translate(48.06 3.711)">
        <path id="Trazado_10913" data-name="Trazado 10913" d="M2199.015,593s16.531,2.6,14.014,28.47-17.108,23.745-18.083,23.719-14.647.472-15.713-31.108C2179.233,614.078,2178.768,590.726,2199.015,593Z" transform="translate(-2179.232 -592.842)" fill="#eea987"/>
      </g>
      <g id="Grupo_10612" data-name="Grupo 10612" transform="translate(53.545 45.632)">
        <path id="Trazado_10914" data-name="Trazado 10914" d="M2222.364,757.035s-.453,10.639.576,12.942-13.642,9.7-22.591,1.457c0,0,2.161-11.562,1.56-15.66S2222.364,757.035,2222.364,757.035Z" transform="translate(-2200.349 -754.23)" fill="#eea987"/>
      </g>
      <g id="Grupo_10613" data-name="Grupo 10613" transform="translate(81.152 24.178)">
        <path id="Trazado_10915" data-name="Trazado 10915" d="M2307.59,672.487s1.811-1.934,2.474.024-2.808,10.7-2.581,11.1c0,0-.331.759-.765.341S2307.59,672.487,2307.59,672.487Z" transform="translate(-2306.629 -671.635)" fill="#eea987"/>
      </g>
      <g id="Grupo_10614" data-name="Grupo 10614" transform="translate(45.675 23.821)">
        <path id="Trazado_10916" data-name="Trazado 10916" d="M2172.624,671.143s-1.772-1.968-2.474-.024,2.6,10.756,2.367,11.144c0,0,.316.766.759.356S2172.624,671.143,2172.624,671.143Z" transform="translate(-2170.051 -670.262)" fill="#eea987"/>
      </g>
      <g id="Grupo_10615" data-name="Grupo 10615" transform="translate(46.151)">
        <path id="Trazado_10917" data-name="Trazado 10917" d="M2207.837,607.554l-2.366,3.164s.067-6.937-.313-8.024-.96-4.411-1.278-5.194-14.2-4.673-26.456,1.136c0,0,.539,4.988-.636,5.432s-.6,8.124-.6,8.124l-1.946-2.2s-2.979-19.9-2.243-21.974,3.08-14.544,28.231-7.141c0,0,7.84-1.661,9.414,3.753S2207.837,607.554,2207.837,607.554Z" transform="translate(-2171.884 -578.557)" fill="#d98b52"/>
      </g>
      <g id="Grupo_10616" data-name="Grupo 10616" transform="translate(53.537 61.299)">
        <path id="Trazado_10918" data-name="Trazado 10918" d="M2222.915,814.622s3.73.8-11.878,15.754c0,0-11.07-12.246-10.712-14.3S2222.915,814.622,2222.915,814.622Z" transform="translate(-2200.317 -814.543)" fill="#eea987"/>
      </g>
      <g id="Grupo_10617" data-name="Grupo 10617" transform="translate(64.257 59.146)">
        <path id="Trazado_10919" data-name="Trazado 10919" d="M2241.587,824.24l4.26,7.284,12.635-21.454-5.472-3.817Z" transform="translate(-2241.587 -806.254)" fill="#b84343"/>
      </g>
      <g id="Grupo_10618" data-name="Grupo 10618" transform="translate(48.06 60.685)">
        <path id="Trazado_10920" data-name="Trazado 10920" d="M2195.429,828.626l-10.337-16.448-5.86,3.766,10.507,19.965Z" transform="translate(-2179.232 -812.179)" fill="#b84343"/>
      </g>
      <g id="Grupo_10619" data-name="Grupo 10619" transform="translate(60.332 77.074)">
        <path id="Trazado_10921" data-name="Trazado 10921" d="M2227.2,920.9c.127,2.426.183,5.4.19,8.743h-.585c-.007-3.328-.063-6.3-.19-8.715-.959-18.248,3.462-40.451,3.49-45.654l.571.113C2230.645,880.59,2226.239,902.73,2227.2,920.9Z" transform="translate(-2226.476 -875.274)" fill="#b84343"/>
      </g>
      <path id="Trazado_10922" data-name="Trazado 10922" d="M2212.281,780.919s3.927,4.153,9.476,3.045,8.011-3.648,8.011-3.648a10.312,10.312,0,0,1-8.6,6C2214.75,786.815,2212.281,780.919,2212.281,780.919Z" transform="translate(-2155.637 -727.909)" fill="#c78d71"/>
    </g>
    <g id="Grupo_10639" data-name="Grupo 10639" transform="translate(1112.777 288.782)">
      <g id="Grupo_10622" data-name="Grupo 10622" transform="translate(27.444 18.594)">
        <g id="Grupo_10621" data-name="Grupo 10621">
          <path id="Trazado_10923" data-name="Trazado 10923" d="M1467.73,526.871a.164.164,0,0,1-.037,0c-.374-.091-.964-1.879-1.079-2.236-.027-.1-.085-.278-.165-.527-.463-1.431-1.547-4.783-1.125-6.068.133-.405.341-.64.618-.7.594-.123,1.272.631,1.3.663l.014.016,0,.022c.154,1.41.906,8.461.582,8.785A.155.155,0,0,1,1467.73,526.871Zm-1.652-9.41a.553.553,0,0,0-.109.011c-.225.047-.4.251-.516.607-.409,1.242.705,4.687,1.125,5.983.081.251.14.432.167.53a6.206,6.206,0,0,0,.98,2.143c.005,0,.01,0,.02-.007.207-.28-.269-5.445-.619-8.651A1.853,1.853,0,0,0,1466.078,517.46Z" transform="translate(-1465.228 -517.324)" fill="#eea886"/>
        </g>
      </g>
      <g id="Grupo_10624" data-name="Grupo 10624" transform="translate(23.081)">
        <g id="Grupo_10623" data-name="Grupo 10623">
          <path id="Trazado_10924" data-name="Trazado 10924" d="M1467.588,445.772s9.1-.954,12.379,7.835,6.366,11.665,6.753,16.281c1.563,18.673,10.283,14.449,7.831,25.213s-4.151,12.392-4.151,12.392l-20.847-4.088-21.118.068s8.262-4.126,6.423-12.914-6.423-23.192-3.834-33S1462.149,446.521,1467.588,445.772Z" transform="translate(-1448.433 -445.741)" fill="#16202e"/>
        </g>
      </g>
      <g id="Grupo_10626" data-name="Grupo 10626" transform="translate(53.158 18.594)">
        <g id="Grupo_10625" data-name="Grupo 10625">
          <path id="Trazado_10925" data-name="Trazado 10925" d="M1564.414,526.87a.155.155,0,0,1-.11-.047c-.324-.324.428-7.375.582-8.785l0-.022.014-.016c.029-.032.707-.787,1.3-.663.277.057.484.292.618.7.423,1.285-.662,4.637-1.125,6.068-.08.249-.138.429-.165.524-.116.36-.706,2.148-1.08,2.239A.168.168,0,0,1,1564.414,526.87Zm.6-8.8c-.35,3.206-.825,8.371-.617,8.652.008.008.013.007.018.006a6.21,6.21,0,0,0,.981-2.146c.026-.1.085-.277.166-.527.42-1.3,1.534-4.741,1.125-5.983-.117-.356-.291-.56-.516-.607C1565.7,517.372,1565.118,517.969,1565.019,518.075Z" transform="translate(-1564.224 -517.323)" fill="#eea886"/>
        </g>
      </g>
      <g id="Grupo_10628" data-name="Grupo 10628" transform="translate(0 47.164)">
        <g id="Grupo_10627" data-name="Grupo 10627">
          <path id="Trazado_10926" data-name="Trazado 10926" d="M1444.6,664.137h-12.99c-2.694-4.909-4.882-8.749-4.882-8.749a39.246,39.246,0,0,0-3.109,8.749h-43.732a37.76,37.76,0,0,1-.569-9.151s-2.337,4.223-5.049,9.151h-14.692c3.9-7.3,11.2-20.594,12.865-22.326,2.085-2.184,14.168-10.536,22.8-13.261s13.537-.094,13.537-.094a102.23,102.23,0,0,1,17.056,4.846C1429.05,634.577,1437.948,651.011,1444.6,664.137Z" transform="translate(-1359.576 -627.313)" fill="#faa146"/>
        </g>
      </g>
      <g id="Grupo_10630" data-name="Grupo 10630" transform="translate(29.078 5.072)">
        <g id="Grupo_10629" data-name="Grupo 10629">
          <path id="Trazado_10927" data-name="Trazado 10927" d="M1485.877,465.365s12.052,1.739,10.288,19.531-12.4,16.379-13.111,16.364-10.671.37-11.533-21.339C1471.521,479.92,1471.119,463.866,1485.877,465.365Z" transform="translate(-1471.52 -465.266)" fill="#8e4f3a"/>
        </g>
      </g>
      <g id="Grupo_10632" data-name="Grupo 10632" transform="translate(35.068 37.102)">
        <g id="Grupo_10631" data-name="Grupo 10631">
          <path id="Trazado_10928" data-name="Trazado 10928" d="M1508.3,589.382s-.746,9.254,1.036,12.027-1.525,6.536-8.338,5.249-6.417-5.15-6.417-5.15,1.907-5.711,1.35-10.282S1508.3,589.382,1508.3,589.382Z" transform="translate(-1494.578 -588.574)" fill="#8e4f3a"/>
        </g>
      </g>
      <g id="Grupo_10634" data-name="Grupo 10634" transform="translate(27.88 2.259)">
        <g id="Grupo_10633" data-name="Grupo 10633">
          <path id="Trazado_10929" data-name="Trazado 10929" d="M1481.085,463.8s5.631,5.92,8.247,8.917,2.917,8.788,2.917,8.788,4.406-5.382,2.563-11.649-6.2-18.462-17.238-14.715-11.445,20.233-10.151,28.408C1467.423,483.545,1472.377,465.5,1481.085,463.8Z" transform="translate(-1466.909 -454.436)" fill="#16202e"/>
        </g>
      </g>
      <g id="Grupo_10636" data-name="Grupo 10636" transform="translate(33.354 47.434)">
        <g id="Grupo_10635" data-name="Grupo 10635">
          <path id="Trazado_10930" data-name="Trazado 10930" d="M1507.648,630.035s-8.358,21.169-13.438,24.848c0,0-6.673-21.59-6.207-24.751C1488,630.132,1498.07,626.187,1507.648,630.035Z" transform="translate(-1487.98 -628.35)" fill="#8e4f3a"/>
        </g>
      </g>
      <g id="Grupo_10637" data-name="Grupo 10637" transform="translate(23.686 44)">
        <path id="Trazado_10931" data-name="Trazado 10931" d="M1462.434,615.131s-14.9,13.257-11.033,21.527c3.3,7.059,15,2.73,13.072-4.666A83.255,83.255,0,0,1,1462.434,615.131Z" transform="translate(-1450.761 -615.131)" fill="#16202e"/>
      </g>
      <g id="Grupo_10638" data-name="Grupo 10638" transform="translate(37.308 39.101)">
        <path id="Trazado_10932" data-name="Trazado 10932" d="M1503.2,597.428a10.528,10.528,0,0,0,10.133-1.158,6.521,6.521,0,0,1-5.067,3.275A4.993,4.993,0,0,1,1503.2,597.428Z" transform="translate(-1503.202 -596.27)" fill="#633029"/>
      </g>
    </g>
    <g id="Grupo_10648" data-name="Grupo 10648" transform="translate(1262.705 233.704)">
      <g id="Grupo_10640" data-name="Grupo 10640" transform="translate(0 46.367)">
        <path id="Trazado_10933" data-name="Trazado 10933" d="M1956.385,412.207s-4.941,18.6-5.972,22.787a34.826,34.826,0,0,1-2.555,5.932.641.641,0,0,1-.031.058,4.747,4.747,0,0,0-.462,1.511c-.2,1.551.4,2.773-.635,4.612l-.187.773h-9.781c1.142-3.39,2.591-7.705,3.75-11.18.973-2.933,1.742-5.266,1.946-5.941.6-2.017,2.822-8.55,4.706-12.887.657-1.511,3.19-3,5.434-4.084C1954.608,412.834,1956.385,412.207,1956.385,412.207Z" transform="translate(-1936.762 -412.207)" fill="#323657"/>
      </g>
      <g id="Grupo_10641" data-name="Grupo 10641" transform="translate(12.85)">
        <path id="Trazado_10934" data-name="Trazado 10934" d="M1986.46,253.507s-3.118-20.17,13.587-19.8,16.482,10.345,16.184,20.244-6.7,9.154.521,22.923-6.252,13.769-6.252,13.769l-10.453-14.365Z" transform="translate(-1986.23 -233.704)" fill="#fccca2"/>
      </g>
      <g id="Grupo_10642" data-name="Grupo 10642" transform="translate(13.043 1.705)">
        <path id="Trazado_10935" data-name="Trazado 10935" d="M1998.77,240.5s-11.313,1.786-11.76,17.862,3.051,19.5,12.951,16.151,13.024-20.17,13.248-22.775S2014.027,238.569,1998.77,240.5Z" transform="translate(-1986.973 -240.269)" fill="#eea886"/>
      </g>
      <g id="Grupo_10643" data-name="Grupo 10643" transform="translate(2.575 40.995)">
        <path id="Trazado_10936" data-name="Trazado 10936" d="M1988.807,408.388c.04,5.532-6.319,18.766-7.3,22.854-.115.476-.24.915-.365,1.329h-30.875c-.16-1.906-.311-3.537-.387-4.457-.244-3.022-3.306-9.532-3.2-12.562.107-3.089,1.622-5.755,3.742-9.052.657-1.022,1.35-2.062,2.039-3.075a58.491,58.491,0,0,1,5.595-7.323,17.927,17.927,0,0,1,2.253-1.8l0,0a10.4,10.4,0,0,1,2.32-1.222l9.723-1.555s6.061,2.2,9.55,3.008C1981.9,394.532,1988.705,395.528,1988.807,408.388Z" transform="translate(-1946.674 -391.524)" fill="#e55353"/>
      </g>
      <g id="Grupo_10644" data-name="Grupo 10644" transform="translate(5.374 43.772)">
        <path id="Trazado_10937" data-name="Trazado 10937" d="M1968.29,402.216l-5.636,8.882-5.2,8.2c.012-.044.359-1.285.947-4.88.112-.682.231-1.45.36-2.309a6.091,6.091,0,0,1,.164-.756h0c2.226-5.133,9.11-9,9.361-9.131Z" transform="translate(-1957.452 -402.216)" fill="#e55353"/>
      </g>
      <g id="Grupo_10645" data-name="Grupo 10645" transform="translate(17.856 28.475)">
        <path id="Trazado_10938" data-name="Trazado 10938" d="M2020.042,343.565c-.981,1.852-2.016,13.347-2.016,13.347s-13.837,5.23-12.421,2.272a11.307,11.307,0,0,0,.844-4.587,22.265,22.265,0,0,0-.153-2.792c-.036-.3-.064-.476-.064-.476S2021.022,341.712,2020.042,343.565Z" transform="translate(-2005.503 -343.328)" fill="#eea886"/>
      </g>
      <g id="Grupo_10646" data-name="Grupo 10646" transform="translate(13.08 1.434)">
        <path id="Trazado_10939" data-name="Trazado 10939" d="M1994.262,251.267s5.805,9.453,11.09,13.174,2.6,6.7,2.6,6.7,13.788-29.027.679-31.036-21.147-2.158-21.519,17.49C1987.117,257.594,1993.071,251.119,1994.262,251.267Z" transform="translate(-1987.117 -239.225)" fill="#fccca2"/>
      </g>
      <g id="Grupo_10647" data-name="Grupo 10647" transform="translate(18.648 35.768)">
        <path id="Trazado_10940" data-name="Trazado 10940" d="M2016.444,371.4c-2.124,3.133-7.736,3.976-7.736,3.976h0a22.254,22.254,0,0,0-.153-2.792C2012.159,373.281,2016.444,371.4,2016.444,371.4Z" transform="translate(-2008.554 -371.402)" fill="#a77860"/>
      </g>
      <path id="Trazado_10941" data-name="Trazado 10941" d="M1961.643,411.3h0a11.592,11.592,0,0,0-.547,3.126l2.038-3.076s3.64-5.219,4.887-6.576a20.707,20.707,0,0,1,2.96-2.546S1963.819,405.668,1961.643,411.3Z" transform="translate(-1954.775 -358.452)" fill="#ebeeff"/>
      <path id="Trazado_10942" data-name="Trazado 10942" d="M2060.211,419.95s8.881-3.483,11.509-3.686c0,0-1.787-14.261-10.51-12.75S2060.211,419.95,2060.211,419.95Z" transform="translate(-2025.809 -359.322)" fill="#e55353"/>
      <path id="Trazado_10943" data-name="Trazado 10943" d="M1994.507,392.993s-6.52,10.026-4.313,10.9,14.154-1.169,19.233-10.692C2009.427,393.2,2001.833,389.308,1994.507,392.993Z" transform="translate(-1975.977 -350.443)" fill="#eea886"/>
      <path id="Trazado_10944" data-name="Trazado 10944" d="M2046.841,409.348c-.453,7.861-2.684,15.317-4.524,22.161-.267.991-.524,1.973-.764,2.937h-18.082c-.044-2.711-.035-5.1.049-7.1.911-21.819,7.826-33.292,7.826-33.292s2.208.742,8.563,2.542c4.355,1.231,6,6.772,6.6,10.132a.292.292,0,0,1,.009.04A23.987,23.987,0,0,1,2046.841,409.348Z" transform="translate(-2000.928 -352.404)" fill="#323657"/>
      <path id="Trazado_10945" data-name="Trazado 10945" d="M1961.954,397.529a52.323,52.323,0,0,0-2.688,5.395,58.587,58.587,0,0,0-5.043,21.254,125.078,125.078,0,0,1-1.449,12.838h-3.608a57.3,57.3,0,0,0-1.986-11.18c-.493-1.755-.947-3.066-1.191-3.9-1.151-3.915,2.529-9.127,3.76-10.993S1953.934,400.515,1961.954,397.529Z" transform="translate(-1943.429 -354.975)" fill="#323657"/>
      <path id="Trazado_10946" data-name="Trazado 10946" d="M2076.225,440.9h-9.709a12.869,12.869,0,0,0-.573-2.937c-1.764-6.27-6.985-18.477-6.985-18.477s-7.812-12.766-.409-16.019,10.589,5.839,11.584,9.718a.291.291,0,0,1,.009.04C2070.386,414.153,2074.794,430.959,2076.225,440.9Z" transform="translate(-2024.554 -358.859)" fill="#323657"/>
    </g>
    <g id="Grupo_10680" data-name="Grupo 10680" transform="translate(1045.312 397.071)">
      <g id="Grupo_10649" data-name="Grupo 10649" transform="translate(109.808 94.503)">
        <path id="Trazado_10947" data-name="Trazado 10947" d="M1523.489,1232.637s3.393-.048,4.6-1.355a15.86,15.86,0,0,1,4.026-2.812c.915-.445,3.447-2.907,3.764-1.705s-4.031,4.251-4.859,5.074,3.613,1.182,4.264,1.98-1.614,9.2-4.573,8.55-5.382-3.635-5.942-3.628a15.729,15.729,0,0,1-2.185-.374Z" transform="translate(-1522.585 -1226.438)" fill="#eea886"/>
      </g>
      <g id="Grupo_10650" data-name="Grupo 10650" transform="translate(118.077 101.541)">
        <path id="Trazado_10948" data-name="Trazado 10948" d="M1558.222,1253.535s8.832,2.7,9.2,3.462.117,1.324-.724,1.112-8.646-2.313-8.646-2.313,9.652,5.277,10.087,5.805c.254.309-.169,1.413-.637,1.349s-10.4-4.622-10.4-4.622,9,4.947,9.225,5.536c.2.514-.407,1.462-1.105,1.151s-9.373-4.321-9.373-4.321,6.272,4.107,6.175,4.784c-.059.413-.388,1.378-1.968.256s-5.628-3.28-5.628-3.28Z" transform="translate(-1554.42 -1253.535)" fill="#eea886"/>
      </g>
      <g id="Grupo_10651" data-name="Grupo 10651" transform="translate(82.394 248.923)">
        <path id="Trazado_10949" data-name="Trazado 10949" d="M1426.785,1821.692s2.833,4.239,6.808,5.155,7.889,2.372,7.919,4.88-11.491,4-16.039,1.476c-6.788-3.773-7.478-2.636-8.231-4.522s.9-6.931.855-7.53C1418.037,1820.408,1426.785,1821.692,1426.785,1821.692Z" transform="translate(-1417.046 -1820.919)" fill="#353a3d"/>
      </g>
      <g id="Grupo_10652" data-name="Grupo 10652" transform="translate(83.439 246.373)">
        <path id="Trazado_10950" data-name="Trazado 10950" d="M1429.325,1812.334a18.126,18.126,0,0,1,.44,2.091c-.077.043-8.956,1.1-8.688-.542.218-1.333.529-2.781.529-2.781Z" transform="translate(-1421.071 -1811.102)" fill="#81807e"/>
      </g>
      <g id="Grupo_10653" data-name="Grupo 10653" transform="translate(26.668 248.363)">
        <path id="Trazado_10951" data-name="Trazado 10951" d="M1212.223,1819.815s2.021,4.055,5.474,5.436c3.691,1.477,6.651,3.174,6.584,5.617s-9.023,4.92-15.539.23c-4.116-2.964-5.421-2.978-6.082-4.844s1.147-6.715,1.122-7.3C1203.752,1818.229,1212.223,1819.815,1212.223,1819.815Z" transform="translate(-1202.515 -1818.764)" fill="#353a3d"/>
      </g>
      <g id="Grupo_10654" data-name="Grupo 10654" transform="translate(27.931 245.732)">
        <path id="Trazado_10952" data-name="Trazado 10952" d="M1215.924,1810.213a19.87,19.87,0,0,1-.1,2.105c-.077.039-8.659.747-8.44-.862a13.216,13.216,0,0,1,.833-2.82Z" transform="translate(-1207.378 -1808.637)" fill="#81807e"/>
      </g>
      <g id="Grupo_10655" data-name="Grupo 10655" transform="translate(24.605 114.017)">
        <path id="Trazado_10953" data-name="Trazado 10953" d="M1237.909,1310.987s11.272,43.182,15.563,53.165c3.976,9.249,5.288,22.184,5.836,28.681.688,8.171,4.787,39.993,5.269,42.382s-13.26,1.321-13.26,1.321-9.475-55.019-13.409-63.048c-2.625-5.358-17.856-43.782-19.6-41.57s-3.9,40.712-5.195,47.1-5.254,56.889-5.254,56.889-8.86,1.307-11.226-.7c0,0-1.077-43.119-.255-55.1.314-4.566-5.35-54.751,1.912-74.954C1202.13,1294.483,1237.909,1310.987,1237.909,1310.987Z" transform="translate(-1194.572 -1301.564)" fill="#2d3133"/>
      </g>
      <g id="Grupo_10656" data-name="Grupo 10656" transform="translate(5.16 41.708)">
        <path id="Trazado_10954" data-name="Trazado 10954" d="M1119.714,1073.957c0,.494.932,2.469,2.421,5.311,2.177-4.354,3.887-7.93,4.446-9.245,1.834-4.333,11.288-14.264,11.288-14.264a.077.077,0,0,0,0,.021.036.036,0,0,0,0,.012.026.026,0,0,1,0,.011.4.4,0,0,1,.011.041c.007.024.014.051.023.085a.522.522,0,0,1,.014.052.363.363,0,0,1,.011.04c.515,1.917,3.676,13.9,3.792,19.807.129,6.427,1.805,18.318,1.805,18.318h.007l1.974.277,4.367.616.524.073,1.271.178,11.582,1.63,4.107.578.555.079,2.348.33,6.484.912,1.653.232.015,0,1.237.174,1.713.24h0c.047-.064,1.666-2.279,1.416-7.2-.159-3.177-.541-9.147-.383-14.684,0-.029,0-.058,0-.085,0-.071,0-.14.006-.21,0-.025,0-.047,0-.07v-.013a39.525,39.525,0,0,1,.937-8.117,33.606,33.606,0,0,0,.8-4.327c.009-.068.017-.134.025-.2.029-.256.057-.509.08-.757a38.213,38.213,0,0,0,.061-6.937l.007.014c.117.255.963,3.354,2.071,7.178,1.873,6.465,4.495,15.008,5.612,15.418,1.624.6,27.938,8.391,33.62,9.19.657.092,1.039.091,1.074-.025.026-.083.052-.168.079-.257.69-2.276,1.639-6.145,1.791-6.77.015-.056.022-.087.022-.087l-1.018-.305-28.631-8.58-13.089-37.744c-.273-.219-3.487-1.775-5.835-2.891-2.394-1.14-5.28-2.813-7.894-4.246-1.333-.729-2.594-1.395-3.684-1.895l-.167-.076v0c-1.8-.824-3-1.37-3-1.37h-.006l-.783-.074c-2.514-.239-10.326-.971-12.943-1.125-.216-.014-.4-.022-.536-.025-.12,0-.208-.005-.264,0a32.643,32.643,0,0,0-4.058,1.387h0l-.242.092-.3.113-.559.216c-.379.147-.768.3-1.163.455l-.413.163c-4.235,1.681-9.087,3.758-10.241,4.587-.761.545-3.134,5.018-5.885,10.548-3.543,11.35-8.033,28.723-8.172,33.007C1119.715,1073.831,1119.714,1073.9,1119.714,1073.957Z" transform="translate(-1119.714 -1023.191)" fill="#decbc4"/>
      </g>
      <g id="Grupo_10657" data-name="Grupo 10657" transform="translate(28.314 112.662)">
        <path id="Trazado_10955" data-name="Trazado 10955" d="M1247.358,1301.669s.871,1.043,1.123,5.457c0,0-35.829-4.18-39.617-5.827,0,0-.148-4.865.656-4.949C1210.4,1296.257,1247.358,1301.669,1247.358,1301.669Z" transform="translate(-1208.854 -1296.349)" fill="#495055"/>
      </g>
      <g id="Grupo_10658" data-name="Grupo 10658" transform="translate(36.264 27.662)">
        <path id="Trazado_10956" data-name="Trazado 10956" d="M1239.459,981.951c.111,5.623,11,8.7,11,8.7s4.554-5.709,3.466-6.256c-.427-.215-.6-1.067-.654-2.022a19.73,19.73,0,0,1,.062-2.551c.032-.4.063-.653.063-.653s-1.555-1.642-3.535-3.6c-3.458-3.42-8.212-7.8-8.22-6.057a1.531,1.531,0,0,0,.04.331C1242.517,973.766,1239.459,981.951,1239.459,981.951Z" transform="translate(-1239.459 -969.119)" fill="#eea886"/>
      </g>
      <g id="Grupo_10659" data-name="Grupo 10659" transform="translate(34.66 113.32)">
        <path id="Trazado_10957" data-name="Trazado 10957" d="M1235.79,1299.087s-.782,4.932-.85,6.217l-1.657-.33s.457-5.218.725-6.092Z" transform="translate(-1233.283 -1298.881)" fill="#353a3d"/>
      </g>
      <g id="Grupo_10660" data-name="Grupo 10660" transform="translate(62.159 117.173)">
        <path id="Trazado_10958" data-name="Trazado 10958" d="M1340.819,1313.949s.628,4.483.643,6.176l-1.754-.228s-.359-5.6-.56-6.182Z" transform="translate(-1339.149 -1313.714)" fill="#353a3d"/>
      </g>
      <g id="Grupo_10661" data-name="Grupo 10661" transform="translate(40.458 32.256)">
        <path id="Trazado_10959" data-name="Trazado 10959" d="M1255.6,986.8h0c.021.033.483.724,1.271,1.715,1.671,2.1,4.813,5.556,8.346,6.944a19.775,19.775,0,0,1,.062-2.551,5.664,5.664,0,0,0,1.081-.13,33.483,33.483,0,0,0-2.367-3.466l-2.186-.654Z" transform="translate(-1255.602 -986.803)" fill="#a77860"/>
      </g>
      <g id="Grupo_10662" data-name="Grupo 10662" transform="translate(34.66 9.236)">
        <path id="Trazado_10960" data-name="Trazado 10960" d="M1236.991,917.08c.942,2.049,1.836,3.534,2.09,4.122h0a7.282,7.282,0,0,0,1.271,1.715c1.794,1.933,5.129,4.483,8.408,4.393a5.655,5.655,0,0,0,1.081-.13,5.144,5.144,0,0,0,3.747-2.589c6.792-13.3,1.875-24.173,1.875-24.173s-18.572-5.252-21.478.339C1231.947,904.68,1234.778,912.266,1236.991,917.08Z" transform="translate(-1233.283 -898.183)" fill="#eea886"/>
      </g>
      <g id="Grupo_10663" data-name="Grupo 10663" transform="translate(31.878)">
        <path id="Trazado_10961" data-name="Trazado 10961" d="M1247.535,874.1s1.725-.1,2.151-3.365c.421-3.231-.431-4.126-.431-4.126s-7.667-3.21-10.42-3.627-9.524-.818-11.111,1c0,0-3.856-.9-4.906,5.505-1.667,10.155,5.679,20.015,5.679,20.015s-.062-6.634,1.4-7.513,2.726,1.212,2.726,1.212l2.993.536s-4.546-9.815.907-10.178S1244.413,874.668,1247.535,874.1Z" transform="translate(-1222.572 -862.625)" fill="#252e3b"/>
      </g>
      <g id="Grupo_10664" data-name="Grupo 10664" transform="translate(36.613 15.125)">
        <path id="Trazado_10962" data-name="Trazado 10962" d="M1246.036,923.654c-.285-2.923-5.57-4.039-5.216-.975s2.957,6.007,4.159,5.9S1246.253,925.882,1246.036,923.654Z" transform="translate(-1240.802 -920.855)" fill="#eea886"/>
      </g>
      <g id="Grupo_10665" data-name="Grupo 10665" transform="translate(5.16 43.097)">
        <path id="Trazado_10963" data-name="Trazado 10963" d="M1122.135,1083.227c2.3,4.392,5.935,10.855,9.522,17.121-.472.881-.934,1.755-1.376,2.619a52.427,52.427,0,0,0-2.716,6.058c-.818,2.29-1.955,8.156.221,9.246l11.462,6.326s.08-.224.232-.638c.38-1.029,1.2-3.231,2.343-6.083.037-.093.152-.365.322-.765.228-.538.557-1.306.932-2.183.169-.392.346-.806.529-1.232.207-.486.423-.988.636-1.486l.91-2.118c.782-1.82,1.392-3.237,1.392-3.237.039-.084.078-.167.116-.252q.56-1.209,1.145-2.422c.6-1.25,1.222-2.494,1.856-3.711.064-.124.127-.247.192-.37.113-.214.227-.428.34-.639l.211-.388.047-.087c.029-.051.056-.1.085-.154,3.313-6.044,7.046-11.1,8.236-18.509q.172-1.073.327-2.133c.173-1.177.331-2.339.477-3.477.054-.431.108-.856.159-1.279.6-4.945.953-9.351,1.24-12.42.9-9.561-4.96-19.913-9.456-26.309a70.846,70.846,0,0,0-4.807-6.142c-.01-.008-.016-.017-.023-.023l-.242.092-.3.113-.559.216c-.379.148-.768.3-1.163.456l-.413.163c-4.354,1.707-13.522,4.229-14.676,5.057-.666.476-2.156,4.84-3.875,10.35-3.543,11.35-5.646,28.462-5.747,32.736,0,.068,0,.133,0,.193C1119.714,1078.41,1120.646,1080.386,1122.135,1083.227Zm17.416-2.135a19.78,19.78,0,0,1-1.76,7.177c-.028.065-.054.131-.082.2-.735-1.568-1.427-3.069-2.047-4.46a.015.015,0,0,1,0-.007c-1.706-3.818-2.877-6.8-2.942-7.974-.421-7.57,5.155-16.285,5.155-16.285a.037.037,0,0,0,0,.013.026.026,0,0,1,0,.011.4.4,0,0,1,.011.041c.009.028.017.055.023.085a.53.53,0,0,1,.014.052.363.363,0,0,1,.011.04C1139.08,1064.481,1139.551,1081.092,1139.551,1081.092Z" transform="translate(-1119.714 -1028.54)" fill="#3c4145"/>
      </g>
      <path id="Trazado_10964" data-name="Trazado 10964" d="M1146.617,1263.424l-32.67,14.541a3.663,3.663,0,0,1-4.836-1.857l-8.944-20.094a3.663,3.663,0,0,1,1.857-4.836l32.67-14.541a3.663,3.663,0,0,1,4.836,1.857l8.944,20.094A3.663,3.663,0,0,1,1146.617,1263.424Z" transform="translate(-1099.85 -1139.25)" fill="#b3a5a0"/>
      <g id="Grupo_10666" data-name="Grupo 10666" transform="translate(53.812 44.383)">
        <path id="Trazado_10965" data-name="Trazado 10965" d="M1307.014,1033.558s1.532,5.1,3.514,17.833a.005.005,0,0,0,0,0c.068.428.134.863.2,1.308.007.051.015.1.023.155.045.294.09.592.134.9.005.036.011.071.017.106.03.2.061.407.09.614q.112.755.224,1.537c.884,6.2,2.124,16.745,3.316,27.393v0c.942,8.393,3.089,17,3.771,23.431,0,0,0,.008,0,.013a44.372,44.372,0,0,0,.892,4.832c.048.214.1.431.151.65,1.92,8.112,5.648,19.594,5.648,19.594l1.086-1,3.216-2.968a2.607,2.607,0,0,0,.722-2.69c-1.783-5.753-7.844-26.112-8.955-40.427a.045.045,0,0,1,0-.013c.546-5.03,1.938-11.779,1.729-12.75.014.035.026.069.038.105.638,1.775,1.345,3.7,2.058,5.583h0c1.913,5.044,3.87,9.718,4.685,10.017,1.813.667,34.388,10.277,34.624,8.936q.035-.2.083-.431c.029-.149.062-.307.1-.471.4-1.836,1.133-4.468,1.643-6.246l.21-.726c.214-.736.354-1.2.354-1.2l-27.547-9.042-13.9-36.348c-.274-.217-3.82-2.126-6.168-3.243-2.445-1.164-5.539-2.6-8.283-3.867-1.311-.606-2.546-1.172-3.588-1.652Z" transform="translate(-1307.014 -1033.49)" fill="#3c4145"/>
      </g>
      <g id="Grupo_10667" data-name="Grupo 10667" transform="translate(29.874 43.097)">
        <path id="Trazado_10966" data-name="Trazado 10966" d="M1220.143,1042.493l5.3,2.987-2.263,2.308,6.026,32.533c1.228-7.626,1.788-14.867,2.2-19.308,1.385-14.781-13.368-31.454-14.285-32.475-.708.269-1.474.566-2.265.878Z" transform="translate(-1214.856 -1028.537)" fill="#51565c"/>
      </g>
      <g id="Grupo_10668" data-name="Grupo 10668" transform="translate(53.73 44.308)">
        <path id="Trazado_10967" data-name="Trazado 10967" d="M1306.7,1033.2s1.979,6.463,4.285,22.6c.885,6.2,2.125,16.745,3.318,27.392l1.233-30.468-2.523-2.734,2.243-2.8-4.8-12.255c-1.311-.606-2.545-1.173-3.589-1.652Z" transform="translate(-1306.699 -1033.199)" fill="#51565c"/>
      </g>
      <g id="Grupo_10669" data-name="Grupo 10669" transform="translate(31.843 40.495)">
        <path id="Trazado_10968" data-name="Trazado 10968" d="M1222.438,1021.235l4.421-2.714s.123,2.408,11,8.7l-3.089,8.7Z" transform="translate(-1222.438 -1018.521)" fill="#f5e2d9"/>
      </g>
      <g id="Grupo_10670" data-name="Grupo 10670" transform="translate(47.263 41.708)">
        <path id="Trazado_10969" data-name="Trazado 10969" d="M1284.695,1023.192s-.171,2.6-2.893,7.486l6.028,7.858.439-12.745Z" transform="translate(-1281.802 -1023.192)" fill="#f5e2d9"/>
      </g>
      <g id="Grupo_10671" data-name="Grupo 10671" transform="translate(46.408 49.194)">
        <path id="Trazado_10970" data-name="Trazado 10970" d="M1279.348,1052.011s-1.168,4.673-.748,5.981c0,0,2.569.935,4.415-.233A20.533,20.533,0,0,0,1279.348,1052.011Z" transform="translate(-1278.509 -1052.011)" fill="#faa146"/>
      </g>
      <g id="Grupo_10673" data-name="Grupo 10673" transform="translate(52.731 102.991)">
        <g id="Grupo_10672" data-name="Grupo 10672">
          <path id="Trazado_10971" data-name="Trazado 10971" d="M1303.407,1272.71c.654-3.3.032-13.176,0-13.595l-.559.036c.006.1.644,10.225,0,13.45Z" transform="translate(-1302.852 -1259.115)" fill="#ad9f99"/>
        </g>
      </g>
      <g id="Grupo_10674" data-name="Grupo 10674" transform="translate(48.595 115.066)">
        <path id="Trazado_10972" data-name="Trazado 10972" d="M1287.046,1305.6s5.272.629,7.015,1.064l-.228,5.909-6.9-.737Z" transform="translate(-1286.929 -1305.601)" fill="#69737a"/>
      </g>
      <g id="Grupo_10675" data-name="Grupo 10675" transform="translate(46.937 53.867)">
        <path id="Trazado_10973" data-name="Trazado 10973" d="M1283.474,1070.654s5.88,14.849,4.921,31.469c-.995,17.233-2.626,23.48-2.626,23.48l-3.626,4.547-1.6-5.589s4.865-21.97,1.724-43.348c-.569-3.874-1.414-11.214-1.414-11.214Z" transform="translate(-1280.545 -1070)" fill="#faa146"/>
      </g>
      <g id="Grupo_10676" data-name="Grupo 10676" transform="translate(26.466 124.624)">
        <path id="Trazado_10974" data-name="Trazado 10974" d="M1207.468,1342.421s1.262,2.523,2.524,2.944a10.929,10.929,0,0,1,3.1,2.47l-8.884,4.679s-2.365-4.626-2.471-7.57S1207.468,1342.421,1207.468,1342.421Z" transform="translate(-1201.737 -1342.4)" fill="#eea886"/>
      </g>
      <g id="Grupo_10677" data-name="Grupo 10677" transform="translate(25.944 124.882)">
        <path id="Trazado_10975" data-name="Trazado 10975" d="M1206.824,1343.392l.588,1.183s-5.642,4.126-7.163,4.39l-.522-1.578Z" transform="translate(-1199.727 -1343.392)" fill="#decbc4"/>
      </g>
      <g id="Grupo_10678" data-name="Grupo 10678" transform="translate(9.876 96.483)">
        <path id="Trazado_10976" data-name="Trazado 10976" d="M1161.622,1262.512a43.306,43.306,0,0,1-7.791,5.109l-15.962-27.989,10.188-5.571S1161.342,1260.409,1161.622,1262.512Z" transform="translate(-1137.869 -1234.061)" fill="#3c4145"/>
      </g>
      <g id="Grupo_10679" data-name="Grupo 10679" transform="translate(68.047 65.53)">
        <path id="Trazado_10977" data-name="Trazado 10977" d="M1363.193,1124.808c.2,3.987.167,7.529.167,7.529v0c0,.019.005.127.014.305l.025-.2c.638,1.775,1.345,3.7,2.058,5.583a59.776,59.776,0,0,0,.16-6.084c-.286-11.181-3.8-17.045-3.8-17.045C1362.622,1116.848,1363.008,1121.029,1363.193,1124.808Z" transform="translate(-1361.815 -1114.899)" fill="#2d3133"/>
      </g>
    </g>
    <g id="Grupo_10723" data-name="Grupo 10723" transform="translate(1173.404 397.769)">
      <g id="Grupo_10681" data-name="Grupo 10681" transform="translate(79.982 29.029)">
        <path id="Trazado_10978" data-name="Trazado 10978" d="M1900.943,985.919a13.166,13.166,0,0,1,.075-3.014c.418-1.656-.2-4.338,1.885-5.639s8.071,4.148,8.542,5.67-1.768,4.117-6.45,6.3S1900.943,985.919,1900.943,985.919Z" transform="translate(-1900.888 -977.067)" fill="#eea886"/>
      </g>
      <g id="Grupo_10682" data-name="Grupo 10682" transform="translate(81.361 18.341)">
        <path id="Trazado_10979" data-name="Trazado 10979" d="M1906.2,947.348a70.811,70.811,0,0,1,4.69-6.15c2.341-2.727,5.628-5.785,6.321-5.2,1.053.882-1.929,3.081-4.066,5.941-1.968,2.633-1.134,2.447-1.134,2.447s-.24.04,2.469-2.409c2.914-2.633,6.153-5.34,6.73-4.875.715.576.756.708-.143,1.838.658-.537.9-.432,1.154-.178,1.312,1.317-2.358,5.857-3.815,7.66,1.128-1.378,2.106-2.267,2.388-.942.322,1.516-5.159,7.7-6.907,10.1C1911.977,958.2,1906.2,947.348,1906.2,947.348Z" transform="translate(-1906.196 -935.922)" fill="#eea886"/>
      </g>
      <g id="Grupo_10686" data-name="Grupo 10686" transform="translate(0 247.512)">
        <g id="Grupo_10685" data-name="Grupo 10685">
          <g id="Grupo_10684" data-name="Grupo 10684">
            <g id="Grupo_10683" data-name="Grupo 10683">
              <path id="Trazado_10980" data-name="Trazado 10980" d="M1604.3,1818.891s5.7,3.369,8.278,4.621,12.605,1.611,13.6,2.552.628,3.938-1.034,4.244-13.846,1.408-17.911.457-11.669.649-13.353.077-.6-9.649.053-11.687S1604.3,1818.891,1604.3,1818.891Z" transform="translate(-1592.975 -1818.175)" fill="#181929"/>
            </g>
          </g>
        </g>
      </g>
      <g id="Grupo_10690" data-name="Grupo 10690" transform="translate(1.394 244.516)">
        <g id="Grupo_10689" data-name="Grupo 10689">
          <g id="Grupo_10688" data-name="Grupo 10688">
            <g id="Grupo_10687" data-name="Grupo 10687">
              <path id="Trazado_10981" data-name="Trazado 10981" d="M1608.744,1806.641l-.474,3.711s-7.618,1.425-9.927.251l.572-3.856Z" transform="translate(-1598.343 -1806.641)" fill="#22243b"/>
            </g>
          </g>
        </g>
      </g>
      <g id="Grupo_10691" data-name="Grupo 10691" transform="translate(0.001 101.494)">
        <path id="Trazado_10982" data-name="Trazado 10982" d="M1635.334,1272.286c-.081,2.57-.549,8.147-1.095,14-.122,1.3-.249,2.617-.375,3.916-.76,7.881-1.527,15.17-1.527,15.17-.962,6.273-2.947,17.165-5.166,25.4v0c-.641,2.376-1.3,4.531-1.959,6.291a15.526,15.526,0,0,1-1.914,3.85c-4.721,6.03-15.545,59.494-15.545,59.494l-14.776-.113s3.25-36.2,6.516-45.378c3.644-10.249,9.974-24.061,8.4-33.945-.984-6.2-2.253-25.947-2.253-25.947s-1.235-22.186,4.568-38.436C1611.658,1252.531,1635.334,1272.286,1635.334,1272.286Z" transform="translate(-1592.977 -1256.042)" fill="#292c47"/>
      </g>
      <g id="Grupo_10695" data-name="Grupo 10695" transform="translate(41.423 248.816)">
        <g id="Grupo_10694" data-name="Grupo 10694">
          <g id="Grupo_10693" data-name="Grupo 10693">
            <g id="Grupo_10692" data-name="Grupo 10692">
              <path id="Trazado_10983" data-name="Trazado 10983" d="M1763.864,1824s5.658,3.437,8.222,4.72,12.585,1.762,13.564,2.715.581,3.945-1.085,4.231-13.862,1.242-17.916.242-11.676.51-13.353-.083-.482-9.656.194-11.685S1763.864,1824,1763.864,1824Z" transform="translate(-1752.443 -1823.197)" fill="#181929"/>
            </g>
          </g>
        </g>
      </g>
      <g id="Grupo_10699" data-name="Grupo 10699" transform="translate(42.915 245.899)">
        <g id="Grupo_10698" data-name="Grupo 10698">
          <g id="Grupo_10697" data-name="Grupo 10697">
            <g id="Grupo_10696" data-name="Grupo 10696">
              <path id="Trazado_10984" data-name="Trazado 10984" d="M1768.635,1811.976l-.519,3.7s-7.635,1.333-9.929.132l.618-3.849Z" transform="translate(-1758.187 -1811.964)" fill="#22243b"/>
            </g>
          </g>
        </g>
      </g>
      <g id="Grupo_10700" data-name="Grupo 10700" transform="translate(20.777 103.31)">
        <path id="Trazado_10985" data-name="Trazado 10985" d="M1687.885,1352.617c-.384-11.824-1.429-19.68-4.472-26.511-2.555-5.737-4.742-23.753-4.742-23.753s-6.925-21.111-5.522-38.31c.351-4.3,27.118,6.5,27.118,6.5a158.333,158.333,0,0,1,3.011,16.23c3.624,33.4,2.268,55.152,2.268,55.152-2.07,7.374,3.16,65.393,3.16,65.393h-15.065s-3.95-20.64-4.365-33.476C1689.277,1373.846,1687.737,1354.662,1687.885,1352.617Z" transform="translate(-1672.962 -1263.033)" fill="#292c47"/>
      </g>
      <g id="Grupo_10702" data-name="Grupo 10702" transform="translate(12.575 37)">
        <g id="Grupo_10701" data-name="Grupo 10701">
          <path id="Trazado_10986" data-name="Trazado 10986" d="M1664.174,1010.642s7.02,11.508,9.072,17.929.4,25.092.761,28.844c1.124,11.643,2.762,24.46,2.762,24.46l-23.531,15.031a232.693,232.693,0,0,1-7.906-22.15,103.31,103.31,0,0,1-3.945-30.733c.108-23.181,12.638-36.27,12.638-36.27Z" transform="translate(-1641.384 -1007.753)" fill="#cfbeb6"/>
        </g>
      </g>
      <g id="Grupo_10704" data-name="Grupo 10704" transform="translate(20.548 4.515)">
        <g id="Grupo_10703" data-name="Grupo 10703">
          <path id="Trazado_10987" data-name="Trazado 10987" d="M1695.546,887.2s4.825,5.164,3.462,6.522c-1.126,1.122,3.31,6.268,3.941,7.133s-1.97,2.3-2.4,3.074-.176,8.875-2.409,9.708-13.51-.048-17.093-2.235-9.361-14.8-8.946-20.863S1687.06,878.2,1695.546,887.2Z" transform="translate(-1672.082 -882.695)" fill="#eea886"/>
        </g>
      </g>
      <g id="Grupo_10706" data-name="Grupo 10706" transform="translate(26.573 13.279)">
        <g id="Grupo_10705" data-name="Grupo 10705">
          <path id="Trazado_10988" data-name="Trazado 10988" d="M1708.15,936.862s-.083.688-.193,1.755c-.042.448-.1.956-.145,1.514-.028.33-.055.681-.09,1.039-.007.1-.021.193-.027.289-.014.165-.028.33-.042.5-.055.777-.11,1.583-.151,2.381a25.088,25.088,0,0,0,.1,5.12c.592,3-12.333-9.663-12.333-9.663a147.934,147.934,0,0,0,.564-20.86C1695.3,907.9,1708.15,936.862,1708.15,936.862Z" transform="translate(-1695.273 -916.432)" fill="#eea886"/>
        </g>
      </g>
      <g id="Grupo_10708" data-name="Grupo 10708" transform="translate(18.491)">
        <g id="Grupo_10707" data-name="Grupo 10707">
          <path id="Trazado_10989" data-name="Trazado 10989" d="M1690.672,875.468s2.282-5.385-4.757-9.123c-8.287-4.4-17.074,6.648-18.24,7.3s-6.464,6.613-1.279,14.517c6.543,9.974,6.2,9.639,6.2,9.639s.656-7.357.613-8.777c-.079-2.595,6.728-2.9,6.728-2.9s-2.8-3.721.312-5.389S1686.989,875.1,1690.672,875.468Z" transform="translate(-1664.16 -865.313)" fill="#3a3f47"/>
        </g>
      </g>
      <g id="Grupo_10710" data-name="Grupo 10710" transform="translate(25.52 17.706)">
        <g id="Grupo_10709" data-name="Grupo 10709">
          <path id="Trazado_10990" data-name="Trazado 10990" d="M1696.392,935.636c-.5-.7-2.313-3.77-4.652-1.07s3.932,7.745,4.45,7.7S1700.561,941.494,1696.392,935.636Z" transform="translate(-1691.22 -933.475)" fill="#eea886"/>
        </g>
      </g>
      <g id="Grupo_10711" data-name="Grupo 10711" transform="translate(13.434 109.752)">
        <path id="Trazado_10991" data-name="Trazado 10991" d="M1680.5,1294.161s-1.171-5.505-1.4-6.328l-34.413,5.726.353,4.448S1669.839,1296.522,1680.5,1294.161Z" transform="translate(-1644.692 -1287.832)" fill="#23263d"/>
      </g>
      <g id="Grupo_10712" data-name="Grupo 10712" transform="translate(7.347 91.828)">
        <path id="Trazado_10992" data-name="Trazado 10992" d="M1624.283,1218.827a104.066,104.066,0,0,1-2.993,49.466c-1.011,3.251,22.918-.506,22.918-.506Z" transform="translate(-1621.259 -1218.827)" fill="#faa146"/>
      </g>
      <g id="Grupo_10714" data-name="Grupo 10714" transform="translate(8.947 37.001)">
        <g id="Grupo_10713" data-name="Grupo 10713">
          <path id="Trazado_10993" data-name="Trazado 10993" d="M1659.241,1109.872s-17,3.73-21.771,2.044c0,0-6.947-25.27-9.369-50.919-.188-1.983-.347-3.965-.475-5.937v0c-1.352-20.866,3.959-42.035,16.06-47.3.341.23,17.385,15.257,17.061,29.011q-.035,1.4-.042,2.8c-.011,1.691,0,3.386.038,5.077l0,0c.109,5.232.432,10.451.894,15.519.047.528.1,1.057.149,1.58q.125,1.278.26,2.539.182,1.68.379,3.33A113.513,113.513,0,0,1,1659.241,1109.872Z" transform="translate(-1627.42 -1007.757)" fill="#faa146"/>
        </g>
      </g>
      <g id="Grupo_10715" data-name="Grupo 10715" transform="translate(40.07 49.69)">
        <path id="Trazado_10994" data-name="Trazado 10994" d="M1747.235,1056.857a189.048,189.048,0,0,1,4.423,28.625c1.021,13.344,2.385,22.781,2.385,22.781l2.043,6.606.84-6.371s-.75-17.222-1.749-24.227c-1.008-7.063-1.448-16.031-7.094-27.663Z" transform="translate(-1747.235 -1056.608)" fill="#d44040"/>
      </g>
      <g id="Grupo_10716" data-name="Grupo 10716" transform="translate(39.181 45.922)">
        <path id="Trazado_10995" data-name="Trazado 10995" d="M1744.343,1046.126a1.9,1.9,0,0,0,.932.451c.546.081,1.328-.792-1.464-4.477Z" transform="translate(-1743.811 -1042.1)" fill="#d44040"/>
      </g>
      <g id="Grupo_10718" data-name="Grupo 10718" transform="translate(25.215 35.095)">
        <g id="Grupo_10717" data-name="Grupo 10717">
          <path id="Trazado_10996" data-name="Trazado 10996" d="M1691.553,1000.42s7.914,7.453,12.624,9.1l.9,7.14-15.031-14.333Z" transform="translate(-1690.045 -1000.42)" fill="#eddad3"/>
        </g>
      </g>
      <g id="Grupo_10719" data-name="Grupo 10719" transform="translate(18.822 35.272)">
        <path id="Trazado_10997" data-name="Trazado 10997" d="M1678.648,1029.781c-3.119-1.109-16.084-7.4-12.636-14.749s12.337-3.439,19.029-.45c7,3.128,23.528,12.737,24.836,11.842s7.025-9.076,8.058-10.9,7.273-13.476,7.861-14.354c.574-.858,9.639,6.754,9.639,6.754s-16.276,28.9-20.655,33.507S1678.648,1029.781,1678.648,1029.781Z" transform="translate(-1665.434 -1001.102)" fill="#faa146"/>
      </g>
      <g id="Grupo_10720" data-name="Grupo 10720" transform="translate(27.08 151.776)">
        <path id="Trazado_10998" data-name="Trazado 10998" d="M1704.343,1474.065v0c-.641,2.376-1.3,4.531-1.959,6.29l0,0-5.153-30.742C1698.531,1452.528,1704.343,1474.065,1704.343,1474.065Z" transform="translate(-1697.228 -1449.613)" fill="#181929"/>
      </g>
      <g id="Grupo_10721" data-name="Grupo 10721" transform="translate(27.357 61.709)">
        <path id="Trazado_10999" data-name="Trazado 10999" d="M1713.207,1115.057l-14.913-12.181c3.95,2.117,13.658,6.55,14.874,7.1C1713.157,1111.67,1713.17,1113.366,1713.207,1115.057Z" transform="translate(-1698.294 -1102.876)" fill="#8f5c28"/>
      </g>
      <g id="Grupo_10722" data-name="Grupo 10722" transform="translate(30.028 33.509)">
        <path id="Trazado_11000" data-name="Trazado 11000" d="M1717.8,996.27c-.041.448-.1.956-.144,1.514-.028.33-.055.681-.09,1.039-4.941-.331-8.761-4.267-8.995-4.508C1710.583,995.912,1717.8,996.27,1717.8,996.27Z" transform="translate(-1708.574 -994.316)" fill="#a77860"/>
      </g>
    </g>
    <g id="Grupo_10724" data-name="Grupo 10724" transform="translate(1143.499 455.447)">
      <path id="Trazado_11001" data-name="Trazado 11001" d="M1507.466,1096.282h14.054l-4.3-8.922h-14.054Z" transform="translate(-1496.588 -1087.36)" fill="url(#linear-gradient)"/>
      <path id="Trazado_11002" data-name="Trazado 11002" d="M1482.148,1096.282h3.349l-4.3-8.922h-3.349Z" transform="translate(-1477.847 -1087.36)" fill="url(#linear-gradient)"/>
    </g>
  </g>
</svg>
