<svg xmlns="http://www.w3.org/2000/svg" width="416.317" height="338.765" viewBox="0 0 416.317 338.765">
  <g id="Grupo_10639" data-name="Grupo 10639" transform="translate(-1365.592 -125.053)">
    <g id="Grupo_10592" data-name="Grupo 10592" transform="translate(1601.81 452.927)">
      <path id="Trazado_10420" data-name="Trazado 10420" d="M1739.5,645.047h0Z" transform="translate(-1739.504 -644.415)" fill="#ddd6ff"/>
      <rect id="Rectángulo_2748" data-name="Rectángulo 2748" width="180.099" height="1.263" transform="translate(0)" fill="#c4b8ff"/>
    </g>
    <g id="Grupo_10594" data-name="Grupo 10594" transform="translate(1570.984 462.554)">
      <path id="Trazado_10422" data-name="Trazado 10422" d="M1690.709,660.287h0Z" transform="translate(-1690.709 -659.655)" fill="#ddd6ff"/>
      <rect id="Rectángulo_2750" data-name="Rectángulo 2750" width="143.333" height="1.263" transform="translate(0)" fill="#c4b8ff"/>
    </g>
    <g id="Grupo_10595" data-name="Grupo 10595" transform="translate(1463.138 462.554)">
      <path id="Trazado_10423" data-name="Trazado 10423" d="M1520,660.287h0Z" transform="translate(-1519.999 -659.655)" fill="#ddd6ff"/>
      <rect id="Rectángulo_2751" data-name="Rectángulo 2751" width="21.291" height="1.263" fill="#c4b8ff"/>
    </g>
    <g id="Grupo_10596" data-name="Grupo 10596" transform="translate(1490.722 462.554)">
      <path id="Trazado_10424" data-name="Trazado 10424" d="M1563.662,660.287h0Z" transform="translate(-1563.662 -659.655)" fill="#ddd6ff"/>
      <rect id="Rectángulo_2752" data-name="Rectángulo 2752" width="6.431" height="1.263" fill="#c4b8ff"/>
    </g>
    <g id="Grupo_10598" data-name="Grupo 10598" transform="translate(1531.886 452.927)">
      <path id="Trazado_10426" data-name="Trazado 10426" d="M1628.82,645.047h0Z" transform="translate(-1628.82 -644.415)" fill="#ddd6ff"/>
      <rect id="Rectángulo_2754" data-name="Rectángulo 2754" width="55.519" height="1.263" transform="translate(0)" fill="#c4b8ff"/>
    </g>
    <g id="Grupo_10599" data-name="Grupo 10599" transform="translate(1422.879 452.927)">
      <path id="Trazado_10427" data-name="Trazado 10427" d="M1456.272,645.047h0Z" transform="translate(-1456.272 -644.415)" fill="#ddd6ff"/>
      <rect id="Rectángulo_2755" data-name="Rectángulo 2755" width="97.084" height="1.263" fill="#c4b8ff"/>
    </g>
    <g id="Grupo_10600" data-name="Grupo 10600" transform="translate(1394.348 452.927)">
      <path id="Trazado_10428" data-name="Trazado 10428" d="M1411.11,645.047h0Z" transform="translate(-1411.11 -644.415)" fill="#ddd6ff"/>
      <rect id="Rectángulo_2756" data-name="Rectángulo 2756" width="16.964" height="1.263" transform="translate(0)" fill="#c4b8ff"/>
    </g>
    <rect id="Rectángulo_2757" data-name="Rectángulo 2757" width="232.161" height="299.032" transform="translate(1524.724 144.416)" fill="#ddd6ff"/>
    <path id="Trazado_10429" data-name="Trazado 10429" d="M1849.644,451.053V563.5H1617.483V487.221Z" transform="translate(-92.759 -120.05)" fill="#c4b8ff"/>
    <rect id="Rectángulo_2758" data-name="Rectángulo 2758" width="273.76" height="206.886" transform="translate(1744.247 157.052) rotate(90)" fill="#fff"/>
    <path id="Trazado_10430" data-name="Trazado 10430" d="M1891.633,274.541l-14.7-12.126,4.021-4.873,9.732,8.031L1911.1,239.89l4.945,3.931Z" transform="translate(-188.304 -42.289)" fill="#ff95a9"/>
    <circle id="Elipse_635" data-name="Elipse 635" cx="8.617" cy="8.617" r="8.617" transform="translate(1525.956 233.693) rotate(-48.153)" fill="#7760db"/>
    <g id="Grupo_10601" data-name="Grupo 10601" transform="translate(1655.681 215.694)">
      <path id="Trazado_10431" data-name="Trazado 10431" d="M1824.777,269.529h0Z" transform="translate(-1824.776 -268.897)" fill="#fff"/>
      <rect id="Rectángulo_2759" data-name="Rectángulo 2759" width="19.163" height="1.263" fill="#40327a"/>
    </g>
    <g id="Grupo_10602" data-name="Grupo 10602" transform="translate(1591.138 215.694)">
      <path id="Trazado_10432" data-name="Trazado 10432" d="M1722.611,269.529h0Z" transform="translate(-1722.61 -268.897)" fill="#fff"/>
      <rect id="Rectángulo_2760" data-name="Rectángulo 2760" width="57.383" height="1.263" transform="translate(0)" fill="#40327a"/>
    </g>
    <g id="Grupo_10603" data-name="Grupo 10603" transform="translate(1629.159 224.956)">
      <path id="Trazado_10433" data-name="Trazado 10433" d="M1782.795,284.191h0Z" transform="translate(-1782.795 -283.559)" fill="#fff"/>
      <rect id="Rectángulo_2761" data-name="Rectángulo 2761" width="45.685" height="1.263" transform="translate(0)" fill="#40327a"/>
    </g>
    <g id="Grupo_10604" data-name="Grupo 10604" transform="translate(1623.673 224.956)">
      <path id="Trazado_10434" data-name="Trazado 10434" d="M1774.111,284.191h0Z" transform="translate(-1774.11 -283.559)" fill="#fff"/>
      <rect id="Rectángulo_2762" data-name="Rectángulo 2762" width="2.644" height="1.263" transform="translate(0)" fill="#40327a"/>
    </g>
    <g id="Grupo_10605" data-name="Grupo 10605" transform="translate(1565.13 224.956)">
      <path id="Trazado_10435" data-name="Trazado 10435" d="M1681.443,284.191h0Z" transform="translate(-1681.443 -283.559)" fill="#fff"/>
      <rect id="Rectángulo_2763" data-name="Rectángulo 2763" width="52.014" height="1.263" fill="#40327a"/>
    </g>
    <g id="Grupo_10606" data-name="Grupo 10606" transform="translate(1565.13 234.22)">
      <path id="Trazado_10436" data-name="Trazado 10436" d="M1681.443,298.854h0Z" transform="translate(-1681.443 -298.222)" fill="#fff"/>
      <rect id="Rectángulo_2764" data-name="Rectángulo 2764" width="74.336" height="1.263" fill="#40327a"/>
    </g>
    <path id="Trazado_10437" data-name="Trazado 10437" d="M1891.633,351.159l-14.7-12.126,4.021-4.873,9.732,8.031,20.412-25.683,4.945,3.931Z" transform="translate(-188.304 -70.504)" fill="#ff95a9"/>
    <g id="Grupo_10607" data-name="Grupo 10607" transform="translate(1591.138 264.097)">
      <path id="Trazado_10438" data-name="Trazado 10438" d="M1722.611,346.147h0Z" transform="translate(-1722.61 -345.515)" fill="#fff"/>
      <rect id="Rectángulo_2765" data-name="Rectángulo 2765" width="83.706" height="1.263" transform="translate(0)" fill="#40327a"/>
    </g>
    <g id="Grupo_10608" data-name="Grupo 10608" transform="translate(1565.13 264.097)">
      <path id="Trazado_10439" data-name="Trazado 10439" d="M1681.443,346.147h0Z" transform="translate(-1681.443 -345.515)" fill="#fff"/>
      <rect id="Rectángulo_2766" data-name="Rectángulo 2766" width="19.479" height="1.263" fill="#40327a"/>
    </g>
    <g id="Grupo_10609" data-name="Grupo 10609" transform="translate(1565.13 273.36)">
      <path id="Trazado_10440" data-name="Trazado 10440" d="M1681.443,360.809h0Z" transform="translate(-1681.443 -360.177)" fill="#fff"/>
      <rect id="Rectángulo_2767" data-name="Rectángulo 2767" width="101.396" height="1.263" fill="#40327a"/>
    </g>
    <g id="Grupo_10610" data-name="Grupo 10610" transform="translate(1601.994 282.623)">
      <path id="Trazado_10441" data-name="Trazado 10441" d="M1739.8,375.472h0Z" transform="translate(-1739.795 -374.84)" fill="#fff"/>
      <rect id="Rectángulo_2768" data-name="Rectángulo 2768" width="2.094" height="1.263" transform="translate(0 0)" fill="#40327a"/>
    </g>
    <g id="Grupo_10611" data-name="Grupo 10611" transform="translate(1565.13 282.623)">
      <path id="Trazado_10442" data-name="Trazado 10442" d="M1681.443,375.472h0Z" transform="translate(-1681.443 -374.84)" fill="#fff"/>
      <rect id="Rectángulo_2769" data-name="Rectángulo 2769" width="32.967" height="1.263" transform="translate(0 0)" fill="#40327a"/>
    </g>
    <path id="Trazado_10443" data-name="Trazado 10443" d="M1891.633,427.778l-14.7-12.126,4.021-4.873,9.732,8.031,20.412-25.683,4.945,3.931Z" transform="translate(-188.304 -98.718)" fill="#ff95a9"/>
    <g id="Grupo_10616" data-name="Grupo 10616" transform="translate(1565.13 312.5)">
      <g id="Grupo_10612" data-name="Grupo 10612" transform="translate(0 0)">
        <path id="Trazado_10444" data-name="Trazado 10444" d="M1681.443,422.765h0Z" transform="translate(-1681.443 -422.133)" fill="#fff"/>
        <rect id="Rectángulo_2770" data-name="Rectángulo 2770" width="109.714" height="1.263" fill="#40327a"/>
      </g>
      <g id="Grupo_10613" data-name="Grupo 10613" transform="translate(75.674 9.263)">
        <path id="Trazado_10445" data-name="Trazado 10445" d="M1801.229,437.427h0Z" transform="translate(-1801.229 -436.795)" fill="#fff"/>
        <rect id="Rectángulo_2771" data-name="Rectángulo 2771" width="34.039" height="1.263" fill="#40327a"/>
      </g>
      <g id="Grupo_10614" data-name="Grupo 10614" transform="translate(0 9.263)">
        <path id="Trazado_10446" data-name="Trazado 10446" d="M1681.443,437.427h0Z" transform="translate(-1681.443 -436.795)" fill="#fff"/>
        <rect id="Rectángulo_2772" data-name="Rectángulo 2772" width="67.808" height="1.263" fill="#40327a"/>
      </g>
      <g id="Grupo_10615" data-name="Grupo 10615" transform="translate(0 18.526)">
        <path id="Trazado_10447" data-name="Trazado 10447" d="M1681.443,452.09h0Z" transform="translate(-1681.443 -451.458)" fill="#fff"/>
        <rect id="Rectángulo_2773" data-name="Rectángulo 2773" width="94.131" height="1.263" fill="#40327a"/>
      </g>
    </g>
    <g id="Grupo_10617" data-name="Grupo 10617" transform="translate(1694.046 228.079)">
      <path id="Trazado_10448" data-name="Trazado 10448" d="M1890.571,294.906H1886.5v-6.772Z" transform="translate(-1885.872 -288.134)" fill="#fff"/>
      <path id="Trazado_10449" data-name="Trazado 10449" d="M1890.2,295.538h-4.7v-7.4h1.264v6.14h3.435Z" transform="translate(-1885.504 -288.134)" fill="#7760db"/>
    </g>
    <path id="Trazado_10450" data-name="Trazado 10450" d="M1916.537,287.89h-18.815v-1.263h17.551V267.365h1.264Z" transform="translate(-195.958 -52.406)" fill="#7760db"/>
    <g id="Grupo_10618" data-name="Grupo 10618" transform="translate(1709.999 208.95)">
      <path id="Trazado_10451" data-name="Trazado 10451" d="M1910.757,258.854h0Z" transform="translate(-1910.757 -258.222)" fill="#fff"/>
      <rect id="Rectángulo_2774" data-name="Rectángulo 2774" width="1.855" height="1.263" transform="translate(0)" fill="#7760db"/>
    </g>
    <g id="Grupo_10619" data-name="Grupo 10619" transform="translate(1694.046 208.95)">
      <path id="Trazado_10452" data-name="Trazado 10452" d="M1886.5,261.706v-2.852h13.071Z" transform="translate(-1885.872 -258.222)" fill="#fff"/>
      <path id="Trazado_10453" data-name="Trazado 10453" d="M1886.768,261.338H1885.5v-3.484h13.7v1.264h-12.439Z" transform="translate(-1885.504 -257.854)" fill="#7760db"/>
    </g>
    <path id="Trazado_10454" data-name="Trazado 10454" d="M1897.39,374.478H1885.5v-3.42h1.264v2.157h10.622Z" transform="translate(-191.458 -90.592)" fill="#7760db"/>
    <path id="Trazado_10455" data-name="Trazado 10455" d="M1920.331,367.375h-12.305v-1.264h11.042V351.768h1.263Z" transform="translate(-199.752 -83.488)" fill="#7760db"/>
    <rect id="Rectángulo_2775" data-name="Rectángulo 2775" width="1.263" height="2.286" transform="translate(1719.316 263.068)" fill="#7760db"/>
    <path id="Trazado_10456" data-name="Trazado 10456" d="M1886.768,355.188H1885.5V334.472h18.2v1.264h-16.94Z" transform="translate(-191.458 -77.119)" fill="#7760db"/>
    <path id="Trazado_10457" data-name="Trazado 10457" d="M1912.037,445.956H1885.5V433.719h1.264v10.974h24.006V440.3h1.264Z" transform="translate(-191.458 -113.667)" fill="#7760db"/>
    <rect id="Rectángulo_2776" data-name="Rectángulo 2776" width="1.263" height="2.103" transform="translate(1719.316 324.529)" fill="#7760db"/>
    <rect id="Rectángulo_2777" data-name="Rectángulo 2777" width="1.263" height="7.973" transform="translate(1719.316 313.763)" fill="#7760db"/>
    <rect id="Rectángulo_2778" data-name="Rectángulo 2778" width="1.263" height="1.577" transform="translate(1719.316 312.186)" fill="#7760db"/>
    <rect id="Rectángulo_2779" data-name="Rectángulo 2779" width="1.843" height="1.263" transform="translate(1708.906 305.756)" fill="#7760db"/>
    <path id="Trazado_10458" data-name="Trazado 10458" d="M1886.768,416.146H1885.5v-5.057h12.7v1.264h-11.439Z" transform="translate(-191.458 -105.333)" fill="#7760db"/>
    <rect id="Rectángulo_2780" data-name="Rectángulo 2780" width="1.263" height="1.733" transform="translate(1694.046 371.647)" fill="#7760db"/>
    <path id="Trazado_10459" data-name="Trazado 10459" d="M1912.037,526.856H1885.5v-4.892h1.264v3.628h24.006v-3.127h1.264Z" transform="translate(-191.458 -146.163)" fill="#7760db"/>
    <rect id="Rectángulo_2781" data-name="Rectángulo 2781" width="1.263" height="14.056" transform="translate(1719.316 359.324)" fill="#7760db"/>
    <path id="Trazado_10460" data-name="Trazado 10460" d="M1891.633,504.4l-14.7-12.126,4.021-4.873,9.732,8.031,20.412-25.683,4.945,3.931Z" transform="translate(-188.304 -126.933)" fill="#ff95a9"/>
    <g id="Grupo_10620" data-name="Grupo 10620" transform="translate(1565.13 360.904)">
      <path id="Trazado_10461" data-name="Trazado 10461" d="M1681.443,499.383h0Z" transform="translate(-1681.443 -498.751)" fill="#fff"/>
      <rect id="Rectángulo_2782" data-name="Rectángulo 2782" width="101.396" height="1.263" fill="#40327a"/>
    </g>
    <g id="Grupo_10621" data-name="Grupo 10621" transform="translate(1594.863 370.167)">
      <path id="Trazado_10462" data-name="Trazado 10462" d="M1728.507,514.045h0Z" transform="translate(-1728.507 -513.413)" fill="#fff"/>
      <rect id="Rectángulo_2783" data-name="Rectángulo 2783" width="79.981" height="1.263" transform="translate(0)" fill="#40327a"/>
    </g>
    <g id="Grupo_10622" data-name="Grupo 10622" transform="translate(1587.242 370.167)">
      <path id="Trazado_10463" data-name="Trazado 10463" d="M1716.444,514.045h0Z" transform="translate(-1716.444 -513.413)" fill="#fff"/>
      <rect id="Rectángulo_2784" data-name="Rectángulo 2784" width="2.166" height="1.263" fill="#40327a"/>
    </g>
    <g id="Grupo_10623" data-name="Grupo 10623" transform="translate(1565.13 370.167)">
      <path id="Trazado_10464" data-name="Trazado 10464" d="M1681.443,514.045h0Z" transform="translate(-1681.443 -513.413)" fill="#fff"/>
      <rect id="Rectángulo_2785" data-name="Rectángulo 2785" width="14.741" height="1.263" fill="#40327a"/>
    </g>
    <g id="Grupo_10624" data-name="Grupo 10624" transform="translate(1565.13 379.429)">
      <path id="Trazado_10465" data-name="Trazado 10465" d="M1681.443,528.708h0Z" transform="translate(-1681.443 -528.076)" fill="#fff"/>
      <rect id="Rectángulo_2786" data-name="Rectángulo 2786" width="38.958" height="1.263" fill="#40327a"/>
    </g>
    <path id="Trazado_10466" data-name="Trazado 10466" d="M1633.8,265.837l-21.982-40.479-6.964,2.894L1617.97,272.4Z" transform="translate(-88.109 -36.938)" fill="#7760db"/>
    <rect id="Rectángulo_2787" data-name="Rectángulo 2787" width="172.675" height="9.459" transform="matrix(0.986, -0.168, 0.168, 0.986, 1397.473, 233.965)" fill="#ff9d45"/>
    <rect id="Rectángulo_2788" data-name="Rectángulo 2788" width="172.675" height="9.459" transform="matrix(0.986, -0.168, 0.168, 0.986, 1395.884, 224.64)" fill="#ffc359"/>
    <rect id="Rectángulo_2789" data-name="Rectángulo 2789" width="172.675" height="9.459" transform="matrix(0.986, -0.168, 0.168, 0.986, 1394.295, 215.315)" fill="#ffc359"/>
    <rect id="Rectángulo_2790" data-name="Rectángulo 2790" width="14.189" height="28.378" transform="matrix(0.986, -0.168, 0.168, 0.986, 1366.321, 220.082)" fill="#ff809f"/>
    <rect id="Rectángulo_2791" data-name="Rectángulo 2791" width="14.189" height="28.378" transform="matrix(0.986, -0.168, 0.168, 0.986, 1380.308, 217.699)" fill="#eeebff"/>
    <path id="Trazado_10467" data-name="Trazado 10467" d="M1726.4,228.582l-45.929-6.567,4.767,27.975Z" transform="translate(-115.955 -35.706)" fill="#eeebff"/>
    <rect id="Rectángulo_2792" data-name="Rectángulo 2792" width="206.886" height="1.263" transform="translate(1537.362 430.18)" fill="#40327a"/>
    <path id="Trazado_10468" data-name="Trazado 10468" d="M1711.234,144.416V176h113.715V144.416h-34.91l-8.977-19.363h-25.933l-8.977,19.363Z" transform="translate(-127.283 0)" fill="#c4b8ff"/>
    <path id="Trazado_10469" data-name="Trazado 10469" d="M1711.234,144.416v23.027l113.715-17.714v-5.313h-34.91l-8.977-19.363h-25.933l-8.977,19.363Z" transform="translate(-127.283 0)" fill="#a796f2"/>
    <path id="Trazado_10470" data-name="Trazado 10470" d="M1713.694,242.477l-26.6,13.835-1.586-9.325,27.626-7.808Z" transform="translate(-117.809 -42.027)" fill="#ddd6ff"/>
    <path id="Trazado_10471" data-name="Trazado 10471" d="M1744.36,232.409l-14.562,7.575-.562-3.3Z" transform="translate(-133.912 -39.534)" fill="#e5659b"/>
    <path id="Trazado_10472" data-name="Trazado 10472" d="M1743.7,231.053l-15.124,4.277-1.124-6.6Z" transform="translate(-133.257 -38.179)" fill="#ff809f"/>
    <rect id="Rectángulo_2793" data-name="Rectángulo 2793" width="14.189" height="9.459" transform="matrix(0.986, -0.168, 0.168, 0.986, 1383.486, 236.348)" fill="#ddd6ff"/>
    <rect id="Rectángulo_2794" data-name="Rectángulo 2794" width="14.189" height="9.459" transform="matrix(0.986, -0.168, 0.168, 0.986, 1369.499, 238.732)" fill="#e5659b"/>
    <rect id="Rectángulo_2795" data-name="Rectángulo 2795" width="135.274" height="1.263" transform="translate(1427.735 237.65) rotate(-9.673)" fill="#40327a"/>
    <rect id="Rectángulo_2796" data-name="Rectángulo 2796" width="27.507" height="1.263" transform="translate(1393.083 243.67) rotate(-9.676)" fill="#7760db"/>
    <path id="Trazado_10473" data-name="Trazado 10473" d="M1371.543,309.46l-3.311-19.431,1.246-.212,3.1,18.186,19.1-3.254.212,1.245Z" transform="translate(-0.972 -60.674)" fill="#7760db"/>
    <path id="Trazado_10474" data-name="Trazado 10474" d="M1366.583,279.026l-.991-5.819,14.61-2.489.212,1.245-13.364,2.277.779,4.574Z" transform="translate(0 -53.641)" fill="#7760db"/>
    <rect id="Rectángulo_2797" data-name="Rectángulo 2797" width="58.499" height="1.263" transform="translate(1399.57 443.447)" fill="#40327a"/>
    <rect id="Rectángulo_2798" data-name="Rectángulo 2798" width="5.935" height="1.263" transform="translate(1660.591 443.447)" fill="#40327a"/>
    <rect id="Rectángulo_2799" data-name="Rectángulo 2799" width="177.999" height="1.263" transform="translate(1475.222 443.447)" fill="#40327a"/>
    <rect id="Rectángulo_2800" data-name="Rectángulo 2800" width="86.76" height="1.263" transform="translate(1687.016 443.447)" fill="#40327a"/>
    <rect id="Rectángulo_2801" data-name="Rectángulo 2801" width="4.58" height="1.263" transform="translate(1385.83 443.447)" fill="#40327a"/>
    <rect id="Rectángulo_2803" data-name="Rectángulo 2803" width="1.264" height="24.479" transform="matrix(0.986, -0.168, 0.168, 0.986, 1393.672, 215.421)" fill="#fff"/>
    <rect id="Rectángulo_2804" data-name="Rectángulo 2804" width="1.264" height="18.921" transform="translate(1563.894 186.415) rotate(-9.676)" fill="#fff"/>
    <rect id="Rectángulo_2805" data-name="Rectángulo 2805" width="1.264" height="2.69" transform="translate(1382.411 233.802) rotate(-9.669)" fill="#fff"/>
    <rect id="Rectángulo_2806" data-name="Rectángulo 2806" width="1.264" height="7.297" transform="translate(1380.78 224.23) rotate(-9.671)" fill="#fff"/>
    <rect id="Rectángulo_2807" data-name="Rectángulo 2807" width="1.263" height="29.587" transform="translate(1756.254 404.601)" fill="#7760db"/>
    <rect id="Rectángulo_2808" data-name="Rectángulo 2808" width="1.263" height="122.845" transform="translate(1756.254 268.28)" fill="#7760db"/>
    <rect id="Rectángulo_2809" data-name="Rectángulo 2809" width="1.263" height="37.799" transform="translate(1524.093 352.588)" fill="#7760db"/>
    <rect id="Rectángulo_2810" data-name="Rectángulo 2810" width="1.263" height="2.583" transform="translate(1524.093 344.005)" fill="#7760db"/>
    <rect id="Rectángulo_2811" data-name="Rectángulo 2811" width="1.263" height="30.425" transform="translate(1524.093 310.474)" fill="#7760db"/>
    <path id="Trazado_10475" data-name="Trazado 10475" d="M1857.049,187.923h-60.36v-1.263h59.1V155.7h1.264Z" transform="translate(-158.752 -11.287)" fill="#7760db"/>
    <rect id="Rectángulo_2812" data-name="Rectángulo 2812" width="36.87" height="1.263" transform="translate(1594.199 175.372)" fill="#7760db"/>
    <path id="Trazado_10476" data-name="Trazado 10476" d="M1974.575,204.183h-1.263V155.967h-18.291V154.7h19.554Z" transform="translate(-217.058 -10.919)" fill="#a796f2"/>
    <rect id="Rectángulo_2813" data-name="Rectángulo 2813" width="9.057" height="1.263" transform="translate(1723.436 143.785)" fill="#a796f2"/>
    <rect id="Rectángulo_2814" data-name="Rectángulo 2814" width="28.803" height="1.263" transform="translate(1503.864 196.004) rotate(-9.673)" fill="#7760db"/>
    <path id="Trazado_10477" data-name="Trazado 10477" d="M1487.133,403.795l-32.118,134.741,10.309,2.725L1503.806,408.2Z" transform="translate(-32.93 -102.647)" fill="#7760db"/>
    <circle id="Elipse_636" data-name="Elipse 636" cx="5.332" cy="5.332" r="5.332" transform="translate(1419.731 437.13) rotate(-45)" fill="#7760db"/>
    <path id="Trazado_10478" data-name="Trazado 10478" d="M1445.36,625.359h16.034v-6.318h-10.67l-6.124,3.34a1.586,1.586,0,0,0-.827,1.392h0A1.586,1.586,0,0,0,1445.36,625.359Z" transform="translate(-28.79 -181.912)" fill="#40327a"/>
    <circle id="Elipse_637" data-name="Elipse 637" cx="12.635" cy="12.635" r="12.635" transform="translate(1478.206 246.469) rotate(-87.973)" fill="#7760db"/>
    <path id="Trazado_10479" data-name="Trazado 10479" d="M1458.844,344.055a8.617,8.617,0,1,1,2.875-11.842A8.618,8.618,0,0,1,1458.844,344.055Z" transform="translate(-29.515 -74.764)" fill="#7760db"/>
    <path id="Trazado_10480" data-name="Trazado 10480" d="M1495.106,305.424l-34.489,22.927-10.84-13.3,29.435-29.126Z" transform="translate(-31.001 -59.243)" fill="#7760db"/>
    <circle id="Elipse_638" data-name="Elipse 638" cx="12.635" cy="12.635" r="12.635" transform="translate(1439.245 236.049) rotate(-46.25)" fill="#7760db"/>
    <circle id="Elipse_639" data-name="Elipse 639" cx="12.635" cy="12.635" r="12.635" transform="matrix(0.678, -0.735, 0.735, 0.678, 1439.255, 236.376)" fill="#7760db"/>
    <circle id="Elipse_640" data-name="Elipse 640" cx="12.635" cy="12.635" r="12.635" transform="translate(1473.415 233.95) rotate(-43.916)" fill="#7760db"/>
    <circle id="Elipse_641" data-name="Elipse 641" cx="8.623" cy="8.623" r="8.623" transform="translate(1453.968 294.531)" fill="#7760db"/>
    <circle id="Elipse_642" data-name="Elipse 642" cx="8.623" cy="8.623" r="8.623" transform="translate(1481.946 294.531)" fill="#7760db"/>
    <path id="Trazado_10481" data-name="Trazado 10481" d="M1548.156,286.879l-.563,63.036-46.03,1.847-5.61-62.788a8.845,8.845,0,0,1,8.455-9.625l34.549-1.385A8.845,8.845,0,0,1,1548.156,286.879Z" transform="translate(-47.992 -56.307)" fill="#7760db"/>
    <path id="Trazado_10482" data-name="Trazado 10482" d="M1550.893,393.322l-.423,8.623-.021.423a8.623,8.623,0,0,1-8.613,8.2h-27.953a8.623,8.623,0,0,1-8.613-8.2l-.02-.423-.423-8.623Z" transform="translate(-51.273 -98.79)" fill="#7760db"/>
    <circle id="Elipse_643" data-name="Elipse 643" cx="5.332" cy="5.332" r="5.332" transform="translate(1479.738 437.13) rotate(-45)" fill="#7760db"/>
    <path id="Trazado_10483" data-name="Trazado 10483" d="M1525.707,279.051l13.187,45.038,6.75-32.522-.533-13.294Z" transform="translate(-58.963 -56.423)" fill="#fff"/>
    <path id="Trazado_10484" data-name="Trazado 10484" d="M1545.112,278.273l.533,13.294-2.814,13.548-3.937,18.974-5.444-18.6-7.744-26.44Z" transform="translate(-58.962 -56.424)" fill="#fff"/>
    <path id="Trazado_10485" data-name="Trazado 10485" d="M1564.389,460.506l2.628-53.534H1549.77l.006,53.534h-.007v80.441h10.663l3.909-79.63a7.249,7.249,0,0,0,.047-.811Z" transform="translate(-67.823 -103.817)" fill="#7760db"/>
    <circle id="Elipse_644" data-name="Elipse 644" cx="23.034" cy="23.034" r="23.034" transform="translate(1444.258 290.531) rotate(-37.946)" fill="#7760db"/>
    <path id="Trazado_10486" data-name="Trazado 10486" d="M1547.345,307.048l-3.936,18.974-5.443-18.6,3.108-23.853,1.263-.051Z" transform="translate(-63.477 -58.356)" fill="#40327a"/>
    <path id="Trazado_10487" data-name="Trazado 10487" d="M1565.8,625.359H1549.77v-6.318h10.67l6.124,3.34a1.585,1.585,0,0,1,.826,1.392h0A1.586,1.586,0,0,1,1565.8,625.359Z" transform="translate(-67.824 -181.912)" fill="#40327a"/>
    <rect id="Rectángulo_2815" data-name="Rectángulo 2815" width="15.794" height="17.114" transform="matrix(0.999, -0.04, 0.04, 0.999, 1466.059, 205.528)" fill="#ff95a9"/>
    <path id="Trazado_10488" data-name="Trazado 10488" d="M1560.959,220.586l-2.28.276-1.863-15.39,2.28-.276a7.751,7.751,0,0,1,8.626,6.764h0A7.751,7.751,0,0,1,1560.959,220.586Z" transform="translate(-70.418 -29.492)" fill="#40327a"/>
    <path id="Rectángulo_2816" data-name="Rectángulo 2816" d="M0,0H11.483a0,0,0,0,1,0,0V12.031a0,0,0,0,1,0,0H9.089A9.089,9.089,0,0,1,0,2.942V0A0,0,0,0,1,0,0Z" transform="translate(1460.711 197.338) rotate(-6.901)" fill="#40327a"/>
    <path id="Rectángulo_2817" data-name="Rectángulo 2817" d="M0,0H1.988A10.476,10.476,0,0,1,12.464,10.476v0a9.472,9.472,0,0,1-9.472,9.472H0a0,0,0,0,1,0,0V0A0,0,0,0,1,0,0Z" transform="matrix(0.993, -0.12, 0.12, 0.993, 1480.365, 171.828)" fill="#40327a"/>
    <path id="Trazado_10489" data-name="Trazado 10489" d="M1548.056,242.358l-20.238,2.449-2.758-22.789a12.643,12.643,0,0,1,11.032-14.07h0a12.642,12.642,0,0,1,13.982,10.427l2.951,17.319A5.741,5.741,0,0,1,1548.056,242.358Z" transform="translate(-58.69 -30.492)" fill="#ff95a9"/>
    <path id="Trazado_10490" data-name="Trazado 10490" d="M1566.543,235.27l-1.835-10.767Z" transform="translate(-73.325 -36.623)" fill="none"/>
    <path id="Rectángulo_2818" data-name="Rectángulo 2818" d="M13.2,0h0a0,0,0,0,1,0,0V21.615a0,0,0,0,1,0,0H0a0,0,0,0,1,0,0V13.2A13.2,13.2,0,0,1,13.2,0Z" transform="translate(1458.321 177.59) rotate(-6.9)" fill="#40327a"/>
    <path id="Trazado_10491" data-name="Trazado 10491" d="M1524.567,240.361l3.42-.414-.414-3.42a3.445,3.445,0,0,0-3.834-3.006h0a3.445,3.445,0,0,0-3.006,3.834h0A3.444,3.444,0,0,0,1524.567,240.361Z" transform="translate(-57.122 -39.934)" fill="#ff95a9"/>
    <path id="Trazado_10492" data-name="Trazado 10492" d="M1553.021,211.692l-12.984,1.572a9.678,9.678,0,0,1-10.758-8.436,4.593,4.593,0,1,1,9.12-1.1.48.48,0,0,0,.535.419l12.984-1.571Z" transform="translate(-60.266 -27.482)" fill="#40327a"/>
    <path id="Trazado_10493" data-name="Trazado 10493" d="M1551.573,207.066l-6.46.782a4.593,4.593,0,1,1-1.1-9.12l6.46-.782a4.593,4.593,0,1,1,1.1,9.12Z" transform="translate(-64.214 -26.831)" fill="#40327a"/>
    <path id="Trazado_10494" data-name="Trazado 10494" d="M1556.31,251.793a4.6,4.6,0,0,1-3.981,5.337l-9.062,1.1a9.185,9.185,0,0,1-10.223-8.015l-1.292-10.675,3.418-.414h0a3.828,3.828,0,0,0,4.26,3.341l14.977-1.812Z" transform="translate(-61.189 -42.006)" fill="#40327a"/>
    <path id="Trazado_10495" data-name="Trazado 10495" d="M1561.375,246.774a3.474,3.474,0,1,1-6.892.89Z" transform="translate(-69.559 -44.824)" fill="#fff"/>
    <g id="Grupo_10625" data-name="Grupo 10625" transform="translate(1451.047 298.096)">
      <path id="Trazado_10496" data-name="Trazado 10496" d="M1522.465,406.762a5.054,5.054,0,1,0-5.734,4.267A5.055,5.055,0,0,0,1522.465,406.762Z" transform="translate(-1505.113 -399.704)" fill="#ff95a9"/>
      <path id="Trazado_10497" data-name="Trazado 10497" d="M1508.4,403.306a3.791,3.791,0,1,1-3.2-4.3A3.791,3.791,0,0,1,1508.4,403.306Z" transform="translate(-1500.859 -398.965)" fill="#ff95a9"/>
      <path id="Trazado_10498" data-name="Trazado 10498" d="M1512.391,409.907l-8.034-3.682,2.131-7.2,8.744,1.283Z" transform="translate(-1502.147 -398.988)" fill="#ff95a9"/>
    </g>
    <g id="Grupo_10626" data-name="Grupo 10626" transform="translate(1418.484 257.447)">
      <path id="Trazado_10499" data-name="Trazado 10499" d="M1482.867,381.62l6.034-4.534-25.87-42.465-13.715,10.308,29.27,32.005,2.553,2.794Z" transform="translate(-1449.315 -334.621)" fill="#7760db"/>
      <path id="Trazado_10500" data-name="Trazado 10500" d="M1499.929,402.788l6.034-4.534-3.747-6.151-6.569,6,2.553,2.794Z" transform="translate(-1466.377 -355.789)" fill="#fff"/>
      <path id="Trazado_10501" data-name="Trazado 10501" d="M1501.423,404.708l6.034-4.534-1.742-2.859-6.021,5.5Z" transform="translate(-1467.867 -357.708)" fill="#ff95a9"/>
    </g>
    <path id="Trazado_10502" data-name="Trazado 10502" d="M1565.733,278l46.6,2.742.457,17.17-46.367,5.255Z" transform="translate(-73.702 -56.322)" fill="#7760db"/>
    <path id="Trazado_10503" data-name="Trazado 10503" d="M1604.709,226.895a3.791,3.791,0,1,0,2.808-4.566A3.79,3.79,0,0,0,1604.709,226.895Z" transform="translate(-88.017 -35.783)" fill="#ff95a9"/>
    <path id="Trazado_10504" data-name="Trazado 10504" d="M1589.6,231.642a5.054,5.054,0,1,1,6.089,3.744A5.054,5.054,0,0,1,1589.6,231.642Z" transform="translate(-82.439 -36.958)" fill="#ff95a9"/>
    <path id="Trazado_10505" data-name="Trazado 10505" d="M1599.284,233.746l7.677-4.377-2.759-6.98-8.6,2.05Z" transform="translate(-84.703 -35.844)" fill="#ff95a9"/>
    <circle id="Elipse_645" data-name="Elipse 645" cx="5.396" cy="5.396" r="5.396" transform="translate(1633.758 133.609) rotate(-22.5)" fill="#fff"/>
    <path id="Trazado_10506" data-name="Trazado 10506" d="M1803.827,141.529l-1.2-.382a4.768,4.768,0,0,0-4.542-6.206,4.737,4.737,0,0,0-4.276,2.662l-1.134-.559a6.029,6.029,0,0,1,11.157,4.485Z" transform="translate(-157.272 -3.176)" fill="#7760db"/>
    <path id="Trazado_10507" data-name="Trazado 10507" d="M1797.72,149.147a6.034,6.034,0,0,1-6.028-6.027l0-.171,1.264.029,0,.142a4.768,4.768,0,0,0,6.221,4.537l.386,1.2A6.017,6.017,0,0,1,1797.72,149.147Z" transform="translate(-156.912 -6.59)" fill="#7760db"/>
    <g id="Grupo_10627" data-name="Grupo 10627" transform="translate(1481.314 415.685)">
      <path id="Trazado_10508" data-name="Trazado 10508" d="M1549.769,585.1v0Z" transform="translate(-1549.137 -585.097)" fill="#fff"/>
      <rect id="Rectángulo_2819" data-name="Rectángulo 2819" width="1.263" height="11.764" transform="translate(0 0)" fill="#40327a"/>
    </g>
    <g id="Grupo_10628" data-name="Grupo 10628" transform="translate(1481.314 365.749)">
      <path id="Trazado_10509" data-name="Trazado 10509" d="M1549.769,506.052v0Z" transform="translate(-1549.137 -506.052)" fill="#fff"/>
      <rect id="Rectángulo_2820" data-name="Rectángulo 2820" width="1.263" height="45.592" transform="translate(0 0)" fill="#40327a"/>
    </g>
    <g id="Grupo_10629" data-name="Grupo 10629" transform="translate(1441.599 312.984)">
      <path id="Trazado_10510" data-name="Trazado 10510" d="M1496,422.765l-9.141,38.347Z" transform="translate(-1486.257 -422.617)" fill="#fff"/>
      <rect id="Rectángulo_2821" data-name="Rectángulo 2821" width="39.421" height="1.263" transform="translate(0 38.35) rotate(-76.615)" fill="#40327a"/>
    </g>
    <g id="Grupo_10630" data-name="Grupo 10630" transform="translate(1439.992 353.717)">
      <path id="Trazado_10511" data-name="Trazado 10511" d="M1485.364,487.238l-1.031,4.328Z" transform="translate(-1483.718 -487.092)" fill="#fff"/>
      <rect id="Rectángulo_2822" data-name="Rectángulo 2822" width="4.448" height="1.263" transform="translate(0 4.327) rotate(-76.615)" fill="#40327a"/>
    </g>
    <g id="Grupo_10631" data-name="Grupo 10631" transform="translate(1423.18 423.883)">
      <path id="Trazado_10512" data-name="Trazado 10512" d="M1458.838,598.3,1457.719,603Z" transform="translate(-1457.106 -598.158)" fill="#fff"/>
      <rect id="Rectángulo_2823" data-name="Rectángulo 2823" width="4.823" height="1.263" transform="translate(0 4.692) rotate(-76.615)" fill="#40327a"/>
    </g>
    <g id="Grupo_10632" data-name="Grupo 10632" transform="translate(1424.884 411.194)">
      <path id="Trazado_10513" data-name="Trazado 10513" d="M1462.855,578.22l-2.439,10.235Z" transform="translate(-1459.803 -578.073)" fill="#fff"/>
      <rect id="Rectángulo_2824" data-name="Rectángulo 2824" width="10.521" height="1.263" transform="matrix(0.231, -0.973, 0.973, 0.231, 0, 10.235)" fill="#40327a"/>
    </g>
    <g id="Grupo_10633" data-name="Grupo 10633" transform="translate(1443.866 251.596)">
      <path id="Trazado_10514" data-name="Trazado 10514" d="M1490.047,333.472l10.952-7.28Z" transform="translate(-1489.697 -325.666)" fill="#fff"/>
      <rect id="Rectángulo_2825" data-name="Rectángulo 2825" width="13.151" height="1.264" transform="matrix(0.833, -0.554, 0.554, 0.833, 0, 7.28)" fill="#40327a"/>
    </g>
    <g id="Grupo_10634" data-name="Grupo 10634" transform="translate(1437.927 260.722)">
      <path id="Trazado_10515" data-name="Trazado 10515" d="M1480.645,342.74l3.164-2.1Z" transform="translate(-1480.295 -340.111)" fill="#fff"/>
      <rect id="Rectángulo_2826" data-name="Rectángulo 2826" width="3.798" height="1.264" transform="matrix(0.833, -0.554, 0.554, 0.833, 0, 2.103)" fill="#40327a"/>
    </g>
    <g id="Grupo_10635" data-name="Grupo 10635" transform="translate(1509.443 241.448)">
      <path id="Trazado_10516" data-name="Trazado 10516" d="M1593.408,313.154l25.24-2.861Z" transform="translate(-1593.337 -309.663)" fill="#fff"/>
      <rect id="Rectángulo_2827" data-name="Rectángulo 2827" width="25.401" height="1.263" transform="translate(0 2.866) rotate(-6.479)" fill="#40327a"/>
    </g>
    <g id="Grupo_10636" data-name="Grupo 10636" transform="translate(1501.657 244.68)">
      <path id="Trazado_10517" data-name="Trazado 10517" d="M1581.083,315.92l4.531-.514Z" transform="translate(-1581.012 -314.778)" fill="#fff"/>
      <rect id="Rectángulo_2828" data-name="Rectángulo 2828" width="4.56" height="1.263" transform="translate(0 0.515) rotate(-6.48)" fill="#40327a"/>
    </g>
    <g id="Grupo_10637" data-name="Grupo 10637" transform="translate(1449.371 255.347)">
      <path id="Trazado_10518" data-name="Trazado 10518" d="M1499.2,331.386l1.715,19.2Z" transform="translate(-1498.574 -331.329)" fill="#fff"/>
      <rect id="Rectángulo_2829" data-name="Rectángulo 2829" width="1.264" height="19.274" transform="translate(0 0.112) rotate(-5.106)" fill="#40327a"/>
    </g>
    <g id="Grupo_10638" data-name="Grupo 10638" transform="translate(1451.513 279.058)">
      <path id="Trazado_10519" data-name="Trazado 10519" d="M1502.593,368.918l.208,2.322Z" transform="translate(-1501.964 -368.862)" fill="#fff"/>
      <rect id="Rectángulo_2830" data-name="Rectángulo 2830" width="1.264" height="2.33" transform="translate(0 0.113) rotate(-5.111)" fill="#40327a"/>
    </g>
    <path id="Trazado_10520" data-name="Trazado 10520" d="M1886.768,497.507H1885.5v-9.8h15.781v1.264h-14.518Z" transform="translate(-191.458 -133.548)" fill="#7760db"/>
    <rect id="Rectángulo_2831" data-name="Rectángulo 2831" width="1.263" height="32.705" transform="translate(1583.319 144.417)" fill="#fff"/>
  </g>
</svg>
