<svg xmlns="http://www.w3.org/2000/svg" width="406.19" height="313.664" viewBox="0 0 406.19 313.664">
  <g id="Grupo_10862" data-name="Grupo 10862" transform="translate(-32.905 -66.581)">
    <g id="Grupo_10825" data-name="Grupo 10825" transform="translate(32.905 66.581)">
      <path id="Trazado_11131" data-name="Trazado 11131" d="M99.754,323.29c16.907,9.908,31.238,23.79,40.605,41a105.885,105.885,0,0,0,10.682,15.952H315.552c.262-.325.53-.644.789-.972a194.03,194.03,0,0,1,57.092-48.718,106.15,106.15,0,0,0,5.2-181.828,260.428,260.428,0,0,1-54.271-46.8,104.579,104.579,0,0,0-153.3-3.729c-18.153,18.635-39.96,33.194-63.463,44.347a102.31,102.31,0,0,0-7.847,180.75Z" transform="translate(-34.062 -66.581)" fill="#e5f1ff"/>
      <ellipse id="Elipse_649" data-name="Elipse 649" cx="30.693" cy="16.727" rx="30.693" ry="16.727" transform="matrix(0.84, -0.542, 0.542, 0.84, 39.171, 52.006)" fill="#e5f1ff"/>
      <ellipse id="Elipse_650" data-name="Elipse 650" cx="13.972" cy="18.403" rx="13.972" ry="18.403" transform="matrix(0.84, -0.542, 0.542, 0.84, 313.445, 40.211)" fill="#e5f1ff"/>
      <ellipse id="Elipse_651" data-name="Elipse 651" cx="13.874" cy="12.761" rx="13.874" ry="12.761" transform="matrix(0.734, -0.68, 0.68, 0.734, 368.49, 267.765)" fill="#e5f1ff"/>
      <ellipse id="Elipse_652" data-name="Elipse 652" cx="13.06" cy="13.8" rx="13.06" ry="13.8" transform="translate(0 261.05) rotate(-77.818)" fill="#e5f1ff"/>
    </g>
    <g id="Grupo_10861" data-name="Grupo 10861" transform="translate(60.938 126.36)">
      <g id="Grupo_10838" data-name="Grupo 10838" transform="translate(0 33.317)">
        <g id="Grupo_10831" data-name="Grupo 10831" transform="translate(0 6.004)">
          <g id="Grupo_10827" data-name="Grupo 10827" transform="translate(34.846)">
            <path id="Trazado_11132" data-name="Trazado 11132" d="M135.6,201.2c5.038,14.67,2.323,31.248-6.952,34.433s-21.6-8.23-26.638-22.9,5.234-39.436,5.234-39.436S130.563,186.535,135.6,201.2Z" transform="translate(-100.62 -173.302)" fill="#ffa84a"/>
            <g id="Grupo_10826" data-name="Grupo 10826" transform="translate(7.036 11.843)">
              <rect id="Rectángulo_2840" data-name="Rectángulo 2840" width="0.768" height="60.387" transform="matrix(0.946, -0.325, 0.325, 0.946, 3.338, 0.249)" fill="#fff"/>
              <rect id="Rectángulo_2841" data-name="Rectángulo 2841" width="0.768" height="11.771" transform="translate(0 16.14) rotate(-63.95)" fill="#fff"/>
              <rect id="Rectángulo_2842" data-name="Rectángulo 2842" width="12.732" height="0.768" transform="translate(16.765 38.814) rotate(-63.946)" fill="#fff"/>
            </g>
          </g>
          <g id="Grupo_10829" data-name="Grupo 10829" transform="translate(16.401 98.521)">
            <path id="Trazado_11133" data-name="Trazado 11133" d="M106.008,281.659c13.276-4.558,28.279-2.1,31.162,6.293s-7.448,19.549-20.723,24.107-35.69-4.738-35.69-4.738S92.732,286.218,106.008,281.659Z" transform="translate(-80.756 -279.4)" fill="#ffa84a"/>
            <g id="Grupo_10828" data-name="Grupo 10828" transform="translate(10.719 6.128)">
              <rect id="Rectángulo_2843" data-name="Rectángulo 2843" width="54.651" height="0.695" transform="translate(0 17.746) rotate(-18.948)" fill="#fff"/>
              <rect id="Rectángulo_2844" data-name="Rectángulo 2844" width="10.653" height="0.695" transform="translate(13.982 21.117) rotate(-63.95)" fill="#fff"/>
              <rect id="Rectángulo_2845" data-name="Rectángulo 2845" width="0.695" height="11.523" transform="translate(24.775 1.189) rotate(-63.945)" fill="#fff"/>
            </g>
          </g>
          <g id="Grupo_10830" data-name="Grupo 10830" transform="translate(0 30.69)">
            <path id="Trazado_11134" data-name="Trazado 11134" d="M130.854,222.134c-4.659-1.8-10.923.225-12.143,5.015-.511,2-.763,4.89-2.84,4.937-1.3.031-2.217-1.262-2.754-2.449-1.533-3.385-2.043-7.118-3.157-10.657s-3.055-7.115-6.381-8.786-8.173-.472-9.2,3.061c-.619,2.125.082,4.835-1.567,6.3-1.627,1.45-4.38.4-5.715-1.364s-1.806-4.01-2.835-5.962c-3.319-6.3-13.087-7.916-18.1-2.993-.191.189-.371.385-.543.588s-.352.4-.514.614c-4.248,5.6-1.408,15.081,5.263,17.575,2.068.773,4.357.956,6.274,2.057s3.31,3.7,2.079,5.5c-1.249,1.821-4.026,1.469-6.056,2.353-3.373,1.468-3.948,6.429-1.869,9.515s5.872,4.56,9.525,5.217,7.419.688,10.972,1.78c1.245.383,2.644,1.131,2.778,2.421.215,2.066-2.617,2.683-4.539,3.443-4.6,1.817-5.811,8.289-3.435,12.681s7.186,6.94,11.957,8.4h0c7.7,2.361,15.78,2.541,23.731,2.545,7.7,0,26.888.4,27.661-.305.6-.856-2.223-19.838-3.2-27.477-1.012-7.887-2.215-15.881-5.533-23.217h0C138.65,228.383,135.513,223.935,130.854,222.134Z" transform="translate(-63.094 -206.352)" fill="#59a9ea"/>
            <path id="Trazado_11135" data-name="Trazado 11135" d="M104.169,245.713,82.48,246.926l-.058-.81,21.688-1.213Z" transform="translate(-64.474 -209.105)" fill="#fff"/>
            <path id="Trazado_11136" data-name="Trazado 11136" d="M130.6,237.491l-.811.045,2.155,30.191L104.38,243.463l-1.535-21.5-.811.045,1.477,20.688-22.9-20.16-.532.6,51.349,45.2-30.253,1.692.058.81,31.064-1.737,18.093,15.928.533-.6-18.11-15.943Z" transform="translate(-64.307 -207.467)" fill="#fff"/>
          </g>
        </g>
        <g id="Grupo_10837" data-name="Grupo 10837" transform="translate(269.521)">
          <g id="Grupo_10833" data-name="Grupo 10833">
            <path id="Trazado_11137" data-name="Trazado 11137" d="M388.2,192c6.371,14.141,5.2,30.9-3.74,34.927s-22.27-6.2-28.641-20.338,1.568-39.752,1.568-39.752S381.827,177.857,388.2,192Z" transform="translate(-353.341 -166.836)" fill="#59a9ea"/>
            <g id="Grupo_10832" data-name="Grupo 10832" transform="translate(7.039 11.381)">
              <rect id="Rectángulo_2846" data-name="Rectángulo 2846" width="0.768" height="60.387" transform="translate(1.851 0.315) rotate(-24.256)" fill="#fff"/>
              <rect id="Rectángulo_2847" data-name="Rectángulo 2847" width="0.768" height="11.771" transform="translate(0 16.445) rotate(-69.253)" fill="#fff"/>
              <rect id="Rectángulo_2848" data-name="Rectángulo 2848" width="12.732" height="0.768" transform="translate(18.789 37.473) rotate(-69.255)" fill="#fff"/>
            </g>
          </g>
          <g id="Grupo_10835" data-name="Grupo 10835" transform="translate(11.459 26.007)">
            <path id="Trazado_11138" data-name="Trazado 11138" d="M402.418,234.553c-7.744,13.439-22.022,22.29-30.519,17.393s-8-21.688-.253-35.126,33.162-21.977,33.162-21.977S410.162,221.116,402.418,234.553Z" transform="translate(-365.682 -194.843)" fill="#ffa84a"/>
            <g id="Grupo_10834" data-name="Grupo 10834" transform="translate(2.323 10.772)">
              <rect id="Rectángulo_2849" data-name="Rectángulo 2849" width="60.387" height="0.768" transform="translate(0 52.321) rotate(-60.046)" fill="#fff"/>
              <rect id="Rectángulo_2850" data-name="Rectángulo 2850" width="0.768" height="11.771" transform="translate(15.985 7.931) rotate(-15.044)" fill="#fff"/>
              <rect id="Rectángulo_2851" data-name="Rectángulo 2851" width="12.732" height="0.768" transform="translate(9.916 35.47) rotate(-15.042)" fill="#fff"/>
            </g>
          </g>
          <g id="Grupo_10836" data-name="Grupo 10836" transform="translate(12.026 44.249)">
            <path id="Trazado_11139" data-name="Trazado 11139" d="M428.122,280.779c1.226-4.711-1.432-10.553-6.206-11.2-2-.272-4.819-.2-5.1-2.2-.173-1.252.976-2.286,2.065-2.939,3.108-1.861,6.666-2.769,9.97-4.241s6.55-3.749,7.8-7.156-.451-7.965-3.986-8.57c-2.127-.364-4.674.617-6.28-.817-1.584-1.413-.871-4.2.687-5.685s3.682-2.2,5.459-3.408c5.733-3.914,6.211-13.552.887-17.861-.2-.164-.415-.316-.63-.461s-.426-.3-.651-.43c-5.893-3.492-14.762.312-16.435,7.049-.519,2.088-.442,4.325-1.294,6.3s-3.214,3.616-5.091,2.623c-1.9-1.007-1.87-3.736-2.952-5.6-1.8-3.1-6.664-3.11-9.421-.753s-3.764,6.194-3.994,9.8.158,7.261-.5,10.822c-.233,1.249-.8,2.685-2.036,2.959-1.977.438-2.889-2.235-3.838-4.012-2.271-4.248-8.672-4.706-12.661-1.917s-5.923,7.73-6.81,12.512h0c-1.432,7.718-.708,15.562.172,23.263.852,7.458,2.6,26.081,3.368,26.752.9.488,18.964-4.357,26.251-6.154,7.525-1.856,15.132-3.908,21.868-7.938h0C422.937,289.022,426.9,285.491,428.122,280.779Z" transform="translate(-366.292 -214.488)" fill="#59a9ea"/>
            <path id="Trazado_11140" data-name="Trazado 11140" d="M407.526,257.485l-3.584-20.867.778-.146,3.584,20.867Z" transform="translate(-368.98 -216.058)" fill="#fff"/>
            <path id="Trazado_11141" data-name="Trazado 11141" d="M414.477,282.165l-.134-.78-29,5.441,20.435-29.387,20.648-3.874-.134-.78-19.87,3.728L423.4,232.1l-.645-.448L384.69,286.4l-5-29.108-.778.146,5.133,29.888-13.414,19.29.645.449L384.7,287.752Z" transform="translate(-366.602 -215.713)" fill="#fff"/>
          </g>
        </g>
      </g>
      <g id="Grupo_10860" data-name="Grupo 10860" transform="translate(9.827)">
        <g id="Grupo_10846" data-name="Grupo 10846" transform="translate(48.379)">
          <path id="Trazado_11142" data-name="Trazado 11142" d="M354.8,212.243V333.4a9.332,9.332,0,0,1-9.337,9.33H135.113a9.337,9.337,0,0,1-9.337-9.33V212.243a9.338,9.338,0,0,1,9.337-9.336H345.461A9.334,9.334,0,0,1,354.8,212.243Z" transform="translate(-125.776 -136.095)" fill="#98ccfe"/>
          <path id="Trazado_11143" data-name="Trazado 11143" d="M125.779,321.29v20.559a9.334,9.334,0,0,0,9.334,9.333H345.464a9.333,9.333,0,0,0,9.334-9.333V321.29Z" transform="translate(-125.776 -144.548)" fill="#307af2"/>
          <rect id="Rectángulo_2852" data-name="Rectángulo 2852" width="46.602" height="36.648" transform="translate(91.212 206.633)" fill="#98ccfe"/>
          <rect id="Rectángulo_2853" data-name="Rectángulo 2853" width="46.608" height="11.893" transform="translate(91.209 206.635)" fill="#59a9ea"/>
          <path id="Rectángulo_2854" data-name="Rectángulo 2854" d="M10.607,0H81A10.607,10.607,0,0,1,91.608,10.607v0a0,0,0,0,1,0,0H0a0,0,0,0,1,0,0v0A10.607,10.607,0,0,1,10.607,0Z" transform="translate(68.709 243.278)" fill="#98ccfe"/>
          <path id="Trazado_11144" data-name="Trazado 11144" d="M200.5,400.212a10.556,10.556,0,0,0-.735,3.856h91.608a10.556,10.556,0,0,0-.734-3.856Z" transform="translate(-131.06 -150.184)" fill="#59a9ea"/>
          <g id="Grupo_10842" data-name="Grupo 10842" transform="translate(74.57 66.812)">
            <g id="Grupo_10839" data-name="Grupo 10839">
              <path id="Trazado_11145" data-name="Trazado 11145" d="M245.285,256.445V247.9l-20.634-44.992H206.08l24.544,53.539Z" transform="translate(-206.08 -202.906)" fill="#307af2"/>
              <path id="Trazado_11146" data-name="Trazado 11146" d="M262.96,256.445,287.5,202.906H268.929L248.3,247.9v8.546Z" transform="translate(-209.095 -202.906)" fill="#307af2"/>
            </g>
            <g id="Grupo_10841" data-name="Grupo 10841" transform="translate(3.973 27.136)">
              <g id="Grupo_10840" data-name="Grupo 10840">
                <circle id="Elipse_653" data-name="Elipse 653" cx="24.911" cy="24.911" r="24.911" transform="translate(0 35.229) rotate(-45)" fill="#ff8736"/>
                <circle id="Elipse_654" data-name="Elipse 654" cx="22.742" cy="22.742" r="22.742" transform="translate(12.487 12.487)" fill="#ffa84a"/>
                <circle id="Elipse_655" data-name="Elipse 655" cx="17.593" cy="17.593" r="17.593" transform="translate(10.349 35.229) rotate(-45)" fill="#ff8736"/>
                <path id="Trazado_11147" data-name="Trazado 11147" d="M258.389,255.4a17.592,17.592,0,0,1-24.755,24.756A17.592,17.592,0,1,0,258.389,255.4Z" transform="translate(-212.021 -233.791)" fill="#ff8533" style="mix-blend-mode: multiply;isolation: isolate"/>
              </g>
              <path id="Trazado_11148" data-name="Trazado 11148" d="M247.188,259.149l1.955,6.018h6.327l-5.119,3.719,1.955,6.018-5.119-3.719-5.119,3.719,1.955-6.018-5.119-3.719h6.327Z" transform="translate(-212.397 -234.059)" fill="#ff8533" opacity="0.54" style="mix-blend-mode: multiply;isolation: isolate"/>
            </g>
          </g>
          <path id="Trazado_11149" data-name="Trazado 11149" d="M354.762,211.458a9.329,9.329,0,0,0-9.3-8.552H135.116a9.334,9.334,0,0,0-9.3,8.552Z" transform="translate(-125.779 -136.095)" fill="#307af2" opacity="0.38" style="mix-blend-mode: multiply;isolation: isolate"/>
          <g id="Grupo_10845" data-name="Grupo 10845" transform="translate(36.157)">
            <g id="Grupo_10843" data-name="Grupo 10843">
              <path id="Trazado_11150" data-name="Trazado 11150" d="M321.446,154.953l-19.929,6.1-2.453.747L243.08,178.95l-78.366-24,78.366-24L299.064,148.1l2.453.747Z" transform="translate(-164.714 -130.957)" fill="#240d7c"/>
              <path id="Trazado_11151" data-name="Trazado 11151" d="M305.09,148.159l-53.555-16.4-2.429,2.511v44.738l55.984-17.145,2.453-.747,19.929-6.1-19.929-6.1Z" transform="translate(-170.74 -131.014)" fill="#0f0756"/>
              <path id="Trazado_11152" data-name="Trazado 11152" d="M243.08,134.212l55.984,17.145,2.453.747,14.616,4.477,5.313-1.627-19.929-6.1-2.453-.747L243.08,130.957l-78.366,24,5.315,1.627Z" transform="translate(-164.714 -130.957)" fill="#363db3"/>
            </g>
            <rect id="Rectángulo_2855" data-name="Rectángulo 2855" width="87.682" height="35.621" transform="translate(34.526 31.191)" fill="#240d7c"/>
            <rect id="Rectángulo_2856" data-name="Rectángulo 2856" width="17.718" height="35.621" transform="translate(34.526 31.191)" fill="#363db3"/>
            <rect id="Rectángulo_2857" data-name="Rectángulo 2857" width="29.236" height="35.621" transform="translate(92.973 31.191)" fill="#0f0756"/>
            <g id="Grupo_10844" data-name="Grupo 10844" transform="translate(131.91 17.145)">
              <path id="Trazado_11153" data-name="Trazado 11153" d="M311.848,150.167v35.369H309.4V149.42l1.728.528Z" transform="translate(-306.955 -149.42)" fill="#ffa84a"/>
              <path id="Trazado_11154" data-name="Trazado 11154" d="M311.981,150.208v35.369h-.724V149.989Z" transform="translate(-307.088 -149.461)" fill="#ff8736"/>
              <path id="Trazado_11155" data-name="Trazado 11155" d="M311.662,188.923H309.21l-2.361,5.734a1.066,1.066,0,0,0,.986,1.471h5.2a1.065,1.065,0,0,0,.985-1.471Z" transform="translate(-306.768 -152.241)" fill="#ffa84a"/>
              <path id="Trazado_11156" data-name="Trazado 11156" d="M314.3,194.657l-2.36-5.734H310.69l2.36,5.734a1.065,1.065,0,0,1-.985,1.471h1.252A1.065,1.065,0,0,0,314.3,194.657Z" transform="translate(-307.048 -152.241)" fill="#ff8736"/>
              <path id="Trazado_11157" data-name="Trazado 11157" d="M313.379,186.973a2.956,2.956,0,1,1-2.957-2.956A2.956,2.956,0,0,1,313.379,186.973Z" transform="translate(-306.818 -151.89)" fill="#ffa84a"/>
              <path id="Trazado_11158" data-name="Trazado 11158" d="M311.848,182.933v1.283a2.926,2.926,0,0,0-1.291-.294,2.832,2.832,0,0,0-1.163.241V182.9a4.238,4.238,0,0,1,1.163-.166A4.287,4.287,0,0,1,311.848,182.933Z" transform="translate(-306.955 -151.799)" fill="#ff8736"/>
              <path id="Trazado_11159" data-name="Trazado 11159" d="M310.423,184.017c-.032,0-.06.008-.092.009a2.242,2.242,0,1,1-2.854,2.854c0,.032-.009.06-.009.092a2.956,2.956,0,1,0,2.956-2.956Z" transform="translate(-306.818 -151.89)" fill="#ff8736"/>
            </g>
            <rect id="Rectángulo_2858" data-name="Rectángulo 2858" width="87.682" height="4.24" transform="translate(34.526 31.191)" fill="#0f0756"/>
          </g>
        </g>
        <g id="Grupo_10848" data-name="Grupo 10848" transform="translate(199.912 105.56)">
          <path id="Trazado_11160" data-name="Trazado 11160" d="M384.81,244.634H294.954a5.994,5.994,0,0,0-5.993,5.993v19a5.994,5.994,0,0,0,5.973,5.993l30.943.1a12.2,12.2,0,0,1,8.584,3.572l1.116,1.117a5.992,5.992,0,0,0,8.541-.068l1.006-1.036a12.2,12.2,0,0,1,8.758-3.709H384.81a5.994,5.994,0,0,0,5.993-5.993V250.627A5.994,5.994,0,0,0,384.81,244.634Z" transform="translate(-288.961 -244.634)" fill="#307af2"/>
          <g id="Grupo_10847" data-name="Grupo 10847" transform="translate(8.793 8.659)">
            <path id="Trazado_11161" data-name="Trazado 11161" d="M305.03,253.959l1.558,4.8h5.042l-4.079,2.964,1.558,4.8-4.079-2.964-4.079,2.964,1.558-4.8-4.079-2.964h5.042Z" transform="translate(-298.43 -253.959)" fill="#ffa84a"/>
            <path id="Trazado_11162" data-name="Trazado 11162" d="M324.16,253.959l1.558,4.8h5.042l-4.079,2.964,1.558,4.8-4.079-2.964-4.079,2.964,1.558-4.8-4.079-2.964H322.6Z" transform="translate(-299.796 -253.959)" fill="#ffa84a"/>
            <path id="Trazado_11163" data-name="Trazado 11163" d="M343.29,253.959l1.558,4.8h5.042l-4.079,2.964,1.558,4.8-4.079-2.964-4.079,2.964,1.558-4.8-4.079-2.964h5.042Z" transform="translate(-301.162 -253.959)" fill="#ffa84a"/>
            <path id="Trazado_11164" data-name="Trazado 11164" d="M362.421,253.959l1.558,4.8h5.042l-4.079,2.964,1.558,4.8-4.079-2.964-4.079,2.964,1.558-4.8-4.079-2.964h5.042Z" transform="translate(-302.528 -253.959)" fill="#ffa84a"/>
            <path id="Trazado_11165" data-name="Trazado 11165" d="M381.551,253.959l1.558,4.8h5.042l-4.079,2.964,1.558,4.8-4.079-2.964-4.079,2.964,1.558-4.8-4.079-2.964h5.042Z" transform="translate(-303.894 -253.959)" fill="#ffa84a"/>
          </g>
        </g>
        <g id="Grupo_10854" data-name="Grupo 10854" transform="translate(167.774 158.783)">
          <rect id="Rectángulo_2859" data-name="Rectángulo 2859" width="148.857" height="95.102" fill="#e5f1ff"/>
          <g id="Grupo_10853" data-name="Grupo 10853" transform="translate(5.182 5.182)">
            <g id="Grupo_10849" data-name="Grupo 10849">
              <path id="Trazado_11166" data-name="Trazado 11166" d="M272.925,397.823H259.932v-12.5c.155-.007.311-.007.466-.007A12.527,12.527,0,0,1,272.925,397.823Z" transform="translate(-259.932 -313.085)" fill="#307af2"/>
              <path id="Trazado_11167" data-name="Trazado 11167" d="M259.932,307.53h12.993v.015A12.522,12.522,0,0,1,260.4,320.072c-.155,0-.311,0-.466-.007Z" transform="translate(-259.932 -307.53)" fill="#307af2"/>
              <path id="Trazado_11168" data-name="Trazado 11168" d="M408.151,307.53v12.527a12.521,12.521,0,0,1-12.016-12.512v-.015Z" transform="translate(-269.658 -307.53)" fill="#307af2"/>
              <path id="Trazado_11169" data-name="Trazado 11169" d="M408.151,385.335v12.49H396.135A12.527,12.527,0,0,1,408.151,385.335Z" transform="translate(-269.658 -313.086)" fill="#307af2"/>
              <rect id="Rectángulo_2860" data-name="Rectángulo 2860" width="98.092" height="1.803" transform="translate(20.692 0.015)" fill="#307af2"/>
              <rect id="Rectángulo_2861" data-name="Rectángulo 2861" width="98.092" height="1.803" transform="translate(20.692 82.935)" fill="#307af2"/>
              <rect id="Rectángulo_2862" data-name="Rectángulo 2862" width="1.803" height="47.22" transform="translate(0 19.177)" fill="#307af2"/>
              <rect id="Rectángulo_2863" data-name="Rectángulo 2863" width="1.803" height="47.22" transform="translate(136.69 19.177)" fill="#307af2"/>
            </g>
            <g id="Grupo_10852" data-name="Grupo 10852" transform="translate(18.236 11.48)">
              <g id="Grupo_10850" data-name="Grupo 10850">
                <rect id="Rectángulo_2864" data-name="Rectángulo 2864" width="72.054" height="5.557" fill="#98ccfe"/>
                <rect id="Rectángulo_2865" data-name="Rectángulo 2865" width="72.054" height="2.177" transform="translate(0 42.027)" fill="#98ccfe"/>
                <rect id="Rectángulo_2866" data-name="Rectángulo 2866" width="50.274" height="2.177" transform="translate(0 28.599)" fill="#98ccfe"/>
                <rect id="Rectángulo_2867" data-name="Rectángulo 2867" width="35.62" height="5.557" transform="translate(0 10.982)" fill="#98ccfe"/>
                <rect id="Rectángulo_2868" data-name="Rectángulo 2868" width="26.464" height="3.245" transform="translate(0 59.966)" fill="#98ccfe"/>
                <rect id="Rectángulo_2869" data-name="Rectángulo 2869" width="26.464" height="3.245" transform="translate(36.256 59.966)" fill="#98ccfe"/>
              </g>
              <g id="Grupo_10851" data-name="Grupo 10851" transform="translate(79.177 26.366)">
                <path id="Trazado_11170" data-name="Trazado 11170" d="M382.248,348.717l1.426.824a3.221,3.221,0,0,0,1.609.431h1.647a3.22,3.22,0,0,1,2.788,1.609l.824,1.426a3.214,3.214,0,0,0,1.177,1.178l1.426.824a3.216,3.216,0,0,1,1.609,2.787v1.647a3.22,3.22,0,0,0,.432,1.609l.824,1.426a3.219,3.219,0,0,1,0,3.219l-.824,1.427a3.217,3.217,0,0,0-.432,1.609v1.646a3.217,3.217,0,0,1-1.609,2.788l-1.426.824a3.214,3.214,0,0,0-1.177,1.178l-.824,1.426a3.22,3.22,0,0,1-2.788,1.609h-1.647a3.221,3.221,0,0,0-1.609.431l-1.426.824a3.219,3.219,0,0,1-3.219,0l-1.426-.824a3.221,3.221,0,0,0-1.609-.431h-1.647a3.221,3.221,0,0,1-2.788-1.609l-.823-1.426a3.223,3.223,0,0,0-1.178-1.178l-1.426-.824a3.217,3.217,0,0,1-1.609-2.788v-1.646a3.208,3.208,0,0,0-.432-1.609l-.824-1.427a3.219,3.219,0,0,1,0-3.219l.824-1.426a3.21,3.21,0,0,0,.432-1.609V357.8a3.216,3.216,0,0,1,1.609-2.787l1.426-.824a3.223,3.223,0,0,0,1.178-1.178l.823-1.426a3.221,3.221,0,0,1,2.788-1.609h1.647a3.221,3.221,0,0,0,1.609-.431l1.426-.824A3.219,3.219,0,0,1,382.248,348.717Z" transform="translate(-364.836 -348.286)" fill="#ffa84a"/>
                <circle id="Elipse_656" data-name="Elipse 656" cx="10.18" cy="10.18" r="10.18" transform="translate(4.119 7.391) rotate(-9.249)" fill="#ff8736"/>
              </g>
            </g>
          </g>
        </g>
        <g id="Grupo_10859" data-name="Grupo 10859" transform="translate(0 157.543)">
          <g id="Grupo_10857" data-name="Grupo 10857" transform="translate(0 32.738)">
            <rect id="Rectángulo_2870" data-name="Rectángulo 2870" width="93.634" height="21.565" transform="translate(1.645 27.838)" fill="#ff8533"/>
            <rect id="Rectángulo_2871" data-name="Rectángulo 2871" width="93.634" height="3.704" transform="translate(1.645 45.699)" fill="#ff8533" opacity="0.58" style="mix-blend-mode: multiply;isolation: isolate"/>
            <rect id="Rectángulo_2872" data-name="Rectángulo 2872" width="93.634" height="13.897" transform="translate(6.429 13.977)" fill="#240d7c"/>
            <rect id="Rectángulo_2873" data-name="Rectángulo 2873" width="15.581" height="13.897" transform="translate(6.429 13.977)" fill="#363db3"/>
            <rect id="Rectángulo_2874" data-name="Rectángulo 2874" width="15.581" height="13.897" transform="translate(84.483 13.977)" fill="#363db3"/>
            <rect id="Rectángulo_2875" data-name="Rectángulo 2875" width="93.634" height="13.897" transform="translate(1.285)" fill="#59a9ea"/>
            <rect id="Rectángulo_2876" data-name="Rectángulo 2876" width="93.634" height="4.098" transform="translate(1.285 9.799)" fill="#307af2" opacity="0.37" style="mix-blend-mode: multiply;isolation: isolate"/>
            <g id="Grupo_10855" data-name="Grupo 10855" transform="translate(8.277 34.357)">
              <rect id="Rectángulo_2877" data-name="Rectángulo 2877" width="10.3" height="9.876" fill="#edf1f4"/>
              <rect id="Rectángulo_2878" data-name="Rectángulo 2878" width="10.3" height="9.876" transform="translate(70.071)" fill="#edf1f4"/>
            </g>
            <g id="Grupo_10856" data-name="Grupo 10856" transform="translate(0 49.405)">
              <rect id="Rectángulo_2879" data-name="Rectángulo 2879" width="101.702" height="12.852" fill="#59a9ea"/>
              <rect id="Rectángulo_2880" data-name="Rectángulo 2880" width="23.112" height="12.852" transform="translate(39.295)" fill="#edf1f4"/>
              <rect id="Rectángulo_2881" data-name="Rectángulo 2881" width="101.702" height="4.131" transform="translate(0 8.721)" fill="#307af2" opacity="0.37" style="mix-blend-mode: multiply;isolation: isolate"/>
            </g>
            <rect id="Rectángulo_2882" data-name="Rectángulo 2882" width="93.634" height="4.757" transform="translate(6.429 23.117)" fill="#0f0756" opacity="0.58" style="mix-blend-mode: multiply;isolation: isolate"/>
          </g>
          <g id="Grupo_10858" data-name="Grupo 10858" transform="translate(1.666)">
            <path id="Trazado_11171" data-name="Trazado 11171" d="M159.891,302.025c-6.968-1.212-26.583-3.769-35.864,3.8a7.4,7.4,0,0,1-4.665,1.712H117.8a7.4,7.4,0,0,1-4.665-1.712c-9.281-7.565-28.9-5.008-35.864-3.8a2.163,2.163,0,0,0-1.795,2.136v4.922a1.237,1.237,0,0,0,1.237,1.237,1.1,1.1,0,0,1,1.094,1.059c1.126,23.571,19.1,22.261,19.1,22.261,17.54.581,19.077-13.594,19.074-18.6a1.733,1.733,0,0,1,1.738-1.723h1.737a1.733,1.733,0,0,1,1.738,1.723c0,5.01,1.534,19.185,19.074,18.6,0,0,17.969,1.31,19.1-22.261a1.1,1.1,0,0,1,1.094-1.059,1.237,1.237,0,0,0,1.237-1.237v-4.92A2.166,2.166,0,0,0,159.891,302.025Zm-47.222,13.012a18.928,18.928,0,0,1-2.338,9.443c-2.379,3.948-6.435,5.873-12.4,5.873-.306,0-.611-.008-.925-.017h-.174l-.157.008h-.281c-3.378,0-14.448-1.38-15.291-19.124a7.164,7.164,0,0,1,6.724-7.135c1.6-.1,3.269-.167,4.966-.167a40.67,40.67,0,0,1,13.571,1.927,9.693,9.693,0,0,1,6.3,9.151Zm28.093,15.308h-.281l-.157-.008h-.174c-.314.008-.619.017-.925.017-5.964,0-10.02-1.925-12.4-5.873a18.928,18.928,0,0,1-2.338-9.443V315a9.693,9.693,0,0,1,6.3-9.151,40.67,40.67,0,0,1,13.571-1.927c1.7,0,3.37.064,4.965.167a7.163,7.163,0,0,1,6.724,7.135C155.21,328.965,144.14,330.345,140.762,330.345Z" transform="translate(-75.471 -300.614)" fill="#240d7c"/>
            <path id="Trazado_11172" data-name="Trazado 11172" d="M153.1,304.339c-1.6-.1-3.268-.167-4.965-.167a40.67,40.67,0,0,0-13.571,1.927,9.693,9.693,0,0,0-6.3,9.151v.041a18.928,18.928,0,0,0,2.338,9.443c2.379,3.948,6.435,5.873,12.4,5.873.305,0,.611-.008.925-.017h.174l.157.008h.281c3.378,0,14.448-1.38,15.29-19.124A7.163,7.163,0,0,0,153.1,304.339Z" transform="translate(-79.24 -300.868)" fill="#fff" opacity="0.55" style="mix-blend-mode: overlay;isolation: isolate"/>
            <path id="Trazado_11173" data-name="Trazado 11173" d="M106.8,306.1a40.67,40.67,0,0,0-13.571-1.927c-1.7,0-3.371.064-4.966.167a7.164,7.164,0,0,0-6.724,7.135C82.38,329.219,93.45,330.6,96.828,330.6h.281l.157-.008h.174c.314.008.619.017.925.017,5.964,0,10.02-1.925,12.4-5.873a18.928,18.928,0,0,0,2.338-9.443v-.041A9.693,9.693,0,0,0,106.8,306.1Z" transform="translate(-75.904 -300.868)" fill="#fff" opacity="0.55" style="mix-blend-mode: overlay;isolation: isolate"/>
          </g>
        </g>
      </g>
    </g>
  </g>
</svg>
