<svg xmlns="http://www.w3.org/2000/svg" xmlns:xlink="http://www.w3.org/1999/xlink" width="400.497" height="419.029" viewBox="0 0 400.497 419.029">
  <defs>
    <linearGradient id="linear-gradient" y1="0.5" x2="1" y2="0.5" gradientUnits="objectBoundingBox">
      <stop offset="0" stop-color="#d1d7e0"/>
      <stop offset="1" stop-color="#ebebff"/>
    </linearGradient>
    <linearGradient id="linear-gradient-2" x1="0.5" y1="2.165" x2="0.5" y2="0.322" xlink:href="#linear-gradient"/>
  </defs>
  <g id="Grupo_11051" data-name="Grupo 11051" transform="translate(-1013.614 -263.873)">
    <path id="Rectángulo_2916" data-name="Rectángulo 2916" d="M58.669,0H74.82a58.67,58.67,0,0,1,58.67,58.67V74.821A58.669,58.669,0,0,1,74.821,133.49H58.669A58.669,58.669,0,0,1,0,74.821V58.669A58.669,58.669,0,0,1,58.669,0Z" transform="translate(1075.964 322.737)" fill="#e5e5ef"/>
    <rect id="Rectángulo_2917" data-name="Rectángulo 2917" width="61.803" height="3.053" transform="translate(1111.808 425.836)" fill="#96bfe6"/>
    <rect id="Rectángulo_2918" data-name="Rectángulo 2918" width="44.296" height="3.053" transform="translate(1120.561 435.456)" fill="#96bfe6"/>
    <rect id="Rectángulo_2919" data-name="Rectángulo 2919" width="182.697" height="214.444" rx="69.115" transform="translate(1231.415 369.035)" fill="#e5e5ef"/>
    <g id="Grupo_10923" data-name="Grupo 10923" transform="translate(1314.251 495.544)">
      <rect id="Rectángulo_2920" data-name="Rectángulo 2920" width="14.49" height="2.684" fill="#4598e6"/>
    </g>
    <g id="Grupo_10924" data-name="Grupo 10924" transform="translate(1259.239 520.135)">
      <rect id="Rectángulo_2921" data-name="Rectángulo 2921" width="84.317" height="5.196" fill="#96bfe6"/>
      <rect id="Rectángulo_2922" data-name="Rectángulo 2922" width="68.183" height="5.196" transform="translate(0 24.945)" fill="#96bfe6"/>
      <rect id="Rectángulo_2923" data-name="Rectángulo 2923" width="39.972" height="5.196" transform="translate(0 12.473)" fill="#96bfe6"/>
    </g>
    <g id="Grupo_10925" data-name="Grupo 10925" transform="translate(1260.691 390.42)">
      <path id="Trazado_11228" data-name="Trazado 11228" d="M2094.818,763.9v2.624h15.451v14.5h2.624V763.9ZM1989.9,781.027h2.624v-14.5h15.451V763.9H1989.9Zm120.375,74.825v14.506h-15.451v2.624h18.075v-17.13Zm-117.75,0H1989.9v17.13h18.075v-2.624h-15.451Z" transform="translate(-1989.895 -763.902)" fill="#4598e6"/>
    </g>
    <g id="Grupo_10928" data-name="Grupo 10928" transform="translate(1360.057 519.753)">
      <g id="Grupo_10926" data-name="Grupo 10926" transform="translate(0 0)">
        <path id="Trazado_11229" data-name="Trazado 11229" d="M2397.975,1305.844a15.452,15.452,0,1,1,15.452-15.452A15.47,15.47,0,0,1,2397.975,1305.844Zm0-27.914a12.461,12.461,0,1,0,12.461,12.462A12.476,12.476,0,0,0,2397.975,1277.93Z" transform="translate(-2382.523 -1274.94)" fill="#4598e6"/>
      </g>
      <g id="Grupo_10927" data-name="Grupo 10927" transform="translate(9.159 9.159)">
        <rect id="Rectángulo_2924" data-name="Rectángulo 2924" width="3.406" height="14.393" transform="translate(10.177 0) rotate(45)" fill="#4598e6"/>
        <rect id="Rectángulo_2925" data-name="Rectángulo 2925" width="3.406" height="14.393" transform="translate(12.586 10.177) rotate(135)" fill="#4598e6"/>
      </g>
    </g>
    <path id="Trazado_11230" data-name="Trazado 11230" d="M1322.763,1838.591c0,6.481-69.205,11.735-154.575,11.735s-154.574-5.254-154.574-11.735,69.205-11.735,154.574-11.735S1322.763,1832.11,1322.763,1838.591Z" transform="translate(0 -1167.424)" opacity="0.95" fill="url(#linear-gradient)"/>
    <rect id="Rectángulo_2926" data-name="Rectángulo 2926" width="89.977" height="77.2" transform="translate(1097.721 327.729)" opacity="0.95" fill="url(#linear-gradient-2)"/>
    <g id="Grupo_10933" data-name="Grupo 10933" transform="translate(1097.403 316.561)">
      <path id="Trazado_11231" data-name="Trazado 11231" d="M1424.367,651.354c-2.963-7.839-10.082-11.438-13.443-12.56-1.2-.4-3.334-1.1-5.587-1.824-4.058-1.311-8.492-2.738-8.492-2.738h-14s-4.849,1.625-10,3.432a0,0,0,0,1,0,0c-4.748,1.665-9.747,3.48-11.434,4.328-3.52,1.757-9.442,14.322-10.639,15.762a110.789,110.789,0,0,0-6.068,11.1h15.086c1.594-2.738,2.822-4.862,2.822-4.862s.954,2.093,2.111,4.862h48.332c.764-3.215,1.241-7.265,1.241-7.265s2.588,3.52,5.414,7.265h13.929C1430.241,663.176,1426.036,655.779,1424.367,651.354Z" transform="translate(-1344.693 -593.189)" fill="#385369"/>
      <g id="Grupo_10929" data-name="Grupo 10929" transform="translate(33.715 2.458)">
        <path id="Trazado_11232" data-name="Trazado 11232" d="M1491.017,481.874s10.95,1.725,9.282,18.857-11.331,15.728-11.977,15.71-9.7.312-10.408-20.6C1477.914,495.836,1477.606,480.369,1491.017,481.874Z" transform="translate(-1477.914 -481.771)" fill="#eea886"/>
      </g>
      <g id="Grupo_10930" data-name="Grupo 10930" transform="translate(55.634 16.014)">
        <path id="Trazado_11233" data-name="Trazado 11233" d="M1565.158,535.9s1.2-1.281,1.639.016-1.636,7.079-1.71,7.35c0,0-.219.5-.507.226S1565.158,535.9,1565.158,535.9Z" transform="translate(-1564.521 -535.336)" fill="#eea886"/>
      </g>
      <g id="Grupo_10931" data-name="Grupo 10931" transform="translate(32.3 15.778)">
        <path id="Trazado_11234" data-name="Trazado 11234" d="M1474.033,534.986s-1.174-1.3-1.639-.016,1.481,7.108,1.568,7.382c0,0,.209.507.5.236S1474.033,534.986,1474.033,534.986Z" transform="translate(-1472.322 -534.402)" fill="#eea886"/>
      </g>
      <g id="Grupo_10932" data-name="Grupo 10932" transform="translate(32.451)">
        <path id="Trazado_11235" data-name="Trazado 11235" d="M1496.732,491.265l-1.568,2.1a41.862,41.862,0,0,0-.207-5.315c-.251-.72-.636-2.922-.847-3.44s-9.4-3.1-17.523.752c0,0,.357,3.3-.421,3.6s-.4,5.381-.4,5.381l-1.289-1.454s-1.973-13.181-1.486-14.554,2.04-9.633,18.7-4.73c0,0,5.193-1.1,6.236,2.486S1496.732,491.265,1496.732,491.265Z" transform="translate(-1472.918 -472.059)" fill="#434343"/>
      </g>
      <path id="Trazado_11236" data-name="Trazado 11236" d="M1486.82,601.995c0-.016-1.4-.69-1.4-.69-.682-1.525-.175-7.961-.175-7.961s-13.946-3.549-13.548-.835-1.2,9.02-1.2,9.02l-7.154,3.552s7.623,20.468,16.384,17.827,12.069-18.565,12.069-18.565Z" transform="translate(-1433.31 -561.262)" fill="#eea886"/>
      <path id="Trazado_11237" data-name="Trazado 11237" d="M1497.146,606.523a8.268,8.268,0,0,0,6.147,2.9c2.565,0,4.407-.719,6.962-3.211,0,0-1.108,4.732-6.945,5.172C1503.31,611.385,1499.077,611.923,1497.146,606.523Z" transform="translate(-1458.563 -572.261)" fill="#a77860"/>
    </g>
    <g id="Grupo_10990" data-name="Grupo 10990" transform="translate(1052.27 417.782)">
      <g id="Grupo_10938" data-name="Grupo 10938" transform="translate(22.764)">
        <g id="Grupo_10937" data-name="Grupo 10937">
          <g id="Grupo_10936" data-name="Grupo 10936">
            <g id="Grupo_10935" data-name="Grupo 10935">
              <g id="Grupo_10934" data-name="Grupo 10934">
                <path id="Trazado_11238" data-name="Trazado 11238" d="M1276.995,873.785s8.046,3.936,6.057,14.643-2.87,12.15-.645,16.334,4.851,22.031,2.848,25.413-24.79-14.865-27.95-30.176,2-22.12,3.828-24.657S1269.891,870.18,1276.995,873.785Z" transform="translate(-1256.304 -872.018)" fill="#0e2d3d"/>
              </g>
            </g>
          </g>
        </g>
      </g>
      <g id="Grupo_10939" data-name="Grupo 10939" transform="translate(38.533 228.003)">
        <path id="Trazado_11239" data-name="Trazado 11239" d="M1320.5,1795.187h1.824v-8.6a24.426,24.426,0,0,1,5.821,5.681c2.245,3.3,5.33,3.016,10.03,2.805s4.489-2.1,4.068-4.769-5.19-3.507-6.733-3.928-5.046-6.455-6.172-7.925a20.146,20.146,0,0,1-2.35-3.927s-.877-3.577-5.225,0-3.086,10.45-2.595,11.081S1320.5,1795.187,1320.5,1795.187Z" transform="translate(-1318.611 -1772.933)" fill="#163342"/>
      </g>
      <g id="Grupo_10940" data-name="Grupo 10940" transform="translate(40.693 228.647)">
        <path id="Trazado_11240" data-name="Trazado 11240" d="M1336.062,1788.278c1.613,1.052,5.821,0,5.821,0-1.192-1.543-8.522-11.853-8.522-11.853-4.453-2.6-6.214.976-6.214.976C1328.965,1777.956,1334.449,1787.226,1336.062,1788.278Z" transform="translate(-1327.148 -1775.48)" fill="#eea886"/>
      </g>
      <g id="Grupo_10944" data-name="Grupo 10944" transform="translate(96.271 77.943)">
        <g id="Grupo_10943" data-name="Grupo 10943">
          <g id="Grupo_10942" data-name="Grupo 10942">
            <g id="Grupo_10941" data-name="Grupo 10941">
              <path id="Trazado_11241" data-name="Trazado 11241" d="M1546.984,1184.839s2.92.56,3.917-.813a9.531,9.531,0,0,1,3.384-2.339c.8-.37,2.823-2.419,3.3-1.417s-3.177,3.538-3.836,4.223,3.582.988,4.314,1.654-.168,7.664-3.056,7.119-5.612-3.033-6.139-3.028a18.033,18.033,0,0,1-2.116-.313Z" transform="translate(-1546.752 -1179.997)" fill="#eea886"/>
            </g>
          </g>
        </g>
      </g>
      <g id="Grupo_10948" data-name="Grupo 10948" transform="translate(104.665 83.807)">
        <g id="Grupo_10947" data-name="Grupo 10947">
          <g id="Grupo_10946" data-name="Grupo 10946">
            <g id="Grupo_10945" data-name="Grupo 10945">
              <path id="Trazado_11242" data-name="Trazado 11242" d="M1582.193,1203.166s8.729,2.255,9.185,2.892.306,1.1-.519.926-8.5-1.935-8.5-1.935,9.883,4.405,10.37,4.845c.285.258.048,1.177-.4,1.123s-10.5-3.86-10.5-3.86,9.22,4.13,9.518,4.62a.7.7,0,0,1-.873.958c-.7-.259-9.479-3.608-9.479-3.608s6.522,3.428,6.53,3.991c0,.345-.163,1.148-1.818.211s-5.792-2.738-5.792-2.738Z" transform="translate(-1579.92 -1203.166)" fill="#eea886"/>
            </g>
          </g>
        </g>
      </g>
      <g id="Grupo_10949" data-name="Grupo 10949" transform="translate(16.277 234.999)">
        <path id="Trazado_11243" data-name="Trazado 11243" d="M1231.184,1816.423h1.122v-6.312a13.731,13.731,0,0,1,2.907,5.069c.912,3.016,4.176,3.91,9.156,3.77s5.05-2.106,4.629-5.052-4.629-4.489-4.629-4.489c-1.894-1.683-6.593-8.662-6.593-8.662a6.568,6.568,0,0,0-5.383,1.1c-2.367,1.91-1.631,6.225-1.561,7.347S1231.184,1816.423,1231.184,1816.423Z" transform="translate(-1230.671 -1800.578)" fill="#163342"/>
      </g>
      <g id="Grupo_10950" data-name="Grupo 10950" transform="translate(10.016 97.979)">
        <path id="Trazado_11244" data-name="Trazado 11244" d="M1216.142,1261.657s-5.934,7.715-7.543,16.868.951,39.873.88,44.4-4.279,15.781-3.437,24.3,4.163,50.935,4.163,50.935l9.093-1.8s-.526-43.239,0-46.816,1.582-16.616,1.792-18.089,13.357-40.148,13.357-46.747S1230.45,1250.891,1216.142,1261.657Z" transform="translate(-1205.931 -1259.166)" fill="#1d3b54"/>
      </g>
      <g id="Grupo_10951" data-name="Grupo 10951" transform="translate(29.633 101.554)">
        <path id="Trazado_11245" data-name="Trazado 11245" d="M1303.845,1275.224s9.749,37.208,10.906,42.363,2.834,9.407,2.834,11.6c0,5.078-1.887,13.233-1.887,13.233l-12.38,59.209h-11.79s6.569-35.521,6.746-42.467c.177-6.961,5.536-16.847,4.484-19.793s-16.938-36.927-16.938-36.927S1273.792,1264.423,1303.845,1275.224Z" transform="translate(-1283.443 -1273.292)" fill="#1d3b54"/>
      </g>
      <g id="Grupo_10952" data-name="Grupo 10952" transform="translate(18.001 235.168)">
        <path id="Trazado_11246" data-name="Trazado 11246" d="M1249.456,1809.908l-6.593-8.662-5.383,1.1a24.411,24.411,0,0,0,4.065,6.794C1244.645,1812.6,1249.456,1809.908,1249.456,1809.908Z" transform="translate(-1237.481 -1801.246)" fill="#eea886"/>
      </g>
      <g id="Grupo_10954" data-name="Grupo 10954" transform="translate(42.469 40.256)">
        <g id="Grupo_10953" data-name="Grupo 10953">
          <path id="Trazado_11247" data-name="Trazado 11247" d="M1337.7,1031.084a12.165,12.165,0,0,1,7.056,3.633,46.572,46.572,0,0,1,6.683,10.178c.8,1.736,11.946,17.819,12.524,18.181s6.183,2.234,9.9,3.484c5.731,1.929,17.219,6.1,17.219,6.1l-2.281,7.223s-21.6-7.068-27.011-8.4c-6.615-1.63-21.844-21.167-21.844-21.167S1328.591,1037.014,1337.7,1031.084Z" transform="translate(-1334.163 -1031.084)" fill="#285173"/>
        </g>
      </g>
      <g id="Grupo_10956" data-name="Grupo 10956" transform="translate(11.088 37.164)">
        <g id="Grupo_10955" data-name="Grupo 10955">
          <path id="Trazado_11248" data-name="Trazado 11248" d="M1238.075,1019.137a54.457,54.457,0,0,0,7.014,2.82c1.808.362,8.822,9.473,10.051,12.8s0,8.316-2.531,14.173-.145,7.81-1.3,13.667-.785,27.769-.568,31.023-33.847,8.186-40.571,2.257c0,0,4.553-19.748,9.943-25.385,1.166-1.219,1.042-9.342.247-11.367s-9.762-17.138-9.762-17.138-.659-15.328,3.254-18.367c3.4-2.639,12.661-3.58,14.325-4.159S1234.676,1018.631,1238.075,1019.137Z" transform="translate(-1210.169 -1018.865)" fill="#ffbf55"/>
        </g>
      </g>
      <g id="Grupo_10958" data-name="Grupo 10958" transform="translate(29.096 24.303)">
        <g id="Grupo_10957" data-name="Grupo 10957">
          <path id="Trazado_11249" data-name="Trazado 11249" d="M1293.706,975.172s-.155,1.433-.335,3.371c-.069.767-.145,1.613-.214,2.479a58.548,58.548,0,0,0-.273,6.811s-5.412,5.422-11.563-6.327a16.146,16.146,0,0,0,.639-11.442C1280.012,963.465,1293.706,975.172,1293.706,975.172Z" transform="translate(-1281.321 -968.047)" fill="#eea886"/>
        </g>
      </g>
      <g id="Grupo_10959" data-name="Grupo 10959" transform="translate(54.058 55.459)">
        <path id="Trazado_11250" data-name="Trazado 11250" d="M1382.52,1105.084s1.3-8.662-.083-13.93a33.64,33.64,0,0,1-2.484,10.962Z" transform="translate(-1379.954 -1091.154)" fill="#183c59"/>
      </g>
      <g id="Grupo_10960" data-name="Grupo 10960" transform="translate(24.938 37.627)">
        <path id="Trazado_11251" data-name="Trazado 11251" d="M1264.894,1021.663s3.721,10.992,13.939,10.183,4.844-9.281,4.844-9.281a22.548,22.548,0,0,0-3.263-1.6c-.717-.138-11.3-.272-11.3-.272Z" transform="translate(-1264.894 -1020.695)" fill="#eea886"/>
      </g>
      <g id="Grupo_10961" data-name="Grupo 10961" transform="translate(43.721 39.497)">
        <path id="Trazado_11252" data-name="Trazado 11252" d="M1339.112,1028.084s5.352,14.8,5.352,29.891.431,39.665,2.3,47.427,7.186,31.764,7.186,31.764l4.168-2.156s-10.023-38.308-10.78-41.07.575-31.944,1.294-34.388,3.775-13.32,3.3-16.338c-.6-3.8-4.159-9.432-9.908-14.272Z" transform="translate(-1339.112 -1028.084)" fill="#285173"/>
      </g>
      <g id="Grupo_10962" data-name="Grupo 10962" transform="translate(4.373 38.132)">
        <path id="Trazado_11253" data-name="Trazado 11253" d="M1206.218,1022.691a153.886,153.886,0,0,1,5.012,24.292c1.686,13.641-5.174,76.957-9.773,91.33l-17.823-2.875s3.836-44.755,9.044-52.9,6.865-15.351,1.243-32.35,2.464-25.419,2.464-25.419S1204.656,1022.868,1206.218,1022.691Z" transform="translate(-1183.634 -1022.691)" fill="#285173"/>
      </g>
      <g id="Grupo_10963" data-name="Grupo 10963" transform="translate(0.552 68.887)">
        <path id="Trazado_11254" data-name="Trazado 11254" d="M1214.17,1158.625l-21.61,37.429-24.023-13.87,20.671-37.971Z" transform="translate(-1168.537 -1144.214)" fill="#616161"/>
      </g>
      <g id="Grupo_10964" data-name="Grupo 10964" transform="translate(3.052 71.787)">
        <path id="Trazado_11255" data-name="Trazado 11255" d="M1218.943,1168.471l-19.192,33.242-21.336-12.318,18.358-33.723Z" transform="translate(-1178.415 -1155.672)" fill="#e0cec7"/>
      </g>
      <g id="Grupo_10965" data-name="Grupo 10965" transform="translate(27.537 74.286)">
        <path id="Trazado_11256" data-name="Trazado 11256" d="M1284.126,1172.862l1.347-2.333-8.625-4.98-1.684,2.139Z" transform="translate(-1275.163 -1165.549)" fill="#616161"/>
      </g>
      <g id="Grupo_10971" data-name="Grupo 10971" transform="translate(25.561 96.522)">
        <g id="Grupo_10970" data-name="Grupo 10970">
          <g id="Grupo_10969" data-name="Grupo 10969">
            <g id="Grupo_10968" data-name="Grupo 10968">
              <g id="Grupo_10967" data-name="Grupo 10967">
                <g id="Grupo_10966" data-name="Grupo 10966">
                  <path id="Trazado_11257" data-name="Trazado 11257" d="M1277.264,1265.043a4.47,4.47,0,0,1-1.413-.2s-.755-.438-1.31-.717a4.071,4.071,0,0,0-.438-.2,8.193,8.193,0,0,1-2.409-1.019,54.827,54.827,0,0,1-4.339-4.58l1.6-2.43,1.172-2.489s7.1.459,8.066.973a2.744,2.744,0,0,1,.266.161,10.425,10.425,0,0,1,1.5,1.538c.137.117,1.418,1.371,1.373,1.9a1.75,1.75,0,0,1-.851,1.474,4.186,4.186,0,0,1-.9,2.12,2.6,2.6,0,0,1-1.252,1.925S1278.054,1264.848,1277.264,1265.043Z" transform="translate(-1267.355 -1253.408)" fill="#eea886"/>
                </g>
              </g>
            </g>
          </g>
        </g>
      </g>
      <g id="Grupo_10973" data-name="Grupo 10973" transform="translate(0 40.036)">
        <g id="Grupo_10972" data-name="Grupo 10972">
          <path id="Trazado_11258" data-name="Trazado 11258" d="M1187.181,1030.435s-6.562-1.88-10.322,5.351-3.741,10.317-4.244,13.848c-.474,3.334-2.617,12.437-2.833,13.377s-5.069,12.15-2.844,16.068c2.236,3.939,24.949,15.53,24.8,16.4s3.934-8.764,3.934-8.764-9.191-5.123-10.7-6.7c-2.445-2.562-7.6-5.323-6.543-8.5,1.245-3.733,4.984-16.329,5.851-18.173S1192.713,1032.785,1187.181,1030.435Z" transform="translate(-1166.355 -1030.214)" fill="#285173"/>
        </g>
      </g>
      <g id="Grupo_10978" data-name="Grupo 10978" transform="translate(26.879 2.613)">
        <g id="Grupo_10977" data-name="Grupo 10977">
          <g id="Grupo_10976" data-name="Grupo 10976">
            <g id="Grupo_10975" data-name="Grupo 10975">
              <g id="Grupo_10974" data-name="Grupo 10974">
                <path id="Trazado_11259" data-name="Trazado 11259" d="M1287.972,882.683s11.683,3.671,5.341,23.833-22.3-2.336-20.629-14.62S1287.972,882.683,1287.972,882.683Z" transform="translate(-1272.563 -882.342)" fill="#eea987"/>
              </g>
            </g>
          </g>
        </g>
      </g>
      <g id="Grupo_10983" data-name="Grupo 10983" transform="translate(25.958 0.993)">
        <g id="Grupo_10982" data-name="Grupo 10982">
          <g id="Grupo_10981" data-name="Grupo 10981">
            <g id="Grupo_10980" data-name="Grupo 10980">
              <g id="Grupo_10979" data-name="Grupo 10979">
                <path id="Trazado_11260" data-name="Trazado 11260" d="M1291.788,889.668a26.356,26.356,0,0,1-15.52,6.409s-3.734,4.378-4.021,6.1c0,0-8.668-14.775,1.987-23.632S1295.7,886.019,1291.788,889.668Z" transform="translate(-1268.922 -875.943)" fill="#0e2d3d"/>
              </g>
            </g>
          </g>
        </g>
      </g>
      <g id="Grupo_10988" data-name="Grupo 10988" transform="translate(29.366 17.494)">
        <g id="Grupo_10987" data-name="Grupo 10987">
          <g id="Grupo_10986" data-name="Grupo 10986">
            <g id="Grupo_10985" data-name="Grupo 10985">
              <g id="Grupo_10984" data-name="Grupo 10984">
                <path id="Trazado_11261" data-name="Trazado 11261" d="M1286.443,945.176c-.075-1.468-.979-4.807-3.16-3.872s.133,7.735,1.58,7.317C1284.863,948.62,1286.621,948.647,1286.443,945.176Z" transform="translate(-1282.389 -941.141)" fill="#eea987"/>
              </g>
            </g>
          </g>
        </g>
      </g>
      <g id="Grupo_10989" data-name="Grupo 10989" transform="translate(32.328 29.301)">
        <path id="Trazado_11262" data-name="Trazado 11262" d="M1302.912,993.293c-.069.767-.145,1.613-.214,2.479,0,0-5.156-.307-8.6-7.978C1294.319,988.13,1298.1,993.68,1302.912,993.293Z" transform="translate(-1294.095 -987.795)" fill="#a77860"/>
      </g>
    </g>
    <path id="Rectángulo_2927" data-name="Rectángulo 2927" d="M44.164,0h9.747A44.164,44.164,0,0,1,98.076,44.164v0A44.164,44.164,0,0,1,53.911,88.329H44.165A44.165,44.165,0,0,1,0,44.164v0A44.164,44.164,0,0,1,44.164,0Z" transform="translate(1222.567 273.304)" fill="#e5e5ef"/>
    <g id="Grupo_10991" data-name="Grupo 10991" transform="translate(1267.343 344.927)">
      <rect id="Rectángulo_2928" data-name="Rectángulo 2928" width="7.778" height="1.441" transform="translate(0 0)" fill="#4598e6"/>
    </g>
    <g id="Grupo_11007" data-name="Grupo 11007" transform="translate(1252.558 263.873)">
      <g id="Grupo_10994" data-name="Grupo 10994" transform="translate(8.533)">
        <g id="Grupo_10993" data-name="Grupo 10993">
          <g id="Grupo_10992" data-name="Grupo 10992">
            <path id="Trazado_11263" data-name="Trazado 11263" d="M2008.653,265.568s6.267,3.441,4.278,11.9-2.746,9.579-1.129,13,3.038,17.749,1.313,20.37-19.206-12.787-21.149-25.113,2.431-17.562,3.981-19.516S2003.125,262.425,2008.653,265.568Z" transform="translate(-1991.477 -263.873)" fill="#344052"/>
          </g>
        </g>
      </g>
      <g id="Grupo_10995" data-name="Grupo 10995" transform="translate(19.433 31.544)">
        <path id="Trazado_11264" data-name="Trazado 11264" d="M2052.588,428.6h-6.71c-.324-3.31-.624-5.614-.563-5.955.1-.562-6.677-18.335-7.309-19.805s-3.121-5.408-3.446-9.121,4.513-5.211,4.513-5.211c6.534,1.171,8.747,10.209,8.747,10.209s2.743,18.327,4.131,23.485A32.8,32.8,0,0,1,2052.588,428.6Z" transform="translate(-2034.545 -388.512)" fill="#eea886"/>
      </g>
      <path id="Trazado_11265" data-name="Trazado 11265" d="M2049.546,398.384l-9.992,4.212s-9.184-22.791-1.486-20.247C2045.743,384.887,2049.2,389.656,2049.546,398.384Z" transform="translate(-2015.446 -352.218)" fill="#eb4747"/>
      <g id="Grupo_10996" data-name="Grupo 10996" transform="translate(3.148 28.624)">
        <path id="Trazado_11266" data-name="Trazado 11266" d="M1998.926,405.248c-.292,2.263-1.487,10.279-1.22,12.443.045.357.193,1.179.415,2.3h-24.093c.641-2.287,1.224-4.312,1.577-5.491,1.171-3.881.05-4.919-.542-8.024-.23-1.215-1.039-3.524-1.922-6.131-.3-.871-.6-1.778-.891-2.689a55.518,55.518,0,0,1-1.856-8.6c-1.454-9.268,5.675-10.159,5.675-10.159,2.649-.489,7.276-1.918,7.276-1.918l7.248,1.507a7.862,7.862,0,0,1,1.7,1,0,0,0,0,1,0,0,13.221,13.221,0,0,1,1.63,1.429,43.774,43.774,0,0,1,3.942,5.7c.481.785.965,1.589,1.421,2.382,1.474,2.55,2.521,4.607,2.489,6.928C2001.746,398.21,1999.217,402.985,1998.926,405.248Z" transform="translate(-1970.198 -376.975)" fill="#eb4747"/>
      </g>
      <path id="Trazado_11267" data-name="Trazado 11267" d="M2017.693,378.663s4.541,7.76,2.852,8.34-10.589-1.38-14.065-8.712C2006.48,378.291,2012.322,375.636,2017.693,378.663Z" transform="translate(-1994.15 -348.53)" fill="#eea886"/>
      <path id="Trazado_11268" data-name="Trazado 11268" d="M2021.547,352.837s-4.033,1.707-7.686-3.912c0,0,.981-6.38-1.094-10.071s9.069,4.424,9.069,4.424-.18.761-.367,1.884c-.1.575-.194,1.243-.269,1.953-.063.591-.111,1.212-.132,1.831A10.011,10.011,0,0,0,2021.547,352.837Z" transform="translate(-1998.654 -319.16)" fill="#eea886"/>
      <path id="Trazado_11269" data-name="Trazado 11269" d="M1985.985,431.289c-.831,4.271-6.788,9.621-6.788,9.621-.295-.873-.6-1.779-.89-2.689A38.982,38.982,0,0,0,1985.985,431.289Z" transform="translate(-1973.107 -388.92)" fill="#393d63"/>
      <g id="Grupo_10997" data-name="Grupo 10997" transform="translate(0.893 31.823)">
        <path id="Trazado_11270" data-name="Trazado 11270" d="M1971.778,403.561c-.378,1.556-2.115,17.321-1.926,17.859.111.308.953,3.955,1.795,8.008h-7.778a19.111,19.111,0,0,1-1.154-6.008c.5-5.318-1.306-22.269-1.306-22.269s-1.614-10.254,6.895-11.535c0,0,5.026.662,5.33,4.373S1972.156,402.009,1971.778,403.561Z" transform="translate(-1961.288 -389.615)" fill="#eea886"/>
      </g>
      <path id="Trazado_11271" data-name="Trazado 11271" d="M1958.146,402.236l10.559,2.466s8.376-16.264.832-19.233C1961.586,382.339,1956.24,393.364,1958.146,402.236Z" transform="translate(-1957.759 -354.289)" fill="#eb4747"/>
      <g id="Grupo_11000" data-name="Grupo 11000" transform="translate(12.014 2.173)">
        <g id="Grupo_10999" data-name="Grupo 10999">
          <g id="Grupo_10998" data-name="Grupo 10998">
            <path id="Trazado_11272" data-name="Trazado 11272" d="M2017.951,272.883s9.177,3.368,3.36,19.2-17.691-2.7-15.9-12.435S2017.951,272.883,2017.951,272.883Z" transform="translate(-2005.232 -272.459)" fill="#eea987"/>
          </g>
        </g>
      </g>
      <g id="Grupo_11003" data-name="Grupo 11003" transform="translate(11.678 0.858)">
        <g id="Grupo_11002" data-name="Grupo 11002">
          <g id="Grupo_11001" data-name="Grupo 11001">
            <path id="Trazado_11273" data-name="Trazado 11273" d="M2021.725,278.627a21.036,21.036,0,0,1-12.616,4.525s-1.817,4.428-2.11,5.787c0,0-7.679-13.185,1.15-19.846S2024.985,275.865,2021.725,278.627Z" transform="translate(-2003.902 -267.262)" fill="#344052"/>
          </g>
        </g>
      </g>
      <g id="Grupo_11006" data-name="Grupo 11006" transform="translate(14.767 14.389)">
        <g id="Grupo_11005" data-name="Grupo 11005">
          <g id="Grupo_11004" data-name="Grupo 11004">
            <path id="Trazado_11274" data-name="Trazado 11274" d="M2019.274,324.037c0-1.173-.6-3.869-2.374-3.206s-.185,6.172.984,5.893C2017.885,326.724,2019.286,326.812,2019.274,324.037Z" transform="translate(-2016.107 -320.727)" fill="#eea987"/>
          </g>
        </g>
      </g>
      <path id="Trazado_11275" data-name="Trazado 11275" d="M2028.57,364.442a9.761,9.761,0,0,1-6.031-5.441c3.507,4.532,6.153,3.881,6.153,3.881C2028.629,363.473,2028.624,363.842,2028.57,364.442Z" transform="translate(-2006.144 -334.926)" fill="#a77860"/>
    </g>
    <g id="Grupo_11008" data-name="Grupo 11008" transform="translate(1238.59 289.288)">
      <path id="Trazado_11276" data-name="Trazado 11276" d="M1958.9,364.3v1.409h8.294v7.784h1.409V364.3Zm-56.326,9.193h1.409v-7.784h8.294V364.3h-9.7Zm64.62,40.168v7.787H1958.9v1.409h9.7v-9.2Zm-63.211,0h-1.409v9.2h9.7v-1.409h-8.294Z" transform="translate(-1902.57 -364.297)" fill="#4598e6"/>
    </g>
    <g id="Grupo_11009" data-name="Grupo 11009" transform="translate(1137.514 410.921)">
      <rect id="Rectángulo_2929" data-name="Rectángulo 2929" width="10.39" height="1.924" fill="#4598e6"/>
    </g>
    <g id="Grupo_11010" data-name="Grupo 11010" transform="translate(1098.612 336.604)">
      <path id="Trazado_11277" data-name="Trazado 11277" d="M1424.7,551.257v1.881h11.079v10.4h1.881V551.257Zm-75.234,12.279h1.882v-10.4h11.079v-1.881h-12.96Zm86.313,53.652v10.4H1424.7v1.882h12.96V617.188Zm-84.431,0h-1.882v12.284h12.96V627.59h-11.079Z" transform="translate(-1349.47 -551.257)" fill="#4598e6"/>
    </g>
    <g id="Grupo_11026" data-name="Grupo 11026" transform="translate(1260.862 354.396)">
      <g id="Grupo_11011" data-name="Grupo 11011" transform="translate(2.845 59.29)">
        <path id="Trazado_11278" data-name="Trazado 11278" d="M2112.9,923.317h-8.788c-.161-.352-.291-.658-.4-.9-2.608-6.157-16.046-20.276-16.046-20.276v.031a.025.025,0,0,0-.008.015v.015c-.008.023-.015.038-.023.061s-.015.069-.031.115a.271.271,0,0,0-.015.076c-.008.023-.015.038-.023.061-.551,2.058-3.258,12.307-4.612,20.8h-59.468c-.137-.788-.3-1.538-.482-2.233a48.248,48.248,0,0,1-1.147-6.15c-.007-.1-.022-.191-.03-.29-.046-.36-.084-.719-.115-1.071a56.4,56.4,0,0,1-.1-9.844c-.168.36-1.369,4.765-2.944,10.2-.865,2.983-1.844,6.279-2.815,9.385h-14.043l17.622-50.84c.39-.306,4.964-2.516,8.3-4.107,3.4-1.621,7.511-4,11.22-6.035,1.9-1.04,3.687-1.981,5.24-2.693l.237-.107v-.007c2.562-1.17,4.268-1.943,4.268-1.943h.007c.062-.007.467-.046,1.109-.107,3.58-.344,14.685-1.384,18.4-1.6.306-.023.566-.031.765-.039a3.087,3.087,0,0,1,.375,0,46.87,46.87,0,0,1,5.767,1.974c.115.038.229.084.344.13l.428.16c.26.1.528.2.8.306.536.214,1.094.428,1.652.65.191.077.39.153.589.23,6.019,2.387,12.918,5.346,14.555,6.524,1.086.772,4.459,7.128,8.367,14.991C2106.066,894.283,2111.213,913.726,2112.9,923.317Z" transform="translate(-2001.815 -855.835)" fill="#decbc4"/>
      </g>
      <g id="Grupo_11012" data-name="Grupo 11012" transform="translate(49.491 39.325)">
        <path id="Trazado_11279" data-name="Trazado 11279" d="M2206.932,795.188c-.158,7.994-15.636,12.367-15.636,12.367s-6.474-8.117-4.928-8.894c.607-.305.854-1.517.93-2.875a28.116,28.116,0,0,0-.088-3.626c-.046-.566-.09-.929-.09-.929s2.211-2.333,5.025-5.113c4.916-4.861,11.675-11.088,11.686-8.611a2.2,2.2,0,0,1-.057.469C2202.585,783.551,2206.932,795.188,2206.932,795.188Z" transform="translate(-2186.13 -776.945)" fill="#eea886"/>
      </g>
      <g id="Grupo_11013" data-name="Grupo 11013" transform="translate(49.034 45.855)">
        <path id="Trazado_11280" data-name="Trazado 11280" d="M2199.622,802.748v0c-.031.047-.687,1.029-1.807,2.438-2.376,2.989-6.843,7.9-11.865,9.871a28.076,28.076,0,0,0-.088-3.626,8.068,8.068,0,0,1-1.537-.185,47.658,47.658,0,0,1,3.365-4.927l3.107-.93Z" transform="translate(-2184.324 -802.748)" fill="#a77860"/>
      </g>
      <g id="Grupo_11014" data-name="Grupo 11014" transform="translate(38.596 13.131)">
        <path id="Trazado_11281" data-name="Trazado 11281" d="M2171.788,700.307c-1.339,2.913-2.61,5.024-2.971,5.86v0a10.351,10.351,0,0,1-1.807,2.438c-2.551,2.748-7.292,6.372-11.953,6.245a8.072,8.072,0,0,1-1.537-.185,7.313,7.313,0,0,1-5.327-3.68c-9.656-18.905-2.665-34.364-2.665-34.364s26.4-7.466,30.533.482C2178.958,682.679,2174.933,693.463,2171.788,700.307Z" transform="translate(-2143.08 -673.442)" fill="#eea886"/>
      </g>
      <g id="Grupo_11015" data-name="Grupo 11015" transform="translate(37.818 0)">
        <path id="Trazado_11282" data-name="Trazado 11282" d="M2143.228,637.87s-2.452-.136-3.059-4.785c-.6-4.593.613-5.866.613-5.866s10.9-4.563,14.814-5.156,13.539-1.163,15.8,1.417c0,0,5.481-1.274,6.975,7.826,2.369,14.436-8.073,28.454-8.073,28.454s.089-9.431-1.991-10.681-3.875,1.722-3.875,1.722l-4.255.762s6.462-13.953-1.289-14.47S2147.665,638.679,2143.228,637.87Z" transform="translate(-2140.003 -621.559)" fill="#e8734d"/>
      </g>
      <g id="Grupo_11016" data-name="Grupo 11016" transform="translate(62.222 21.503)">
        <path id="Trazado_11283" data-name="Trazado 11283" d="M2236.568,710.5c.4-4.155,7.918-5.741,7.415-1.386s-4.2,8.539-5.913,8.392S2236.259,713.67,2236.568,710.5Z" transform="translate(-2236.431 -706.523)" fill="#eea886"/>
      </g>
      <g id="Grupo_11017" data-name="Grupo 11017" transform="translate(55.719 61.269)">
        <path id="Trazado_11284" data-name="Trazado 11284" d="M2261.358,887.037c-2.448-7.84-4.566-14.043-5.507-14.716-1.645-1.178-14.678-4.765-20.865-7.19-.2-.077-.4-.153-.589-.229-.559-.222-1.117-.436-1.653-.65-.267-.107-.535-.207-.8-.306-.146-.053-.283-.107-.429-.16-.114-.046-.229-.092-.344-.13-.008.008-.015.023-.031.03a101.655,101.655,0,0,0-6.83,8.735c-6.394,9.086-14.724,23.81-13.446,37.4.413,4.36.918,10.624,1.766,17.653.062.558.13,1.117.207,1.683h28.851c.352-7.358.979-17.049,1.927-20.8.008-.023.015-.038.023-.061a.273.273,0,0,1,.015-.076c.008-.038.023-.076.031-.115.008-.023.015-.038.023-.061v-.015a.026.026,0,0,1,.008-.015s6.983,10.915,7.343,21.148h18.158C2268.333,919.651,2265.557,900.491,2261.358,887.037Z" transform="translate(-2210.738 -863.655)" fill="#3c4145"/>
      </g>
      <g id="Grupo_11018" data-name="Grupo 11018" transform="translate(0 63.097)">
        <path id="Trazado_11285" data-name="Trazado 11285" d="M2035.922,870.97s-2.18,7.251-4.995,25.355v.007c-.1.6-.191,1.224-.291,1.859-.008.069-.023.145-.031.222-.069.413-.13.841-.191,1.27-.008.053-.015.1-.023.153-.046.283-.092.573-.13.872-.107.711-.214,1.446-.321,2.188-1.056,7.388-2.463,19.129-3.893,31.657h-11.4a53.192,53.192,0,0,1-1.155-8.819,1.088,1.088,0,0,0-.054.146c-.91,2.524-1.912,5.27-2.929,7.939l-.275.734h-19.657l19.58-51.223c.39-.306,5.431-3.021,8.765-4.6,3.48-1.66,7.878-3.7,11.779-5.5,1.866-.864,3.618-1.667,5.1-2.348Z" transform="translate(-1990.573 -870.878)" fill="#3c4145"/>
      </g>
      <g id="Grupo_11019" data-name="Grupo 11019" transform="translate(55.72 61.269)">
        <path id="Trazado_11286" data-name="Trazado 11286" d="M2226.889,883.488l-7.534,4.253,3.22,3.281-7.067,38.136h-2.662c-.979-7.71-1.538-14.632-1.973-19.336-1.966-21.018,19.007-44.721,20.307-46.167,1.01.382,2.1.8,3.22,1.247Z" transform="translate(-2210.743 -863.655)" fill="#51565c"/>
      </g>
      <g id="Grupo_11020" data-name="Grupo 11020" transform="translate(32.904 62.99)">
        <path id="Trazado_11287" data-name="Trazado 11287" d="M2133.148,870.455s-2.815,9.186-6.089,32.124c-1.055,7.381-2.47,19.129-3.9,31.657h-1.109l-1.461-36.032,3.587-3.886-3.19-3.985,6.823-17.424c1.866-.864,3.618-1.667,5.1-2.348Z" transform="translate(-2120.589 -870.455)" fill="#51565c"/>
      </g>
      <g id="Grupo_11021" data-name="Grupo 11021" transform="translate(54.658 57.568)">
        <path id="Trazado_11288" data-name="Trazado 11288" d="M2228.423,852.82l-6.243-3.792s-.175,3.424-15.636,12.367l4.391,12.367Z" transform="translate(-2206.544 -849.028)" fill="#f5e2d9"/>
      </g>
      <g id="Grupo_11022" data-name="Grupo 11022" transform="translate(45.464 59.293)">
        <path id="Trazado_11289" data-name="Trazado 11289" d="M2175.3,855.844s.243,3.7,4.113,10.642l-8.569,11.171-.625-18.118Z" transform="translate(-2170.216 -855.844)" fill="#f5e2d9"/>
      </g>
      <g id="Grupo_11023" data-name="Grupo 11023" transform="translate(49.467 69.935)">
        <path id="Trazado_11290" data-name="Trazado 11290" d="M2191.249,897.9s1.66,6.643,1.063,8.5c0,0-3.652,1.328-6.277-.332A29.176,29.176,0,0,1,2191.249,897.9Z" transform="translate(-2186.035 -897.895)" fill="#d44040"/>
      </g>
      <g id="Grupo_11024" data-name="Grupo 11024" transform="translate(43.814 76.574)">
        <path id="Trazado_11291" data-name="Trazado 11291" d="M2172.551,940.077a167.025,167.025,0,0,0-1.1,34.25h-7.32c-.1-1.446-.191-2.952-.283-4.528-1.362-23.626,6.991-44.737,6.991-44.737l3.725-.933S2173.362,934.57,2172.551,940.077Z" transform="translate(-2163.697 -924.13)" fill="#d44040"/>
      </g>
      <g id="Grupo_11025" data-name="Grupo 11025" transform="translate(19.679 93.158)">
        <path id="Trazado_11292" data-name="Trazado 11292" d="M2071.8,1003.743c-.279,5.669-.238,10.7-.238,10.7v0c0,.028-.008.181-.02.434-.012-.1-.023-.19-.035-.285-.907,2.523-1.912,5.266-2.926,7.937a84.991,84.991,0,0,1-.228-8.65c.406-15.895,5.406-24.23,5.406-24.23C2072.617,992.427,2072.067,998.371,2071.8,1003.743Z" transform="translate(-2068.331 -989.656)" fill="#2d3133"/>
      </g>
    </g>
    <g id="Grupo_11049" data-name="Grupo 11049" transform="translate(1168.724 417.782)">
      <g id="Grupo_11027" data-name="Grupo 11027" transform="translate(0 29.483)">
        <path id="Trazado_11293" data-name="Trazado 11293" d="M1673.377,1022.487l-23.387,12.856L1626.5,998.384l28.406-9.867Z" transform="translate(-1626.504 -988.517)" fill="#292c47"/>
      </g>
      <g id="Grupo_11028" data-name="Grupo 11028" transform="translate(1.556 30.575)">
        <path id="Trazado_11294" data-name="Trazado 11294" d="M1676.485,1024.6l-21.871,12.022-21.964-34.563,26.564-9.227Z" transform="translate(-1632.65 -992.83)" fill="#fff"/>
      </g>
      <g id="Grupo_11029" data-name="Grupo 11029" transform="translate(25.669 48.199)">
        <path id="Trazado_11295" data-name="Trazado 11295" d="M1755.661,1070.149s-4.07-1.947-5.857-2.964-6.383-2.414-6.754-2.746-13.625-1.149-14.428-1.843-1.586,1.625,1.85,2.378,8.215,2.592,8.476,3.934-3.528,1.661-3.912,2.767.108.857.651,1.095,4.508-1.958,6.25-1.335,4.408-.24,5.744.218,7.833,2.643,7.833,2.643Z" transform="translate(-1727.931 -1062.468)" fill="#eea886"/>
      </g>
      <g id="Grupo_11030" data-name="Grupo 11030" transform="translate(4.438 48.236)">
        <path id="Trazado_11296" data-name="Trazado 11296" d="M1661.948,1086.052s-3.42-3.078-5.074-4.366-4.76-5.075-5.218-5.3-6.388-12.391-7.355-12.879.915-2.127,2.961.817,5.642,6.732,7.009,6.456.191-3.972,1.083-4.764.85-.232,1.285.187-.09,5.01,1.176,6.41,1.49,4.247,2.442,5.328,5.541,6.352,5.541,6.352Z" transform="translate(-1644.04 -1062.617)" fill="#eea886"/>
      </g>
      <g id="Grupo_11031" data-name="Grupo 11031" transform="translate(95.993 235.517)">
        <path id="Trazado_11297" data-name="Trazado 11297" d="M2005.805,1803.288s.74,5.134.832,5.906,8.229-.454,8.229-.454l.659-6.112S2006.822,1802.564,2005.805,1803.288Z" transform="translate(-2005.805 -1802.625)" fill="#424773"/>
      </g>
      <g id="Grupo_11032" data-name="Grupo 11032" transform="translate(82.619 241.085)">
        <path id="Trazado_11298" data-name="Trazado 11298" d="M1967.079,1824.973a21.963,21.963,0,0,1-5.071,4.443c-2.494,1.349-6.412,1.883-7.886,3.279-1.064,1.008-3.877,5.346,6.479,5.258s15.349.613,16.458-1.051-1.605-12.277-1.605-12.277S1973,1825.508,1967.079,1824.973Z" transform="translate(-1952.959 -1824.625)" fill="#292c47"/>
      </g>
      <g id="Grupo_11033" data-name="Grupo 11033" transform="translate(37.694 235.517)">
        <path id="Trazado_11299" data-name="Trazado 11299" d="M1775.445,1803.288s.74,5.134.832,5.906,8.229-.454,8.229-.454l.659-6.112S1776.462,1802.564,1775.445,1803.288Z" transform="translate(-1775.445 -1802.625)" fill="#424773"/>
      </g>
      <g id="Grupo_11034" data-name="Grupo 11034" transform="translate(19.537 241.085)">
        <path id="Trazado_11300" data-name="Trazado 11300" d="M1722.6,1824.973a21.967,21.967,0,0,1-5.071,4.443c-2.494,1.349-11.669,2.456-13.143,3.852-1.064,1.008-2.834,5.064,11.736,4.685,10.352-.27,15.348.613,16.458-1.051s-1.605-12.277-1.605-12.277S1728.667,1825.568,1722.6,1824.973Z" transform="translate(-1703.699 -1824.625)" fill="#292c47"/>
      </g>
      <g id="Grupo_11035" data-name="Grupo 11035" transform="translate(70.587 104.245)">
        <path id="Trazado_11301" data-name="Trazado 11301" d="M1924.086,1283.926s7.645,12.147,7.075,23.127,2.772,22.967,3.921,34.438c1.28,12.787,6.52,43.059,6.71,49.9s-.813,28.681-.813,28.681l-10.489.24s-8.809-52.922-11.09-58.322-13.6-43.9-13.976-48.217S1924.086,1283.926,1924.086,1283.926Z" transform="translate(-1905.418 -1283.926)" fill="#292c47"/>
      </g>
      <g id="Grupo_11036" data-name="Grupo 11036" transform="translate(36.277 102.153)">
        <path id="Trazado_11302" data-name="Trazado 11302" d="M1782.578,1279.4s-5.761,30.094-6.522,36.814-1.268,32.521-1.648,36.721-2.535,54.962-4.563,61.2h13.409s10.293-36.9,10.293-54.362,7.952-37.957,13.085-49.477,16.883-11.792,20.039-33.166C1826.671,1277.129,1786.85,1272.617,1782.578,1279.4Z" transform="translate(-1769.845 -1275.658)" fill="#292c47"/>
      </g>
      <g id="Grupo_11037" data-name="Grupo 11037" transform="translate(58.222 1.182)">
        <path id="Trazado_11303" data-name="Trazado 11303" d="M1874.833,877.63s-10.261-3.833-14.993,3.978-4.276,23.45.9,25.373,12.943.917,15.591-3.971,5.039-11.954,4.924-16.676S1877.527,878.994,1874.833,877.63Z" transform="translate(-1856.556 -876.69)" fill="#eea886"/>
      </g>
      <g id="Grupo_11038" data-name="Grupo 11038" transform="translate(63.211 22.092)">
        <path id="Trazado_11304" data-name="Trazado 11304" d="M1876.575,969.05s.427,2.771-.279,4.136,13.295,1.4,13.295,1.4a92.274,92.274,0,0,1,3.291-13.7C1895.036,954.618,1876.575,969.05,1876.575,969.05Z" transform="translate(-1876.27 -959.311)" fill="#eea886"/>
      </g>
      <g id="Grupo_11039" data-name="Grupo 11039" transform="translate(58.662 0)">
        <path id="Trazado_11305" data-name="Trazado 11305" d="M1879.457,895.69s-.966,1.594-4.91.975-8.757-5.866-10.4-6.442-1.662-1.543-1.662-1.543l-1.031,1.506-1.749.11s1.6-4.694-.812-6.609,2.5-15.194,15.148-10.773c0,0,9.716,2.678,9.362,8.2S1881.631,892.938,1879.457,895.69Z" transform="translate(-1858.297 -872.019)" fill="#3a3f47"/>
      </g>
      <g id="Grupo_11040" data-name="Grupo 11040" transform="translate(62.405 31.967)">
        <path id="Trazado_11306" data-name="Trazado 11306" d="M1873.088,1002.165s.045-2.607,1.226-2.858,13.047-1.391,14.5-.82v3.037S1886.017,1003.245,1873.088,1002.165Z" transform="translate(-1873.088 -998.33)" fill="#e2d2ca"/>
      </g>
      <g id="Grupo_11041" data-name="Grupo 11041" transform="translate(62.797 12.637)">
        <path id="Trazado_11307" data-name="Trazado 11307" d="M1874.945,923.966c.221-.927,2.578-3.575,3.481-.739s-1.363,6.65-2.627,6.324S1874.384,926.315,1874.945,923.966Z" transform="translate(-1874.635 -921.951)" fill="#eea886"/>
      </g>
      <g id="Grupo_11042" data-name="Grupo 11042" transform="translate(15.268 66.611)">
        <path id="Trazado_11308" data-name="Trazado 11308" d="M1686.881,1135.222a.032.032,0,0,1,.019,0C1686.819,1135.256,1686.807,1135.259,1686.881,1135.222Z" transform="translate(-1686.832 -1135.22)" fill="#323657"/>
      </g>
      <g id="Grupo_11043" data-name="Grupo 11043" transform="translate(15.337 35.162)">
        <path id="Trazado_11309" data-name="Trazado 11309" d="M1769.649,1108.975a108.549,108.549,0,0,1-17.025,3.036c-10.732,1.183-37.545-.428-37.714-1.695s5.768-47.21,5.43-49.576-.519-10.8-.519-10.8a59.4,59.4,0,0,1-5.326,16.888c-1.026,1.858-4.47,7.683-6.129,6.358-8.033-6.414-20.472-30.582-21.26-30.786.663-.288,5.9-2.7,6.629-2.942.643-.215,6.438,5.921,9.949,9.724,1.566,1.7,2.677,2.927,2.677,2.927,1.014-2.281,4.707-16.653,5.854-21.627,2.589-11.218,2.191-11.684,2.191-11.684,7.851-2.375,19.768-7.209,19.768-7.209l15.724-.641s14.431,3.177,20.115,5.744c.539.243.542,12.874,2.021,16.186l-4.712,9.941s-2.722,19.692-3.286,28.45C1763.775,1075.3,1769.649,1108.975,1769.649,1108.975Z" transform="translate(-1687.105 -1010.954)" fill="#ffdf69"/>
      </g>
      <g id="Grupo_11044" data-name="Grupo 11044" transform="translate(83.413 40.906)">
        <path id="Trazado_11310" data-name="Trazado 11310" d="M1973.6,1066.235c-.411,1.325-2.275,2.445-3.486,2.935a4.506,4.506,0,0,1-2.517.253l-.616-.114h0l-10.776-2s-2.358-27.154,14.721-33.66C1971.38,1033.8,1977.374,1054.077,1973.6,1066.235Z" transform="translate(-1956.097 -1033.65)" fill="#ffdf69"/>
      </g>
      <g id="Grupo_11045" data-name="Grupo 11045" transform="translate(94.299 62.688)">
        <path id="Trazado_11311" data-name="Trazado 11311" d="M2002.244,1133.456h0a4.5,4.5,0,0,1-2.517.253l-.616-.114h0l1.063-13.876Z" transform="translate(-1999.111 -1119.72)" fill="#ab9546"/>
      </g>
      <g id="Grupo_11046" data-name="Grupo 11046" transform="translate(31.913 73.394)">
        <path id="Trazado_11312" data-name="Trazado 11312" d="M1755.282,1164.95l-1.317,5.577s-1.429-5.6-1.36-8.5C1754.171,1163.719,1755.282,1164.95,1755.282,1164.95Z" transform="translate(-1752.602 -1162.023)" fill="#ab9546"/>
      </g>
      <g id="Grupo_11047" data-name="Grupo 11047" transform="translate(79.42 3.015)">
        <path id="Trazado_11313" data-name="Trazado 11313" d="M1940.32,883.962s13.449-1.684.229,20.78Z" transform="translate(-1940.32 -883.934)" fill="#3a3f47"/>
      </g>
      <g id="Grupo_11048" data-name="Grupo 11048" transform="translate(9.445 31.303)">
        <path id="Trazado_11314" data-name="Trazado 11314" d="M1665.189,1001.773l-1.367-2.349,10.768-3.715,1.366,2.336Z" transform="translate(-1663.822 -995.709)" fill="#292c47"/>
      </g>
    </g>
    <g id="Grupo_11050" data-name="Grupo 11050" transform="translate(1136.949 475.859)">
      <path id="Trazado_11315" data-name="Trazado 11315" d="M1530.462,1110.193h13.693l-4.191-8.693h-13.693Z" transform="translate(-1519.863 -1101.5)" fill="url(#linear-gradient)"/>
      <path id="Trazado_11316" data-name="Trazado 11316" d="M1505.144,1110.193h3.263l-4.191-8.693h-3.263Z" transform="translate(-1500.953 -1101.5)" fill="url(#linear-gradient)"/>
    </g>
  </g>
</svg>
