<svg xmlns="http://www.w3.org/2000/svg" xmlns:xlink="http://www.w3.org/1999/xlink" width="438.016" height="523.246" viewBox="0 0 438.016 523.246">
  <defs>
    <clipPath id="clip-path">
      <path id="Trazado_10834" data-name="Trazado 10834" d="M854.589,186.3a59.518,59.518,0,1,1-119.035,0c0-32.871,23.911-71.062,56.782-71.062S854.589,153.425,854.589,186.3Z" transform="translate(-735.554 -115.234)" fill="none"/>
    </clipPath>
  </defs>
  <g id="Grupo_10599" data-name="Grupo 10599" transform="translate(-715.653 -77.219)">
    <ellipse id="_Path_" data-name="&lt;Path&gt;" cx="206.157" cy="16.912" rx="206.157" ry="16.912" transform="translate(715.653 566.641)" fill="#f5f5f5"/>
    <g id="Grupo_10586" data-name="Grupo 10586" transform="translate(732.721 77.218)">
      <path id="Rectángulo_2701" data-name="Rectángulo 2701" d="M10.4,0H271.484a10.4,10.4,0,0,1,10.4,10.4V496.608a10.4,10.4,0,0,1-10.4,10.4H10.4A10.4,10.4,0,0,1,0,496.608V10.4A10.4,10.4,0,0,1,10.4,0Z" fill="#263238"/>
      <path id="Trazado_10794" data-name="Trazado 10794" d="M988.105,90.693V562.825a6.9,6.9,0,0,1-7,6.9H731.5a6.18,6.18,0,0,1-6.258-6.333V90.126a5.574,5.574,0,0,1,5.362-5.795h62.4a4.394,4.394,0,0,1,4.018,2.808l2.584,6.362a4.388,4.388,0,0,0,4.018,2.778H909.86a4.346,4.346,0,0,0,4.018-2.733l2.584-6.392a4.408,4.408,0,0,1,4.018-2.823h61.5A6.3,6.3,0,0,1,988.105,90.693Z" transform="translate(-715.641 -73.708)" fill="#9aa0d0"/>
      <rect id="Rectángulo_2702" data-name="Rectángulo 2702" width="262.861" height="424.535" transform="translate(9.604 40.12)" fill="#eceefd"/>
      <circle id="Elipse_633" data-name="Elipse 633" cx="3.608" cy="3.608" r="3.608" transform="translate(131.472 7.636)" fill="#fff" opacity="0.6" style="isolation: isolate"/>
      <path id="Trazado_10795" data-name="Trazado 10795" d="M818.09,85.511a2.311,2.311,0,1,1-2.31-2.312A2.31,2.31,0,0,1,818.09,85.511Z" transform="translate(-672.101 -74.267)" fill="#fff" opacity="0.6" style="isolation: isolate"/>
      <g id="Grupo_10565" data-name="Grupo 10565" transform="translate(23.376 20.989)">
        <rect id="Rectángulo_2703" data-name="Rectángulo 2703" width="3.247" height="4.329" transform="translate(19.121 8.661) rotate(180)" fill="#fff" opacity="0.6" style="isolation: isolate"/>
        <rect id="Rectángulo_2704" data-name="Rectángulo 2704" width="3.247" height="5.772" transform="translate(13.83 8.661) rotate(180)" fill="#fff" opacity="0.6" style="isolation: isolate"/>
        <rect id="Rectángulo_2705" data-name="Rectángulo 2705" width="3.247" height="7.216" transform="translate(8.538 8.661) rotate(180)" fill="#fff" opacity="0.6" style="isolation: isolate"/>
        <rect id="Rectángulo_2706" data-name="Rectángulo 2706" width="3.247" height="8.661" transform="translate(3.247 8.661) rotate(180)" fill="#fff" opacity="0.6" style="isolation: isolate"/>
      </g>
      <g id="Grupo_10566" data-name="Grupo 10566" transform="translate(241.47 22.161)">
        <rect id="Rectángulo_2707" data-name="Rectángulo 2707" width="1.924" height="4.328" transform="translate(0 1.58)" fill="#fff" opacity="0.6" style="isolation: isolate"/>
        <rect id="Rectángulo_2708" data-name="Rectángulo 2708" width="15.333" height="7.488" transform="translate(18.58 7.488) rotate(180)" fill="#fff" opacity="0.6" style="isolation: isolate"/>
      </g>
      <g id="Grupo_10585" data-name="Grupo 10585" transform="translate(16.514 56.777)">
        <g id="Grupo_10577" data-name="Grupo 10577" transform="translate(8.486)">
          <g id="Grupo_10576" data-name="Grupo 10576" clip-path="url(#clip-path)">
            <circle id="Elipse_634" data-name="Elipse 634" cx="59.518" cy="59.518" r="59.518" transform="translate(-0.001 11.544)" fill="#fff"/>
            <g id="_Group_" data-name="&lt;Group&gt;" transform="translate(17.821 5.302)">
              <path id="Trazado_10796" data-name="Trazado 10796" d="M760.763,304.01l.061-12.34a.891.891,0,0,0-.694-.869l-9.034-2.048a1.5,1.5,0,0,0-1.782,1.148,1.422,1.422,0,0,0-.034.329c.045,3.994.276,6.9.252,11.915-.015,3.087-.384,12.4-.4,16.666s4.189,4.841,4.585,3.1c1.743-7.822,4.137-13.7,6.4-16.2A2.455,2.455,0,0,0,760.763,304.01Z" transform="translate(-746.677 -34.917)" fill="#263238"/>
              <g id="Grupo_10567" data-name="Grupo 10567" transform="translate(12.9 155.467)">
                <path id="Trazado_10797" data-name="Trazado 10797" d="M812.4,222.881l3.985,20.9s31.5,50.983,31.482,80.42c-.021,35.162-91.741,14.877-91.741,14.877v-16.19s54.826,4.712,59.766-.787c6-6.676-30.971-58.339-30.971-58.339Z" transform="translate(-756.124 -222.877)" fill="#263238"/>
                <path id="Trazado_10798" data-name="Trazado 10798" d="M847.87,324.211c-.012,19.383-27.9,21.913-52.916,20.281a293.591,293.591,0,0,1-37.11-5.048c-1.11-.225-1.721-.361-1.721-.361V322.889s.723.063,2.019.161c6.234.5,25.642,1.907,40.327,1.7,8.725-.125,15.794-.836,17.427-2.644,2.942-3.278-4.488-17.426-12.8-30.964v-.012c-8.613-14-18.175-27.363-18.175-27.363l12.042-17.925,15.433-22.961,3.989,20.9S847.883,294.767,847.87,324.211Z" transform="translate(-756.124 -222.878)" fill="#fff" opacity="0.2" style="isolation: isolate"/>
              </g>
              <path id="Trazado_10799" data-name="Trazado 10799" d="M797.9,291.646l-3.516,19.744a293.6,293.6,0,0,1-37.11-5.048l.3-16.393C763.809,290.448,783.217,291.856,797.9,291.646Z" transform="translate(-742.655 -34.31)" opacity="0.2" style="isolation: isolate"/>
              <path id="Trazado_10800" data-name="Trazado 10800" d="M787.5,261.3s5.124,12.054,6.083,22.924c-8.613-14-18.175-27.363-18.175-27.363l12.042-17.925,6.345-2.057S795.2,245.11,787.5,261.3Z" transform="translate(-733.708 -60.503)" opacity="0.2" style="isolation: isolate"/>
              <path id="Trazado_10801" data-name="Trazado 10801" d="M783.05,371.724H770.711a.89.89,0,0,0-.866.7l-2,9.045A1.5,1.5,0,0,0,769,383.242a1.448,1.448,0,0,0,.33.033c3.992-.064,6.9-.309,11.912-.309,3.089,0,12.405.323,16.669.323s4.82-4.213,3.075-4.6c-7.831-1.706-13.723-4.07-16.229-6.319A2.457,2.457,0,0,0,783.05,371.724Z" transform="translate(-737.457 6.048)" fill="#263238"/>
              <g id="Grupo_10568" data-name="Grupo 10568" transform="translate(12.997 146.654)">
                <path id="Trazado_10802" data-name="Trazado 10802" d="M757.406,226.462s-2.739,10.238,0,57.157c4.207,72.036,17.561,167.941,17.561,167.941l15.524-2.82s-1.982-143.458.1-183.048c0,0,21.935-19.674,21.771-39.9S757.406,226.462,757.406,226.462Z" transform="translate(-756.189 -216.977)" fill="#263238"/>
                <path id="Trazado_10803" data-name="Trazado 10803" d="M757.406,226.462s-2.739,10.238,0,57.157c4.207,72.036,17.561,167.941,17.561,167.941l15.524-2.82s-1.982-143.458.1-183.048c0,0,21.935-19.674,21.771-39.9S757.406,226.462,757.406,226.462Z" transform="translate(-756.189 -216.977)" fill="#fff" opacity="0.2" style="isolation: isolate"/>
              </g>
              <g id="Grupo_10569" data-name="Grupo 10569" transform="translate(14.215 146.772)">
                <path id="Trazado_10804" data-name="Trazado 10804" d="M811.273,219H757v6.461l54.961-.667Z" transform="translate(-757.004 -216.095)" fill="#263238"/>
                <rect id="Rectángulo_2709" data-name="Rectángulo 2709" width="1.938" height="11.468" transform="translate(19.382 11.468) rotate(180)" fill="#263238"/>
                <rect id="Rectángulo_2710" data-name="Rectángulo 2710" width="1.938" height="11.468" transform="translate(46.839 11.468) rotate(180)" fill="#263238"/>
                <rect id="Rectángulo_2711" data-name="Rectángulo 2711" width="10.037" height="7.233" transform="translate(39.571 9.009) rotate(180)" fill="#fff"/>
                <rect id="Rectángulo_2712" data-name="Rectángulo 2712" width="1.938" height="11.468" transform="translate(19.382 11.468) rotate(180)" fill="#fff" opacity="0.2" style="isolation: isolate"/>
                <rect id="Rectángulo_2713" data-name="Rectángulo 2713" width="1.938" height="11.468" transform="translate(46.839 11.468) rotate(180)" fill="#fff" opacity="0.2" style="isolation: isolate"/>
              </g>
              <g id="Grupo_10570" data-name="Grupo 10570" transform="translate(3.267 55.575)">
                <path id="Trazado_10805" data-name="Trazado 10805" d="M809.518,156.174s-34.294-1.615-59.844,4.833c0,0,11.28,56.788,10.852,89.09H814.89S818.424,189.511,809.518,156.174Z" transform="translate(-749.674 -155.995)" fill="#407bff"/>
                <path id="Trazado_10806" data-name="Trazado 10806" d="M814.884,250.1H760.536c.049-3.516-.051-7.3-.249-11.294-.474-9.324-1.534-19.658-2.818-29.655q-.186-1.456-.373-2.917c-.872-6.494-1.807-12.776-2.718-18.511-2.455-15.394-4.7-26.713-4.7-26.713,25.542-6.445,59.834-4.836,59.834-4.836C818.411,189.517,814.884,250.1,814.884,250.1Z" transform="translate(-749.672 -155.995)" fill="#fff" opacity="0.6" style="isolation: isolate"/>
              </g>
              <path id="Trazado_10807" data-name="Trazado 10807" d="M763.082,166.213c4.924,4.475,16.987,2.82,16.987,2.82s7.53-2.061,5.949-4.413c-4.436-.733-6.582-2.8-7.469-5.451a12.9,12.9,0,0,1-.451-5.066,26.986,26.986,0,0,1,.373-2.829l-14.914-11.045C765.512,147.519,767.9,160.929,763.082,166.213Z" transform="translate(-739.79 -108.2)" fill="#ebb376"/>
              <path id="Trazado_10808" data-name="Trazado 10808" d="M765.707,144.93c.591,8.948,7.946,11.417,11.546,11.918a12.9,12.9,0,0,1-.451-5.066Z" transform="translate(-738.494 -105.88)" opacity="0.2" style="isolation: isolate"/>
              <g id="Grupo_10571" data-name="Grupo 10571" transform="translate(13.649)">
                <path id="Trazado_10809" data-name="Trazado 10809" d="M782.29,124.835s5.108,13.131-.938,19.973-11.7-18.461-11.7-18.461Z" transform="translate(-750.199 -115.798)" fill="#263238"/>
                <path id="Trazado_10810" data-name="Trazado 10810" d="M767.293,160.52a12.64,12.64,0,0,0,15.236,1.612,14.083,14.083,0,0,0,6.413-8.14,13.9,13.9,0,0,0,.36-1.452c1.694-9.1-.427-23.883-10.429-27.363A13.707,13.707,0,0,0,760.7,139.821C761.793,149.774,761.967,155.678,767.293,160.52Z" transform="translate(-754.669 -116.021)" fill="#ebb376"/>
                <path id="Trazado_10811" data-name="Trazado 10811" d="M770.921,136.578c-.016.81.5,1.45,1.04,1.422s.927-.715.89-1.526-.512-1.45-1.039-1.422S770.885,135.755,770.921,136.578Z" transform="translate(-749.572 -110.756)" fill="#263238"/>
                <path id="Trazado_10812" data-name="Trazado 10812" d="M777.083,136.264c-.015.809.512,1.45,1.041,1.42s.926-.715.89-1.525-.514-1.45-1.041-1.422S777.045,135.492,777.083,136.264Z" transform="translate(-746.531 -110.911)" fill="#263238"/>
                <path id="Trazado_10813" data-name="Trazado 10813" d="M775.138,136.127a29.009,29.009,0,0,0,4.245,6.767,4.722,4.722,0,0,1-3.876.929Z" transform="translate(-747.489 -110.225)" fill="#d58745"/>
                <path id="Trazado_10814" data-name="Trazado 10814" d="M769.046,135.139a.5.5,0,0,0,.454-.209,3.859,3.859,0,0,1,2.978-1.758.476.476,0,1,0,.021-.951h0a4.746,4.746,0,0,0-3.783,2.167.474.474,0,0,0,.108.663l.009.007A.743.743,0,0,0,769.046,135.139Z" transform="translate(-750.705 -112.152)" fill="#263238"/>
                <path id="Trazado_10815" data-name="Trazado 10815" d="M780.816,134.543a.467.467,0,0,0,.282.006.477.477,0,0,0,.2-.644l0-.009a4.746,4.746,0,0,0-3.58-2.511.476.476,0,0,0-.509.439h0a.488.488,0,0,0,.441.509h0a3.858,3.858,0,0,1,2.8,2.034A.488.488,0,0,0,780.816,134.543Z" transform="translate(-746.471 -112.566)" fill="#263238"/>
                <path id="Trazado_10816" data-name="Trazado 10816" d="M769.111,126.118l.969,4.337a3.291,3.291,0,0,0-1.237,4.285c1.783,3.555.254,9.491-2.354,12.056,0,0-.246-1.592-1.559-1.08s-.115,8.81,2.911,12.525c0,0-5.076-3.938-8.19-12.463-2.881-7.886-3.069-13.866-1.716-17.161Z" transform="translate(-756.38 -115.164)" fill="#263238"/>
                <path id="Trazado_10817" data-name="Trazado 10817" d="M758.225,142.525a9.525,9.525,0,0,0,5.7,4.533c3.217.9,4.826-1.98,3.942-5.021-.811-2.694-3.453-6.5-6.687-6.032S756.757,139.8,758.225,142.525Z" transform="translate(-756.143 -110.305)" fill="#ebb376"/>
                <path id="Trazado_10818" data-name="Trazado 10818" d="M770.326,134.075s10.815,3.835,16.966-1.877-.956-13.413-.956-13.413a8.989,8.989,0,0,1-5.61,2.675c-3.443.245-11.409-1.824-17.815,1.434s-8.81,12.5-2.942,16.693Z" transform="translate(-756.625 -118.784)" fill="#263238"/>
                <path id="Trazado_10819" data-name="Trazado 10819" d="M771.566,142.219a4.7,4.7,0,0,0,5.335,1.919" transform="translate(-749.252 -107.218)" fill="none" stroke="#263238" stroke-linecap="round" stroke-linejoin="round" stroke-width="0.5"/>
              </g>
              <path id="Trazado_10820" data-name="Trazado 10820" d="M781.461,159.126l-1.443,7.1s8.261,34.456,10.037,52.33l-3.01,3.014-4.736-3.014s-.424-36.394-4.6-51.685l-7.49-6.132,5.895-1.909Z" transform="translate(-736.269 -99.022)" fill="#9665ba"/>
              <g id="Grupo_10572" data-name="Grupo 10572" transform="translate(19.588 51.262)">
                <path id="Trazado_10821" data-name="Trazado 10821" d="M765.992,153.107l14.326,6.461.841-5.178,5.266,1.852a4.331,4.331,0,0,1,2.871,4.534l-.594,5.683-7.269-3.977L777.81,167.6,760.6,159.316Z" transform="translate(-760.602 -153.107)" fill="#407bff"/>
                <path id="Trazado_10822" data-name="Trazado 10822" d="M765.992,153.107l14.326,6.461.841-5.178,5.266,1.852a4.331,4.331,0,0,1,2.871,4.534l-.594,5.683-7.269-3.977L777.81,167.6,760.6,159.316Z" transform="translate(-760.602 -153.107)" fill="#fff" opacity="0.7" style="isolation: isolate"/>
              </g>
              <g id="Grupo_10573" data-name="Grupo 10573" transform="translate(3.273 54.941)">
                <path id="Trazado_10823" data-name="Trazado 10823" d="M766.385,157.207s13.518,11,28.788,46.048c0,0,.556-34.251-2.319-47.684l16.659.809s12.2,26.936,6.07,85.125l4.23,29.1-18.373,7.684-4.234-13.53-4.351,13.3-35.423-4.74,1.876-36.739s-8.5-60.718-9.627-75.357Z" transform="translate(-749.678 -155.569)" fill="#263238"/>
                <path id="Trazado_10824" data-name="Trazado 10824" d="M819.813,270.6l-18.375,7.678L797.2,264.756l-4.351,13.288-13.687-1.833-21.74-2.9.935-18.249.948-18.485s-.375-2.606-.948-6.869c-.623-4.463-1.483-10.758-2.43-17.764-.462-3.453-.948-7.079-1.446-10.758-.512-3.876-1.023-7.816-1.522-11.642-1.546-12.066-2.88-23.111-3.278-28.322l15.545-3.74,1.159-.273s13,10.583,27.911,44.052c.285.662.574,1.322.872,2,0,0,.012-.686.026-1.9.061-7.366.124-34.254-2.345-45.786l16.668.811s6.9,15.244,7.716,47.581c.087,3.826.1,7.9.012,12.216-.175,7.666-.685,16.106-1.658,25.33Z" transform="translate(-749.676 -155.57)" fill="#fff" opacity="0.1" style="isolation: isolate"/>
                <path id="Trazado_10825" data-name="Trazado 10825" d="M796.985,171.231l3.865,6.818s-4.015,26.228-10.471,35.352v-5.422l-25.006-28.833,4.488-6.931L758.6,174.434s-1.047-10.534,2.294-16.953l1.159-.275s13.514,11.007,28.783,46.047c0,0,.56-34.254-2.32-47.679,0,0,7.966,4.313,13.637,15.657Z" transform="translate(-745.349 -155.568)" fill="#fff" opacity="0.2" style="isolation: isolate"/>
              </g>
              <path id="Trazado_10826" data-name="Trazado 10826" d="M815.658,209.051c-4.225-.636-9.921-1.707-17.053-3.478,0,0-21.477,13.924-31.162,15.6-4.525.784-7.99,1.208-10.671,1.408-.623-4.463-1.483-10.758-2.43-17.764-.462-3.453-.948-7.079-1.446-10.758l7.392-24.046,18.473,22.476,13.949,1.644.9.1,22.038,2.606C815.733,200.662,815.745,204.738,815.658,209.051Z" transform="translate(-744.817 -93.503)" opacity="0.2" style="isolation: isolate"/>
              <g id="Grupo_10574" data-name="Grupo 10574" transform="translate(34.867 55.752)">
                <path id="Trazado_10827" data-name="Trazado 10827" d="M799.075,156.117c7.348,1.721,30.033,33.878,29.376,47.06s-57.617,6.243-57.617,6.243l1.486-6.433,33.846-11.345a158.746,158.746,0,0,0-2.331-16.769A164.385,164.385,0,0,0,799.075,156.117Z" transform="translate(-770.831 -156.111)" fill="#263238"/>
                <path id="Trazado_10828" data-name="Trazado 10828" d="M828.446,203.181c-.348,7.118-17.114,8.365-32.46,8-4.96-.112-9.76-.387-13.823-.7-6.67-.5-11.331-1.071-11.331-1.071l1.483-6.433,11.793-3.952,22.064-7.391a160.528,160.528,0,0,0-2.331-16.766c-.1-.548-.212-1.072-.324-1.609a162.183,162.183,0,0,0-4.437-17.152C806.42,157.845,829.108,189.994,828.446,203.181Z" transform="translate(-770.832 -156.113)" fill="#fff" opacity="0.1" style="isolation: isolate"/>
              </g>
              <path id="Trazado_10829" data-name="Trazado 10829" d="M812.555,185.917s-8.676,11.581-19.97,19.646c-4.96-.112-9.76-.387-13.823-.7a23.968,23.968,0,0,1-1.035-7.5l2.98-3.952,22.064-7.391a160.528,160.528,0,0,0-2.331-16.766c-.1-.548-.212-1.072-.324-1.609l.112-.136S810.088,175.059,812.555,185.917Z" transform="translate(-732.564 -94.738)" opacity="0.2" style="isolation: isolate"/>
              <path id="Trazado_10830" data-name="Trazado 10830" d="M779.731,187.216s-6.74-5.425-9.37-6.246-7.725,3.123-7.725,3.123l6.575,9.369Z" transform="translate(-740.01 -88.149)" fill="#ebb376"/>
              <path id="Trazado_10831" data-name="Trazado 10831" d="M795.8,188.419l10.028-6.742s-7.562-5.421-8.547-5.586-5.917,5.586-5.917,5.586Z" transform="translate(-725.833 -90.503)" fill="#ebb376"/>
              <g id="Grupo_10575" data-name="Grupo 10575" transform="translate(0 59.804)">
                <path id="Trazado_10832" data-name="Trazado 10832" d="M750.764,159.616c-9.747,4.775,4.2,51.064,16.294,60.467s53.14-23.23,53.14-23.23l-6.2-8.688s-32.12,11.191-36.278,10.147-15.539-25.109-19.219-30.665a32.113,32.113,0,0,0-9.143-8.821" transform="translate(-747.486 -158.826)" fill="#263238"/>
                <path id="Trazado_10833" data-name="Trazado 10833" d="M750.764,159.616c-9.747,4.775,4.2,51.064,16.294,60.467s53.14-23.23,53.14-23.23l-6.2-8.688s-32.12,11.191-36.278,10.147-15.539-25.109-19.219-30.665a32.113,32.113,0,0,0-9.143-8.821" transform="translate(-747.486 -158.826)" fill="#fff" opacity="0.1" style="isolation: isolate"/>
              </g>
            </g>
          </g>
        </g>
        <g id="Grupo_10578" data-name="Grupo 10578" transform="translate(145.939 29.11)">
          <path id="Trazado_10835" data-name="Trazado 10835" d="M890.159,149.02H834.734a7.147,7.147,0,0,1-7.148-7.147h0a7.148,7.148,0,0,1,7.148-7.148h55.425a7.147,7.147,0,0,1,7.147,7.148h0A7.146,7.146,0,0,1,890.159,149.02Z" transform="translate(-827.586 -134.725)" fill="#9665ba"/>
          <path id="Trazado_10836" data-name="Trazado 10836" d="M915.42,157.43H830.327a2.741,2.741,0,0,1-2.741-2.741h0a2.741,2.741,0,0,1,2.741-2.741H915.42a2.741,2.741,0,0,1,2.741,2.741h0A2.741,2.741,0,0,1,915.42,157.43Z" transform="translate(-827.586 -126.225)" fill="#9665ba"/>
          <path id="Trazado_10837" data-name="Trazado 10837" d="M879.317,165.973H830.327a2.741,2.741,0,0,1-2.741-2.741h0a2.741,2.741,0,0,1,2.741-2.741h48.991a2.741,2.741,0,0,1,2.741,2.741h0A2.74,2.74,0,0,1,879.317,165.973Z" transform="translate(-827.586 -122.008)" fill="#9665ba"/>
        </g>
        <path id="Trazado_10838" data-name="Trazado 10838" d="M855.784,191.06H834.248a6.663,6.663,0,0,1-6.663-6.663h0a6.663,6.663,0,0,1,6.663-6.663h21.535a6.663,6.663,0,0,1,6.663,6.663h0A6.663,6.663,0,0,1,855.784,191.06Z" transform="translate(-681.647 -84.388)" opacity="0.2" style="isolation: isolate"/>
        <rect id="Rectángulo_2714" data-name="Rectángulo 2714" width="97.292" height="243.789" transform="translate(0 148.577)" fill="#9aa0d0"/>
        <g id="Grupo_10579" data-name="Grupo 10579" transform="translate(13.776 207.484)" opacity="0.3" style="isolation: isolate">
          <path id="Trazado_10839" data-name="Trazado 10839" d="M797.06,259.637H741.837A2.741,2.741,0,0,1,739.1,256.9h0a2.741,2.741,0,0,1,2.741-2.741H797.06A2.741,2.741,0,0,1,799.8,256.9h0A2.741,2.741,0,0,1,797.06,259.637Z" transform="translate(-739.096 -254.156)" fill="#fff"/>
          <path id="Trazado_10840" data-name="Trazado 10840" d="M775.892,268.18H741.837a2.741,2.741,0,0,1-2.741-2.741h0a2.741,2.741,0,0,1,2.741-2.741h34.055a2.74,2.74,0,0,1,2.741,2.741h0A2.74,2.74,0,0,1,775.892,268.18Z" transform="translate(-739.096 -249.94)" fill="#fff"/>
        </g>
        <g id="Grupo_10580" data-name="Grupo 10580" transform="translate(13.776 245.648)" opacity="0.3" style="isolation: isolate">
          <path id="Trazado_10841" data-name="Trazado 10841" d="M782.125,285.19H741.837a2.74,2.74,0,0,1-2.741-2.741h0a2.741,2.741,0,0,1,2.741-2.741h40.288a2.742,2.742,0,0,1,2.741,2.741h0A2.741,2.741,0,0,1,782.125,285.19Z" transform="translate(-739.096 -279.709)" fill="#fff"/>
          <path id="Trazado_10842" data-name="Trazado 10842" d="M790.827,293.733h-48.99a2.74,2.74,0,0,1-2.741-2.741h0a2.741,2.741,0,0,1,2.741-2.741h48.99a2.741,2.741,0,0,1,2.741,2.741h0A2.74,2.74,0,0,1,790.827,293.733Z" transform="translate(-739.096 -275.493)" fill="#fff"/>
        </g>
        <g id="Grupo_10581" data-name="Grupo 10581" transform="translate(13.776 283.813)" opacity="0.3" style="isolation: isolate">
          <path id="Trazado_10843" data-name="Trazado 10843" d="M797.06,310.744H741.837A2.742,2.742,0,0,1,739.1,308h0a2.741,2.741,0,0,1,2.741-2.741H797.06A2.74,2.74,0,0,1,799.8,308h0A2.741,2.741,0,0,1,797.06,310.744Z" transform="translate(-739.096 -305.263)" fill="#fff"/>
          <path id="Trazado_10844" data-name="Trazado 10844" d="M760.957,319.287h-19.12a2.742,2.742,0,0,1-2.741-2.741h0a2.741,2.741,0,0,1,2.741-2.741h19.12a2.74,2.74,0,0,1,2.741,2.741h0A2.741,2.741,0,0,1,760.957,319.287Z" transform="translate(-739.096 -301.047)" fill="#fff"/>
        </g>
        <g id="Grupo_10582" data-name="Grupo 10582" transform="translate(13.776 321.977)" opacity="0.3" style="isolation: isolate">
          <path id="Trazado_10845" data-name="Trazado 10845" d="M767.189,336.3H741.837a2.741,2.741,0,0,1-2.741-2.741h0a2.741,2.741,0,0,1,2.741-2.741h25.353a2.741,2.741,0,0,1,2.741,2.741h0A2.741,2.741,0,0,1,767.189,336.3Z" transform="translate(-739.096 -330.816)" fill="#fff"/>
          <path id="Trazado_10846" data-name="Trazado 10846" d="M790.827,344.84h-48.99A2.741,2.741,0,0,1,739.1,342.1h0a2.741,2.741,0,0,1,2.741-2.741h48.99a2.741,2.741,0,0,1,2.741,2.741h0A2.741,2.741,0,0,1,790.827,344.84Z" transform="translate(-739.096 -326.6)" fill="#fff"/>
        </g>
        <rect id="Rectángulo_2715" data-name="Rectángulo 2715" width="145.742" height="243.789" transform="translate(248.549 392.366) rotate(180)" fill="#fff" opacity="0.3" style="isolation: isolate"/>
        <g id="Grupo_10583" data-name="Grupo 10583" transform="translate(123.055 169.32)" opacity="0.2" style="isolation: isolate">
          <path id="Trazado_10847" data-name="Trazado 10847" d="M815,234.083h40.286a2.74,2.74,0,1,0,0-5.48H815a2.74,2.74,0,1,0,0,5.48Z" transform="translate(-812.264 -228.603)"/>
          <path id="Trazado_10848" data-name="Trazado 10848" d="M903.136,247.337H827a2.741,2.741,0,0,0,0,5.481h76.131a2.741,2.741,0,0,0,0-5.481Z" transform="translate(-806.342 -219.357)"/>
          <path id="Trazado_10849" data-name="Trazado 10849" d="M815,261.361h93.8a2.74,2.74,0,1,0,0-5.48H815a2.74,2.74,0,1,0,0,5.48Z" transform="translate(-812.264 -215.141)"/>
          <path id="Trazado_10850" data-name="Trazado 10850" d="M909.058,266.072H815a2.741,2.741,0,0,0,0,5.481h94.053a2.741,2.741,0,0,0,0-5.481Z" transform="translate(-812.264 -210.111)"/>
          <path id="Trazado_10851" data-name="Trazado 10851" d="M815,280.1h93.8a2.741,2.741,0,0,0,0-5.481H815a2.741,2.741,0,0,0,0,5.481Z" transform="translate(-812.264 -205.895)"/>
          <path id="Trazado_10852" data-name="Trazado 10852" d="M909.058,284.807H815a2.741,2.741,0,0,0,0,5.481h94.053a2.741,2.741,0,0,0,0-5.481Z" transform="translate(-812.264 -200.865)"/>
          <path id="Trazado_10853" data-name="Trazado 10853" d="M815,298.831h72.887a2.741,2.741,0,0,0,0-5.481H815a2.741,2.741,0,0,0,0,5.481Z" transform="translate(-812.264 -196.649)"/>
          <path id="Trazado_10854" data-name="Trazado 10854" d="M827,317.566h75.874a2.741,2.741,0,0,0,0-5.481H827a2.741,2.741,0,0,0,0,5.481Z" transform="translate(-806.342 -187.402)"/>
          <path id="Trazado_10855" data-name="Trazado 10855" d="M909.058,322.277H815a2.741,2.741,0,0,0,0,5.481h94.053a2.741,2.741,0,0,0,0-5.481Z" transform="translate(-812.264 -182.372)"/>
          <path id="Trazado_10856" data-name="Trazado 10856" d="M815,336.3h93.8a2.741,2.741,0,0,0,0-5.481H815a2.741,2.741,0,0,0,0,5.481Z" transform="translate(-812.264 -178.156)"/>
          <path id="Trazado_10857" data-name="Trazado 10857" d="M889.642,341.012H815a2.741,2.741,0,0,0,0,5.481h74.638a2.741,2.741,0,0,0,0-5.481Z" transform="translate(-812.264 -173.126)"/>
          <path id="Trazado_10858" data-name="Trazado 10858" d="M909.058,359.746H815a2.741,2.741,0,0,0,0,5.481h94.053a2.741,2.741,0,0,0,0-5.481Z" transform="translate(-812.264 -163.881)"/>
        </g>
        <g id="Grupo_10584" data-name="Grupo 10584" transform="translate(13.776 169.32)" opacity="0.3" style="isolation: isolate">
          <path id="Trazado_10859" data-name="Trazado 10859" d="M782.125,234.083H741.837a2.74,2.74,0,0,1-2.741-2.739h0a2.741,2.741,0,0,1,2.741-2.741h40.288a2.741,2.741,0,0,1,2.741,2.741h0A2.74,2.74,0,0,1,782.125,234.083Z" transform="translate(-739.096 -228.603)" fill="#fff"/>
          <path id="Trazado_10860" data-name="Trazado 10860" d="M760.957,242.627h-19.12a2.741,2.741,0,0,1-2.741-2.741h0a2.741,2.741,0,0,1,2.741-2.741h19.12a2.74,2.74,0,0,1,2.741,2.741h0A2.74,2.74,0,0,1,760.957,242.627Z" transform="translate(-739.096 -224.387)" fill="#fff"/>
        </g>
      </g>
    </g>
    <g id="_Group_2" data-name="&lt;Group&gt;" transform="translate(985.747 117.338)">
      <path id="Trazado_10861" data-name="Trazado 10861" d="M983.454,191.286l3.644-6.622,9.373-13.633,1.765-11.291s8.21,3.063,9.565,5.426.714,14.483,0,15.957-9.19,7.294-9.19,7.294l-4.522,8.654Z" transform="translate(-841.235 -76.612)" fill="#ebb376"/>
      <g id="Grupo_10587" data-name="Grupo 10587" transform="translate(100.638 67.218)">
        <path id="Trazado_10862" data-name="Trazado 10862" d="M955.613,149.087s30.356,47.663,33.9,51.93,7.484-11.1,7.484-11.1l15.362,6.7s-4.333,29.136-16.15,30.325-37.026-29.93-37.026-29.93Z" transform="translate(-955.613 -149.087)" fill="#263238"/>
        <path id="Trazado_10863" data-name="Trazado 10863" d="M1012.352,196.611s-4.331,29.139-16.145,30.334c-5.9.582-15.159-6.885-22.926-14.517s-14.1-15.413-14.1-15.413l-1.225-16.354-2.345-31.573s30.349,47.658,33.9,51.93c3.54,4.271,7.483-11.1,7.483-11.1Z" transform="translate(-955.613 -149.087)" fill="#fff" opacity="0.1" style="isolation: isolate"/>
      </g>
      <path id="Trazado_10864" data-name="Trazado 10864" d="M972.506,201.994c-7.781-7.632-14.1-15.413-14.1-15.413l-1.225-16.354A48.888,48.888,0,0,1,972.506,201.994Z" transform="translate(-854.2 -71.436)" opacity="0.2" style="isolation: isolate"/>
      <path id="Trazado_10865" data-name="Trazado 10865" d="M920.893,326.283l.072-14.784a1.07,1.07,0,0,0-.832-1.042L909.307,308a1.8,1.8,0,0,0-2.134,1.376,1.841,1.841,0,0,0-.042.394c.055,4.785.332,8.27.3,14.277-.018,3.7-.46,14.859-.485,19.968s5.02,5.8,5.493,3.711c2.089-9.372,4.957-16.418,7.666-19.408A2.952,2.952,0,0,0,920.893,326.283Z" transform="translate(-878.992 -3.46)" fill="#263238"/>
      <g id="Grupo_10588" data-name="Grupo 10588" transform="translate(40.479 186.685)">
        <path id="Trazado_10866" data-name="Trazado 10866" d="M982.758,229.08l4.773,25.045s37.74,61.085,37.72,96.355c-.025,42.129-109.919,17.824-109.919,17.824v-19.4s65.688,5.646,71.607-.942c7.185-8-37.108-69.9-37.108-69.9Z" transform="translate(-915.333 -229.076)" fill="#263238"/>
        <path id="Trazado_10867" data-name="Trazado 10867" d="M1025.256,350.486c-.015,23.224-33.425,26.256-63.4,24.3a351.621,351.621,0,0,1-44.462-6.049c-1.329-.269-2.061-.433-2.061-.433V348.9s.866.075,2.42.194c7.468.6,30.722,2.285,48.316,2.031,10.455-.149,18.923-1,20.88-3.166,3.525-3.928-5.377-20.88-15.339-37.1v-.015c-10.32-16.772-21.776-32.783-21.776-32.783l14.427-21.477,18.49-27.511,4.779,25.046S1025.271,315.209,1025.256,350.486Z" transform="translate(-915.333 -229.077)" fill="#fff" opacity="0.2" style="isolation: isolate"/>
      </g>
      <path id="Trazado_10868" data-name="Trazado 10868" d="M965.387,311.468l-4.212,23.657a351.621,351.621,0,0,1-44.462-6.049l.358-19.64C924.539,310.034,947.793,311.722,965.387,311.468Z" transform="translate(-874.173 -2.732)" opacity="0.2" style="isolation: isolate"/>
      <path id="Trazado_10869" data-name="Trazado 10869" d="M952.92,275.105s6.138,14.442,7.288,27.466c-10.32-16.772-21.776-32.783-21.776-32.783l14.427-21.477,7.6-2.464S962.147,255.713,952.92,275.105Z" transform="translate(-863.454 -34.116)" opacity="0.2" style="isolation: isolate"/>
      <path id="Trazado_10870" data-name="Trazado 10870" d="M947.593,407.413H932.808a1.068,1.068,0,0,0-1.036.836l-2.4,10.837a1.8,1.8,0,0,0,1.386,2.128,1.747,1.747,0,0,0,.394.039c4.784-.078,8.267-.37,14.274-.37,3.7,0,14.862.387,19.971.387s5.774-5.048,3.685-5.513c-9.382-2.043-16.441-4.876-19.444-7.569A2.948,2.948,0,0,0,947.593,407.413Z" transform="translate(-867.945 45.621)" fill="#263238"/>
      <g id="Grupo_10589" data-name="Grupo 10589" transform="translate(40.594 176.123)">
        <path id="Trazado_10871" data-name="Trazado 10871" d="M916.869,233.37s-3.283,12.266,0,68.483c5.041,86.309,21.039,201.215,21.039,201.215l18.6-3.377s-2.375-171.883.124-219.317c0,0,26.283-23.572,26.087-47.8S916.869,233.37,916.869,233.37Z" transform="translate(-915.41 -222.005)" fill="#263238"/>
        <path id="Trazado_10872" data-name="Trazado 10872" d="M916.869,233.37s-3.283,12.266,0,68.483c5.041,86.309,21.039,201.215,21.039,201.215l18.6-3.377s-2.375-171.883.124-219.317c0,0,26.283-23.572,26.087-47.8S916.869,233.37,916.869,233.37Z" transform="translate(-915.41 -222.005)" fill="#fff" opacity="0.2" style="isolation: isolate"/>
      </g>
      <g id="Grupo_10590" data-name="Grupo 10590" transform="translate(42.053 176.265)">
        <path id="Trazado_10873" data-name="Trazado 10873" d="M981.409,224.433H916.387v7.741l65.85-.8Z" transform="translate(-916.387 -220.949)" fill="#263238"/>
        <rect id="Rectángulo_2716" data-name="Rectángulo 2716" width="2.322" height="13.74" transform="translate(23.222 13.74) rotate(180)" fill="#263238"/>
        <rect id="Rectángulo_2717" data-name="Rectángulo 2717" width="2.322" height="13.74" transform="translate(56.12 13.74) rotate(180)" fill="#263238"/>
        <rect id="Rectángulo_2718" data-name="Rectángulo 2718" width="12.026" height="8.666" transform="translate(47.411 10.794) rotate(180)" fill="#fff"/>
        <rect id="Rectángulo_2719" data-name="Rectángulo 2719" width="2.322" height="13.74" transform="translate(23.222 13.74) rotate(180)" fill="#fff" opacity="0.2" style="isolation: isolate"/>
        <rect id="Rectángulo_2720" data-name="Rectángulo 2720" width="2.322" height="13.74" transform="translate(56.12 13.74) rotate(180)" fill="#fff" opacity="0.2" style="isolation: isolate"/>
      </g>
      <g id="Grupo_10591" data-name="Grupo 10591" transform="translate(28.937 66.998)">
        <path id="Trazado_10874" data-name="Trazado 10874" d="M979.306,149.156s-41.09-1.936-71.7,5.792c0,0,13.515,68.039,13,106.742h65.137S989.977,189.1,979.306,149.156Z" transform="translate(-907.605 -148.94)" fill="#407bff"/>
        <path id="Trazado_10875" data-name="Trazado 10875" d="M985.735,261.691H920.617c.06-4.212-.06-8.752-.3-13.531-.569-11.172-1.837-23.553-3.377-35.531q-.224-1.747-.448-3.495c-1.045-7.781-2.166-15.309-3.256-22.179-2.941-18.445-5.631-32.006-5.631-32.006,30.6-7.722,71.689-5.795,71.689-5.795C989.962,189.105,985.735,261.691,985.735,261.691Z" transform="translate(-907.603 -148.94)" fill="#fff" opacity="0.6" style="isolation: isolate"/>
      </g>
      <path id="Trazado_10876" data-name="Trazado 10876" d="M923.669,161.185c5.9,5.36,20.354,3.378,20.354,3.378s9.022-2.47,7.127-5.289c-5.314-.878-7.887-3.359-8.949-6.531a15.424,15.424,0,0,1-.539-6.07,32.056,32.056,0,0,1,.447-3.389l-17.87-13.233C926.58,138.786,929.446,154.853,923.669,161.185Z" transform="translate(-870.74 -91.264)" fill="#ebb376"/>
      <path id="Trazado_10877" data-name="Trazado 10877" d="M926.814,135.683c.709,10.722,9.521,13.679,13.835,14.281a15.424,15.424,0,0,1-.539-6.07Z" transform="translate(-869.188 -88.485)" opacity="0.2" style="isolation: isolate"/>
      <g id="Grupo_10593" data-name="Grupo 10593" transform="translate(45.272)">
        <path id="Trazado_10878" data-name="Trazado 10878" d="M920.58,111.448s-4.987,16.127,2.821,23.789,12.417-23.06,12.417-23.06Z" transform="translate(-918.311 -100.445)" fill="#263238"/>
        <path id="Trazado_10879" data-name="Trazado 10879" d="M946.99,152.8a15.146,15.146,0,0,1-18.07,3.223,16.865,16.865,0,0,1-8.358-9.182,17.444,17.444,0,0,1-.554-1.7c-2.8-10.732-1.522-28.579,10.134-33.591A16.426,16.426,0,0,1,953.108,127.5C952.648,139.491,952.944,146.56,946.99,152.8Z" transform="translate(-918.438 -101.077)" fill="#ebb376"/>
        <path id="Trazado_10880" data-name="Trazado 10880" d="M930.38,124.844c.088.966-.473,1.774-1.122,1.786s-1.169-.775-1.195-1.747.49-1.777,1.123-1.788S930.353,123.857,930.38,124.844Z" transform="translate(-913.844 -94.697)" fill="#263238"/>
        <path id="Trazado_10881" data-name="Trazado 10881" d="M922.989,124.993c.087.966-.49,1.776-1.123,1.786s-1.168-.775-1.193-1.747.488-1.776,1.122-1.788S922.966,124.067,922.989,124.993Z" transform="translate(-917.492 -94.624)" fill="#263238"/>
        <path id="Trazado_10882" data-name="Trazado 10882" d="M926.064,124.689a34.763,34.763,0,0,1-4.5,8.449,5.651,5.651,0,0,0,4.71.781Z" transform="translate(-917.05 -93.91)" fill="#d58745"/>
        <path id="Trazado_10883" data-name="Trazado 10883" d="M933.476,122.882a.6.6,0,0,1-.562-.212,4.617,4.617,0,0,0-3.708-1.846.57.57,0,0,1-.1-1.135h0a5.683,5.683,0,0,1,4.7,2.266.57.57,0,0,1-.07.8l-.01.009A.921.921,0,0,1,933.476,122.882Z" transform="translate(-913.587 -96.379)" fill="#263238"/>
        <path id="Trazado_10884" data-name="Trazado 10884" d="M919.218,123.268a.555.555,0,0,1-.338.03.571.571,0,0,1-.29-.751l0-.012a5.684,5.684,0,0,1,4.064-3.305.57.57,0,0,1,.647.481h0a.584.584,0,0,1-.482.647h0a4.624,4.624,0,0,0-3.178,2.669A.586.586,0,0,1,919.218,123.268Z" transform="translate(-918.542 -96.608)" fill="#263238"/>
        <path id="Trazado_10885" data-name="Trazado 10885" d="M935.923,111.877l-.79,5.266a3.941,3.941,0,0,1,1.843,5.017c-1.828,4.4.5,11.363,3.84,14.206,0,0,.158-1.924,1.771-1.422s.889,10.517-2.414,15.215c0,0,5.732-5.139,8.73-15.592,2.77-9.669,2.487-16.832.588-20.654Z" transform="translate(-910.354 -100.233)" fill="#263238"/>
        <path id="Trazado_10886" data-name="Trazado 10886" d="M949.272,130.783a11.414,11.414,0,0,1-6.425,5.9c-3.767,1.35-5.935-1.955-5.138-5.665.741-3.29,3.573-8.067,7.48-7.778S950.8,127.4,949.272,130.783Z" transform="translate(-909.164 -94.631)" fill="#ebb376"/>
        <g id="Grupo_10592" data-name="Grupo 10592" transform="translate(8.341 41.118)">
          <path id="Trazado_10887" data-name="Trazado 10887" d="M924.127,133.436a30.563,30.563,0,0,1,1.174,4.257c.261,0,.521-.01.78-.03,3.523-.161,5.1-1.4,5.789-2.726a4.553,4.553,0,0,0,.461-2.1,4.388,4.388,0,0,0-.158-1.222c-1.816,1.2-5.088,1.607-6.846,1.749C924.591,133.428,924.127,133.436,924.127,133.436Z" transform="translate(-924.127 -131.612)" fill="#263238"/>
          <path id="Trazado_10888" data-name="Trazado 10888" d="M924.93,133.361l.379,1.247c3.319-.161,5.632-.72,6.625-1.774a4.39,4.39,0,0,0-.158-1.222C929.96,132.814,926.688,133.219,924.93,133.361Z" transform="translate(-923.731 -131.612)" fill="#fff"/>
          <path id="Trazado_10889" data-name="Trazado 10889" d="M925.435,136.564c3.523-.161,5.1-1.4,5.789-2.726a11.335,11.335,0,0,0-3.877.956A4.258,4.258,0,0,0,925.435,136.564Z" transform="translate(-923.482 -130.513)" fill="#de5753"/>
        </g>
        <path id="Trazado_10890" data-name="Trazado 10890" d="M943.037,120.991s-12.6,5.5-20.436-.8,0-16.111,0-16.111a10.779,10.779,0,0,0,6.933,2.718c4.136,0,13.479-3.151,21.411.2s11.594,14.188,4.939,19.7Z" transform="translate(-918.259 -104.081)" fill="#263238"/>
      </g>
      <path id="Trazado_10891" data-name="Trazado 10891" d="M945.69,152.693l-1.729,8.5s9.9,41.283,12.026,62.7l-3.607,3.613-5.675-3.613s-.506-43.6-5.514-61.925l-8.975-7.348,7.064-2.287Z" transform="translate(-866.522 -80.267)" fill="#9665ba"/>
      <g id="Grupo_10594" data-name="Grupo 10594" transform="translate(48.491 61.832)">
        <path id="Trazado_10892" data-name="Trazado 10892" d="M927.156,145.481l17.165,7.741,1.005-6.2,6.312,2.219a5.186,5.186,0,0,1,3.438,5.432l-.712,6.81-8.709-4.767-4.339,6.138L920.7,152.919Z" transform="translate(-920.698 -145.481)" fill="#407bff"/>
        <path id="Trazado_10893" data-name="Trazado 10893" d="M927.156,145.481l17.165,7.741,1.005-6.2,6.312,2.219a5.186,5.186,0,0,1,3.438,5.432l-.712,6.81-8.709-4.767-4.339,6.138L920.7,152.919Z" transform="translate(-920.698 -145.481)" fill="#fff" opacity="0.7" style="isolation: isolate"/>
      </g>
      <g id="Grupo_10595" data-name="Grupo 10595" transform="translate(28.943 66.244)">
        <path id="Trazado_10894" data-name="Trazado 10894" d="M927.625,150.394s16.2,13.18,34.493,55.171c0,0,.665-41.036-2.779-57.13l19.959.968s14.613,32.274,7.272,101.993l5.069,34.859-22.014,9.208-5.074-16.211-5.212,15.933L916.9,289.5l2.248-44.017s-10.187-72.748-11.536-90.29Z" transform="translate(-907.609 -148.435)" fill="#263238"/>
        <path id="Trazado_10895" data-name="Trazado 10895" d="M991.639,286.26l-22.014,9.2-5.078-16.2-5.212,15.921-16.4-2.2-26.047-3.48,1.12-21.865,1.135-22.149s-1.822-13.1-4.047-29.512c-1.15-8.513-2.39-17.907-3.555-26.839-1.852-14.457-3.45-27.69-3.928-33.933l18.624-4.481,1.389-.329s16.19,13.188,34.486,55.171c0,0,.672-41.042-2.778-57.127l19.968.971s14.607,32.26,7.273,101.993Z" transform="translate(-907.607 -148.434)" fill="#fff" opacity="0.1" style="isolation: isolate"/>
        <path id="Trazado_10896" data-name="Trazado 10896" d="M964.29,167.2l4.63,8.17s-4.809,31.424-12.546,42.356v-6.5l-29.96-34.545,5.377-8.3L918.3,171.034s-1.254-12.62,2.748-20.312l1.389-.329s16.19,13.188,34.486,55.171c0,0,.672-41.042-2.778-57.127,0,0,9.544,5.168,16.339,18.759Z" transform="translate(-902.422 -148.434)" fill="#fff" opacity="0.2" style="isolation: isolate"/>
      </g>
      <path id="Trazado_10897" data-name="Trazado 10897" d="M913.8,203.33c-1.15-8.513-2.39-17.907-3.555-26.839l4.764-2.434S919.279,190.441,913.8,203.33Z" transform="translate(-877.366 -69.546)" opacity="0.2" style="isolation: isolate"/>
      <path id="Trazado_10898" data-name="Trazado 10898" d="M939.87,253.592l-26.047-3.48,1.12-21.865C922.9,232.115,935.852,240.24,939.87,253.592Z" transform="translate(-875.6 -42.802)" opacity="0.2" style="isolation: isolate"/>
      <g id="Grupo_10596" data-name="Grupo 10596" transform="translate(0 73.013)">
        <path id="Trazado_10899" data-name="Trazado 10899" d="M917.179,152.967S885.3,200.6,888.449,227.192s41.834,69.893,41.834,69.893l12.323-7.66s-30.916-47.454-33.673-62.232c-1.486-7.96,16.937-42.731,16.937-42.731S924.638,160.467,917.179,152.967Z" transform="translate(-888.23 -152.967)" fill="#263238"/>
        <path id="Trazado_10900" data-name="Trazado 10900" d="M917.179,152.967S885.3,200.6,888.449,227.192s41.834,69.893,41.834,69.893l12.323-7.66s-30.916-47.454-33.673-62.232c-1.486-7.96,16.937-42.731,16.937-42.731S924.638,160.467,917.179,152.967Z" transform="translate(-888.23 -152.967)" fill="#fff" opacity="0.1" style="isolation: isolate"/>
      </g>
      <g id="Grupo_10598" data-name="Grupo 10598" transform="translate(123.805 56.223)">
        <g id="Grupo_10597" data-name="Grupo 10597" transform="translate(5.203)">
          <path id="Trazado_10901" data-name="Trazado 10901" d="M974.608,191.663,977.48,152.5l25.5,1.762,3.011-12.538,6.179,2.569-12.908,45.718Z" transform="translate(-974.608 -141.725)" fill="#407bff"/>
          <path id="Trazado_10902" data-name="Trazado 10902" d="M974.608,191.663,977.48,152.5l25.5,1.762,3.011-12.538,6.179,2.569-12.908,45.718Z" transform="translate(-974.608 -141.725)" fill="#fff" opacity="0.7" style="isolation: isolate"/>
        </g>
        <path id="Trazado_10903" data-name="Trazado 10903" d="M971.125,197.182l9.453-40.571h25.6l9.06-14.63-7.484,43.408-9.06,9.5Z" transform="translate(-971.125 -141.599)" fill="#9665ba"/>
        <path id="Trazado_10904" data-name="Trazado 10904" d="M997.07,156.611l-7.484,38.274,9.06-9.5,7.484-43.408Z" transform="translate(-962.013 -141.599)" opacity="0.2" style="isolation: isolate"/>
      </g>
      <path id="Trazado_10905" data-name="Trazado 10905" d="M999.441,161.51s-4.327,1.437-4.917,4-1.576,18.315-1.576,18.315,6.7-1.574,7.681-5.12S999.441,161.51,999.441,161.51Z" transform="translate(-836.549 -75.738)" fill="#ebb376"/>
    </g>
  </g>
</svg>
