<svg xmlns="http://www.w3.org/2000/svg" width="377.258" height="320.215" viewBox="0 0 377.258 320.215">
  <g id="Grupo_10360" data-name="Grupo 10360" transform="translate(-565.507 -199.212)">
    <path id="Trazado_10011" data-name="Trazado 10011" d="M884.673,248.9c-21.588-51.7-84.055-62.947-129.44-34.247q-4.2,2.061-8.136,4.466c-10.516,6.4-19.8,14.568-28.7,23.622-18.429,18.853-35.428,38.274-56.894,51.761-2.509,1.7-7.384,5-13,8.852-11.227,7.712-25.383,17.7-29.711,21.167q-1.676,1.344-3.431,2.578C592.621,343,575.3,366.78,567.887,392.813l-.038.129a62.413,62.413,0,0,0-1.82,24.989c4.633,35.893,24.389,73.543,56.8,89.744a124.757,124.757,0,0,0,13.255,4.954,155.542,155.542,0,0,0,42.032,6.678,184.382,184.382,0,0,0,27.072-1.016,173.525,173.525,0,0,0,25.923-4.876c7.294-1.562,14.486-3.448,21.506-5.6,3-.765,5.956-1.518,8.819-2.253,22.986-7.922,45.82.492,68.477,6.845,24.834,7.553,52.786,3.089,76.652-7.332a71.038,71.038,0,0,0,11.5-7.57q.669-.539,1.32-1.094c22.9-19.423,29.657-51.931,17.267-79.284-9.783-21.588-24.43-49.888-28.214-63.863C903.748,335.97,903.119,288.741,884.673,248.9Z" fill="#664e93"/>
    <g id="Grupo_10360-2" data-name="Grupo 10360" transform="translate(833.096 248.406)">
      <path id="Trazado_10258" data-name="Trazado 10258" d="M1152.379,318.181a21.251,21.251,0,0,0-2.275-5.484l2.315-3.482L1149.207,306l-3.212-3.213-3.482,2.315a21.281,21.281,0,0,0-5.484-2.274l-.825-4.1h-9.086l-.825,4.1a21.265,21.265,0,0,0-5.484,2.274l-3.483-2.315L1114.115,306l-3.213,3.212,2.316,3.482a21.242,21.242,0,0,0-2.274,5.484l-4.1.824v9.086l4.1.824a21.242,21.242,0,0,0,2.274,5.484l-2.316,3.482,3.213,3.212,3.212,3.212,3.483-2.316a21.263,21.263,0,0,0,5.484,2.275l.825,4.1h9.086l.825-4.1a21.279,21.279,0,0,0,5.484-2.275l3.482,2.316,3.212-3.212,3.213-3.212L1150.1,334.4a21.251,21.251,0,0,0,2.275-5.484l4.1-.824v-9.086Zm-20.718,21.286a15.919,15.919,0,1,1,15.919-15.919A15.919,15.919,0,0,1,1131.661,339.467Z" transform="translate(-1106.847 -298.734)" fill="#99a1d3"/>
    </g>
    <g id="Grupo_10361" data-name="Grupo 10361" transform="translate(863.952 297.573)">
      <path id="Trazado_10259" data-name="Trazado 10259" d="M1190.144,407.115a9.757,9.757,0,0,0-1.043-2.514l1.062-1.6-1.473-1.473-1.472-1.473-1.6,1.062a9.787,9.787,0,0,0-2.514-1.043l-.378-1.877h-4.165l-.378,1.877a9.782,9.782,0,0,0-2.514,1.043l-1.6-1.062-1.473,1.473L1171.13,403l1.061,1.6a9.757,9.757,0,0,0-1.043,2.514l-1.878.378v4.165l1.878.378a9.757,9.757,0,0,0,1.043,2.514l-1.061,1.6,1.472,1.473,1.473,1.473,1.6-1.061a9.724,9.724,0,0,0,2.514,1.043l.378,1.878h4.165l.378-1.878a9.729,9.729,0,0,0,2.514-1.043l1.6,1.061,1.472-1.473,1.473-1.473-1.062-1.6a9.757,9.757,0,0,0,1.043-2.514l1.878-.378v-4.165Zm-9.5,9.759a7.3,7.3,0,1,1,7.3-7.3A7.3,7.3,0,0,1,1180.646,416.874Z" transform="translate(-1169.27 -398.2)" fill="#99a1d3"/>
    </g>
    <g id="Grupo_10362" data-name="Grupo 10362" transform="translate(752.817 383.343)">
      <rect id="Rectángulo_2707" data-name="Rectángulo 2707" width="22.349" height="67.882" transform="translate(22.349 67.882) rotate(180)" fill="#aebecc"/>
    </g>
    <g id="Grupo_10363" data-name="Grupo 10363" transform="translate(675.057 265.412)">
      <rect id="Rectángulo_2708" data-name="Rectángulo 2708" width="177.869" height="129.297" transform="translate(177.869 129.297) rotate(180)" fill="#fff"/>
    </g>
    <g id="Grupo_10364" data-name="Grupo 10364" transform="translate(675.057 265.412)">
      <rect id="Rectángulo_2709" data-name="Rectángulo 2709" width="177.869" height="15.617" transform="translate(177.869 15.617) rotate(180)" fill="#672996"/>
    </g>
    <g id="Grupo_10365" data-name="Grupo 10365" transform="translate(757.767 398.246)">
      <path id="Trazado_10260" data-name="Trazado 10260" d="M954.454,608.088a6.225,6.225,0,1,0,6.224-6.225A6.224,6.224,0,0,0,954.454,608.088Z" transform="translate(-954.454 -601.863)" fill="#757575"/>
    </g>
    <g id="Grupo_10368" data-name="Grupo 10368" transform="translate(727.865 292.136)">
      <g id="Grupo_10367" data-name="Grupo 10367" transform="translate(0 0)">
        <g id="Grupo_10366" data-name="Grupo 10366">
          <path id="Rectángulo_2710" data-name="Rectángulo 2710" d="M2.313,0H60.2a2.314,2.314,0,0,1,2.314,2.314v0A2.314,2.314,0,0,1,60.2,4.627H2.314A2.314,2.314,0,0,1,0,2.314v0A2.313,2.313,0,0,1,2.313,0Z" transform="translate(62.512 4.627) rotate(180)" fill="#dfe1e8"/>
        </g>
      </g>
    </g>
    <g id="Grupo_10371" data-name="Grupo 10371" transform="translate(727.865 300.482)">
      <g id="Grupo_10370" data-name="Grupo 10370" transform="translate(0 0)">
        <g id="Grupo_10369" data-name="Grupo 10369">
          <rect id="Rectángulo_2711" data-name="Rectángulo 2711" width="62.512" height="4.628" rx="2.314" transform="translate(62.512 4.628) rotate(-180)" fill="#dfe1e8"/>
        </g>
      </g>
    </g>
    <g id="Grupo_10374" data-name="Grupo 10374" transform="translate(727.865 308.828)">
      <g id="Grupo_10373" data-name="Grupo 10373" transform="translate(0 0)">
        <g id="Grupo_10372" data-name="Grupo 10372">
          <rect id="Rectángulo_2712" data-name="Rectángulo 2712" width="62.512" height="4.627" rx="2.314" transform="translate(62.512 4.627) rotate(-180)" fill="#dfe1e8"/>
        </g>
      </g>
    </g>
    <g id="Grupo_10378" data-name="Grupo 10378" transform="translate(683.292 324.888)">
      <g id="Grupo_10377" data-name="Grupo 10377">
        <g id="Grupo_10376" data-name="Grupo 10376">
          <g id="Grupo_10375" data-name="Grupo 10375">
            <path id="Trazado_10261" data-name="Trazado 10261" d="M880.546,514.181H813.872A10.094,10.094,0,0,1,803.789,504.1V463.541a10.094,10.094,0,0,1,10.083-10.082h66.674a10.094,10.094,0,0,1,10.082,10.082V504.1A10.094,10.094,0,0,1,880.546,514.181Zm-66.674-59.459a8.829,8.829,0,0,0-8.819,8.819V504.1a8.829,8.829,0,0,0,8.819,8.819h66.674a8.829,8.829,0,0,0,8.819-8.819V463.541a8.829,8.829,0,0,0-8.819-8.819Z" transform="translate(-803.789 -453.459)" fill="#dfe1e8"/>
          </g>
        </g>
      </g>
    </g>
    <g id="Grupo_10381" data-name="Grupo 10381" transform="translate(694.195 330.42)">
      <g id="Grupo_10380" data-name="Grupo 10380" transform="translate(0 0)">
        <g id="Grupo_10379" data-name="Grupo 10379">
          <rect id="Rectángulo_2713" data-name="Rectángulo 2713" width="65.032" height="9.753" rx="4.877" transform="translate(65.032 9.753) rotate(180)" fill="#dfe1e8"/>
        </g>
      </g>
    </g>
    <rect id="Rectángulo_2714" data-name="Rectángulo 2714" width="100.545" height="5.124" transform="translate(713.719 448.663)" fill="#f0f0f0"/>
    <g id="Grupo_10390" data-name="Grupo 10390" transform="translate(803.977 323.74)">
      <path id="Trazado_10262" data-name="Trazado 10262" d="M1076.884,465.61a14.478,14.478,0,0,1-9.911,13.738c-.087.029-.174.058-.261.085a14.475,14.475,0,1,1,10.173-13.823Z" transform="translate(-1047.938 -451.137)" fill="#eef0f7"/>
      <g id="Grupo_10382" data-name="Grupo 10382" transform="translate(10.943 6.667)">
        <path id="Trazado_10263" data-name="Trazado 10263" d="M1070.148,470.9s-.988-6.395,4.308-6.277,5.226,3.28,5.131,6.419-2.124,2.9.165,7.268-1.982,4.366-1.982,4.366l-3.315-4.555Z" transform="translate(-1070.075 -464.624)" fill="#3c4145"/>
      </g>
      <g id="Grupo_10383" data-name="Grupo 10383" transform="translate(11.004 7.207)">
        <path id="Trazado_10264" data-name="Trazado 10264" d="M1073.939,465.792s-3.587.566-3.729,5.663.967,6.183,4.106,5.122,4.13-6.4,4.2-7.221S1078.777,465.178,1073.939,465.792Z" transform="translate(-1070.199 -465.717)" fill="#eea886"/>
      </g>
      <g id="Grupo_10384" data-name="Grupo 10384" transform="translate(7.902 19.936)">
        <path id="Trazado_10265" data-name="Trazado 10265" d="M1077.066,496.543a3.468,3.468,0,0,1-2.009,3.2c-.087.029-.174.058-.261.085a14.527,14.527,0,0,1-10.733-.855c-.436-.87.2-2.106,1.479-4a8.129,8.129,0,0,1,3.224-3.281c2.182-.347,4.491-.368,6.118.551C1076.18,492.974,1077.044,494.3,1077.066,496.543Z" transform="translate(-1063.924 -491.469)" fill="#e55353"/>
      </g>
      <g id="Grupo_10385" data-name="Grupo 10385" transform="translate(8.572 20.563)">
        <path id="Trazado_10266" data-name="Trazado 10266" d="M1066.93,495.535l-1.65,2.6c0-.014.114-.407.3-1.547.036-.216.074-.46.114-.733a1.867,1.867,0,0,1,.052-.239h0a7.622,7.622,0,0,1,2.987-2.879Z" transform="translate(-1065.28 -492.736)" fill="#e55353"/>
      </g>
      <g id="Grupo_10386" data-name="Grupo 10386" transform="translate(16.918 20.678)">
        <path id="Trazado_10267" data-name="Trazado 10267" d="M1087.023,499.261a14.391,14.391,0,0,1-2.744,1.242c-.087.029-.174.058-.261.085-.366-.944-.684-1.761-.752-1.973-.021-.061-.067-.177-.132-.331a10.986,10.986,0,0,1-.971-3.587c-.005-.811.263-1.476,1.078-1.664a2.124,2.124,0,0,1,.866-.033,2.542,2.542,0,0,1,1.739,1.709c.005.012.01.024.014.037a5.575,5.575,0,0,1,.325,1.156l.04.159c.052.2.15.586.277,1.09C1086.646,497.728,1086.829,498.463,1087.023,499.261Z" transform="translate(-1082.163 -492.97)" fill="#eea886"/>
      </g>
      <g id="Grupo_10387" data-name="Grupo 10387" transform="translate(12.53 15.695)">
        <path id="Trazado_10268" data-name="Trazado 10268" d="M1077.9,482.964a27.429,27.429,0,0,0-.64,4.231s-4.387,1.658-3.938.721a3.59,3.59,0,0,0,.268-1.455,7.11,7.11,0,0,0-.049-.885c-.011-.1-.02-.151-.02-.151S1078.207,482.376,1077.9,482.964Z" transform="translate(-1073.287 -482.889)" fill="#eea886"/>
      </g>
      <g id="Grupo_10388" data-name="Grupo 10388" transform="translate(11.016 7.121)">
        <path id="Trazado_10269" data-name="Trazado 10269" d="M1072.489,469.362a17.742,17.742,0,0,0,3.516,4.177c1.675,1.18.825,2.124.825,2.124s4.372-9.2.216-9.84-6.7-.685-6.823,5.545C1070.223,471.367,1072.111,469.314,1072.489,469.362Z" transform="translate(-1070.223 -465.544)" fill="#3c4145"/>
      </g>
      <g id="Grupo_10389" data-name="Grupo 10389" transform="translate(12.781 18.007)">
        <path id="Trazado_10270" data-name="Trazado 10270" d="M1076.3,487.566a4.168,4.168,0,0,1-2.453,1.26h0a7.086,7.086,0,0,0-.049-.885A5.015,5.015,0,0,0,1076.3,487.566Z" transform="translate(-1073.795 -487.566)" fill="#a77860"/>
      </g>
      <path id="Trazado_10271" data-name="Trazado 10271" d="M1066.061,495.578h0a3.707,3.707,0,0,0-.174.991l.646-.975s1.154-1.654,1.549-2.085a6.086,6.086,0,0,1,.968-.808A6.586,6.586,0,0,0,1066.061,495.578Z" transform="translate(-1057.015 -472.156)" fill="#bd4444"/>
      <path id="Trazado_10272" data-name="Trazado 10272" d="M1082.877,498.145a24.744,24.744,0,0,1,3.648-1.169s-.566-4.521-3.333-4.042S1082.877,498.145,1082.877,498.145Z" transform="translate(-1065.1 -472.255)" fill="#e55353"/>
      <path id="Trazado_10273" data-name="Trazado 10273" d="M1072.172,491.4s-2.067,3.179-1.367,3.456,4.488-.37,6.1-3.389A5.675,5.675,0,0,0,1072.172,491.4Z" transform="translate(-1059.428 -471.245)" fill="#eea886"/>
    </g>
    <g id="Grupo_10400" data-name="Grupo 10400" transform="translate(800.605 277.157)">
      <path id="Trazado_10274" data-name="Trazado 10274" d="M1078.78,375.73A18.832,18.832,0,1,1,1059.95,356.9,18.832,18.832,0,0,1,1078.78,375.73Z" transform="translate(-1041.117 -356.897)" fill="#eef0f7"/>
      <g id="Grupo_10399" data-name="Grupo 10399" transform="translate(3.93 8.262)">
        <g id="Grupo_10391" data-name="Grupo 10391" transform="translate(2.636 16.581)">
          <path id="Trazado_10275" data-name="Trazado 10275" d="M1078.932,411.536l-1.389,4.983a18.722,18.722,0,0,1-8.565,3.316c-.557.069-1.123.113-1.693.131-.206.007-.412.01-.619.01q-.914,0-1.806-.086a18.342,18.342,0,0,1-1.959-.292,18.737,18.737,0,0,1-7.7-3.513c-.267-1.648-.553-3.472-.8-5.177,1.384-.515,5.789-2.013,8.569-2.953l.116-.039.181-.061.472-.159.432-.147,1.115-.374h0l.057-.02.032,0,3.739.28.627.046.2.015.085.021c.225.057.88.229,1.748.494h0C1073.987,408.691,1077.578,409.978,1078.932,411.536Z" transform="translate(-1054.399 -407.154)" fill="#d9c7c1"/>
        </g>
        <g id="Grupo_10392" data-name="Grupo 10392" transform="translate(10.446 1.169)">
          <path id="Trazado_10276" data-name="Trazado 10276" d="M1075.636,376.026s4.484.757,3.723,7.776-4.718,6.4-4.982,6.39-3.981.085-4.177-8.5C1070.2,381.694,1070.142,375.349,1075.636,376.026Z" transform="translate(-1070.199 -375.976)" fill="#eea987"/>
        </g>
        <g id="Grupo_10393" data-name="Grupo 10393" transform="translate(11.958 12.539)">
          <path id="Trazado_10277" data-name="Trazado 10277" d="M1079.148,399.789a16.153,16.153,0,0,0,.118,3.517c.273.629-3.6,2.618-6.007.352a24.759,24.759,0,0,0,.336-4.273C1073.444,398.271,1079.148,399.789,1079.148,399.789Z" transform="translate(-1073.259 -398.977)" fill="#eea987"/>
        </g>
        <g id="Grupo_10394" data-name="Grupo 10394" transform="translate(19.403 6.784)">
          <path id="Trazado_10278" data-name="Trazado 10278" d="M1088.613,387.563s.5-.52.673.014-.795,2.9-.734,3.007c0,0-.092.205-.21.09A25.792,25.792,0,0,1,1088.613,387.563Z" transform="translate(-1088.321 -387.336)" fill="#eea987"/>
        </g>
        <g id="Grupo_10395" data-name="Grupo 10395" transform="translate(9.791 6.578)">
          <path id="Trazado_10279" data-name="Trazado 10279" d="M1069.582,387.162s-.476-.54-.672-.014a9.019,9.019,0,0,0,.61,3.035s.154.242.276.132A25.973,25.973,0,0,0,1069.582,387.162Z" transform="translate(-1068.875 -386.918)" fill="#eea987"/>
        </g>
        <g id="Grupo_10396" data-name="Grupo 10396" transform="translate(10.132)">
          <path id="Trazado_10280" data-name="Trazado 10280" d="M1079.416,380.026c-.154.96-.3,1.674-.3,1.674l-.653.852a17.138,17.138,0,0,0-.061-2.18c-.038-.112-.083-.31-.128-.526-.075-.355-.152-.756-.2-.889a9.6,9.6,0,0,0-7.19.23s.028.29.026.613c0,.376-.043.8-.215.861-.321.118-.187,2.205-.187,2.205l-.521-.6s-.151-1.091-.3-2.345a.023.023,0,0,1,0-.009c-.033-.292-.068-.593-.1-.891-.075-1.261.05-3.55,1.692-4.9,1.108-.474,2.877-.877,5.825.025a2.036,2.036,0,0,1,.866.228C1079.8,376.4,1079.416,380.026,1079.416,380.026Z" transform="translate(-1069.564 -373.611)" fill="#e8734d"/>
        </g>
        <path id="Trazado_10281" data-name="Trazado 10281" d="M1074.56,402.838a2.856,2.856,0,0,0,2.379.956,3.235,3.235,0,0,0,2.384-.9,2.9,2.9,0,0,1-2.392,1.629A2.936,2.936,0,0,1,1074.56,402.838Z" transform="translate(-1061.959 -388.391)" fill="#c78d71"/>
        <path id="Trazado_10282" data-name="Trazado 10282" d="M1072.335,407.7a4.883,4.883,0,0,0,3.481,2.289c1.446.125,2.7-1.707,3.285-2.607A8.758,8.758,0,0,0,1072.335,407.7Z" transform="translate(-1060.833 -390.42)" fill="#eea987"/>
        <path id="Trazado_10283" data-name="Trazado 10283" d="M1082.247,406.587a12.428,12.428,0,0,1-2.869,2.486l1.214,1.871,2.071-3.695Z" transform="translate(-1064.395 -390.287)" fill="#eddad3"/>
        <path id="Trazado_10284" data-name="Trazado 10284" d="M1072.7,407.154a8.335,8.335,0,0,0,2.933,2.206l-1.333,1.927-2.33-3.371Z" transform="translate(-1060.648 -390.573)" fill="#eddad3"/>
        <path id="Trazado_10285" data-name="Trazado 10285" d="M1078.285,411.616l1.041,1.584a2.168,2.168,0,0,1-2.109-.04Z" transform="translate(-1063.302 -392.83)" fill="#a665be"/>
        <path id="Trazado_10286" data-name="Trazado 10286" d="M1095.05,411.63c-.179.644-.447,1.58-1.155,4.152-.216.187-.436.37-.661.545q-.38.3-.776.581a18.722,18.722,0,0,1-8.565,3.316c.279-6.518,1.053-12.3,1.053-12.3q.915.241,1.737.477h0a39.926,39.926,0,0,1,8.029,3.032l.018.01C1094.949,411.566,1095.05,411.63,1095.05,411.63Z" transform="translate(-1066.678 -390.963)" fill="#323657"/>
        <path id="Trazado_10287" data-name="Trazado 10287" d="M1060.851,420.413a18.841,18.841,0,0,1-9.6-5.187c-.116-.117-.23-.235-.342-.354-.33-1.4-.549-2.314-.563-2.373v0s2.33-1.531,10.573-3.731v0C1060.919,408.958,1060.924,414.246,1060.851,420.413Z" transform="translate(-1049.714 -391.388)" fill="#323657"/>
        <path id="Trazado_10288" data-name="Trazado 10288" d="M1078.044,414.584c-.077,1.717-.084,5.047-.058,8.848-.206.007-.412.01-.618.01q-.914,0-1.806-.086a57.739,57.739,0,0,1,1.251-8.777c.091-.38.146-.569.146-.569l1.106.182C1078.057,414.313,1078.05,414.443,1078.044,414.584Z" transform="translate(-1062.465 -394.04)" fill="#a665be"/>
        <g id="Grupo_10397" data-name="Grupo 10397" transform="translate(26.555 20.667)">
          <path id="Trazado_10289" data-name="Trazado 10289" d="M1105.555,417.439a18.937,18.937,0,0,1-2.1,2.133c-.215.187-.436.37-.661.545l1.816-4.7A6.4,6.4,0,0,1,1105.555,417.439Z" transform="translate(-1102.789 -415.421)" fill="#323657"/>
        </g>
        <g id="Grupo_10398" data-name="Grupo 10398" transform="translate(0 21.108)">
          <path id="Trazado_10290" data-name="Trazado 10290" d="M1050.6,419.043c-.116-.117-.23-.235-.342-.354q-.632-.67-1.2-1.4a2.175,2.175,0,0,1,.632-.977v0Z" transform="translate(-1049.067 -416.312)" fill="#323657"/>
        </g>
      </g>
    </g>
    <rect id="Rectángulo_2715" data-name="Rectángulo 2715" width="25.369" height="5.901" rx="2.951" transform="translate(682.486 270.27)" fill="#f5f7ff"/>
    <g id="Grupo_10403" data-name="Grupo 10403" transform="translate(803.788 358.042)">
      <circle id="Elipse_634" data-name="Elipse 634" cx="14.472" cy="14.472" r="14.472" transform="translate(0 0.381) rotate(-0.754)" fill="#eef0f7"/>
      <g id="Grupo_10401" data-name="Grupo 10401" transform="translate(13.932 8.89)">
        <path id="Trazado_10291" data-name="Trazado 10291" d="M1076.471,550.057a.73.73,0,0,1-.729-.729V539.245a.729.729,0,1,1,1.458,0v10.083A.73.73,0,0,1,1076.471,550.057Z" transform="translate(-1075.742 -538.515)" fill="#949494"/>
      </g>
      <g id="Grupo_10402" data-name="Grupo 10402" transform="translate(8.891 13.932)">
        <path id="Trazado_10292" data-name="Trazado 10292" d="M1076.356,550.173h-10.083a.729.729,0,0,1,0-1.458h10.083a.729.729,0,0,1,0,1.458Z" transform="translate(-1065.544 -548.715)" fill="#949494"/>
      </g>
    </g>
    <g id="Grupo_10408" data-name="Grupo 10408" transform="translate(776.804 325.52)">
      <g id="Grupo_10404" data-name="Grupo 10404" transform="translate(0 0)">
        <rect id="Rectángulo_2716" data-name="Rectángulo 2716" width="13.574" height="13.574" rx="5.746" fill="#a665be"/>
      </g>
      <g id="Grupo_10407" data-name="Grupo 10407" transform="translate(2.694 3.797)">
        <g id="Grupo_10406" data-name="Grupo 10406">
          <g id="Grupo_10405" data-name="Grupo 10405">
            <path id="Trazado_10293" data-name="Trazado 10293" d="M1002.079,468.4l-3.432-2.991a.676.676,0,0,1,.889-1.019l2.427,2.115,3.46-3.859a.676.676,0,1,1,1.007.9Z" transform="translate(-998.415 -462.419)" fill="#f3f3f3"/>
          </g>
        </g>
      </g>
    </g>
    <g id="Grupo_10413" data-name="Grupo 10413" transform="translate(776.804 342.914)">
      <g id="Grupo_10409" data-name="Grupo 10409" transform="translate(0)">
        <path id="Rectángulo_2717" data-name="Rectángulo 2717" d="M5.746,0H7.828a5.745,5.745,0,0,1,5.745,5.745V7.829a5.745,5.745,0,0,1-5.745,5.745H5.746A5.746,5.746,0,0,1,0,7.828V5.746A5.746,5.746,0,0,1,5.746,0Z" fill="#a665be"/>
      </g>
      <g id="Grupo_10412" data-name="Grupo 10412" transform="translate(2.694 3.797)">
        <g id="Grupo_10411" data-name="Grupo 10411">
          <g id="Grupo_10410" data-name="Grupo 10410">
            <path id="Trazado_10294" data-name="Trazado 10294" d="M1002.079,503.588l-3.432-2.992a.676.676,0,0,1,.889-1.019l2.427,2.116,3.46-3.86a.676.676,0,0,1,1.007.9Z" transform="translate(-998.415 -497.608)" fill="#f3f3f3"/>
          </g>
        </g>
      </g>
    </g>
    <g id="Grupo_10415" data-name="Grupo 10415" transform="translate(776.804 360.309)">
      <g id="Grupo_10414" data-name="Grupo 10414" transform="translate(0)">
        <path id="Rectángulo_2718" data-name="Rectángulo 2718" d="M5.746,0H7.828a5.745,5.745,0,0,1,5.745,5.745V7.828a5.745,5.745,0,0,1-5.745,5.745H5.746A5.746,5.746,0,0,1,0,7.828V5.746A5.746,5.746,0,0,1,5.746,0Z" fill="#a665be"/>
      </g>
    </g>
    <g id="Grupo_10422" data-name="Grupo 10422" transform="translate(718.092 338.404)">
      <path id="Trazado_10295" data-name="Trazado 10295" d="M878.286,722.7a10.428,10.428,0,0,1-1.272,2.167c-.583.615-2.811,1.714-2.823,3.541-.013,1.981,3.757,1.431,5.231,1.358s1.586-1.13,2.206-2.252,1.247-.931,1.363-1.836a10.815,10.815,0,0,0-.475-2.929Z" transform="translate(-874.191 -603.127)" fill="#131c24"/>
      <path id="Trazado_10296" data-name="Trazado 10296" d="M882.235,721.272l-.108.939a8.188,8.188,0,0,0,4.511.082l-.122-1.284Z" transform="translate(-878.204 -602.272)" fill="#4f4946"/>
      <path id="Trazado_10297" data-name="Trazado 10297" d="M932.637,722.7a10.43,10.43,0,0,0,1.272,2.167c.583.615,2.811,1.714,2.823,3.541.013,1.981-3.757,1.431-5.231,1.358s-1.586-1.13-2.207-2.252-1.247-.931-1.363-1.836a10.813,10.813,0,0,1,.475-2.929Z" transform="translate(-901.359 -603.127)" fill="#131c24"/>
      <path id="Trazado_10298" data-name="Trazado 10298" d="M933.093,721.272l.108.939a8.189,8.189,0,0,1-4.511.082l.121-1.284Z" transform="translate(-901.751 -602.272)" fill="#4f4946"/>
      <path id="Trazado_10299" data-name="Trazado 10299" d="M907.031,632.154c0,2.442,2.281,24.738,2.281,24.738-.262.814-5.858.715-6.731.308s-3.411-22.5-3.572-24.965-3.805-23.878-4.57-23.8-4.393,23.03-5,24.9-3.383,24.07-3.383,24.07c-1.921,1.057-6.486-.266-6.486-.266s.957-22.791,1.066-23.479c.163-1.019-.007-3.763.437-9.854.4-5.448,1.833-17.311,2.743-23.736.033-.229.063-.448.093-.659.178-1.25.313-2.168.376-2.609.028-.19.043-.292.043-.292q.368-.158.769-.292c6.394-2.142,18.565-2.005,18.565-2.005s.168,2.187.181,2.294l.075.593c.071.566.177,1.41.3,2.389a.149.149,0,0,0,0,.021l.011.089c.43,3.485,1.039,8.586.981,9.116C905.12,609.537,907.031,629.712,907.031,632.154Z" transform="translate(-876.909 -538.155)" fill="#293e4f"/>
      <g id="Grupo_10416" data-name="Grupo 10416" transform="translate(5.723 17.229)">
        <path id="Trazado_10300" data-name="Trazado 10300" d="M911.08,520.2l-3.141,11.27c-.108.366-.236.815-.373,1.338l-.005.02s0,.009,0,.014a44.322,44.322,0,0,0-1.366,8.473c-.13,2.32.3,11.643.3,11.643a31.324,31.324,0,0,1-11.866,1.325s-7.65-.179-7.027-4.869c1.651-12.416.036-17.535-.18-18.781,0,0-.9-5.721-1.647-10.773,2.153-.8,11.215-4.2,11.215-4.2l4.764.357S908.988,517.794,911.08,520.2Z" transform="translate(-885.769 -515.655)" fill="#d9c7c1"/>
      </g>
      <g id="Grupo_10417" data-name="Grupo 10417" transform="translate(13.689 1.244)">
        <path id="Trazado_10301" data-name="Trazado 10301" d="M907.523,483.371s4.65.784,3.862,8.065-4.894,6.638-5.169,6.628-4.128.088-4.332-8.814C901.885,489.25,901.826,482.669,907.523,483.371Z" transform="translate(-901.885 -483.319)" fill="#eea987"/>
      </g>
      <g id="Grupo_10418" data-name="Grupo 10418" transform="translate(15.258 13.037)">
        <path id="Trazado_10302" data-name="Trazado 10302" d="M911.165,508.016a16.753,16.753,0,0,0,.123,3.648c.283.652-3.734,2.716-6.23.365a25.751,25.751,0,0,0,.348-4.431C905.25,506.442,911.165,508.016,911.165,508.016Z" transform="translate(-905.058 -507.174)" fill="#eea987"/>
      </g>
      <g id="Grupo_10419" data-name="Grupo 10419" transform="translate(22.98 7.068)">
        <path id="Trazado_10303" data-name="Trazado 10303" d="M920.984,495.336s.516-.539.7.014-.824,3.007-.761,3.119c0,0-.1.213-.217.094A26.711,26.711,0,0,1,920.984,495.336Z" transform="translate(-920.68 -495.101)" fill="#eea987"/>
      </g>
      <g id="Grupo_10420" data-name="Grupo 10420" transform="translate(13.011 6.855)">
        <path id="Trazado_10304" data-name="Trazado 10304" d="M901.244,494.921s-.493-.56-.7-.014a9.337,9.337,0,0,0,.633,3.147s.16.252.286.137A26.946,26.946,0,0,0,901.244,494.921Z" transform="translate(-900.512 -494.668)" fill="#eea987"/>
      </g>
      <g id="Grupo_10421" data-name="Grupo 10421" transform="translate(13.363)">
        <path id="Trazado_10305" data-name="Trazado 10305" d="M911.443,487.487c-.161,1-.311,1.736-.311,1.736l-.677.884a17.924,17.924,0,0,0-.063-2.261c-.039-.116-.085-.322-.133-.546-.078-.368-.157-.784-.212-.922a9.955,9.955,0,0,0-7.458.239s.03.3.027.636c0,.39-.044.827-.222.893-.333.122-.194,2.287-.194,2.287l-.541-.624s-.156-1.131-.31-2.432l0-.009c-.035-.3-.07-.615-.1-.924-.077-1.308.052-3.682,1.755-5.077,1.149-.492,4.289-.987,6.042.026a13.424,13.424,0,0,1,1.135.773C912.08,484.26,911.443,487.487,911.443,487.487Z" transform="translate(-901.225 -480.801)" fill="#e8734d"/>
      </g>
      <path id="Trazado_10306" data-name="Trazado 10306" d="M906.408,511.179a2.962,2.962,0,0,0,2.467.992,3.358,3.358,0,0,0,2.473-.938,3.011,3.011,0,0,1-2.481,1.69A3.045,3.045,0,0,1,906.408,511.179Z" transform="translate(-890.483 -496.163)" fill="#c78d71"/>
      <path id="Trazado_10307" data-name="Trazado 10307" d="M904.1,516.222a5.066,5.066,0,0,0,3.611,2.374c1.5.13,2.786-1.776,3.4-2.709A9.063,9.063,0,0,0,904.1,516.222Z" transform="translate(-889.315 -498.266)" fill="#eea987"/>
      <path id="Trazado_10308" data-name="Trazado 10308" d="M914.38,515.068a12.9,12.9,0,0,1-2.975,2.578l1.259,1.94,2.148-3.847Z" transform="translate(-893.01 -498.13)" fill="#eddad3"/>
      <path id="Trazado_10309" data-name="Trazado 10309" d="M904.491,515.655a8.643,8.643,0,0,0,3.043,2.288l-1.383,2-2.4-3.414Z" transform="translate(-889.138 -498.427)" fill="#eddad3"/>
      <path id="Trazado_10310" data-name="Trazado 10310" d="M910.271,520.284l1.079,1.642a2.245,2.245,0,0,1-2.187-.041Z" transform="translate(-891.876 -500.767)" fill="#a665be"/>
      <path id="Trazado_10311" data-name="Trazado 10311" d="M888.939,593.19s5.834,2.152,19.029.125l-.175-2.389s-7.648,2.257-18.621.324Z" transform="translate(-881.649 -536.49)" fill="#1a2833"/>
      <path id="Trazado_10312" data-name="Trazado 10312" d="M917.074,516.427a145.723,145.723,0,0,0-1.177,19c.187,8.791,3.042,25.275,3.042,25.275s5.088-.5,6.351-2.088c0,0-2.92-15.865-2.837-18.217s3.742-20.034,3.742-20.034S924.765,518.452,917.074,516.427Z" transform="translate(-895.272 -498.817)" fill="#385369"/>
      <path id="Trazado_10313" data-name="Trazado 10313" d="M893.853,517.506s-.013,9.673-.2,18.463-1.345,25.156-1.345,25.156-5.969-.85-7.233-2.44c0,0,2.1-15.394,2.021-17.746s-2.7-19.861-2.7-19.861S885.3,519.787,893.853,517.506Z" transform="translate(-879.353 -499.363)" fill="#385369"/>
      <rect id="Rectángulo_2719" data-name="Rectángulo 2719" width="3.585" height="2.665" transform="translate(15.247 55.171)" fill="#3e5e78"/>
      <path id="Trazado_10314" data-name="Trazado 10314" d="M908.564,522.766s-1.6,5.465-1.741,16.319.2,13.966.2,13.966l1.25,2.473,1.666-2.581s-.534-24.976-.225-29.988Z" transform="translate(-890.675 -502.022)" fill="#a665be"/>
      <path id="Trazado_10315" data-name="Trazado 10315" d="M923.9,551.434s2.37-1.192,2.7-1.4a31.341,31.341,0,0,1,4.785-.781c.5.016.521.413.38.555s-4.1.791-4.165.886.334.059.334.059,4.264-.065,4.562.221-.044.556-.217.627c0,0,.389.446-.06.629a6.649,6.649,0,0,1-1.055.3s.563.291.193.549-4.889,1.658-4.889,1.658S924.788,551.525,923.9,551.434Z" transform="translate(-899.329 -515.416)" fill="#eea886"/>
      <path id="Trazado_10316" data-name="Trazado 10316" d="M919.918,544.953c-3.08.735-10.2-.459-12.911-1.056-.575-.127-1.224-.26-1.892-.391h0c-1.11-.218-2.267-.431-3.208-.6h0c-1.157-.207-1.984-.345-1.984-.345s14.94-3.356,15.492-3.356-1.38-8.734-1.38-8.734-1.924-7.315-.925-10.19a26.527,26.527,0,0,1,5.017,2.026c.685.488,1.188,3.661,1.654,5.818.592,2.734,1.965,8.96,2.121,10.274C922.043,539.6,923,544.217,919.918,544.953Z" transform="translate(-887.202 -500.767)" fill="#385369"/>
      <path id="Trazado_10317" data-name="Trazado 10317" d="M885.429,520.355s-4.589,1.567-4.809,2.164a55.9,55.9,0,0,0-1.66,6.381c-.366,1.349-1.2,5.385-1.411,6.7-.272,1.679-.795,7.624-.567,8.541.287,1.158,3.016,1.074,4.487.844s21.912-5.2,21.912-5.2-1.166-3.8-1.225-4.139c0,0-15.758,1.8-17.764,2.229a13.02,13.02,0,0,0-1.395.338S886.473,523.947,885.429,520.355Z" transform="translate(-875.574 -500.803)" fill="#385369"/>
      <path id="Trazado_10318" data-name="Trazado 10318" d="M890.957,550.95s-2.057-1.675-2.333-1.951a31.364,31.364,0,0,0-4.506-1.792.414.414,0,0,0-.537.495c.066.342,3.878,1.619,3.924,1.727s-.34-.014-.34-.014-4.151-.982-4.5-.768-.077.551.077.659c0,0-.475.352-.077.628a6.675,6.675,0,0,0,.965.521s-.613.163-.306.5a10.426,10.426,0,0,0,2.49.832A36.717,36.717,0,0,1,890.957,550.95Z" transform="translate(-878.389 -514.375)" fill="#eea886"/>
      <path id="Trazado_10319" data-name="Trazado 10319" d="M914.076,561.112l-6.931,3.041h0c-1.11-.218-2.267-.43-3.208-.6Z" transform="translate(-889.233 -521.414)" fill="#263947"/>
      <path id="Trazado_10320" data-name="Trazado 10320" d="M917.69,483.1s1.154-.581,1.777.18.692,4.906-.07,6.5S919.518,484.131,917.69,483.1Z" transform="translate(-896.188 -481.857)" fill="#e8734d"/>
    </g>
    <rect id="Rectángulo_2720" data-name="Rectángulo 2720" width="2.063" height="93.79" transform="translate(693.614 380.723)" fill="#706865"/>
    <path id="Rectángulo_2721" data-name="Rectángulo 2721" d="M12.529,0H55.365A12.529,12.529,0,0,1,67.894,12.529v92.434a12.529,12.529,0,0,1-12.529,12.529H12.53A12.53,12.53,0,0,1,0,104.962V12.529A12.529,12.529,0,0,1,12.529,0Z" transform="translate(636.877 341.54)" fill="#bdafaa"/>
    <path id="Rectángulo_2722" data-name="Rectángulo 2722" d="M12.379,0H51.788a12.38,12.38,0,0,1,12.38,12.38V98.63a12.379,12.379,0,0,1-12.379,12.379H12.379A12.379,12.379,0,0,1,0,98.63V12.379A12.379,12.379,0,0,1,12.379,0Z" transform="translate(638.74 343.432)" fill="#fff"/>
    <rect id="Rectángulo_2723" data-name="Rectángulo 2723" width="20.232" height="4.569" transform="translate(660.708 340.649)" fill="#706865"/>
    <g id="Grupo_10426" data-name="Grupo 10426" transform="translate(643.448 414.554)">
      <g id="Grupo_10425" data-name="Grupo 10425">
        <g id="Grupo_10424" data-name="Grupo 10424">
          <g id="Grupo_10423" data-name="Grupo 10423">
            <path id="Trazado_10321" data-name="Trazado 10321" d="M770.291,670.306H729.218a6.041,6.041,0,0,1-6.034-6.034V640.891a6.041,6.041,0,0,1,6.034-6.034h41.073a6.041,6.041,0,0,1,6.034,6.034v23.381A6.041,6.041,0,0,1,770.291,670.306Zm-41.073-34.672a5.263,5.263,0,0,0-5.257,5.257v23.381a5.263,5.263,0,0,0,5.257,5.256h41.073a5.263,5.263,0,0,0,5.257-5.256V640.891a5.263,5.263,0,0,0-5.257-5.257Z" transform="translate(-723.184 -634.856)" fill="#99a1d3"/>
          </g>
        </g>
      </g>
    </g>
    <g id="Grupo_10428" data-name="Grupo 10428" transform="translate(653.694 393.448)">
      <g id="Grupo_10427" data-name="Grupo 10427" transform="translate(0 0)">
        <path id="Trazado_10322" data-name="Trazado 10322" d="M743.92,592.157h-.009C743.951,592.175,743.956,592.177,743.92,592.157Z" transform="translate(-743.911 -592.157)" fill="#323657"/>
      </g>
    </g>
    <g id="Grupo_10429" data-name="Grupo 10429" transform="translate(682.679 377.536)">
      <path id="Trazado_10323" data-name="Trazado 10323" d="M809.243,573.354a6.693,6.693,0,1,1,6.693-6.693A6.7,6.7,0,0,1,809.243,573.354Zm0-12.61a5.916,5.916,0,1,0,5.915,5.916A5.922,5.922,0,0,0,809.243,560.744Z" transform="translate(-802.55 -559.967)" fill="#99a1d3"/>
    </g>
    <g id="Grupo_10430" data-name="Grupo 10430" transform="translate(682.679 392.959)">
      <path id="Trazado_10324" data-name="Trazado 10324" d="M809.243,604.555a6.693,6.693,0,1,1,6.693-6.693A6.7,6.7,0,0,1,809.243,604.555Zm0-12.609a5.916,5.916,0,1,0,5.915,5.916A5.922,5.922,0,0,0,809.243,591.946Z" transform="translate(-802.55 -591.168)" fill="#99a1d3"/>
    </g>
    <g id="Grupo_10431" data-name="Grupo 10431" transform="translate(641.866 349.85)">
      <path id="Trazado_10325" data-name="Trazado 10325" d="M737.322,538.634c-.552,0-1.111-.027-1.662-.079a17.33,17.33,0,0,1-10.643-5.044c-.113-.114-.219-.224-.316-.328-.384-.406-.754-.84-1.1-1.287a17.17,17.17,0,0,1-3.618-10.6,17.358,17.358,0,0,1,17.339-17.339v.778A16.58,16.58,0,0,0,720.76,521.3a16.4,16.4,0,0,0,3.456,10.125c.33.428.684.841,1.052,1.23.093.1.195.205.3.313a16.356,16.356,0,0,0,1.672,1.472,16.574,16.574,0,0,0,6.769,3.089,16.236,16.236,0,0,0,1.723.257c.526.049,1.061.075,1.589.075.192,0,.37,0,.543-.008.5-.016,1-.055,1.49-.116a16.538,16.538,0,0,0,7.532-2.915c.234-.167.464-.339.682-.512.189-.148.385-.309.582-.48A16.781,16.781,0,0,0,750,531.95a16.577,16.577,0,0,0,3.88-10.654,16.8,16.8,0,0,0-.177-2.43l.77-.113a17.581,17.581,0,0,1,.185,2.543A17.355,17.355,0,0,1,750.6,532.45a17.553,17.553,0,0,1-1.938,1.964c-.206.178-.412.347-.61.5-.227.179-.467.359-.712.534a17.322,17.322,0,0,1-7.887,3.053c-.509.064-1.034.1-1.56.121C737.709,538.631,737.523,538.634,737.322,538.634Z" transform="translate(-719.983 -503.957)" fill="#99a1d3"/>
    </g>
    <path id="Trazado_10326" data-name="Trazado 10326" d="M753.434,538.482a1.52,1.52,0,0,0-.169-.189.3.3,0,0,0-.089-.072l-.015-.01v0a47.924,47.924,0,0,0-9.065-3.244,9.957,9.957,0,0,1-.132-2.544,7.224,7.224,0,0,0,1.461-3.515c.1.073.173-.094.173-.094-.054-.1.818-2.226.661-2.706a.251.251,0,0,0-.411-.162q.031-.185.064-.388s.346-3.265-1.307-5.084a1.823,1.823,0,0,0-.779-.205,7.275,7.275,0,0,0-5.243-.023c-1.478,1.211-1.591,3.271-1.523,4.406.03.269.06.539.091.8v.008c.012.1.024.206.037.306a.252.252,0,0,0-.419.143,8.114,8.114,0,0,0,.549,2.732s.139.218.249.119h0A7.793,7.793,0,0,0,739,532.492c-.058,1.048-.246,2.359-.3,2.706h0c-1.355.428-8.151,2.235-10.207,3.587a1.953,1.953,0,0,0-.569.879,16.335,16.335,0,0,0,1.076,1.26c.1.108.2.214.308.319a16.877,16.877,0,0,0,10.4,4.931q.8.076,1.626.077c.186,0,.372,0,.556-.009.515-.016,1.024-.056,1.525-.117a16.857,16.857,0,0,0,7.709-2.985q.355-.254.7-.523.3-.237.595-.491a17.031,17.031,0,0,0,1.894-1.92A8.268,8.268,0,0,0,753.434,538.482Z" transform="translate(-82.133 -162.112)" fill="#99a1d3"/>
    <g id="Grupo_10526" data-name="Grupo 10526" transform="translate(803.07 371.246)">
      <g id="Grupo_10432" data-name="Grupo 10432" transform="translate(50.06 42.936)">
        <rect id="Rectángulo_2724" data-name="Rectángulo 2724" width="20.084" height="1.191" transform="translate(20.084 1.191) rotate(180)" fill="#e2d2ca"/>
      </g>
      <g id="Grupo_10433" data-name="Grupo 10433" transform="translate(65.692 47.23)">
        <rect id="Rectángulo_2725" data-name="Rectángulo 2725" width="1.76" height="54.22" fill="#706865"/>
      </g>
      <g id="Grupo_10434" data-name="Grupo 10434" transform="translate(39.243 42.597)">
        <rect id="Rectángulo_2726" data-name="Rectángulo 2726" width="13.96" height="1.703" transform="translate(13.96 1.703) rotate(180)" fill="#ccbdb7"/>
      </g>
      <g id="Grupo_10435" data-name="Grupo 10435" transform="translate(43.58 28.072)">
        <rect id="Rectángulo_2727" data-name="Rectángulo 2727" width="5.286" height="16.056" transform="translate(5.286 16.056) rotate(180)" fill="#4667a8"/>
      </g>
      <g id="Grupo_10436" data-name="Grupo 10436" transform="translate(0 44.148)">
        <rect id="Rectángulo_2728" data-name="Rectángulo 2728" width="77.349" height="3.082" transform="translate(77.349 3.082) rotate(180)" fill="#b59074"/>
      </g>
      <g id="Grupo_10437" data-name="Grupo 10437" transform="translate(83.647 20.31)">
        <path id="Trazado_10327" data-name="Trazado 10327" d="M1223.872,593.51s.846,11.863-1.473,13.283c-1.452.889-7.242,3.889-7.07,4.452s3.269,5.005,3.269,5.005,11.121-7.323,11.48-9.631c.35-2.255-.548-17.37-2.076-18.067-1.145-.521-1.749-.091-3.192.982C1222.785,591.036,1223.872,593.51,1223.872,593.51Z" transform="translate(-1215.325 -588.331)" fill="#323657"/>
      </g>
      <g id="Grupo_10440" data-name="Grupo 10440" transform="translate(70.944 25.712)">
        <g id="Grupo_10439" data-name="Grupo 10439">
          <g id="Grupo_10438" data-name="Grupo 10438">
            <path id="Trazado_10328" data-name="Trazado 10328" d="M1190.607,602.423l-.98-.362s1.222-2.869,1.756-2.8a13.261,13.261,0,0,1,1.382.284Z" transform="translate(-1189.627 -599.259)" fill="#ead8cf"/>
          </g>
        </g>
      </g>
      <g id="Grupo_10443" data-name="Grupo 10443" transform="translate(71.701 25.521)">
        <g id="Grupo_10442" data-name="Grupo 10442">
          <g id="Grupo_10441" data-name="Grupo 10441">
            <path id="Trazado_10329" data-name="Trazado 10329" d="M1191.157,602.722c.126-.093,2.083-3.85,2.083-3.85l4.184.568-2.261,4.45Z" transform="translate(-1191.157 -598.872)" fill="#da9b5b"/>
          </g>
        </g>
      </g>
      <g id="Grupo_10446" data-name="Grupo 10446" transform="translate(78.51 93.737)">
        <g id="Grupo_10445" data-name="Grupo 10445">
          <g id="Grupo_10444" data-name="Grupo 10444">
            <path id="Trazado_10330" data-name="Trazado 10330" d="M1204.933,737.185s.346,2.4.389,2.762,3.847-.213,3.847-.213l.308-2.858S1205.408,736.847,1204.933,737.185Z" transform="translate(-1204.933 -736.876)" fill="#424773"/>
          </g>
        </g>
      </g>
      <g id="Grupo_10449" data-name="Grupo 10449" transform="translate(72.258 96.341)">
        <g id="Grupo_10448" data-name="Grupo 10448">
          <g id="Grupo_10447" data-name="Grupo 10447">
            <path id="Trazado_10331" data-name="Trazado 10331" d="M1198.885,742.305a10.269,10.269,0,0,1-2.371,2.077c-1.165.63-3,.879-3.686,1.532-.5.471-1.813,2.5,3.028,2.458s7.176.287,7.695-.49-.75-5.739-.75-5.739A10.256,10.256,0,0,1,1198.885,742.305Z" transform="translate(-1192.284 -742.143)" fill="#292c47"/>
          </g>
        </g>
      </g>
      <g id="Grupo_10452" data-name="Grupo 10452" transform="translate(54.139 93.76)">
        <g id="Grupo_10451" data-name="Grupo 10451">
          <g id="Grupo_10450" data-name="Grupo 10450">
            <path id="Trazado_10332" data-name="Trazado 10332" d="M1155.63,737.232s.345,2.4.389,2.761,3.847-.212,3.847-.212l.308-2.858S1156.105,736.894,1155.63,737.232Z" transform="translate(-1155.63 -736.923)" fill="#424773"/>
          </g>
        </g>
      </g>
      <g id="Grupo_10455" data-name="Grupo 10455" transform="translate(45.65 96.362)">
        <g id="Grupo_10454" data-name="Grupo 10454">
          <g id="Grupo_10453" data-name="Grupo 10453">
            <path id="Trazado_10333" data-name="Trazado 10333" d="M1147.294,742.351a10.272,10.272,0,0,1-2.371,2.076c-1.166.631-5.456,1.149-6.145,1.8-.5.471-1.325,2.367,5.487,2.19,4.839-.126,7.176.286,7.694-.491s-.751-5.74-.751-5.74A9.292,9.292,0,0,1,1147.294,742.351Z" transform="translate(-1138.457 -742.187)" fill="#292c47"/>
          </g>
        </g>
      </g>
      <g id="Grupo_10458" data-name="Grupo 10458" transform="translate(51.084 52.582)">
        <g id="Grupo_10457" data-name="Grupo 10457">
          <g id="Grupo_10456" data-name="Grupo 10456">
            <path id="Trazado_10334" data-name="Trazado 10334" d="M1189.144,653.618s-13.83,2.34-16.953,2.831-20.06,4.7-22.178,5.989c-1.686,1.022.884,25.572,1.484,34.939h6.671l.484-28.1c8,.2,13.717-1.872,19.546-.987s10.689,2.143,14.393-2.825C1192.592,665.468,1192.73,654.7,1189.144,653.618Z" transform="translate(-1149.449 -653.618)" fill="#292c47"/>
          </g>
        </g>
      </g>
      <g id="Grupo_10461" data-name="Grupo 10461" transform="translate(75.082 55.573)">
        <g id="Grupo_10460" data-name="Grupo 10460">
          <g id="Grupo_10459" data-name="Grupo 10459">
            <path id="Trazado_10335" data-name="Trazado 10335" d="M1200.064,700.458l6.5-.4.633-27.717a39.528,39.528,0,0,0,7.416-.471l5.249-12.2c-4.6.919-19.338,4.637-21.3,5.828C1196.874,666.521,1199.464,691.092,1200.064,700.458Z" transform="translate(-1197.999 -659.669)" fill="#292c47"/>
          </g>
        </g>
      </g>
      <g id="Grupo_10464" data-name="Grupo 10464" transform="translate(76.359 0.501)">
        <g id="Grupo_10463" data-name="Grupo 10463">
          <g id="Grupo_10462" data-name="Grupo 10462">
            <path id="Trazado_10336" data-name="Trazado 10336" d="M1208.635,548.5s-5.07-1.4-7,2.534-1.057,11.4,1.5,12.1,6.229-.106,7.29-2.556a18.789,18.789,0,0,0,1.653-8.184A4.941,4.941,0,0,0,1208.635,548.5Z" transform="translate(-1200.582 -548.257)" fill="#eea886"/>
          </g>
        </g>
      </g>
      <g id="Grupo_10467" data-name="Grupo 10467" transform="translate(79.947 11.142)">
        <g id="Grupo_10466" data-name="Grupo 10466">
          <g id="Grupo_10465" data-name="Grupo 10465">
            <path id="Trazado_10337" data-name="Trazado 10337" d="M1208.125,573.232a15.5,15.5,0,0,1-.274,3.631c-.331.639,7.059.479,7.059.479a15,15,0,0,1-.5-6.657C1215.059,567.655,1208.125,573.232,1208.125,573.232Z" transform="translate(-1207.84 -569.783)" fill="#eea886"/>
          </g>
        </g>
      </g>
      <g id="Grupo_10470" data-name="Grupo 10470" transform="translate(76.202)">
        <g id="Grupo_10469" data-name="Grupo 10469">
          <g id="Grupo_10468" data-name="Grupo 10468">
            <path id="Trazado_10338" data-name="Trazado 10338" d="M1210.972,558.154s-.4.8-2.307.673-4.436-2.437-5.248-2.644-.861-.668-.861-.668l-.429.764-.832.126s.565-2.312-.667-3.127.555-7.373,6.791-5.791c0,0,4.76.872,4.824,3.53S1211.9,556.746,1210.972,558.154Z" transform="translate(-1200.263 -547.243)" fill="#3a3f47"/>
          </g>
        </g>
      </g>
      <g id="Grupo_10473" data-name="Grupo 10473" transform="translate(79.569 16.178)">
        <g id="Grupo_10472" data-name="Grupo 10472">
          <g id="Grupo_10471" data-name="Grupo 10471">
            <path id="Trazado_10339" data-name="Trazado 10339" d="M1207.075,581.939s.021-1.219.573-1.336,5.809-.84,6.487-.573l.291,1.609S1213.119,582.444,1207.075,581.939Z" transform="translate(-1207.075 -579.971)" fill="#e2d2ca"/>
          </g>
        </g>
      </g>
      <g id="Grupo_10476" data-name="Grupo 10476" transform="translate(77.982 6.374)">
        <g id="Grupo_10475" data-name="Grupo 10475">
          <g id="Grupo_10474" data-name="Grupo 10474">
            <path id="Trazado_10340" data-name="Trazado 10340" d="M1203.931,561.492c.142-1,1.278-2.147,1.929-.591s-.439,3.822-1.169,3.7S1203.738,562.848,1203.931,561.492Z" transform="translate(-1203.865 -560.139)" fill="#eea886"/>
          </g>
        </g>
      </g>
      <g id="Grupo_10479" data-name="Grupo 10479" transform="translate(57.532 32.549)">
        <g id="Grupo_10478" data-name="Grupo 10478">
          <g id="Grupo_10477" data-name="Grupo 10477">
            <path id="Trazado_10341" data-name="Trazado 10341" d="M1162.516,613.091a.012.012,0,0,1,.008,0C1162.487,613.107,1162.482,613.108,1162.516,613.091Z" transform="translate(-1162.493 -613.09)" fill="#323657"/>
          </g>
        </g>
      </g>
      <g id="Grupo_10482" data-name="Grupo 10482" transform="translate(85.892 1.456)">
        <g id="Grupo_10481" data-name="Grupo 10481">
          <g id="Grupo_10480" data-name="Grupo 10480">
            <path id="Trazado_10342" data-name="Trazado 10342" d="M1219.866,550.19s6.181-.29,1.079,9.359Z" transform="translate(-1219.866 -550.189)" fill="#3a3f47"/>
          </g>
        </g>
      </g>
      <g id="Grupo_10484" data-name="Grupo 10484" transform="translate(79.776 92.305)">
        <g id="Grupo_10483" data-name="Grupo 10483">
          <path id="Trazado_10343" data-name="Trazado 10343" d="M1227.382,741.325l-.46,1.294-19.429-6.02.931-2.619Z" transform="translate(-1207.493 -733.979)" fill="#918783"/>
        </g>
      </g>
      <g id="Grupo_10486" data-name="Grupo 10486" transform="translate(79.109 72.88)">
        <g id="Grupo_10485" data-name="Grupo 10485" transform="translate(0 0)">
          <rect id="Rectángulo_2729" data-name="Rectángulo 2729" width="2.208" height="21.123" transform="translate(2.208 21.123) rotate(180)" fill="#918783"/>
        </g>
      </g>
      <g id="Grupo_10488" data-name="Grupo 10488" transform="translate(73.701 71.758)">
        <g id="Grupo_10487" data-name="Grupo 10487" transform="translate(0 0)">
          <rect id="Rectángulo_2730" data-name="Rectángulo 2730" width="13.024" height="1.244" transform="translate(13.024 1.244) rotate(180)" fill="#5e5854"/>
        </g>
      </g>
      <g id="Grupo_10490" data-name="Grupo 10490" transform="translate(60.592 92.141)">
        <g id="Grupo_10489" data-name="Grupo 10489">
          <path id="Trazado_10344" data-name="Trazado 10344" d="M1168.684,741.156l.46,1.294,19.429-6.02-.854-2.784Z" transform="translate(-1168.684 -733.646)" fill="#918783"/>
        </g>
      </g>
      <g id="Grupo_10492" data-name="Grupo 10492" transform="translate(74.281 92.141)">
        <g id="Grupo_10491" data-name="Grupo 10491">
          <path id="Trazado_10345" data-name="Trazado 10345" d="M1196.376,742.311v1.5l6.2-7.385-.854-2.784Z" transform="translate(-1196.376 -733.646)" fill="#918783"/>
        </g>
      </g>
      <g id="Grupo_10494" data-name="Grupo 10494" transform="translate(58.776 99.634)">
        <g id="Grupo_10493" data-name="Grupo 10493">
          <path id="Trazado_10346" data-name="Trazado 10346" d="M1165.011,750.622a1.816,1.816,0,1,0,1.816-1.816A1.816,1.816,0,0,0,1165.011,750.622Z" transform="translate(-1165.011 -748.806)" fill="#bfb2ac"/>
        </g>
      </g>
      <g id="Grupo_10496" data-name="Grupo 10496" transform="translate(74.127 99.634)">
        <g id="Grupo_10495" data-name="Grupo 10495">
          <path id="Trazado_10347" data-name="Trazado 10347" d="M1196.065,750.622a1.816,1.816,0,1,0,1.816-1.816A1.816,1.816,0,0,0,1196.065,750.622Z" transform="translate(-1196.065 -748.806)" fill="#bfb2ac"/>
        </g>
      </g>
      <g id="Grupo_10498" data-name="Grupo 10498" transform="translate(97.848 99.634)">
        <g id="Grupo_10497" data-name="Grupo 10497">
          <path id="Trazado_10348" data-name="Trazado 10348" d="M1244.054,750.622a1.816,1.816,0,1,0,1.817-1.816A1.816,1.816,0,0,0,1244.054,750.622Z" transform="translate(-1244.054 -748.806)" fill="#bfb2ac"/>
        </g>
      </g>
      <g id="Grupo_10499" data-name="Grupo 10499" transform="translate(64.7 67.043)">
        <rect id="Rectángulo_2731" data-name="Rectángulo 2731" width="30.856" height="4.715" rx="2.358" transform="translate(30.856 4.715) rotate(180)" fill="#e2d2ca"/>
      </g>
      <g id="Grupo_10500" data-name="Grupo 10500" transform="translate(9.896 47.23)">
        <rect id="Rectángulo_2732" data-name="Rectángulo 2732" width="1.76" height="54.22" transform="translate(1.76 54.22) rotate(180)" fill="#706865"/>
      </g>
      <g id="Grupo_10501" data-name="Grupo 10501" transform="translate(23.399 3.603)">
        <path id="Rectángulo_2733" data-name="Rectángulo 2733" d="M4.7,0H40.952a4.7,4.7,0,0,1,4.7,4.7v22.81a4.7,4.7,0,0,1-4.7,4.7H4.7A4.7,4.7,0,0,1,0,27.5V4.7A4.7,4.7,0,0,1,4.7,0Z" transform="translate(45.648 32.202) rotate(180)" fill="#99a1d3"/>
      </g>
      <g id="Grupo_10502" data-name="Grupo 10502" transform="translate(25.186 5.344)">
        <rect id="Rectángulo_2734" data-name="Rectángulo 2734" width="42.073" height="25.415" transform="translate(42.073 25.415) rotate(180)" fill="#f5f7ff"/>
      </g>
      <g id="Grupo_10503" data-name="Grupo 10503" transform="translate(25.186 5.344)">
        <rect id="Rectángulo_2735" data-name="Rectángulo 2735" width="42.073" height="2.022" transform="translate(42.073 2.022) rotate(180)" fill="#cecfd6"/>
      </g>
      <g id="Grupo_10504" data-name="Grupo 10504" transform="translate(26.742 8.888)">
        <rect id="Rectángulo_2736" data-name="Rectángulo 2736" width="5.073" height="20.307" rx="2.536" transform="translate(5.073 20.307) rotate(180)" fill="#cecfd6"/>
      </g>
      <g id="Grupo_10505" data-name="Grupo 10505" transform="translate(56.816 8.888)">
        <path id="Rectángulo_2737" data-name="Rectángulo 2737" d="M.94,0H8.313a.94.94,0,0,1,.94.94v0a.94.94,0,0,1-.94.94H.94A.94.94,0,0,1,0,.941v0A.94.94,0,0,1,.94,0Z" transform="translate(9.253 1.881) rotate(180)" fill="#cecfd6"/>
      </g>
      <g id="Grupo_10506" data-name="Grupo 10506" transform="translate(56.816 12.029)">
        <path id="Rectángulo_2738" data-name="Rectángulo 2738" d="M3.243,0H6.011A3.242,3.242,0,0,1,9.253,3.242v11.2a3.242,3.242,0,0,1-3.242,3.242H3.243A3.243,3.243,0,0,1,0,14.44V3.243A3.243,3.243,0,0,1,3.243,0Z" transform="translate(9.253 17.684) rotate(180)" fill="#cecfd6"/>
      </g>
      <g id="Grupo_10507" data-name="Grupo 10507" transform="translate(44.75 31.725)">
        <path id="Trazado_10349" data-name="Trazado 10349" d="M1136.636,612.9a1.472,1.472,0,1,0,1.473-1.473A1.473,1.473,0,0,0,1136.636,612.9Z" transform="translate(-1136.636 -611.423)" fill="#59524f"/>
      </g>
      <g id="Grupo_10508" data-name="Grupo 10508" transform="translate(36.773 40.051)">
        <path id="Trazado_10350" data-name="Trazado 10350" d="M1120.5,632.406v-.573s.806-3.564,6.5-3.564,5.583,4.138,5.583,4.138Z" transform="translate(-1120.497 -628.268)" fill="#314875"/>
      </g>
      <g id="Grupo_10510" data-name="Grupo 10510" transform="translate(38.698 38.373)">
        <g id="Grupo_10509" data-name="Grupo 10509">
          <path id="Trazado_10351" data-name="Trazado 10351" d="M1134.623,627.081a5.605,5.605,0,0,1-1.692-.37c-.453-.273-3.166-2.1-3.8-1.806s-4.879,1.591-4.731,2.213.54.561.839.45a21.815,21.815,0,0,1,3.651-.648s-3.025,1.1-3.038,1.909.634,1,.92,1.306.631,1.061,1.411,1.119,4.584-1.266,5.367-1.327a19.061,19.061,0,0,0,2.332-.079A21.74,21.74,0,0,0,1134.623,627.081Z" transform="translate(-1124.391 -624.873)" fill="#eea886"/>
        </g>
      </g>
      <g id="Grupo_10513" data-name="Grupo 10513" transform="translate(47.65 17.845)">
        <g id="Grupo_10512" data-name="Grupo 10512">
          <g id="Grupo_10511" data-name="Grupo 10511">
            <path id="Trazado_10352" data-name="Trazado 10352" d="M1166.319,585.334c3.947-.693,8.1-1.689,8.1-1.689l7.352-.3a71.53,71.53,0,0,1,9.4,2.686c.252.114.254,6.019.945,7.567l-2.2,4.648s-1.272,9.206-1.536,13.3c-.121,1.879.343,18.164.343,18.164s-.661.326-5.678.879-17.553-.2-17.632-.791,2.427-22.066,2.539-23.178c.171-1.707-.492-9.593-.492-9.593-.946,1.27-3.355,7-5.867,9.732-1.478,1.6-8.794,2.589-10.173,2.635-3,.1-8.478.7-8.639.406-.127-.175-.477-4.861-.134-4.975.3-.1,10.47-.686,13.074-2.068.953-.507,3.8-6.719,3.8-6.719S1164.141,586.313,1166.319,585.334Z" transform="translate(-1142.501 -583.345)" fill="#323657"/>
          </g>
        </g>
      </g>
      <g id="Grupo_10514" data-name="Grupo 10514" transform="translate(81.486 34.27)">
        <path id="Rectángulo_2739" data-name="Rectángulo 2739" d="M9.042,0h3.2a9.04,9.04,0,0,1,9.04,9.04v11.39a9.04,9.04,0,0,1-9.04,9.04h-3.2A9.041,9.041,0,0,1,0,20.431V9.042A9.042,9.042,0,0,1,9.042,0Z" transform="translate(21.279 29.471) rotate(180)" fill="#e2d2ca"/>
      </g>
      <g id="Grupo_10515" data-name="Grupo 10515" transform="translate(84.072 53.084)">
        <path id="Trazado_10353" data-name="Trazado 10353" d="M1217.369,672.134a9.748,9.748,0,0,0,7.563-3.132c4.254-4.7,3.489-12.952,3.455-13.3a1.184,1.184,0,0,0-2.356.233c.009.094.687,7.577-2.858,11.483a7.38,7.38,0,0,1-5.8,2.349,1.184,1.184,0,0,0,0,2.368Z" transform="translate(-1216.185 -654.634)" fill="#e2d2ca"/>
      </g>
      <g id="Grupo_10525" data-name="Grupo 10525" transform="translate(34.948 9.79)">
        <path id="Trazado_10354" data-name="Trazado 10354" d="M1128.691,572.991a5.943,5.943,0,1,1-5.942-5.943A5.943,5.943,0,0,1,1128.691,572.991Z" transform="translate(-1116.805 -567.048)" fill="#eef0f7"/>
        <g id="Grupo_10524" data-name="Grupo 10524" transform="translate(1.241 2.607)">
          <g id="Grupo_10516" data-name="Grupo 10516" transform="translate(0.831 5.232)">
            <path id="Trazado_10355" data-name="Trazado 10355" d="M1128.739,584.29l-.439,1.572a5.9,5.9,0,0,1-2.7,1.046q-.264.033-.535.042c-.065,0-.129,0-.195,0-.192,0-.383-.009-.57-.027a6.023,6.023,0,0,1-.619-.092,5.9,5.9,0,0,1-2.429-1.109c-.084-.52-.175-1.094-.254-1.633.437-.162,1.827-.635,2.7-.932l.036-.012.057-.02.149-.05.136-.047.352-.118h0l.018-.006h.01l1.18.088.2.015.062,0,.027.007c.071.018.278.073.552.156h0A5.782,5.782,0,0,1,1128.739,584.29Z" transform="translate(-1120.997 -582.907)" fill="#d9c7c1"/>
          </g>
          <g id="Grupo_10517" data-name="Grupo 10517" transform="translate(3.296 0.369)">
            <path id="Trazado_10356" data-name="Trazado 10356" d="M1127.7,573.084s1.415.239,1.174,2.454-1.489,2.02-1.572,2.017-1.256.026-1.318-2.682C1125.983,574.872,1125.965,572.871,1127.7,573.084Z" transform="translate(-1125.983 -573.068)" fill="#eea987"/>
          </g>
          <g id="Grupo_10518" data-name="Grupo 10518" transform="translate(3.773 3.957)">
            <path id="Trazado_10357" data-name="Trazado 10357" d="M1128.807,580.583a5.129,5.129,0,0,0,.037,1.11c.086.2-1.136.826-1.9.111a7.775,7.775,0,0,0,.106-1.348C1127.007,580.1,1128.807,580.583,1128.807,580.583Z" transform="translate(-1126.948 -580.327)" fill="#eea987"/>
          </g>
          <g id="Grupo_10519" data-name="Grupo 10519" transform="translate(6.123 2.141)">
            <path id="Trazado_10358" data-name="Trazado 10358" d="M1131.794,576.724s.157-.164.212.005-.251.915-.231.949c0,0-.029.065-.066.028A8.1,8.1,0,0,1,1131.794,576.724Z" transform="translate(-1131.702 -576.653)" fill="#eea987"/>
          </g>
          <g id="Grupo_10520" data-name="Grupo 10520" transform="translate(3.09 2.076)">
            <path id="Trazado_10359" data-name="Trazado 10359" d="M1125.788,576.6s-.15-.171-.212,0a2.848,2.848,0,0,0,.193.957s.048.077.086.042A8.126,8.126,0,0,0,1125.788,576.6Z" transform="translate(-1125.566 -576.521)" fill="#eea987"/>
          </g>
          <g id="Grupo_10521" data-name="Grupo 10521" transform="translate(3.197)">
            <path id="Trazado_10360" data-name="Trazado 10360" d="M1128.892,574.346c-.049.3-.095.528-.095.528l-.206.269a5.471,5.471,0,0,0-.019-.688c-.012-.036-.026-.1-.041-.166-.024-.112-.048-.238-.065-.281a3.027,3.027,0,0,0-2.268.073s.009.092.008.194c0,.119-.014.251-.068.271-.1.037-.059.7-.059.7l-.165-.189s-.047-.344-.094-.74v0c-.011-.092-.022-.187-.032-.281a1.852,1.852,0,0,1,.534-1.546,2.556,2.556,0,0,1,1.838.008.638.638,0,0,1,.273.072A2.626,2.626,0,0,1,1128.892,574.346Z" transform="translate(-1125.783 -572.322)" fill="#e8734d"/>
          </g>
          <path id="Trazado_10361" data-name="Trazado 10361" d="M1127.359,581.544a.9.9,0,0,0,.751.3,1.025,1.025,0,0,0,.752-.286.916.916,0,0,1-.755.514A.926.926,0,0,1,1127.359,581.544Z" transform="translate(-1123.383 -576.985)" fill="#c78d71"/>
          <path id="Trazado_10362" data-name="Trazado 10362" d="M1126.657,583.079a1.541,1.541,0,0,0,1.1.722c.456.039.852-.539,1.037-.823A2.764,2.764,0,0,0,1126.657,583.079Z" transform="translate(-1123.028 -577.626)" fill="#eea987"/>
          <path id="Trazado_10363" data-name="Trazado 10363" d="M1129.785,582.728a3.924,3.924,0,0,1-.906.784l.384.59.653-1.166Z" transform="translate(-1124.151 -577.584)" fill="#eddad3"/>
          <path id="Trazado_10364" data-name="Trazado 10364" d="M1126.771,582.907a2.634,2.634,0,0,0,.925.7l-.42.608-.735-1.064Z" transform="translate(-1122.969 -577.675)" fill="#eddad3"/>
          <path id="Trazado_10365" data-name="Trazado 10365" d="M1128.535,584.315l.329.5a.684.684,0,0,1-.665-.012Z" transform="translate(-1123.807 -578.387)" fill="#5073ab"/>
          <path id="Trazado_10366" data-name="Trazado 10366" d="M1133.826,584.32l-.009.033c-.036.128-.175.621-.355,1.277-.068.059-.137.117-.209.172s-.162.125-.245.184a5.9,5.9,0,0,1-2.7,1.046c.088-2.057.332-3.881.332-3.881q.289.076.549.151h0a12.571,12.571,0,0,1,2.533.957l.006,0C1133.794,584.3,1133.826,584.32,1133.826,584.32Z" transform="translate(-1124.873 -577.797)" fill="#323657"/>
          <path id="Trazado_10367" data-name="Trazado 10367" d="M1123.033,587.091a5.9,5.9,0,0,1-2.428-1.109,5.815,5.815,0,0,1-.6-.527c-.036-.037-.073-.074-.108-.112-.1-.441-.173-.73-.178-.749h0a13.451,13.451,0,0,1,3.337-1.177v0C1123.055,583.476,1123.056,585.145,1123.033,587.091Z" transform="translate(-1119.519 -577.931)" fill="#323657"/>
          <path id="Trazado_10368" data-name="Trazado 10368" d="M1128.459,585.251c-.024.542-.027,1.593-.018,2.792-.065,0-.129,0-.195,0-.192,0-.383-.009-.57-.027a18.18,18.18,0,0,1,.395-2.77c.029-.12.046-.18.046-.18l.349.058C1128.463,585.165,1128.46,585.206,1128.459,585.251Z" transform="translate(-1123.543 -578.768)" fill="#5073ab"/>
          <g id="Grupo_10522" data-name="Grupo 10522" transform="translate(8.38 6.522)">
            <path id="Trazado_10369" data-name="Trazado 10369" d="M1137.14,586.153a6,6,0,0,1-.664.673c-.068.059-.137.117-.209.172,0-.007.342-1,.573-1.481C1137,585.621,1137.068,585.977,1137.14,586.153Z" transform="translate(-1136.267 -585.516)" fill="#323657"/>
          </g>
          <g id="Grupo_10523" data-name="Grupo 10523" transform="translate(0 6.661)">
            <path id="Trazado_10370" data-name="Trazado 10370" d="M1119.8,586.659c-.036-.037-.073-.074-.108-.112a5.709,5.709,0,0,1-.377-.441.681.681,0,0,1,.2-.308h0Z" transform="translate(-1119.315 -585.797)" fill="#323657"/>
          </g>
        </g>
      </g>
    </g>
    <g id="Grupo_10541" data-name="Grupo 10541" transform="translate(778.105 348.942)">
      <path id="Trazado_10371" data-name="Trazado 10371" d="M1031.551,729.986a5.188,5.188,0,0,0-1.836-1.759c-1.062-.494-3.238,1.229-3.428,2.187l-2.523,3.681.478.328,1.347-1.965c-.917,2.206-2.227,4.848-1.307,6.175,1.235,1.783,4.037,3.584,4.776,3.272s.592-5.495.592-5.495C1028.851,731.836,1031.551,729.986,1031.551,729.986Z" transform="translate(-1009.841 -616.416)" fill="#1d3b54"/>
      <g id="Grupo_10527" data-name="Grupo 10527" transform="translate(16.44 111.811)">
        <path id="Trazado_10372" data-name="Trazado 10372" d="M1034.127,730.075a28.548,28.548,0,0,0-1.392,3.14c-.472,1.373-.561,5.173-.859,5.437s-2.645-.921-2.958-2.341.639-4.261,1.545-5.755a9.272,9.272,0,0,1,1.828-2.24A2.358,2.358,0,0,1,1034.127,730.075Z" transform="translate(-1028.858 -728.316)" fill="#de9673"/>
      </g>
      <path id="Trazado_10373" data-name="Trazado 10373" d="M1044.383,664.5s-1.438,7.63-1.438,9.454a16.778,16.778,0,0,1-1.658,7.022c-1.161,2.212-6.255,17.32-6.7,19.081s-.821,3.421-.821,3.421-2.543-1.161-2.543-2.82,2.212-15.37,2.6-18.078,3.594-16.586,3.594-16.586Z" transform="translate(-1013.614 -584.234)" fill="#de9673"/>
      <path id="Trazado_10374" data-name="Trazado 10374" d="M1032.007,663.18s.5,6.358.442,8.016-.829,5.419-.829,6.414,0,21.615.825,24.1-2.317.776-2.317.776-5.473-13.562-5.473-19.221.663-8.477.276-12.072a43.831,43.831,0,0,0-2.107-8.324Z" transform="translate(-1009.366 -583.411)" fill="#eea886"/>
      <path id="Trazado_10375" data-name="Trazado 10375" d="M1020.648,601.584a19.779,19.779,0,0,0-3.716,8.415c-.774,4.81.916,13.881,1.518,16.5.527,2.3,1.536,9.673,1.591,10.446,0,0,9.893,1.121,17.411-1.257,0,0,.688-10.294,1.131-14.662s-1.716-19.116-1.716-19.116Z" transform="translate(-1006.286 -552.418)" fill="#eb4747"/>
      <path id="Trazado_10376" data-name="Trazado 10376" d="M1040.763,747.408c-3.544-3.1-2.6-6.273-2.6-6.273a5.251,5.251,0,0,0-2.566-.216c-1.151.287-1.767,3.031-1.308,3.907l.359,4.507.584-.047-.191-2.4c.684,2.322,1.334,5.237,2.9,5.7,2.108.617,5.463.252,5.847-.465S1040.763,747.408,1040.763,747.408Z" transform="translate(-1015.089 -622.834)" fill="#1d3b54"/>
      <path id="Trazado_10377" data-name="Trazado 10377" d="M1047.505,533.348s-.876,5.218-.119,6.971-4.024-2.049-4.024-2.049S1045.346,532.52,1047.505,533.348Z" transform="translate(-1019.753 -517.87)" fill="#754836"/>
      <path id="Trazado_10378" data-name="Trazado 10378" d="M1039.066,503.938s-7.674-1.757-8.63,6.444,2.5,9.23.16,14.787,5.707-1.811,5.707-1.811Z" transform="translate(-1013.081 -502.959)" fill="#754836"/>
      <path id="Trazado_10379" data-name="Trazado 10379" d="M1039.991,503.857a6.669,6.669,0,0,1,6.832,6.306,16.281,16.281,0,0,1-.569,2.5c-.372,1.094.525,4.379.263,4.532a7.168,7.168,0,0,1-1.335.329s-1.248,3.525-2.5,3.459a10.358,10.358,0,0,1-8.05-5.664C1032.533,510.827,1032.036,504.018,1039.991,503.857Z" transform="translate(-1014.668 -502.998)" fill="#eea886"/>
      <g id="Grupo_10529" data-name="Grupo 10529" transform="translate(3.858 62.004)">
        <g id="Grupo_10528" data-name="Grupo 10528">
          <path id="Trazado_10380" data-name="Trazado 10380" d="M1003.4,631.339s.183-3.156,1.019-3.646.353.486.353.486-.47,2.29-.573,3.217A4.738,4.738,0,0,1,1003.4,631.339Z" transform="translate(-1003.404 -627.555)" fill="#1d3b54"/>
        </g>
      </g>
      <g id="Grupo_10531" data-name="Grupo 10531" transform="translate(3.979 56.549)">
        <g id="Grupo_10530" data-name="Grupo 10530">
          <path id="Trazado_10381" data-name="Trazado 10381" d="M1007.4,618.653a23.244,23.244,0,0,0,.662,2.779c.429,1.364.823,1.8.651,2.58-.13.59-.8,1.033-.966.844s-.25-2.483-1.2-2.472.284,2.84-.282,2.632-2.743-1.4-2.606-2.556,1.008-1.992.952-3.719a3.719,3.719,0,0,1,.437-2.221Z" transform="translate(-1003.648 -616.52)" fill="#eea886"/>
        </g>
      </g>
      <g id="Grupo_10533" data-name="Grupo 10533" transform="translate(6.322 62.303)">
        <g id="Grupo_10532" data-name="Grupo 10532">
          <path id="Trazado_10382" data-name="Trazado 10382" d="M1009.033,628.174s1.266.324,1.19,4.6l-1.433-.239a14.722,14.722,0,0,0-.4-3.655S1008.462,628.046,1009.033,628.174Z" transform="translate(-1008.389 -628.161)" fill="#1d3b54"/>
        </g>
      </g>
      <g id="Grupo_10535" data-name="Grupo 10535" transform="translate(1.061 64.721)">
        <g id="Grupo_10534" data-name="Grupo 10534">
          <path id="Trazado_10383" data-name="Trazado 10383" d="M1008.906,636.218l-11.159-3.165.033,13.743,11.106,6.656Z" transform="translate(-997.747 -633.052)" fill="#eddad3"/>
        </g>
      </g>
      <g id="Grupo_10536" data-name="Grupo 10536" transform="translate(0 64.721)">
        <path id="Trazado_10384" data-name="Trazado 10384" d="M1007.8,653.452l-1.4.258-10.8-6.717.134-13.877.928-.063Z" transform="translate(-995.599 -633.052)" fill="#eddad3"/>
      </g>
      <path id="Trazado_10385" data-name="Trazado 10385" d="M1033.4,541.719s2.975,1.221,3.506,1.593,1.594,4.674,1.859,5.046,2.832,3.561,2.477,6.148a6.666,6.666,0,0,1-2.172,3.9c-.744.8-1.432,5.086-1.665,5.724s.509,9,.509,9-8.729,3.4-16.537-2.393a65.649,65.649,0,0,0,1.56-6.612c0-1.009-1.009-8.127-3.719-12.324s.479-8.658,2.55-9.189,6.056-2.019,6.056-2.019Z" transform="translate(-1007.016 -521.581)" fill="#eb4747"/>
      <path id="Trazado_10386" data-name="Trazado 10386" d="M1016.849,543.4s-4.368-.269-6.559,2.281-2.071,5.577-2.629,6.892-1.833,6.971-2.112,7.888-.551,6.067-.949,10.21-.318,11.88-.318,11.88l4.18-.758s.168-7.376.274-11.651,3.585-11.831,4.9-15.139S1020.186,545.471,1016.849,543.4Z" transform="translate(-999.987 -522.989)" fill="#eb4747"/>
      <path id="Trazado_10387" data-name="Trazado 10387" d="M1053.326,545.595a3.607,3.607,0,0,1,2.837,2.035c.916,1.912,1.267,3.5,1.506,3.98s3.554,6.776,3.753,8.17-.12,3.944-1.873,4.622-8.047.756-8.047.756,1.593-3.238.119-4.911c0,0,4.568-.825,5.649-.935C1058.412,559.2,1051.879,547.03,1053.326,545.595Z" transform="translate(-1023.869 -524.105)" fill="#eb4747"/>
      <g id="Grupo_10537" data-name="Grupo 10537" transform="translate(18.993 22.687)">
        <path id="Trazado_10388" data-name="Trazado 10388" d="M1034.023,552.226l8.511,19.879,10.611-5-7.848-19.09Z" transform="translate(-1034.023 -548.016)" fill="#1d3b54"/>
      </g>
      <g id="Grupo_10538" data-name="Grupo 10538" transform="translate(22.225 36.663)">
        <path id="Trazado_10389" data-name="Trazado 10389" d="M1042.211,576.291s-1.152.306-1.517.359.086.729.534.749S1042.211,576.291,1042.211,576.291Z" transform="translate(-1040.561 -576.291)" fill="#eea886"/>
      </g>
      <g id="Grupo_10539" data-name="Grupo 10539" transform="translate(22.225 36.142)">
        <path id="Trazado_10390" data-name="Trazado 10390" d="M1042.985,581.414a2.43,2.43,0,0,0,.763-.152s.4-.26.691-.429a2.328,2.328,0,0,1,.233-.12,4.474,4.474,0,0,0,1.281-.625c.5-.388,2.127-1.94,2.127-1.94l-1.076-1.622-.832-1.291a20.942,20.942,0,0,0-4.006.4,1.427,1.427,0,0,0-.14.1,5.677,5.677,0,0,0-.773.88c-.071.068-.731.788-.692,1.077a.954.954,0,0,0,.507.777,2.288,2.288,0,0,0,.55,1.128,1.415,1.415,0,0,0,.737,1.01S1042.55,581.332,1042.985,581.414Z" transform="translate(-1040.561 -575.237)" fill="#eea886"/>
      </g>
      <path id="Trazado_10391" data-name="Trazado 10391" d="M1051.744,567.006s5.182-.926,6.613-1.078a17.863,17.863,0,0,0-.164-3.359,13.108,13.108,0,0,0-1.527-3.608l2.65,2.427s2.179,4.174,2.228,5.151a4.975,4.975,0,0,1-.982,4.011c-1.29,1.527-7.375.828-7.375.828S1053.7,569.5,1051.744,567.006Z" transform="translate(-1023.991 -530.864)" fill="#eb4747"/>
      <path id="Trazado_10392" data-name="Trazado 10392" d="M1042.509,532.569s-.168.494-.363,1.229c-.1.376-.207.813-.3,1.28a8.769,8.769,0,0,0-.131,3.824s-2.788.879-4.859-3.085c0,0,1.055-4.178-.09-6.762S1042.509,532.569,1042.509,532.569Z" transform="translate(-1016.35 -515.419)" fill="#eea886"/>
      <path id="Trazado_10393" data-name="Trazado 10393" d="M1046.4,509.285a17.688,17.688,0,0,1-6.437,2.437c-3.182.35-4.953,5.163-4.953,5.163s-5-7.79-.974-12.578S1047.258,503.228,1046.4,509.285Z" transform="translate(-1014.242 -502.12)" fill="#754836"/>
      <path id="Trazado_10394" data-name="Trazado 10394" d="M1042.851,520.094a.976.976,0,0,0-1.687-.744c-1.029.81.241,3.766,1.073,3.5S1042.851,520.729,1042.851,520.094Z" transform="translate(-1018.447 -510.674)" fill="#eea886"/>
      <path id="Trazado_10395" data-name="Trazado 10395" d="M1042.136,541.461s1.312,3.872-1.756,3.851-4.4-2.432-5.279-4.572a11.162,11.162,0,0,1,2.072-.786C1037.83,539.854,1042.136,541.461,1042.136,541.461Z" transform="translate(-1015.575 -521.25)" fill="#eea886"/>
      <path id="Trazado_10396" data-name="Trazado 10396" d="M1010.634,636.63l-1.438.186v-.671Z" transform="translate(-1002.475 -569.895)" fill="#1d3b54"/>
      <path id="Trazado_10397" data-name="Trazado 10397" d="M1004.23,634.878l-.795.094s0-.239,0-.318S1004.2,634.828,1004.23,634.878Z" transform="translate(-999.562 -569.133)" fill="#1d3b54"/>
      <g id="Grupo_10540" data-name="Grupo 10540" transform="translate(20.354 117.811)">
        <path id="Trazado_10398" data-name="Trazado 10398" d="M1039.5,740.946a29.018,29.018,0,0,0,.905,3.36c.5,1.382,2.853,4.431,2.786,4.828s-2.67.96-3.821.041-2.212-3.764-2.45-5.517a13.024,13.024,0,0,1-.112-2.885A2.57,2.57,0,0,1,1039.5,740.946Z" transform="translate(-1036.776 -740.455)" fill="#eea886"/>
      </g>
      <path id="Trazado_10399" data-name="Trazado 10399" d="M1044.1,535.126c-.1.376-.248.828-.362,1.276a13.281,13.281,0,0,1-3.725-3.72A15.692,15.692,0,0,0,1044.1,535.126Z" transform="translate(-1018.061 -517.575)" fill="#a77860"/>
    </g>
    <rect id="Rectángulo_2740" data-name="Rectángulo 2740" width="38.437" height="20.755" rx="8.859" transform="translate(683.068 291.997)" fill="#dfe1e8"/>
    <g id="Grupo_10543" data-name="Grupo 10543" transform="translate(663.282 396.213)">
      <g id="Grupo_10542" data-name="Grupo 10542" transform="translate(0 0)">
        <path id="Trazado_10400" data-name="Trazado 10400" d="M763.317,597.751h-.009C763.347,597.768,763.353,597.77,763.317,597.751Z" transform="translate(-763.308 -597.751)" fill="#323657"/>
      </g>
    </g>
    <g id="Grupo_10546" data-name="Grupo 10546" transform="translate(643.576 389.168)">
      <g id="Grupo_10545" data-name="Grupo 10545" transform="translate(0 0)">
        <g id="Grupo_10544" data-name="Grupo 10544">
          <rect id="Rectángulo_2741" data-name="Rectángulo 2741" width="31.257" height="3.735" rx="1.868" transform="translate(31.257 3.735) rotate(180)" fill="#99a1d3"/>
        </g>
      </g>
    </g>
    <g id="Grupo_10549" data-name="Grupo 10549" transform="translate(643.576 395.905)">
      <g id="Grupo_10548" data-name="Grupo 10548" transform="translate(0 0)">
        <g id="Grupo_10547" data-name="Grupo 10547">
          <rect id="Rectángulo_2742" data-name="Rectángulo 2742" width="31.257" height="3.735" rx="1.867" transform="translate(31.257 3.735) rotate(180)" fill="#99a1d3"/>
        </g>
      </g>
    </g>
    <g id="Grupo_10552" data-name="Grupo 10552" transform="translate(643.576 402.642)">
      <g id="Grupo_10551" data-name="Grupo 10551" transform="translate(0 0)">
        <g id="Grupo_10550" data-name="Grupo 10550">
          <path id="Rectángulo_2743" data-name="Rectángulo 2743" d="M1.868,0H29.389a1.868,1.868,0,0,1,1.868,1.868v0A1.867,1.867,0,0,1,29.39,3.735H1.868A1.868,1.868,0,0,1,0,1.868v0A1.868,1.868,0,0,1,1.868,0Z" transform="translate(31.257 3.735) rotate(180)" fill="#99a1d3"/>
        </g>
      </g>
    </g>
    <path id="Rectángulo_2744" data-name="Rectángulo 2744" d="M5.4,0H6.721a5.394,5.394,0,0,1,5.394,5.394V20.9a5.4,5.4,0,0,1-5.4,5.4H5.4A5.4,5.4,0,0,1,0,20.9V5.4A5.4,5.4,0,0,1,5.4,0Z" transform="translate(683.315 348.467)" fill="#99a1d3"/>
    <g id="Grupo_10585" data-name="Grupo 10585" transform="translate(615.484 364.121)">
      <g id="Grupo_10555" data-name="Grupo 10555" transform="translate(0.036 57.166)">
        <g id="Grupo_10554" data-name="Grupo 10554">
          <g id="Grupo_10553" data-name="Grupo 10553">
            <path id="Trazado_10401" data-name="Trazado 10401" d="M671.013,649.025a4.043,4.043,0,0,1,.523,1.386,6.646,6.646,0,0,0,.64,1.636,15.568,15.568,0,0,1,.778,2.727,12.569,12.569,0,0,0-.367,1.825c.062.395.288,1.177-.066,1.229s-.757-.589-.757-.589a.52.52,0,0,1-.266.5.879.879,0,0,1-.893.033s-.215.4-.485.454a1.1,1.1,0,0,1-.887-.12,1.08,1.08,0,0,1-.674.216.885.885,0,0,1-.748-.465s-.666.135-.859-.176a3,3,0,0,1-.24-.924,10.771,10.771,0,0,1,.845-4.66,4.132,4.132,0,0,0-.22-3.621Z" transform="translate(-666.685 -648.476)" fill="#eea886"/>
          </g>
        </g>
      </g>
      <g id="Grupo_10557" data-name="Grupo 10557" transform="translate(0 62.324)">
        <g id="Grupo_10556" data-name="Grupo 10556">
          <path id="Trazado_10402" data-name="Trazado 10402" d="M671.821,662.276s.059-2.285-.542-2.77-.669.338-.669.338.082-.815-.575-.925-.685.858-.685.858a.635.635,0,0,0-.8-.5c-.69.129-.526.931-.526.931s-.658-.786-1.086-.032a3.366,3.366,0,0,0-.026,2.781s.2.345.86.176a.908.908,0,0,0,1.422.249s1.006.554,1.372-.334A.833.833,0,0,0,671.821,662.276Z" transform="translate(-666.612 -658.91)" fill="#db9c7c"/>
        </g>
      </g>
      <path id="Trazado_10403" data-name="Trazado 10403" d="M678.878,577.572s-3.91,13.031-5.231,17.838c-.414,1.508-1.417,15.9-1.594,16.483s-5.136,1.374-5.136,1.374.6-18.009.657-18.991,5.472-21.094,7.047-21.811c1.18-.537,1.8-.093,3.29,1.011C680,575.024,678.878,577.572,678.878,577.572Z" transform="translate(-666.766 -552.756)" fill="#323657"/>
      <g id="Grupo_10558" data-name="Grupo 10558" transform="translate(50.238 0.707)">
        <rect id="Rectángulo_2745" data-name="Rectángulo 2745" width="10.696" height="0.794" transform="translate(0 5.855) rotate(-33.188)" fill="#4da8f2"/>
      </g>
      <path id="Trazado_10404" data-name="Trazado 10404" d="M782.429,538.275a2.333,2.333,0,0,1-.231.71s-.292.348-.485.609a2.129,2.129,0,0,0-.14.208,4.284,4.284,0,0,1-.74,1.148c-.426.432-2.086,1.808-2.086,1.808l-1.422-1.207-1.477-.662a27.847,27.847,0,0,1,1.177-4.042,1.358,1.358,0,0,1,.107-.122,5.4,5.4,0,0,1,.926-.637c.072-.06.832-.608,1.1-.537a.914.914,0,0,1,.682.569,2.186,2.186,0,0,1,1.011.651,1.359,1.359,0,0,1,.879.816S782.4,537.851,782.429,538.275Z" transform="translate(-721.852 -534.202)" fill="#efaa88"/>
      <g id="Grupo_10560" data-name="Grupo 10560" transform="translate(4.256 113.467)">
        <g id="Grupo_10559" data-name="Grupo 10559">
          <path id="Trazado_10405" data-name="Trazado 10405" d="M679.905,762.694s-.356,2.474-.4,2.845-3.964-.219-3.964-.219l-.318-2.945S679.415,762.345,679.905,762.694Z" transform="translate(-675.222 -762.375)" fill="#424773"/>
        </g>
      </g>
      <g id="Grupo_10562" data-name="Grupo 10562" transform="translate(3.643 116.149)">
        <g id="Grupo_10561" data-name="Grupo 10561">
          <path id="Trazado_10406" data-name="Trazado 10406" d="M678.919,767.969a10.591,10.591,0,0,0,2.443,2.141c1.2.649,3.089.907,3.8,1.579.513.485,1.867,2.575-3.122,2.533s-7.394.3-7.929-.506.774-5.915.774-5.915A10.552,10.552,0,0,0,678.919,767.969Z" transform="translate(-673.983 -767.801)" fill="#292c47"/>
        </g>
      </g>
      <g id="Grupo_10564" data-name="Grupo 10564" transform="translate(32.343 113.467)">
        <g id="Grupo_10563" data-name="Grupo 10563">
          <path id="Trazado_10407" data-name="Trazado 10407" d="M736.726,762.694s-.356,2.474-.4,2.845-3.965-.219-3.965-.219l-.317-2.945S736.236,762.345,736.726,762.694Z" transform="translate(-732.043 -762.375)" fill="#424773"/>
        </g>
      </g>
      <g id="Grupo_10566" data-name="Grupo 10566" transform="translate(31.73 116.149)">
        <g id="Grupo_10565" data-name="Grupo 10565">
          <path id="Trazado_10408" data-name="Trazado 10408" d="M735.74,767.969a10.591,10.591,0,0,0,2.443,2.141c1.2.649,5.622,1.183,6.332,1.856.513.486,1.366,2.439-5.654,2.257-4.987-.13-7.394.3-7.929-.506s.773-5.915.773-5.915A9.584,9.584,0,0,0,735.74,767.969Z" transform="translate(-730.804 -767.801)" fill="#292c47"/>
        </g>
      </g>
      <g id="Grupo_10568" data-name="Grupo 10568" transform="translate(3.643 50.223)">
        <g id="Grupo_10567" data-name="Grupo 10567">
          <path id="Trazado_10409" data-name="Trazado 10409" d="M682.525,634.431s-3.684,5.852-3.409,11.141-1.335,11.066-1.889,16.591c-.617,6.161-3.141,20.745-3.233,24.04s.392,13.818.392,13.818l5.053.115s4.244-25.5,5.343-28.1,6.55-21.149,6.733-23.23S682.525,634.431,682.525,634.431Z" transform="translate(-673.983 -634.431)" fill="#292c47"/>
        </g>
      </g>
      <g id="Grupo_10570" data-name="Grupo 10570" transform="translate(10.331 49.215)">
        <g id="Grupo_10569" data-name="Grupo 10569">
          <path id="Trazado_10410" data-name="Trazado 10410" d="M708.756,634.192s2.776,14.5,3.142,17.736.61,15.668.794,17.692,1.711,26.419,2.2,29.485H708.43s-4.959-17.778-4.959-26.19-3.831-18.287-6.3-23.838-8.134-5.681-9.654-15.979C687.513,633.1,706.7,630.926,708.756,634.192Z" transform="translate(-687.513 -632.391)" fill="#292c47"/>
        </g>
      </g>
      <g id="Grupo_10572" data-name="Grupo 10572" transform="translate(15.237 0.57)">
        <g id="Grupo_10571" data-name="Grupo 10571">
          <path id="Trazado_10411" data-name="Trazado 10411" d="M700.531,534.433s4.944-1.847,7.223,1.917,2.06,11.3-.432,12.224-6.236.441-7.512-1.912a18.867,18.867,0,0,1-2.372-8.035A4.958,4.958,0,0,1,700.531,534.433Z" transform="translate(-697.437 -533.98)" fill="#eea886"/>
        </g>
      </g>
      <g id="Grupo_10574" data-name="Grupo 10574" transform="translate(16.645 10.643)">
        <g id="Grupo_10573" data-name="Grupo 10573">
          <path id="Trazado_10412" data-name="Trazado 10412" d="M708.227,559.052a4.275,4.275,0,0,0,.134,1.992c.34.657-6.405.674-6.405.674a44.526,44.526,0,0,0-1.585-6.6C699.332,552.1,708.227,559.052,708.227,559.052Z" transform="translate(-700.286 -554.359)" fill="#eea886"/>
        </g>
      </g>
      <g id="Grupo_10576" data-name="Grupo 10576" transform="translate(14.826)">
        <g id="Grupo_10575" data-name="Grupo 10575">
          <path id="Trazado_10413" data-name="Trazado 10413" d="M698.509,544.232s.465.769,2.366.471,4.218-2.826,5.012-3.1.8-.744.8-.744l.5.726.843.053s-.769-2.262.39-3.184-1.2-7.321-7.3-5.191c0,0-4.681,1.29-4.511,3.952S697.461,542.906,698.509,544.232Z" transform="translate(-696.605 -532.828)" fill="#d88a51"/>
        </g>
      </g>
      <g id="Grupo_10578" data-name="Grupo 10578" transform="translate(17.545 15.401)">
        <g id="Grupo_10577" data-name="Grupo 10577">
          <path id="Trazado_10414" data-name="Trazado 10414" d="M709.682,565.832s-.021-1.256-.591-1.377-6.286-.67-6.985-.4v1.464S703.454,566.353,709.682,565.832Z" transform="translate(-702.107 -563.984)" fill="#e2d2ca"/>
        </g>
      </g>
      <g id="Grupo_10580" data-name="Grupo 10580" transform="translate(23.006 6.089)">
        <g id="Grupo_10579" data-name="Grupo 10579">
          <path id="Trazado_10415" data-name="Trazado 10415" d="M714.931,546.115c-.107-.447-1.242-1.722-1.677-.356s.657,3.2,1.265,3.046S715.2,547.247,714.931,546.115Z" transform="translate(-713.154 -545.145)" fill="#eea886"/>
        </g>
      </g>
      <g id="Grupo_10582" data-name="Grupo 10582" transform="translate(6.881 6.087)">
        <g id="Grupo_10581" data-name="Grupo 10581">
          <path id="Trazado_10416" data-name="Trazado 10416" d="M708.227,558.207c-3.919-.517-9.455-1.9-9.455-1.9L691.2,556s-6.953,1.531-9.69,2.768c-.26.117-.261,6.2-.974,7.8l2.27,4.789s1.312,9.487,1.584,13.707c.125,1.937-2.7,18.162-2.7,18.162a52.37,52.37,0,0,0,8.2,1.463c5.17.57,18.088-.206,18.17-.817s-2.5-22.739-2.616-23.885c-.176-1.759.606-11.1.606-11.1,1.194-.926,11.675-5.791,14.534-8.327.765-.679,4-3.823,4.914-4.909a88.147,88.147,0,0,0,6.24-7.853c.368-.4-3.532-2.526-3.886-2.644-.31-.1-4.7,5.591-6.4,7.423a47.351,47.351,0,0,1-3.89,3.1S710.678,558.347,708.227,558.207Z" transform="translate(-680.532 -545.142)" fill="#323657"/>
        </g>
      </g>
      <g id="Grupo_10584" data-name="Grupo 10584" transform="translate(14.063 1.467)">
        <g id="Grupo_10583" data-name="Grupo 10583">
          <path id="Trazado_10417" data-name="Trazado 10417" d="M697.922,535.795s-6.3.493-.193,9.937Z" transform="translate(-695.063 -535.795)" fill="#d88a51"/>
        </g>
      </g>
      <path id="Trazado_10418" data-name="Trazado 10418" d="M786.786,534.792,787.3,534l-.952.124Z" transform="translate(-727.163 -533.422)" fill="#dfe1e8"/>
    </g>
  </g>
</svg>
