<?xml version="1.0" encoding="utf-8"?>
<!-- Generator: Adobe Illustrator 24.2.1, SVG Export Plug-In . SVG Version: 6.00 Build 0)  -->
<svg version="1.1" id="Layer_1" xmlns="http://www.w3.org/2000/svg" xmlns:xlink="http://www.w3.org/1999/xlink" x="0px" y="0px"
	 viewBox="0 0 2400 1847.5" style="enable-background:new 0 0 2400 1847.5;" xml:space="preserve">
<style type="text/css">
	.st0{opacity:7.000000e-02;}
	.st1{fill:#FFFFFF;}
</style>
<g class="st0">
	<g>
		<g id="XMLID_75_">
			<path id="XMLID_112_" class="st1" d="M704.7,1065.7c-10.3,0-15.6-5.8-20-10.5c-4.1-4.4-7.3-7.9-14-7.9c-6.7,0-9.9,3.5-14,7.9
				c-4.3,4.7-9.7,10.5-20,10.5c-10.3,0-15.6-5.8-20-10.5c-4.1-4.4-7.3-7.9-14-7.9c-6.7,0-9.9,3.5-14,7.9c-4.3,4.7-9.7,10.5-20,10.5
				s-15.6-5.8-20-10.5c-4.1-4.4-7.3-7.9-14-7.9c-6.7,0-9.9,3.5-14,7.9c-4.3,4.7-9.7,10.5-20,10.5c-10.3,0-15.6-5.8-20-10.5
				c-4.1-4.4-7.3-7.9-14-7.9c-6.7,0-9.9,3.5-14,7.9c-4.3,4.7-9.7,10.5-20,10.5c-10.3,0-15.6-5.8-20-10.5c-4.1-4.4-7.3-7.9-14-7.9
				c-6.7,0-9.9,3.5-14,7.9c-4.3,4.7-9.7,10.5-20,10.5c-2.3,0-4.1-1.8-4.1-4.1c0-2.3,1.8-4.1,4.1-4.1c6.7,0,9.9-3.5,14-7.9
				c4.3-4.7,9.7-10.5,20-10.5c10.3,0,15.6,5.8,20,10.5c4.1,4.4,7.3,7.9,14,7.9c6.7,0,9.9-3.5,14-7.9c4.3-4.7,9.7-10.5,20-10.5
				c10.3,0,15.6,5.8,20,10.5c4.1,4.4,7.3,7.9,14,7.9c6.7,0,9.9-3.5,14-7.9c4.3-4.7,9.7-10.5,20-10.5c10.3,0,15.6,5.8,20,10.5
				c4.1,4.4,7.3,7.9,14,7.9c6.7,0,9.9-3.5,14-7.9c4.3-4.7,9.7-10.5,20-10.5c10.3,0,15.6,5.8,20,10.5c4.1,4.4,7.3,7.9,14,7.9
				c6.7,0,9.9-3.5,14-7.9c4.3-4.7,9.7-10.5,20-10.5c10.3,0,15.6,5.8,20,10.5c4.1,4.4,7.3,7.9,14,7.9c2.3,0,4.1,1.8,4.1,4.1
				C708.8,1063.9,707,1065.7,704.7,1065.7z"/>
		</g>
		<g id="XMLID_130_">
			<path id="XMLID_131_" class="st1" d="M577.9,1366c-10.3,0-15.6-5.8-20-10.5c-4.1-4.4-7.3-7.9-14-7.9c-6.7,0-9.9,3.5-14,7.9
				c-4.3,4.7-9.7,10.5-20,10.5c-10.3,0-15.6-5.8-20-10.5c-4.1-4.4-7.3-7.9-14-7.9c-6.7,0-9.9,3.5-14,7.9c-4.3,4.7-9.7,10.5-20,10.5
				c-10.3,0-15.6-5.8-20-10.5c-4.1-4.4-7.3-7.9-14-7.9c-6.7,0-9.9,3.5-14,7.9c-4.3,4.7-9.7,10.5-20,10.5c-10.3,0-15.6-5.8-20-10.5
				c-4.1-4.4-7.3-7.9-14-7.9c-6.7,0-9.9,3.5-14,7.9c-4.3,4.7-9.7,10.5-20,10.5c-10.3,0-15.6-5.8-20-10.5c-4.1-4.4-7.3-7.9-14-7.9
				c-6.7,0-9.9,3.5-14,7.9c-4.3,4.7-9.7,10.5-20,10.5c-2.3,0-4.1-1.8-4.1-4.1c0-2.3,1.8-4.1,4.1-4.1c6.7,0,9.9-3.5,14-7.9
				c4.3-4.7,9.7-10.5,20-10.5c10.3,0,15.6,5.8,20,10.5c4.1,4.4,7.3,7.9,14,7.9c6.7,0,9.9-3.5,14-7.9c4.3-4.7,9.7-10.5,20-10.5
				c10.3,0,15.6,5.8,20,10.5c4.1,4.4,7.3,7.9,14,7.9c6.7,0,9.9-3.5,14-7.9c4.3-4.7,9.7-10.5,20-10.5c10.3,0,15.6,5.8,20,10.5
				c4.1,4.4,7.3,7.9,14,7.9c6.7,0,9.9-3.5,14-7.9c4.3-4.7,9.7-10.5,20-10.5c10.3,0,15.6,5.8,20,10.5c4.1,4.4,7.3,7.9,14,7.9
				c6.7,0,9.9-3.5,14-7.9c4.3-4.7,9.7-10.5,20-10.5c10.3,0,15.6,5.8,20,10.5c4.1,4.4,7.3,7.9,14,7.9c2.3,0,4.1,1.8,4.1,4.1
				C582,1364.1,580.2,1366,577.9,1366z"/>
		</g>
		<g id="XMLID_132_">
			<path id="XMLID_133_" class="st1" d="M1419.5,869.4c-8.5,0-12.9-4.8-16.5-8.7c-3.4-3.6-6-6.5-11.5-6.5s-8.2,2.9-11.5,6.5
				c-3.6,3.9-8,8.7-16.5,8.7c-8.5,0-12.9-4.8-16.5-8.7c-3.4-3.6-6-6.5-11.5-6.5c-5.5,0-8.2,2.9-11.5,6.5c-3.6,3.9-8,8.7-16.5,8.7
				c-8.5,0-12.9-4.8-16.5-8.7c-3.4-3.6-6-6.5-11.5-6.5c-5.5,0-8.2,2.9-11.5,6.5c-3.6,3.9-8,8.7-16.5,8.7c-8.5,0-12.9-4.8-16.5-8.7
				c-3.4-3.6-6-6.5-11.6-6.5c-5.5,0-8.2,2.9-11.5,6.5c-3.6,3.9-8,8.7-16.5,8.7c-8.5,0-12.9-4.8-16.5-8.7c-3.4-3.6-6-6.5-11.6-6.5
				c-5.5,0-8.2,2.9-11.6,6.5c-3.6,3.9-8,8.7-16.5,8.7c-1.9,0-3.4-1.5-3.4-3.4c0-1.9,1.5-3.4,3.4-3.4c5.5,0,8.2-2.9,11.6-6.5
				c3.6-3.9,8-8.7,16.5-8.7c8.5,0,12.9,4.8,16.5,8.7c3.4,3.6,6,6.5,11.6,6.5c5.5,0,8.2-2.9,11.5-6.5c3.6-3.9,8-8.7,16.5-8.7
				c8.5,0,12.9,4.8,16.5,8.7c3.4,3.6,6,6.5,11.6,6.5c5.5,0,8.2-2.9,11.5-6.5c3.6-3.9,8-8.7,16.5-8.7c8.5,0,12.9,4.8,16.5,8.7
				c3.4,3.6,6,6.5,11.5,6.5c5.5,0,8.2-2.9,11.5-6.5c3.6-3.9,8-8.7,16.5-8.7s12.9,4.8,16.5,8.7c3.4,3.6,6,6.5,11.5,6.5
				c5.5,0,8.2-2.9,11.5-6.5c3.6-3.9,8-8.7,16.5-8.7c8.5,0,12.9,4.8,16.5,8.7c3.4,3.6,6,6.5,11.5,6.5c1.9,0,3.4,1.5,3.4,3.4
				C1422.8,867.9,1421.3,869.4,1419.5,869.4z"/>
		</g>
		<g id="XMLID_1_">
			<path id="XMLID_2_" class="st1" d="M1828.8,542.9c-8.5,0-12.9-4.8-16.5-8.7c-3.4-3.6-6-6.5-11.5-6.5c-5.5,0-8.2,2.9-11.5,6.5
				c-3.6,3.9-8,8.7-16.5,8.7c-8.5,0-12.9-4.8-16.5-8.7c-3.4-3.6-6-6.5-11.5-6.5c-5.5,0-8.2,2.9-11.5,6.5c-3.6,3.9-8,8.7-16.5,8.7
				c-8.5,0-12.9-4.8-16.5-8.7c-3.4-3.6-6-6.5-11.5-6.5c-5.5,0-8.2,2.9-11.5,6.5c-3.6,3.9-8,8.7-16.5,8.7c-8.5,0-12.9-4.8-16.5-8.7
				c-3.4-3.6-6-6.5-11.6-6.5c-5.5,0-8.2,2.9-11.5,6.5c-3.6,3.9-8,8.7-16.5,8.7c-8.5,0-12.9-4.8-16.5-8.7c-3.4-3.6-6-6.5-11.6-6.5
				c-5.5,0-8.2,2.9-11.6,6.5c-3.6,3.9-8,8.7-16.5,8.7c-1.9,0-3.4-1.5-3.4-3.4c0-1.9,1.5-3.4,3.4-3.4c5.5,0,8.2-2.9,11.6-6.5
				c3.6-3.9,8-8.7,16.5-8.7c8.5,0,12.9,4.8,16.5,8.7c3.4,3.6,6,6.5,11.6,6.5c5.5,0,8.2-2.9,11.5-6.5c3.6-3.9,8-8.7,16.5-8.7
				c8.5,0,12.9,4.8,16.5,8.7c3.4,3.6,6,6.5,11.6,6.5c5.5,0,8.2-2.9,11.5-6.5c3.6-3.9,8-8.7,16.5-8.7c8.5,0,12.9,4.8,16.5,8.7
				c3.4,3.6,6,6.5,11.5,6.5c5.5,0,8.2-2.9,11.5-6.5c3.6-3.9,8-8.7,16.5-8.7c8.5,0,12.9,4.8,16.5,8.7c3.4,3.6,6,6.5,11.5,6.5
				c5.5,0,8.2-2.9,11.5-6.5c3.6-3.9,8-8.7,16.5-8.7c8.5,0,12.9,4.8,16.5,8.7c3.4,3.6,6,6.5,11.5,6.5c1.9,0,3.4,1.5,3.4,3.4
				C1832.2,541.4,1830.7,542.9,1828.8,542.9z"/>
		</g>
		<g id="XMLID_4_">
			<path id="XMLID_5_" class="st1" d="M1500.9,1640.7c-8.5,0-12.9-4.8-16.5-8.7c-3.4-3.6-6-6.5-11.5-6.5c-5.5,0-8.2,2.9-11.5,6.5
				c-3.6,3.9-8,8.7-16.5,8.7c-8.5,0-12.9-4.8-16.5-8.7c-3.4-3.6-6-6.5-11.5-6.5c-5.5,0-8.2,2.9-11.5,6.5c-3.6,3.9-8,8.7-16.5,8.7
				c-8.5,0-12.9-4.8-16.5-8.7c-3.4-3.6-6-6.5-11.5-6.5c-5.5,0-8.2,2.9-11.5,6.5c-3.6,3.9-8,8.7-16.5,8.7c-8.5,0-12.9-4.8-16.5-8.7
				c-3.4-3.6-6-6.5-11.6-6.5c-5.5,0-8.2,2.9-11.5,6.5c-3.6,3.9-8,8.7-16.5,8.7c-8.5,0-12.9-4.8-16.5-8.7c-3.4-3.6-6-6.5-11.6-6.5
				c-5.5,0-8.2,2.9-11.6,6.5c-3.6,3.9-8,8.7-16.5,8.7c-1.9,0-3.4-1.5-3.4-3.4c0-1.9,1.5-3.4,3.4-3.4c5.5,0,8.2-2.9,11.6-6.5
				c3.6-3.9,8-8.7,16.5-8.7c8.5,0,12.9,4.8,16.5,8.7c3.4,3.6,6,6.5,11.6,6.5c5.5,0,8.2-2.9,11.5-6.5c3.6-3.9,8-8.7,16.5-8.7
				c8.5,0,12.9,4.8,16.5,8.7c3.4,3.6,6,6.5,11.6,6.5c5.5,0,8.2-2.9,11.5-6.5c3.6-3.9,8-8.7,16.5-8.7c8.5,0,12.9,4.8,16.5,8.7
				c3.4,3.6,6,6.5,11.5,6.5c5.5,0,8.2-2.9,11.5-6.5c3.6-3.9,8-8.7,16.5-8.7c8.5,0,12.9,4.8,16.5,8.7c3.4,3.6,6,6.5,11.5,6.5
				c5.5,0,8.2-2.9,11.5-6.5c3.6-3.9,8-8.7,16.5-8.7c8.5,0,12.9,4.8,16.5,8.7c3.4,3.6,6,6.5,11.5,6.5c1.9,0,3.4,1.5,3.4,3.4
				C1504.3,1639.2,1502.8,1640.7,1500.9,1640.7z"/>
		</g>
		<g id="XMLID_134_">
			<path id="XMLID_135_" class="st1" d="M937.7,244.7c-10.3,0-15.6-5.8-20-10.5c-4.1-4.4-7.3-7.9-14-7.9c-6.7,0-9.9,3.5-14,7.9
				c-4.3,4.7-9.7,10.5-20,10.5c-10.3,0-15.6-5.8-20-10.5c-4.1-4.4-7.3-7.9-14-7.9c-6.7,0-9.9,3.5-14,7.9c-4.3,4.7-9.7,10.5-20,10.5
				c-10.3,0-15.6-5.8-20-10.5c-4.1-4.4-7.3-7.9-14-7.9c-6.7,0-9.9,3.5-14,7.9c-4.3,4.7-9.7,10.5-20,10.5c-10.3,0-15.6-5.8-20-10.5
				c-4.1-4.4-7.3-7.9-14-7.9c-6.7,0-9.9,3.5-14,7.9c-4.3,4.7-9.7,10.5-20,10.5c-10.3,0-15.6-5.8-20-10.5c-4.1-4.4-7.3-7.9-14-7.9
				c-6.7,0-9.9,3.5-14,7.9c-4.3,4.7-9.7,10.5-20,10.5c-2.3,0-4.1-1.8-4.1-4.1c0-2.3,1.8-4.1,4.1-4.1c6.7,0,9.9-3.5,14-7.9
				c4.3-4.7,9.7-10.5,20-10.5c10.3,0,15.6,5.8,20,10.5c4.1,4.4,7.3,7.9,14,7.9c6.7,0,9.9-3.5,14-7.9c4.3-4.7,9.7-10.5,20-10.5
				c10.3,0,15.6,5.8,20,10.5c4.1,4.4,7.3,7.9,14,7.9c6.7,0,9.9-3.5,14-7.9c4.3-4.7,9.7-10.5,20-10.5s15.6,5.8,20,10.5
				c4.1,4.4,7.3,7.9,14,7.9c6.7,0,9.9-3.5,14-7.9c4.3-4.7,9.7-10.5,20-10.5c10.3,0,15.6,5.8,20,10.5c4.1,4.4,7.3,7.9,14,7.9
				c6.7,0,9.9-3.5,14-7.9c4.3-4.7,9.7-10.5,20-10.5s15.6,5.8,20,10.5c4.1,4.4,7.3,7.9,14,7.9c2.3,0,4.1,1.8,4.1,4.1
				C941.8,242.9,940,244.7,937.7,244.7z"/>
		</g>
	</g>
	<path class="st1" d="M1002.6,564.8c-23.5,0-42.7-19.1-42.7-42.7s19.1-42.7,42.7-42.7s42.7,19.1,42.7,42.7
		S1026.1,564.8,1002.6,564.8z M1002.6,489.7c-17.9,0-32.4,14.6-32.4,32.4s14.6,32.4,32.4,32.4s32.4-14.6,32.4-32.4
		S1020.5,489.7,1002.6,489.7z"/>
	<path class="st1" d="M650.9,1645.6c-22.6,0-41-18.4-41-41s18.4-41,41-41c22.6,0,41,18.4,41,41S673.5,1645.6,650.9,1645.6z
		 M650.9,1570.5c-18.8,0-34.1,15.3-34.1,34.1c0,18.8,15.3,34.1,34.1,34.1s34.1-15.3,34.1-34.1C685,1585.8,669.7,1570.5,650.9,1570.5
		z"/>
	<path class="st1" d="M1398.7,1211.9c-22.6,0-41-18.4-41-41s18.4-41,41-41c22.6,0,41,18.4,41,41S1421.3,1211.9,1398.7,1211.9z
		 M1398.7,1136.8c-18.8,0-34.1,15.3-34.1,34.1s15.3,34.1,34.1,34.1c18.8,0,34.1-15.3,34.1-34.1S1417.6,1136.8,1398.7,1136.8z"/>
	<path class="st1" d="M1707.8,308.7c-11.3,0-20.5-9.2-20.5-20.5s9.2-20.5,20.5-20.5s20.5,9.2,20.5,20.5S1719.1,308.7,1707.8,308.7z
		 M1707.8,271.1c-9.4,0-17.1,7.7-17.1,17.1s7.7,17.1,17.1,17.1c9.4,0,17.1-7.7,17.1-17.1S1717.2,271.1,1707.8,271.1z"/>
	<g>
		<g>
			<path class="st1" d="M1913.6,1508.9c-7.9-7.9-17.3-13.8-27.6-17.3c11-7.6,18.2-20.3,18.2-34.6c0-23.1-18.8-42-42-42
				c-23.1,0-42,18.8-42,42c0,14.3,7.2,27,18.2,34.6c-10.3,3.5-19.7,9.4-27.6,17.3c-13.7,13.7-21.3,31.9-21.3,51.3h11.3
				c0-33.8,27.5-61.3,61.3-61.3c33.8,0,61.3,27.5,61.3,61.3h11.3C1934.9,1540.9,1927.3,1522.6,1913.6,1508.9z M1862.3,1487.6
				c-16.9,0-30.6-13.7-30.6-30.6c0-16.9,13.7-30.6,30.6-30.6c16.9,0,30.6,13.7,30.6,30.6C1892.9,1473.9,1879.2,1487.6,1862.3,1487.6
				z"/>
		</g>
	</g>
	<g>
		<g>
			<path class="st1" d="M513.5,634.7c-7.9-7.9-17.3-13.8-27.6-17.3c11-7.6,18.2-20.3,18.2-34.6c0-23.1-18.8-42-42-42
				c-23.1,0-42,18.8-42,42c0,14.3,7.2,27,18.2,34.6c-10.3,3.5-19.7,9.4-27.6,17.3c-13.7,13.7-21.3,31.9-21.3,51.3h11.3
				c0-33.8,27.5-61.3,61.3-61.3s61.3,27.5,61.3,61.3h11.3C534.8,666.6,527.2,648.4,513.5,634.7z M462.2,613.4
				c-16.9,0-30.6-13.7-30.6-30.6c0-16.9,13.7-30.6,30.6-30.6s30.6,13.7,30.6,30.6C492.8,599.7,479.1,613.4,462.2,613.4z"/>
		</g>
	</g>
	<g>
		<g>
			<path class="st1" d="M2152.6,836.2c-7.9-7.9-17.3-13.8-27.6-17.3c11-7.6,18.2-20.3,18.2-34.6c0-23.1-18.8-42-42-42
				s-42,18.8-42,42c0,14.3,7.2,27,18.2,34.6c-10.3,3.5-19.7,9.4-27.6,17.3c-13.7,13.7-21.3,31.9-21.3,51.3h11.3
				c0-33.8,27.5-61.3,61.3-61.3c33.8,0,61.3,27.5,61.3,61.3h11.3C2173.9,868.1,2166.4,849.9,2152.6,836.2z M2101.3,814.9
				c-16.9,0-30.6-13.7-30.6-30.6c0-16.9,13.7-30.6,30.6-30.6c16.9,0,30.6,13.7,30.6,30.6C2131.9,801.2,2118.2,814.9,2101.3,814.9z"
				/>
		</g>
	</g>
</g>
</svg>
