<svg xmlns="http://www.w3.org/2000/svg" xmlns:xlink="http://www.w3.org/1999/xlink" width="502.646" height="454.1" viewBox="0 0 502.646 454.1">
  <defs>
    <linearGradient id="linear-gradient" x1="0.225" y1="-0.911" x2="1.234" y2="-0.911" gradientUnits="objectBoundingBox">
      <stop offset="0.226" stop-color="#1c297d"/>
      <stop offset="1" stop-color="#0c59a8"/>
    </linearGradient>
  </defs>
  <g id="Grupo_11058" data-name="Grupo 11058" transform="translate(-746.453 -89.719)">
    <path id="Trazado_10012" data-name="Trazado 10012" d="M3036.712,401c-11.185-24.355-17.7-50.224-17.859-76.3-.345-56.183-34.9-111.187-93.714-138.984-65.739-31.069-141.762-18.69-189.157,25.757-21.631,20.286-19.07,27.689-47.751,38.615-22.622,8.617-58.562,38.229-71.34,70.779-23.808,60.646-5.113,126.75,58.983,157.042,45.213,21.369,81.331,14.858,118.357-10.181,9.087,33.546,33.695,63.782,70.035,80.8,63.829,29.891,140.419,7.319,170.574-50.258C3051.255,466.934,3050.771,431.616,3036.712,401Z" transform="translate(-1798.111 -78.781)" fill="#4d2677" style="isolation: isolate"/>
    <path id="Trazado_10013" data-name="Trazado 10013" d="M2699.478,827.384,2667.7,811.97c-2.259-1.1-6.23-.68-8.826.923l-30.1,18.6c-.21.13-.4.265-.579.4l-3.434,2.122c-2.6,1.6-2.871,3.812-.612,4.908l31.774,15.413c2.259,1.1,6.23.68,8.826-.924l30.1-18.6c.21-.13.4-.265.579-.4l3.435-2.122C2701.462,830.688,2701.737,828.479,2699.478,827.384Z" transform="translate(-1804.994 -361.185)" fill="#99a1d3" opacity="0.4"/>
    <path id="Trazado_10014" data-name="Trazado 10014" d="M3274.831,523.493v-.022q0-.117-.013-.236c-.006-.078-.014-.158-.023-.237,0-.011,0-.022,0-.033l0-.033c-.007-.055-.014-.11-.022-.165-.012-.077-.025-.155-.039-.232-.007-.036-.015-.073-.022-.11l-.01-.047c0-.025-.01-.05-.016-.075-.017-.077-.036-.155-.056-.232s-.039-.146-.061-.219l0-.008,0-.006c-.023-.077-.047-.155-.073-.233s-.052-.153-.079-.23c-.007-.02-.016-.04-.023-.061l-.016-.044c-.016-.042-.031-.082-.047-.123-.029-.073-.059-.146-.091-.219-.023-.055-.048-.11-.073-.165l-.01-.024-.011-.025c-.032-.069-.064-.138-.1-.206l-.1-.2-.045-.083-.02-.036-.042-.077c-.038-.068-.077-.136-.116-.2s-.08-.134-.122-.2l-.012-.019-.019-.03c-.044-.07-.089-.141-.136-.21s-.09-.128-.135-.193c-.029-.043-.059-.086-.09-.128-.014-.02-.027-.041-.042-.061-.076-.1-.158-.2-.238-.306-.026-.033-.05-.067-.078-.1l-.012-.015c-.1-.127-.212-.252-.323-.374l-.049-.052-.043-.047c-.04-.041-.078-.084-.118-.125-.065-.068-.132-.136-.2-.2l-.079-.075-.041-.039-.074-.071c-.067-.061-.133-.122-.2-.182-.051-.045-.1-.09-.157-.134l-.028-.024-.025-.022c-.073-.061-.146-.12-.222-.178s-.155-.119-.234-.177l0,0-.005,0c-.076-.055-.152-.11-.23-.163s-.163-.11-.246-.163l-.031-.019-.035-.022-.18-.112q-.124-.074-.25-.143l-.07-.038-.023-.013-.008,0-.147-.079c-.083-.043-.167-.084-.25-.123l-1.356-.626-7.119,3.733s1.778.828,1.861.87.166.087.249.132.166.094.248.143.166.1.247.153c.035.022.067.045.1.068.13.086.259.174.384.266h0c.127.094.252.191.374.29l.047.038c.117.1.23.195.342.3l.051.046c.108.1.215.2.319.306l.056.056q.154.156.3.319c.05.056.1.114.148.171s.12.137.177.208.131.166.195.249c.042.054.084.108.125.163s.067.1.1.146c.061.086.122.173.18.261.016.023.03.047.045.071.078.121.154.243.227.367l.018.031c.075.13.147.262.215.394l.021.041c.066.129.128.26.187.39l.022.05c.057.129.11.258.161.389l.022.059c.048.129.093.259.135.389l.019.06c.041.131.077.262.11.393,0,.019.01.038.014.057.033.132.06.264.084.4,0,.017.005.035.009.052.023.133.042.266.057.4.007.066.014.133.02.2s.011.157.014.236,0,.164,0,.246,0,.164-.007.246-.011.177-.02.264c-.006.068-.015.136-.024.2,0,0-.019.135-.051.368l-19.1,137.975c-.091.656-2.769,4.928-2.137,4.574l6.646-5.386a6.838,6.838,0,0,0,2.538-4.357l18.742-135.384c.09-.655.227-1.642.227-1.642.009-.067.018-.135.024-.2s.009-.116.013-.174v-.01c0-.008,0-.016,0-.023s0-.038,0-.057c0-.081.006-.163.006-.246,0-.065,0-.13,0-.2Z" transform="translate(-2079.077 -231.188)" fill="#e6f0ff"/>
    <g id="Grupo_10265" data-name="Grupo 10265" transform="translate(910.634 173.66)">
      <path id="Trazado_10015" data-name="Trazado 10015" d="M3061.518,433.242c3.349,1.553,5.716,5.31,5.289,8.4l-19.378,139.984c-.424,3.088-3.486,4.329-6.834,2.777L2793.836,470.032c-3.349-1.552-5.717-5.309-5.289-8.4l19.375-139.986c.428-3.086,3.485-4.329,6.834-2.777Z" transform="translate(-2788.497 -318.206)" fill="#fff"/>
    </g>
    <path id="Trazado_10016" data-name="Trazado 10016" d="M2944.393,716.737l-.536-10.256-9.094,7.348-2.2-4.039-241.393-111.88c-2.907-1.347-8.549-.962-11.759.828L2579.4,654.179l-.064-1.442-15.241,7.216-2.218-.7.574,6.317a2.99,2.99,0,0,0,1.91,2.376L2815.582,784.7c2.907,1.347,7.923,1.151,11.133-.639l115.1-64.1c1.753-.977,2.618-2.144,2.573-3.259Z" transform="translate(-1778.312 -267.064)" fill="#95c1f5"/>
    <path id="Trazado_10017" data-name="Trazado 10017" d="M2691.169,597.909c-2.907-1.347-8.549-.962-11.759.828L2579.4,654.179l-.064-1.442-15.241,7.216-2.218-.7.574,6.317a2.99,2.99,0,0,0,1.91,2.376L2815.582,784.7a11.146,11.146,0,0,0,4.385.876l-4.089-64.079C2817.63,720.52,2691.169,597.909,2691.169,597.909Z" transform="translate(-1778.312 -267.064)" fill="#bedbfa"/>
    <path id="Trazado_10018" data-name="Trazado 10018" d="M2815.058,769.43l-251.2-116.424c-2.907-1.348-2.66-3.915.55-5.705L2679.5,583.112c3.21-1.79,8.215-2.152,11.123-.8l251.2,116.424c2.907,1.348,2.66,3.915-.55,5.705L2826.18,768.624C2822.97,770.415,2817.965,770.777,2815.058,769.43Z" transform="translate(-1778.29 -260.207)" fill="#edf4ff"/>
    <g id="Grupo_10268" data-name="Grupo 10268" transform="translate(844.607 331.669)">
      <g id="Grupo_10267" data-name="Grupo 10267" transform="translate(0)">
        <g id="Grupo_10266" data-name="Grupo 10266">
          <path id="Trazado_10019" data-name="Trazado 10019" d="M2786.079,613.508a2.1,2.1,0,0,1-1.629-.108l-15.25-7.065c-.55-.255-.714-.621-.365-.815l9.659-5.39a2.1,2.1,0,0,1,1.631.109l15.25,7.064c.549.255.713.62.364.815Z" transform="translate(-2713.752 -600.01)" fill="#b3ccf2"/>
          <path id="Trazado_10020" data-name="Trazado 10020" d="M2818.72,652.862a2.091,2.091,0,0,1-1.635-.108l-15.249-7.064c-.549-.255-.709-.618-.356-.814l9.663-5.392a2.1,2.1,0,0,1,1.619.109l15.249,7.064c.558.259.714.622.371.813Z" transform="translate(-2728.091 -617.299)" fill="#b3ccf2"/>
          <path id="Trazado_10021" data-name="Trazado 10021" d="M2803.858,670.213a2.1,2.1,0,0,1-1.626-.111l-15.252-7.066c-.541-.251-.718-.617-.367-.812l9.665-5.393a2.124,2.124,0,0,1,1.623.112l15.253,7.065c.548.254.712.621.37.812Z" transform="translate(-2721.562 -624.921)" fill="#b3ccf2"/>
          <path id="Trazado_10022" data-name="Trazado 10022" d="M2761.8,674.961a2.1,2.1,0,0,1-1.622-.108l-15.252-7.065c-.543-.252-.708-.62-.363-.812l9.662-5.392a2.114,2.114,0,0,1,1.627.107l15.251,7.065c.546.253.705.62.358.813Z" transform="translate(-2703.09 -627.007)" fill="#b3ccf2"/>
          <path id="Trazado_10023" data-name="Trazado 10023" d="M2688.167,667.411a2.1,2.1,0,0,1-1.628-.109l-15.25-7.065c-.55-.255-.715-.62-.366-.814l11.344-6.33a2.125,2.125,0,0,1,1.628.11l15.25,7.065c.549.255.707.623.366.814Z" transform="translate(-2670.74 -623.278)" fill="#b3ccf2"/>
          <path id="Trazado_10024" data-name="Trazado 10024" d="M2730.9,687.21a2.694,2.694,0,0,1-1.941-.254l-19.98-9.256c-.715-.331-1.022-.762-.673-.957l11.345-6.33a2.725,2.725,0,0,1,1.936.252l19.979,9.255c.725.336,1.019.769.679.959Z" transform="translate(-2687.18 -630.897)" fill="#b3ccf2"/>
          <path id="Trazado_10025" data-name="Trazado 10025" d="M2969.213,800.9a2.06,2.06,0,0,1-1.522-.168l-15.239-7.06c-.556-.257-.772-.6-.483-.76l4.195-2.34a2.088,2.088,0,0,1,1.533.174l15.239,7.059c.55.255.759.594.471.755Z" transform="translate(-2794.226 -683.687)" fill="#b3ccf2"/>
          <path id="Trazado_10026" data-name="Trazado 10026" d="M3005.574,818.206a2.058,2.058,0,0,1-1.522-.169l-15.239-7.059c-.556-.258-.773-.6-.483-.76l4.194-2.34a2.094,2.094,0,0,1,1.534.174l15.239,7.06c.549.254.758.594.471.755Z" transform="translate(-2810.199 -691.289)" fill="#b3ccf2"/>
          <path id="Trazado_10027" data-name="Trazado 10027" d="M3044.085,835.69a2.064,2.064,0,0,1-1.5-.18l-15.244-7.062c-.547-.253-.778-.591-.5-.747l4.04-2.255a2.1,2.1,0,0,1,1.509.182l15.244,7.062c.549.255.769.591.493.745Z" transform="translate(-2827.12 -699.009)" fill="#b3ccf2"/>
          <path id="Trazado_10028" data-name="Trazado 10028" d="M3019.77,810.6a2.059,2.059,0,0,1-1.5-.18l-15.245-7.062c-.546-.253-.776-.591-.5-.747l4.04-2.255a2.089,2.089,0,0,1,1.509.182l15.244,7.062c.549.255.77.591.493.745Z" transform="translate(-2816.438 -687.987)" fill="#b3ccf2"/>
          <path id="Trazado_10029" data-name="Trazado 10029" d="M2856.345,745.306a2.12,2.12,0,0,1-1.636-.113l-99.238-45.973c-.541-.251-.716-.62-.367-.815l11.344-6.33a2.145,2.145,0,0,1,1.629.11l99.239,45.973c.552.256.714.627.374.818Z" transform="translate(-2707.721 -640.403)" fill="#b3ccf2"/>
          <path id="Trazado_10030" data-name="Trazado 10030" d="M2734.389,690.161a.258.258,0,0,1-.157-.033l-11.657-5.4c-.063-.03-.1-.064-.078-.076l.7-.394a.263.263,0,0,1,.156.033l11.658,5.4c.064.03.1.065.078.077Z" transform="translate(-2693.473 -637.018)" fill="#b3ccf2"/>
          <path id="Trazado_10031" data-name="Trazado 10031" d="M2686.351,665.965a.112.112,0,0,1-.089,0l-4.949-2.293c-.027-.013-.032-.033-.01-.045l.7-.394a.115.115,0,0,1,.089,0l4.949,2.293c.027.013.032.033.011.045Z" transform="translate(-2675.374 -627.78)" fill="#b3ccf2"/>
          <path id="Trazado_10032" data-name="Trazado 10032" d="M2799.076,692.215a2.111,2.111,0,0,1-1.63-.11l-15.249-7.064c-.542-.251-.713-.622-.368-.815l9.662-5.392a2.133,2.133,0,0,1,1.632.109l15.25,7.064c.552.256.712.623.365.816Z" transform="translate(-2719.462 -634.586)" fill="#b3ccf2"/>
          <path id="Trazado_10033" data-name="Trazado 10033" d="M2836.527,709.564a2.113,2.113,0,0,1-1.623-.108l-15.248-7.063c-.546-.253-.714-.623-.369-.815l9.663-5.392a2.126,2.126,0,0,1,1.633.11l15.248,7.063c.541.251.7.62.358.813Z" transform="translate(-2735.917 -642.208)" fill="#b3ccf2"/>
          <path id="Trazado_10034" data-name="Trazado 10034" d="M2873.979,726.914a2.1,2.1,0,0,1-1.623-.108l-15.251-7.065c-.545-.252-.706-.619-.361-.811l9.662-5.392a2.107,2.107,0,0,1,1.625.106l15.251,7.065c.545.252.705.62.358.813Z" transform="translate(-2752.371 -649.83)" fill="#b3ccf2"/>
          <path id="Trazado_10035" data-name="Trazado 10035" d="M2911.426,744.261a2.105,2.105,0,0,1-1.625-.108l-15.251-7.065c-.551-.256-.714-.622-.368-.815l9.662-5.392a2.113,2.113,0,0,1,1.632.109l15.251,7.065c.549.254.707.62.36.814Z" transform="translate(-2768.817 -657.449)" fill="#b3ccf2"/>
          <path id="Trazado_10036" data-name="Trazado 10036" d="M2948.88,761.613a2.132,2.132,0,0,1-1.636-.113L2932,754.437c-.545-.252-.706-.619-.362-.811l9.663-5.392a2.108,2.108,0,0,1,1.625.106l15.245,7.062c.552.256.718.626.371.819Z" transform="translate(-2785.271 -665.072)" fill="#b3ccf2"/>
          <path id="Trazado_10037" data-name="Trazado 10037" d="M2986.334,778.948a2.113,2.113,0,0,1-1.627-.11l-15.247-7.063c-.549-.255-.713-.622-.367-.815l9.662-5.392a2.117,2.117,0,0,1,1.632.109l15.247,7.063c.547.254.708.622.362.815Z" transform="translate(-2801.725 -672.687)" fill="#b3ccf2"/>
          <path id="Trazado_10038" data-name="Trazado 10038" d="M3050.083,808.48a2.11,2.11,0,0,1-1.627-.11l-41.548-19.247c-.549-.255-.71-.621-.365-.814l9.662-5.392a2.112,2.112,0,0,1,1.63.108l41.548,19.247c.549.255.709.622.362.815Z" transform="translate(-2818.177 -680.308)" fill="#b3ccf2"/>
          <path id="Trazado_10039" data-name="Trazado 10039" d="M2841.132,687.465a2.07,2.07,0,0,1-1.619-.107l-15.252-7.066c-.548-.253-.714-.616-.364-.811l9.664-5.393a2.1,2.1,0,0,1,1.621.11l15.252,7.066c.552.255.7.617.362.808Z" transform="translate(-2737.941 -632.501)" fill="#b3ccf2"/>
          <path id="Trazado_10040" data-name="Trazado 10040" d="M2878.588,704.817a2.093,2.093,0,0,1-1.622-.109l-15.257-7.068c-.542-.251-.71-.613-.359-.809l9.665-5.393a2.1,2.1,0,0,1,1.615.108l15.257,7.068c.543.252.708.619.366.81Z" transform="translate(-2754.393 -640.123)" fill="#b3ccf2"/>
          <path id="Trazado_10041" data-name="Trazado 10041" d="M2916.036,722.165a2.1,2.1,0,0,1-1.626-.11l-15.249-7.064c-.54-.25-.721-.619-.371-.814l9.665-5.393a2.137,2.137,0,0,1,1.626.113l15.249,7.064c.544.252.712.621.369.812Z" transform="translate(-2770.842 -647.743)" fill="#b3ccf2"/>
          <path id="Trazado_10042" data-name="Trazado 10042" d="M2953.484,739.512a2.09,2.09,0,0,1-1.623-.109l-15.247-7.063c-.549-.255-.717-.617-.367-.812l9.665-5.393a2.109,2.109,0,0,1,1.624.111l15.246,7.063c.547.253.709.62.367.811Z" transform="translate(-2787.295 -655.365)" fill="#b3ccf2"/>
          <path id="Trazado_10043" data-name="Trazado 10043" d="M2990.945,756.851a2.1,2.1,0,0,1-1.624-.109l-15.256-7.067c-.549-.255-.713-.616-.363-.811l9.665-5.393a2.1,2.1,0,0,1,1.619.109l15.256,7.068c.544.252.709.62.368.81Z" transform="translate(-2803.749 -662.98)" fill="#b3ccf2"/>
          <path id="Trazado_10044" data-name="Trazado 10044" d="M3028.388,774.2a2.084,2.084,0,0,1-1.621-.108l-15.245-7.062c-.554-.256-.722-.62-.372-.815l9.665-5.393a2.11,2.11,0,0,1,1.627.114l15.245,7.062c.547.253.707.618.365.809Z" transform="translate(-2820.2 -670.601)" fill="#b3ccf2"/>
          <path id="Trazado_10045" data-name="Trazado 10045" d="M3065.838,791.545a2.089,2.089,0,0,1-1.621-.108l-15.256-7.067c-.545-.252-.708-.613-.358-.809l9.665-5.393a2.092,2.092,0,0,1,1.614.107l15.255,7.068c.545.252.708.618.365.809Z" transform="translate(-2836.652 -678.223)" fill="#b3ccf2"/>
          <path id="Trazado_10046" data-name="Trazado 10046" d="M2856,670.117a2.1,2.1,0,0,1-1.632-.107l-15.25-7.065c-.542-.251-.706-.616-.353-.812l9.662-5.392a2.1,2.1,0,0,1,1.617.108l15.25,7.064c.55.255.711.621.369.812Z" transform="translate(-2744.471 -624.88)" fill="#b3ccf2"/>
          <path id="Trazado_10047" data-name="Trazado 10047" d="M2893.441,687.462a2.1,2.1,0,0,1-1.627-.1l-15.25-7.064c-.547-.254-.713-.62-.36-.816l9.663-5.392a2.113,2.113,0,0,1,1.625.112l15.25,7.064c.542.251.706.618.363.81Z" transform="translate(-2760.917 -632.5)" fill="#b3ccf2"/>
          <path id="Trazado_10048" data-name="Trazado 10048" d="M2930.9,704.813a2.1,2.1,0,0,1-1.634-.108l-15.248-7.064c-.545-.252-.708-.617-.355-.814l9.664-5.392a2.1,2.1,0,0,1,1.618.109l15.248,7.063c.553.256.714.622.371.813Z" transform="translate(-2777.37 -640.121)" fill="#b3ccf2"/>
          <path id="Trazado_10049" data-name="Trazado 10049" d="M2968.337,722.157a2.082,2.082,0,0,1-1.626-.1l-15.252-7.065c-.549-.255-.712-.62-.36-.816l9.664-5.392a2.109,2.109,0,0,1,1.624.112l15.251,7.065c.55.255.706.618.363.81Z" transform="translate(-2793.818 -647.741)" fill="#b3ccf2"/>
          <path id="Trazado_10050" data-name="Trazado 10050" d="M3005.8,739.5a2.091,2.091,0,0,1-1.623-.1l-15.251-7.065c-.552-.256-.71-.618-.358-.815l9.663-5.392a2.1,2.1,0,0,1,1.622.11L3015.1,733.3c.54.25.7.616.359.808Z" transform="translate(-2810.278 -655.359)" fill="#b3ccf2"/>
          <path id="Trazado_10051" data-name="Trazado 10051" d="M3043.252,756.847a2.1,2.1,0,0,1-1.637-.109l-15.249-7.064c-.54-.25-.708-.617-.356-.814l9.663-5.392a2.118,2.118,0,0,1,1.62.109l15.249,7.064c.554.256.716.622.374.814Z" transform="translate(-2826.727 -662.979)" fill="#b3ccf2"/>
          <path id="Trazado_10052" data-name="Trazado 10052" d="M3080.7,774.193a2.1,2.1,0,0,1-1.627-.1l-15.252-7.065c-.549-.255-.71-.619-.358-.815l9.664-5.392a2.1,2.1,0,0,1,1.622.11L3090,767.992c.545.252.707.618.364.81Z" transform="translate(-2843.178 -670.6)" fill="#b3ccf2"/>
          <path id="Trazado_10053" data-name="Trazado 10053" d="M2772.958,631.663a2.1,2.1,0,0,1-1.634-.108l-25.857-11.978c-.55-.255-.714-.62-.361-.817l9.662-5.392a2.111,2.111,0,0,1,1.625.112l25.857,11.978c.55.255.713.621.37.812Z" transform="translate(-2703.327 -605.827)" fill="#b3ccf2"/>
          <path id="Trazado_10054" data-name="Trazado 10054" d="M3133.564,774.452a2.107,2.107,0,0,1-1.629-.108l-25.858-11.979c-.54-.25-.71-.619-.361-.813l9.66-5.39a2.112,2.112,0,0,1,1.626.108l25.859,11.979c.549.255.714.619.363.815Z" transform="translate(-2861.742 -668.554)" fill="#b3ccf2"/>
          <path id="Trazado_10055" data-name="Trazado 10055" d="M2754.2,647.207a2.081,2.081,0,0,1-1.626-.11l-30.825-14.28c-.551-.255-.719-.618-.369-.814l9.665-5.393a2.111,2.111,0,0,1,1.624.113L2763.491,641c.556.257.711.621.37.811Z" transform="translate(-2692.904 -611.644)" fill="#b3ccf2"/>
          <path id="Trazado_10056" data-name="Trazado 10056" d="M2720.2,655.689a2.114,2.114,0,0,1-1.628-.11l-20.554-9.521c-.55-.255-.711-.622-.366-.814l9.662-5.392a2.111,2.111,0,0,1,1.631.109l20.554,9.521c.549.255.71.622.364.816Z" transform="translate(-2682.481 -617.46)" fill="#b3ccf2"/>
          <path id="Trazado_10057" data-name="Trazado 10057" d="M2823.527,630.855a2.1,2.1,0,0,1-1.633-.11l-15.24-7.06c-.549-.255-.713-.621-.364-.815l9.659-5.39a2.1,2.1,0,0,1,1.63.109l15.24,7.06c.556.258.717.621.367.816Z" transform="translate(-2730.206 -607.632)" fill="#b3ccf2"/>
          <path id="Trazado_10058" data-name="Trazado 10058" d="M2860.8,648.11a2.108,2.108,0,0,1-1.631-.109l-15.25-7.065c-.546-.252-.712-.62-.364-.815l9.66-5.39a2.11,2.11,0,0,1,1.629.109l15.25,7.064c.549.255.716.621.365.816Z" transform="translate(-2746.579 -615.21)" fill="#b3ccf2"/>
          <path id="Trazado_10059" data-name="Trazado 10059" d="M2898.247,665.455a2.082,2.082,0,0,1-1.623-.106l-15.25-7.065c-.545-.252-.709-.619-.36-.813l9.659-5.39a2.1,2.1,0,0,1,1.626.107l15.25,7.064c.552.256.708.617.358.813Z" transform="translate(-2763.031 -622.832)" fill="#b3ccf2"/>
          <path id="Trazado_10060" data-name="Trazado 10060" d="M2935.707,682.808a2.107,2.107,0,0,1-1.63-.109l-15.241-7.06c-.552-.256-.714-.621-.365-.816l9.659-5.39a2.1,2.1,0,0,1,1.631.109L2945,676.6c.549.254.715.62.365.815Z" transform="translate(-2779.486 -630.455)" fill="#b3ccf2"/>
          <path id="Trazado_10061" data-name="Trazado 10061" d="M2973.145,700.152a2.079,2.079,0,0,1-1.623-.105l-15.247-7.063c-.552-.256-.714-.621-.365-.816l9.659-5.39a2.1,2.1,0,0,1,1.632.109l15.247,7.063c.553.256.707.616.357.812Z" transform="translate(-2795.933 -638.074)" fill="#b3ccf2"/>
          <path id="Trazado_10062" data-name="Trazado 10062" d="M3010.611,717.494a2.1,2.1,0,0,1-1.624-.107l-15.255-7.067c-.545-.252-.707-.617-.357-.812l9.659-5.39a2.093,2.093,0,0,1,1.623.105l15.256,7.067c.542.251.709.617.359.813Z" transform="translate(-2812.39 -645.691)" fill="#b3ccf2"/>
          <path id="Trazado_10063" data-name="Trazado 10063" d="M3048.056,734.84a2.1,2.1,0,0,1-1.629-.109l-15.249-7.064c-.552-.255-.717-.622-.368-.817l9.659-5.39a2.111,2.111,0,0,1,1.634.111l15.249,7.064c.549.255.714.62.364.815Z" transform="translate(-2828.836 -653.31)" fill="#b3ccf2"/>
          <path id="Trazado_10064" data-name="Trazado 10064" d="M3085.5,752.186a2.088,2.088,0,0,1-1.62-.1l-15.26-7.069c-.542-.251-.7-.616-.354-.811l9.659-5.39a2.091,2.091,0,0,1,1.62.1l15.261,7.069c.544.252.7.615.354.811Z" transform="translate(-2845.291 -660.932)" fill="#b3ccf2"/>
          <path id="Trazado_10065" data-name="Trazado 10065" d="M3105.663,778.272a2.505,2.505,0,0,0-.885-.221,1.341,1.341,0,0,0-.73.114l-9.663,5.392a.286.286,0,0,0-.162.384,1.041,1.041,0,0,0,.514.428l3.981,1.844-12.671,7.071a.281.281,0,0,0-.152.385,1.025,1.025,0,0,0,.52.427l10.273,4.759a2.582,2.582,0,0,0,.89.225,1.366,1.366,0,0,0,.741-.113l22.969-12.818a.274.274,0,0,0,.148-.383,1.011,1.011,0,0,0-.521-.431Z" transform="translate(-2853.102 -678.22)" fill="#b3ccf2"/>
          <path id="Trazado_10066" data-name="Trazado 10066" d="M2723.583,656.152a.256.256,0,0,1-.157-.033l-11.658-5.4c-.063-.029-.1-.064-.078-.076l.7-.393a.259.259,0,0,1,.156.033l11.658,5.4c.064.03.1.064.078.076Z" transform="translate(-2688.727 -622.078)" fill="#b3ccf2"/>
        </g>
      </g>
    </g>
    <path id="Trazado_10067" data-name="Trazado 10067" d="M2801.937,778.311l-55.786-25.083c-.646-.29-.656-.816-.023-1.168l22.682-12.614a2.929,2.929,0,0,1,2.324-.112l55.786,25.084c.646.29.656.815.024,1.167L2804.262,778.2A2.933,2.933,0,0,1,2801.937,778.311Z" transform="translate(-1859.045 -329.462)" fill="#b3ccf2"/>
    <path id="Trazado_10068" data-name="Trazado 10068" d="M3229.387,812.424a2.637,2.637,0,0,1-2.955,1.907,2.228,2.228,0,0,1-1.274-3.024,2.636,2.636,0,0,1,2.954-1.907A2.228,2.228,0,0,1,3229.387,812.424Z" transform="translate(-2069.615 -360.298)" fill="none" stroke="#342b8c" stroke-linecap="round" stroke-linejoin="round" stroke-width="2.998"/>
    <path id="Trazado_10069" data-name="Trazado 10069" d="M3282.254,464.619V464.6c0-.079-.007-.157-.014-.235s-.014-.158-.023-.237c0-.011,0-.022,0-.033l0-.033c-.007-.055-.014-.11-.022-.165-.012-.077-.024-.155-.039-.232-.007-.036-.015-.073-.023-.11l-.01-.048c-.006-.025-.01-.049-.016-.075q-.026-.116-.056-.232c-.019-.073-.04-.146-.061-.219l0-.008v-.006c-.022-.078-.046-.155-.072-.233s-.052-.154-.079-.23l-.024-.061-.017-.044c-.015-.042-.03-.082-.046-.123-.029-.073-.059-.146-.09-.219-.024-.055-.049-.11-.074-.165l-.01-.023-.011-.025c-.032-.069-.064-.138-.1-.206s-.065-.132-.1-.2c-.014-.028-.029-.056-.044-.083l-.02-.036c-.014-.026-.027-.052-.041-.077-.038-.068-.077-.136-.116-.2s-.08-.135-.122-.2l-.012-.019-.019-.03c-.044-.071-.089-.141-.135-.21s-.091-.129-.135-.193c-.03-.043-.06-.086-.09-.129-.015-.02-.028-.04-.042-.06-.077-.1-.158-.2-.238-.305-.027-.033-.051-.067-.078-.1l-.012-.016q-.157-.19-.323-.373l-.048-.052-.044-.047c-.039-.042-.077-.084-.117-.125-.066-.068-.132-.136-.2-.2l-.078-.075-.041-.039-.074-.071q-.1-.092-.2-.182c-.051-.045-.1-.09-.156-.134l-.028-.024-.026-.022c-.073-.061-.147-.12-.221-.178s-.155-.119-.234-.177l-.005,0-.005,0c-.076-.055-.152-.11-.23-.163s-.163-.11-.246-.164l-.031-.019-.035-.022c-.06-.038-.119-.076-.181-.112q-.123-.074-.249-.144l-.07-.037-.023-.013-.007,0-.148-.079q-.125-.064-.25-.123l-5.975-2.77-7,4.08s6.282,2.624,6.365,2.667.166.087.249.132.167.094.249.143.165.1.246.153l.1.068c.13.086.258.174.384.266h0c.128.094.252.191.374.29l.047.038q.175.144.342.3l.052.046c.109.1.215.2.319.306l.056.057q.154.156.3.319c.05.056.1.114.147.171s.12.137.177.208.13.165.194.249c.042.054.085.108.125.163s.069.1.1.146c.061.086.122.173.18.26l.045.071c.079.121.155.243.227.367l.018.031c.075.13.147.262.215.394l.021.04q.1.194.187.391l.022.05c.057.129.111.258.16.389l.022.059q.073.194.135.39l.019.06c.041.131.077.262.109.392.005.019.009.038.014.057.032.132.06.264.083.4,0,.017.006.035.009.052.023.134.042.266.057.4.007.067.014.133.019.2s.011.157.014.235,0,.164,0,.246,0,.164-.006.246-.011.177-.02.264c-.007.068-.015.136-.024.2l-.05.367-19.1,137.975c-.091.656-2.77,4.928-2.138,4.574l6.646-5.386a6.841,6.841,0,0,0,2.539-4.357L3281.981,467.2l.228-1.642c.009-.067.018-.136.024-.2s.009-.116.012-.174l0-.01c0-.008,0-.016,0-.024s0-.038,0-.057c0-.081.006-.163.007-.246,0-.065,0-.13,0-.2Z" transform="translate(-2082.338 -204.384)" fill="#e6f0ff"/>
    <path id="Trazado_10070" data-name="Trazado 10070" d="M3091.1,368.668,2846.529,255.314h0l-.017-.008-.364-.168,0,0c-.277-.128-.606-.28-.646-.3-.083-.036-.167-.071-.251-.1s-.17-.065-.256-.1-.169-.058-.254-.085-.176-.053-.264-.077-.176-.046-.263-.066-.188-.04-.28-.057l-.017,0h0l-.026,0c-.081-.014-.161-.027-.241-.038-.041-.006-.081-.008-.123-.013l-.1-.011-.077-.008c-.1-.008-.2-.013-.292-.016l-.024,0h0c-.116,0-.229,0-.342,0l-.038,0c-.052,0-.1.008-.153.012s-.122.007-.181.013l-.05.008c-.083.011-.164.025-.244.04-.043.008-.089.012-.131.022-.01,0-.019.006-.028.008a4.143,4.143,0,0,0-.467.131l-.032.009c-.017.006-.032.016-.048.022a3.91,3.91,0,0,0-.563.254l-6.866,3.853a3.927,3.927,0,0,1,.553-.25c.074-.027.15-.05.226-.073.091-.028.182-.056.276-.077q.166-.039.34-.066c.043-.007.085-.016.13-.021.16-.02.323-.032.491-.036h.093c.17,0,.341,0,.517.019l.039,0c.185.017.372.043.563.08l.046.01q.279.055.566.137l.056.017c.2.059.4.128.61.209.083.033.166.067.25.1.065.028.13.057.195.087l1.354.627h0l244.954,113.53a.987.987,0,0,0,.887-.033l5.14-2.884A.74.74,0,0,0,3091.1,368.668Zm-246.92-112.892Z" transform="translate(-1897.8 -116.454)" fill="#e6f0ff"/>
    <path id="Trazado_10071" data-name="Trazado 10071" d="M3067.172,375.754,2820.411,261.385c-3.349-1.552-6.407-.309-6.834,2.777L2794.2,404.148a5.32,5.32,0,0,0-.045.553l-2.128,15.381c-.428,3.086,1.939,6.843,5.289,8.4l246.758,114.366c3.349,1.553,6.41.311,6.834-2.777l19.378-139.984a5.185,5.185,0,0,0,.046-.56l2.128-15.373C3072.889,381.063,3070.521,377.306,3067.172,375.754Z" transform="translate(-1879.392 -119.291)" fill="#1c297d"/>
    <path id="Trazado_10072" data-name="Trazado 10072" d="M3064.463,396.522,2830.506,290.237c-3.175-1.443-6.066-.512-6.462,2.078L2821.53,308.8a3.431,3.431,0,0,0-.154.6l-17.925,117.5c-.4,2.591,1.857,5.857,5.032,7.3l233.954,106.284c3.175,1.443,6.069.514,6.461-2.078l2.516-16.486a3.524,3.524,0,0,0,.154-.6l17.927-117.5C3069.891,401.232,3067.638,397.965,3064.463,396.522Z" transform="translate(-1884.412 -131.961)" fill="#3548cc"/>
    <line id="Línea_106" data-name="Línea 106" x1="10.518" y2="5.956" transform="translate(1073.971 491.766)" fill="none" stroke="#342b8c" stroke-linecap="round" stroke-linejoin="round" stroke-width="2.998"/>
    <line id="Línea_107" data-name="Línea 107" x1="10.518" y2="5.956" transform="translate(1060.823 499.402)" fill="none" stroke="#342b8c" stroke-linecap="round" stroke-linejoin="round" stroke-width="2.998"/>
    <line id="Línea_108" data-name="Línea 108" x2="253.212" y2="117.316" transform="translate(910.129 320.764)" fill="none" stroke="#99a8e0" stroke-linecap="round" stroke-linejoin="round" stroke-width="3.178"/>
    <ellipse id="Elipse_623" data-name="Elipse 623" cx="27.067" cy="13.019" rx="27.067" ry="13.019" transform="matrix(1, -0.032, 0.032, 1, 824.191, 368.863)" fill="#a8c4e5" opacity="0.4" style="mix-blend-mode: multiply;isolation: isolate"/>
    <ellipse id="Elipse_624" data-name="Elipse 624" cx="12.122" cy="25.203" rx="12.122" ry="25.203" transform="translate(750.057 458.435) rotate(-88.189)" fill="#a8c4e5" opacity="0.4" style="mix-blend-mode: multiply;isolation: isolate"/>
    <g id="Grupo_10283" data-name="Grupo 10283" transform="translate(924.446 173.357)">
      <path id="Trazado_10073" data-name="Trazado 10073" d="M2889.794,466.621l-76.665-34.9,19.2-114.053,76.665,34.9Z" transform="translate(-2813.13 -317.666)" fill="#5164ed"/>
      <g id="Grupo_10282" data-name="Grupo 10282" transform="translate(12.484 20.173)">
        <g id="Grupo_10274" data-name="Grupo 10274" transform="translate(141.715 51.55)">
          <path id="Trazado_10074" data-name="Trazado 10074" d="M3164.8,594.536l-76.665-34.9,19.2-114.053,76.665,34.9Z" transform="translate(-3088.139 -445.581)" fill="#5164ed"/>
          <ellipse id="Elipse_625" data-name="Elipse 625" cx="22.633" cy="30.575" rx="22.633" ry="30.575" transform="translate(20.192 34.975) rotate(-19.087)" fill="#173891"/>
          <g id="Grupo_10269" data-name="Grupo 10269" transform="translate(12.484 76.976)">
            <path id="Trazado_10075" data-name="Trazado 10075" d="M3211.99,631.317l.807,3.539a.765.765,0,0,0,.324.474l2.777,1.719c.4.245.467.891.122,1.093l-2.429,1.424a.5.5,0,0,0-.222.443l-.027,3.491a.441.441,0,0,1-.812.289l-2.308-2.658a.522.522,0,0,0-.46-.2l-2.794.438c-.4.062-.766-.478-.623-.914l1-3.067a.749.749,0,0,0-.062-.567l-1.7-3.22c-.242-.458.01-.963.427-.854l2.928.763a.384.384,0,0,0,.421-.15l1.744-2.429C3211.35,630.585,3211.875,630.813,3211.99,631.317Z" transform="translate(-3152.174 -603.907)" fill="#d2e5fa"/>
            <path id="Trazado_10076" data-name="Trazado 10076" d="M3188.219,619.342l.808,3.538a.758.758,0,0,0,.322.474l2.777,1.72c.4.244.467.89.122,1.093l-2.429,1.424a.5.5,0,0,0-.222.443l-.027,3.491a.44.44,0,0,1-.812.29l-2.309-2.658a.519.519,0,0,0-.46-.2l-2.794.438c-.4.062-.766-.478-.624-.914l1-3.067a.75.75,0,0,0-.063-.568l-1.7-3.22c-.242-.458.011-.963.427-.854l2.927.763a.383.383,0,0,0,.421-.151l1.745-2.428C3187.58,618.61,3188.1,618.838,3188.219,619.342Z" transform="translate(-3141.732 -598.647)" fill="#d2e5fa"/>
            <path id="Trazado_10077" data-name="Trazado 10077" d="M3164.447,607.366l.807,3.539a.76.76,0,0,0,.324.474l2.777,1.72c.395.244.466.89.121,1.093l-2.428,1.425a.5.5,0,0,0-.222.444l-.027,3.491a.441.441,0,0,1-.812.29l-2.308-2.658a.52.52,0,0,0-.46-.2l-2.793.438c-.4.062-.766-.478-.624-.914l1-3.067a.752.752,0,0,0-.063-.567l-1.7-3.22c-.242-.458.011-.963.427-.855l2.927.763a.383.383,0,0,0,.421-.15l1.744-2.428C3163.808,606.635,3164.332,606.863,3164.447,607.366Z" transform="translate(-3131.289 -593.386)" fill="#d2e5fa"/>
            <path id="Trazado_10078" data-name="Trazado 10078" d="M3140.676,595.391l.807,3.538a.76.76,0,0,0,.323.474l2.777,1.72c.4.244.466.89.121,1.093l-2.428,1.425a.5.5,0,0,0-.221.443l-.028,3.491a.441.441,0,0,1-.812.29l-2.309-2.658a.52.52,0,0,0-.46-.2l-2.794.438c-.4.062-.766-.478-.623-.914l1-3.068a.748.748,0,0,0-.062-.567l-1.7-3.221c-.242-.458.011-.963.427-.854l2.927.763a.383.383,0,0,0,.421-.15l1.744-2.428C3140.037,594.66,3140.561,594.888,3140.676,595.391Z" transform="translate(-3120.846 -588.125)" fill="#d2e5fa"/>
            <path id="Trazado_10079" data-name="Trazado 10079" d="M3116.9,583.416l.808,3.539a.759.759,0,0,0,.323.474l2.777,1.719c.395.244.466.891.121,1.093l-2.429,1.424a.5.5,0,0,0-.221.444l-.028,3.491a.44.44,0,0,1-.812.289l-2.308-2.658a.522.522,0,0,0-.46-.2l-2.794.438c-.4.062-.766-.478-.623-.915l1-3.067a.75.75,0,0,0-.063-.567l-1.7-3.22c-.242-.458.011-.963.427-.854l2.927.763a.385.385,0,0,0,.422-.15l1.744-2.428C3116.266,582.684,3116.79,582.912,3116.9,583.416Z" transform="translate(-3110.404 -582.865)" fill="#d2e5fa"/>
          </g>
          <line id="Línea_109" data-name="Línea 109" x2="53.894" y2="24.016" transform="translate(13.336 97.98)" fill="none" stroke="#d2e5fa" stroke-linecap="round" stroke-linejoin="round" stroke-width="2.464"/>
          <line id="Línea_110" data-name="Línea 110" x2="32.66" y2="14.554" transform="translate(22.657 111.411)" fill="none" stroke="#fff" stroke-linecap="round" stroke-linejoin="round" stroke-width="3.403"/>
          <g id="Grupo_10273" data-name="Grupo 10273" transform="translate(32.087 38.639)">
            <path id="Trazado_10080" data-name="Trazado 10080" d="M3186.014,527.781s6.773,9.781-2.055,23.062l-10.718-4.137Z" transform="translate(-3157.611 -520.33)" fill="#4f64e3"/>
            <path id="Trazado_10081" data-name="Trazado 10081" d="M3161.638,561.439c-.087-.1-.043-.147.095-.183.449-.117.842-.392,1.291-.51a1.231,1.231,0,0,0,.28-.071,4.882,4.882,0,0,0,.1-.507q.344-1.666.688-3.333c.049-.239.357-.114.308.127l-.051.252.293-1.159,9.02,3.694a7.308,7.308,0,0,0-.251.771c.1-.057.271.059.233.24q-.338,1.635-.676,3.271a3.689,3.689,0,0,0-.086.37c.033-.058.215.365.267.459.28.5.992,1.328,1.273,1.832l1.23,2.228c-.134-.241.7,2.993-.629.709.277.626,3.617,4.476,3.617,4.476l-12.187-3.491-8.307-7.559Z" transform="translate(-3150.978 -532.75)" fill="#fff"/>
            <path id="Trazado_10082" data-name="Trazado 10082" d="M3166.176,533.793c.192.113.125.5-.069.385-1.543-.912-1.7,2.761-1.755,3.864a14.066,14.066,0,0,1,.439-3.638c.135-.316.606-.5.86-.666s.366.48.625.7l-.3,7.522-.063-.014c.013.123-.062.261-.19.224-1.788-.52-1.77-3.1-1.659-4.791C3164.153,536.1,3164.519,532.815,3166.176,533.793Z" transform="translate(-3153.563 -522.893)" fill="#fff"/>
            <path id="Trazado_10083" data-name="Trazado 10083" d="M3189.5,552.233c1.7.967,2.6-1.238,3.1-2.764.386-1.175,1.23-4.224-.524-4.7-.2-.056-.275.328-.069.384.015,0,.025.012.039.016a.607.607,0,0,0-.125-.034l-2.417,6.617a3.39,3.39,0,0,0,.4.24,1.6,1.6,0,0,1-.336-.142C3189.374,551.738,3189.307,552.123,3189.5,552.233Z" transform="translate(-3164.703 -527.79)" fill="#fff"/>
            <path id="Trazado_10084" data-name="Trazado 10084" d="M3169.57,521.939a4.56,4.56,0,0,1,5.257-2.052c.583.177,1.162.43,1.737.658h0l.088.036h0a8.382,8.382,0,0,1,4.541,3.55,11.416,11.416,0,0,1,1.137,6.341,34.962,34.962,0,0,1-1.462,7.384c-.5,1.758-.842,3.811-1.767,5.262-1.222,1.916-2.984,2.306-4.922,2.382-1.982.078-3.658-1.24-5.2-2.883a9.2,9.2,0,0,1-2.179-7.111c.2-2.114.341-4.252.619-6.342A18,18,0,0,1,3169.57,521.939Z" transform="translate(-3154.764 -516.786)" fill="#fff"/>
            <g id="Grupo_10270" data-name="Grupo 10270" transform="translate(17.964 14.023)">
              <path id="Trazado_10085" data-name="Trazado 10085" d="M3177.4,539.5Z" transform="translate(-3177.404 -539.502)" fill="#5981eb"/>
            </g>
            <path id="Trazado_10086" data-name="Trazado 10086" d="M3177.723,523.351h0q-2.646-1.177-5.261-2.5a7.339,7.339,0,0,1-1.735-1.107,1.567,1.567,0,0,1-.534-.872,2.032,2.032,0,0,1,.366-1.384,5.874,5.874,0,0,1,5.654-2.963,10.818,10.818,0,0,1,5.866,3.134c1.311,1.2,2.975,3.258,2.6,5.8-.289,1.946-2.616,1.285-3.582,1.091A16.4,16.4,0,0,1,3177.723,523.351Z" transform="translate(-3156.263 -514.493)" fill="#4f64e3"/>
            <path id="Trazado_10087" data-name="Trazado 10087" d="M3192.286,532.491h0a.662.662,0,0,1,.085-.293.415.415,0,0,1,.238-.136l.843-.246a.761.761,0,0,1,.481-.031c.3.108.469.516.564.887a7.168,7.168,0,0,1,.038,3.149,14.033,14.033,0,0,1-.945,2.824,7.6,7.6,0,0,1-1,2.079c-.314-.287-.312-1.406-.36-1.843q-.118-1.085-.15-2.169A26.413,26.413,0,0,1,3192.286,532.491Z" transform="translate(-3165.88 -522.077)" fill="#4f64e3"/>
            <path id="Trazado_10088" data-name="Trazado 10088" d="M3145.366,565.89a1.75,1.75,0,0,1,.313-.185h0a6.967,6.967,0,0,1,3.042-.321c1,.044,2.323,0,3.6-.041s2.614-.085,3.625-.04l.171.007.023.216a8.014,8.014,0,0,0,4.4,7.131c2.762,1.227,7.642,1.965,8.054-2.088l.094-.154.143.118a32.031,32.031,0,0,1,2.709,2.681,31.64,31.64,0,0,0,2.668,2.641,11.462,11.462,0,0,1,2.513,2.6,12.413,12.413,0,0,1,1.156,3.727,16.941,16.941,0,0,1-12.441,1.9C3157.008,582.285,3149.543,575.112,3145.366,565.89Z" transform="translate(-3145.366 -536.805)" fill="#4f64e3"/>
            <path id="Trazado_10089" data-name="Trazado 10089" d="M3177.918,555.217l-.7-.725a6.9,6.9,0,0,0-1.82-1.389l-.82-.414a3.833,3.833,0,0,0-1.365-.419l-1.427-.132-.189,1.451a4.587,4.587,0,0,0,2.757,4.069C3178.046,559.646,3177.918,555.217,3177.918,555.217Z" transform="translate(-3156.889 -531.03)" fill="#fff"/>
            <path id="Trazado_10090" data-name="Trazado 10090" d="M3170.108,524.18s-7.97,1.184-6.772,18.582l-5.771-1.836s-.468-18.524,7.453-21.662S3170.108,524.18,3170.108,524.18Z" transform="translate(-3150.723 -516.27)" fill="#4f64e3"/>
            <g id="Grupo_10271" data-name="Grupo 10271" transform="translate(13.316 13.78)">
              <path id="Trazado_10091" data-name="Trazado 10091" d="M3169.18,539.83a.3.3,0,0,1,.155-.477c.062-.021.124-.045.187-.068a1.955,1.955,0,0,1,1.479-.113,9.864,9.864,0,0,1,1.778.869.562.562,0,0,1,.264.693c-.093.182-.318.219-.547.09h0c-.255-.145-.513-.26-.784-.382-.217-.1-.441-.2-.668-.317a1.427,1.427,0,0,0-1.261-.092.509.509,0,0,1-.352-.007A.54.54,0,0,1,3169.18,539.83Zm3.479.639Z" transform="translate(-3169.114 -539.069)" fill="#5981eb"/>
            </g>
            <g id="Grupo_10272" data-name="Grupo 10272" transform="translate(20.537 16.099)">
              <path id="Trazado_10092" data-name="Trazado 10092" d="M3185.267,545.381a.543.543,0,0,1-.283-.224,1.52,1.52,0,0,0-1.055-.749c-.246-.054-.482-.12-.709-.184-.286-.08-.554-.156-.839-.208h0c-.255-.047-.413-.223-.384-.429a.507.507,0,0,1,.6-.377,9.54,9.54,0,0,1,1.9.469,2.138,2.138,0,0,1,1.111,1.054l.11.176a.3.3,0,0,1-.146.48A.5.5,0,0,1,3185.267,545.381Zm-2.816-1.754Z" transform="translate(-3181.993 -543.204)" fill="#5981eb"/>
            </g>
            <path id="Trazado_10093" data-name="Trazado 10093" d="M3172.407,560.126a14.153,14.153,0,0,1-3.812-2.514l-.292,1.545S3171.732,561.433,3172.407,560.126Z" transform="translate(-3155.442 -533.435)" fill="#5981eb"/>
          </g>
        </g>
        <ellipse id="Elipse_626" data-name="Elipse 626" cx="22.633" cy="30.575" rx="22.633" ry="30.575" transform="matrix(0.945, -0.327, 0.327, 0.945, 7.708, 14.802)" fill="#173891"/>
        <g id="Grupo_10275" data-name="Grupo 10275" transform="translate(0 56.803)">
          <path id="Trazado_10094" data-name="Trazado 10094" d="M2936.98,503.4l.808,3.539a.759.759,0,0,0,.324.474l2.777,1.719c.4.244.467.891.121,1.093l-2.428,1.424a.5.5,0,0,0-.222.444l-.028,3.491a.44.44,0,0,1-.812.289l-2.308-2.658a.522.522,0,0,0-.46-.2l-2.794.439c-.4.062-.766-.478-.623-.915l1-3.067a.746.746,0,0,0-.063-.567l-1.7-3.22c-.242-.458.01-.963.427-.854l2.927.763a.385.385,0,0,0,.422-.15l1.743-2.429C2936.342,502.67,2936.867,502.9,2936.98,503.4Z" transform="translate(-2877.165 -475.992)" fill="#d2e5fa"/>
          <path id="Trazado_10095" data-name="Trazado 10095" d="M2913.209,491.427l.808,3.538a.762.762,0,0,0,.323.475l2.777,1.719c.395.245.467.89.121,1.093l-2.428,1.424a.5.5,0,0,0-.222.444l-.028,3.491a.44.44,0,0,1-.812.29l-2.309-2.658a.52.52,0,0,0-.46-.2l-2.794.438c-.4.062-.766-.478-.624-.914l1-3.067a.754.754,0,0,0-.063-.567l-1.7-3.22c-.242-.458.011-.963.427-.855l2.927.763a.385.385,0,0,0,.422-.15l1.744-2.429C2912.57,490.7,2913.095,490.923,2913.209,491.427Z" transform="translate(-2866.722 -470.732)" fill="#d2e5fa"/>
          <path id="Trazado_10096" data-name="Trazado 10096" d="M2889.438,479.451l.807,3.539a.761.761,0,0,0,.323.474l2.777,1.72c.4.244.467.89.122,1.093l-2.429,1.425a.5.5,0,0,0-.221.444l-.027,3.491a.441.441,0,0,1-.812.29l-2.308-2.658a.52.52,0,0,0-.46-.2l-2.794.438c-.4.063-.766-.478-.623-.914l1-3.067a.748.748,0,0,0-.063-.567l-1.7-3.22c-.241-.458.01-.963.427-.855l2.927.763a.383.383,0,0,0,.421-.15l1.744-2.428C2888.8,478.72,2889.323,478.948,2889.438,479.451Z" transform="translate(-2856.28 -465.471)" fill="#d2e5fa"/>
          <path id="Trazado_10097" data-name="Trazado 10097" d="M2865.667,467.476l.807,3.539a.761.761,0,0,0,.324.474l2.777,1.72c.4.244.466.89.121,1.093l-2.428,1.425a.5.5,0,0,0-.222.444l-.027,3.491a.441.441,0,0,1-.812.29l-2.308-2.658a.522.522,0,0,0-.46-.2l-2.794.439c-.4.062-.766-.478-.624-.914l1-3.068a.748.748,0,0,0-.063-.567l-1.7-3.221c-.242-.458.01-.963.427-.855l2.928.763a.383.383,0,0,0,.421-.15l1.744-2.428C2865.028,466.745,2865.552,466.973,2865.667,467.476Z" transform="translate(-2845.837 -460.211)" fill="#d2e5fa"/>
          <path id="Trazado_10098" data-name="Trazado 10098" d="M2841.9,455.5l.807,3.539a.762.762,0,0,0,.324.474l2.777,1.719c.4.245.466.891.122,1.093l-2.429,1.424a.5.5,0,0,0-.221.444l-.027,3.492a.441.441,0,0,1-.813.289l-2.308-2.658a.523.523,0,0,0-.46-.2l-2.794.438c-.4.062-.765-.478-.623-.914l1-3.068a.749.749,0,0,0-.062-.567l-1.7-3.22c-.241-.458.01-.963.427-.854l2.927.763a.383.383,0,0,0,.421-.15l1.744-2.428C2841.257,454.77,2841.781,455,2841.9,455.5Z" transform="translate(-2835.395 -454.95)" fill="#d2e5fa"/>
        </g>
        <line id="Línea_111" data-name="Línea 111" x2="53.894" y2="24.016" transform="translate(0.852 77.807)" fill="none" stroke="#d2e5fa" stroke-linecap="round" stroke-linejoin="round" stroke-width="2.464"/>
        <line id="Línea_112" data-name="Línea 112" x2="32.66" y2="14.554" transform="translate(10.173 91.238)" fill="none" stroke="#d2e5fa" stroke-linecap="round" stroke-linejoin="round" stroke-width="2.464"/>
        <g id="Grupo_10281" data-name="Grupo 10281" transform="translate(19.89 19.279)">
          <path id="Trazado_10099" data-name="Trazado 10099" d="M2886.864,434.228c-.087-.1-.043-.145.092-.18.44-.117.826-.39,1.266-.507a1.224,1.224,0,0,0,.275-.071c.047-.149.063-.35.093-.5q.33-1.64.662-3.279c.047-.236.35-.114.3.123-.017.082-.032.165-.049.248l.283-1.141,8.881,3.591a7.126,7.126,0,0,0-.243.759c.1-.056.266.057.23.235q-.324,1.609-.649,3.218a3.6,3.6,0,0,0-.083.364c.032-.058.212.358.263.449.277.5.982,1.3,1.259,1.8.121.216,1.339,2.4,1.219,2.185-.133-.237.7,2.938-.615.7.274.615,3.575,4.382,3.575,4.382l-11.994-3.377-8.2-7.393Z" transform="translate(-2876.389 -405.991)" fill="#fff"/>
          <g id="Grupo_10276" data-name="Grupo 10276" transform="translate(10.224 10.571)">
            <path id="Trazado_10100" data-name="Trazado 10100" d="M2891.194,407.053c.189.11.125.49-.067.378-1.52-.889-1.659,2.722-1.707,3.806a13.816,13.816,0,0,1,.416-3.577c.131-.311.594-.5.842-.658s.361.469.617.684l-.256,7.395c-.021,0-.042-.009-.062-.013.013.121-.06.257-.187.221-1.759-.5-1.752-3.036-1.651-4.7C2889.216,409.324,2889.562,406.1,2891.194,407.053Z" transform="translate(-2889.103 -406.878)" fill="#fff"/>
            <path id="Trazado_10101" data-name="Trazado 10101" d="M2914.208,425.069c1.674.943,2.552-1.229,3.038-2.731.374-1.157,1.19-4.158-.536-4.619-.2-.054-.269.324-.066.378.014,0,.024.012.039.016a.6.6,0,0,0-.124-.033l-2.345,6.515a3.4,3.4,0,0,0,.393.234,1.585,1.585,0,0,1-.332-.138C2914.082,424.582,2914.018,424.962,2914.208,425.069Z" transform="translate(-2900.081 -411.639)" fill="#fff"/>
          </g>
          <path id="Trazado_10102" data-name="Trazado 10102" d="M2894.519,395.368a4.48,4.48,0,0,1,5.157-2.041c.574.171,1.144.418,1.711.639h0l.087.035h0a8.244,8.244,0,0,1,4.479,3.469,11.228,11.228,0,0,1,1.146,6.228,34.309,34.309,0,0,1-1.4,7.265c-.489,1.731-.811,3.75-1.713,5.18-1.193,1.888-2.922,2.28-4.827,2.364-1.948.085-3.6-1.2-5.12-2.81a9.042,9.042,0,0,1-2.173-6.98c.185-2.079.317-4.182.581-6.237A17.694,17.694,0,0,1,2894.519,395.368Z" transform="translate(-2880.073 -390.283)" fill="#fff"/>
          <g id="Grupo_10278" data-name="Grupo 10278" transform="translate(13.428 11.811)">
            <g id="Grupo_10277" data-name="Grupo 10277">
              <path id="Trazado_10103" data-name="Trazado 10103" d="M2894.879,410.614a.658.658,0,0,1,.229-.83c.076-.048.152-.1.229-.149a1.905,1.905,0,0,1,1.777-.455,8.234,8.234,0,0,1,2.045,1.147,1.021,1.021,0,0,1,.253,1.12.42.42,0,0,1-.662.251h0a7.825,7.825,0,0,0-.9-.5c-.25-.126-.509-.256-.769-.415a1.255,1.255,0,0,0-1.5.07.452.452,0,0,1-.42.052A.549.549,0,0,1,2894.879,410.614Zm4.1.455Z" transform="translate(-2894.817 -409.091)" fill="#5981eb"/>
            </g>
          </g>
          <g id="Grupo_10280" data-name="Grupo 10280" transform="translate(20.801 15.178)">
            <g id="Grupo_10279" data-name="Grupo 10279">
              <path id="Trazado_10104" data-name="Trazado 10104" d="M2911.484,418.258c-.378-.745-.736-1.08-1.276-1.195-.277-.059-.544-.142-.8-.223a6.8,6.8,0,0,0-.949-.246h0a.674.674,0,0,1-.491-.718c0-.4.219-.809.588-.779a7.045,7.045,0,0,1,2.149.554,3.285,3.285,0,0,1,1.39,1.74c.05.1.1.2.15.3a.86.86,0,0,1,.07.7.367.367,0,0,1-.353.256.379.379,0,0,1-.13-.029A.731.731,0,0,1,2911.484,418.258Zm.5-.31Zm-3.512-2.072Z" transform="translate(-2907.967 -415.095)" fill="#5981eb"/>
            </g>
          </g>
          <path id="Trazado_10105" data-name="Trazado 10105" d="M2902.1,396.723h0c-1.737-.764-6.121.99-7.839.131-.588-.294,1.476-3.164.946-3.645a1.545,1.545,0,0,1-.529-.855,2,2,0,0,1,.354-1.362,5.775,5.775,0,0,1,5.544-2.938,10.63,10.63,0,0,1,5.78,3.055c1.294,1.178,2.938,3.189,2.579,5.685-.275,1.914-2.565,1.274-3.515,1.088A16.127,16.127,0,0,1,2902.1,396.723Z" transform="translate(-2881.099 -388.026)" fill="#4f64e3"/>
          <path id="Trazado_10106" data-name="Trazado 10106" d="M2916.847,405.656h0a.641.641,0,0,1,.083-.289.407.407,0,0,1,.234-.135l.827-.245a.749.749,0,0,1,.472-.033c.291.1.464.505.559.869a7.051,7.051,0,0,1,.051,3.095,13.765,13.765,0,0,1-.916,2.78,7.461,7.461,0,0,1-.979,2.047c-.31-.28-.313-1.38-.362-1.809q-.12-1.066-.156-2.131A25.854,25.854,0,0,1,2916.847,405.656Z" transform="translate(-2890.978 -395.451)" fill="#4f64e3"/>
          <path id="Trazado_10107" data-name="Trazado 10107" d="M2870.869,438.665a1.732,1.732,0,0,1,.308-.183h0a6.852,6.852,0,0,1,2.988-.329c.984.039,2.284-.009,3.54-.056s2.568-.1,3.563-.056l.168.007.023.212c-.785,2.788,1.2,5.978,3.781,7.109,2.72,1.193,8.092,1.778,8.478-2.207l.092-.152.141.116a31.327,31.327,0,0,1,2.675,2.623,31.062,31.062,0,0,0,2.634,2.584,11.26,11.26,0,0,1,2.481,2.547,12.2,12.2,0,0,1,1.153,3.658,16.646,16.646,0,0,1-12.219,1.923C2882.384,454.727,2875.015,447.711,2870.869,438.665Z" transform="translate(-2870.869 -409.991)" fill="#4f64e3"/>
          <path id="Trazado_10108" data-name="Trazado 10108" d="M2897.227,433.027a6.359,6.359,0,0,1-3.73-2.5l-.307,1.571S2896.569,434.314,2897.227,433.027Z" transform="translate(-2880.674 -406.695)" fill="#5981eb"/>
          <path id="Trazado_10109" data-name="Trazado 10109" d="M2895.143,395.821h0a.718.718,0,0,0,.023-.313.745.745,0,0,0-.159-.293l-.636-.839a1.183,1.183,0,0,0-.4-.385c-.287-.13-.568.087-.77.33a5.517,5.517,0,0,0-1.064,2.643,16.51,16.51,0,0,0-.123,3.1,10.3,10.3,0,0,0,.174,2.515c.361-.008.726-.958.91-1.294q.454-.833.837-1.728A21.891,21.891,0,0,0,2895.143,395.821Z" transform="translate(-2880.151 -390.629)" fill="#4f64e3"/>
        </g>
      </g>
    </g>
    <g id="Grupo_10284" data-name="Grupo 10284" transform="translate(809.972 439.941)">
      <path id="Trazado_10110" data-name="Trazado 10110" d="M2608.976,831.06v10.168l74.371-4.9-.193-9.462Z" transform="translate(-2608.973 -807.937)" fill="#2c7ce6"/>
      <path id="Trazado_10111" data-name="Trazado 10111" d="M2642.275,852.047,2610.5,836.634c-2.259-1.1-1.984-3.3.612-4.908l30.1-18.6c2.6-1.6,6.566-2.019,8.825-.923l31.775,15.413c2.258,1.1,1.983,3.3-.612,4.907l-30.1,18.6C2648.505,852.727,2644.534,853.143,2642.275,852.047Z" transform="translate(-2608.97 -801.228)" fill="#2c7ce6"/>
      <path id="Trazado_10112" data-name="Trazado 10112" d="M2642.275,833.569,2610.5,818.156c-2.259-1.1-1.984-3.3.612-4.908l30.1-18.6c2.6-1.6,6.566-2.019,8.825-.923l31.775,15.413c2.258,1.1,1.983,3.3-.612,4.908l-30.1,18.6C2648.505,834.25,2644.534,834.665,2642.275,833.569Z" transform="translate(-2608.97 -793.11)" fill="#3d89ed"/>
    </g>
    <ellipse id="Elipse_627" data-name="Elipse 627" cx="12.436" cy="6.19" rx="12.436" ry="6.19" transform="translate(835.494 450.219)" fill="none" stroke="#fff" stroke-linecap="round" stroke-linejoin="round" stroke-width="2.689"/>
    <path id="Trazado_10113" data-name="Trazado 10113" d="M2684.734,841.655c0-.043-3.428-8.135-3.428-8.135" transform="translate(-1830.775 -370.921)" fill="none" stroke="#fff" stroke-linecap="round" stroke-linejoin="round" stroke-width="2.689"/>
    <path id="Trazado_10114" data-name="Trazado 10114" d="M2792.853,871.112,2761.079,855.7c-2.259-1.1-6.23-.68-8.826.923l-30.1,18.6a7.02,7.02,0,0,0-.579.4l-3.435,2.122c-2.6,1.6-2.87,3.812-.611,4.908l31.775,15.413c2.259,1.1,6.23.679,8.826-.924l30.1-18.6a6.938,6.938,0,0,0,.579-.4l3.435-2.122C2794.837,874.415,2795.112,872.207,2792.853,871.112Z" transform="translate(-1846.013 -380.395)" fill="#99a1d3" opacity="0.4"/>
    <g id="Grupo_10285" data-name="Grupo 10285" transform="translate(862.328 464.459)">
      <path id="Trazado_10115" data-name="Trazado 10115" d="M2702.351,874.787v10.168l74.371-4.9-.193-9.462Z" transform="translate(-2702.348 -851.665)" fill="#feb519"/>
      <path id="Trazado_10116" data-name="Trazado 10116" d="M2735.65,895.775l-31.775-15.413c-2.259-1.1-1.983-3.3.612-4.908l30.1-18.6c2.594-1.6,6.566-2.02,8.825-.924l31.775,15.413c2.259,1.1,1.983,3.3-.612,4.908l-30.1,18.6C2741.88,896.455,2737.909,896.871,2735.65,895.775Z" transform="translate(-2702.345 -844.955)" fill="#feb519"/>
      <path id="Trazado_10117" data-name="Trazado 10117" d="M2735.65,877.3l-31.775-15.413c-2.259-1.1-1.983-3.3.612-4.908l30.1-18.6c2.594-1.6,6.566-2.019,8.825-.924l31.775,15.413c2.259,1.1,1.983,3.3-.612,4.908l-30.1,18.6C2741.88,877.978,2737.909,878.393,2735.65,877.3Z" transform="translate(-2702.345 -836.838)" fill="#fed32e"/>
    </g>
    <path id="Trazado_10118" data-name="Trazado 10118" d="M2759.857,883.021c.685-3.279-1.708-7-6.681-9.557a24.631,24.631,0,0,0-16.042-2.114" transform="translate(-1855.3 -387.309)" fill="none" stroke="#fff" stroke-linecap="round" stroke-linejoin="round" stroke-width="2.689"/>
    <path id="Trazado_10119" data-name="Trazado 10119" d="M2781.933,862.893c-2.381,1.866-7.031,2.267-10.384.9s-4.142-4-1.76-5.862,7.031-2.268,10.384-.9S2784.314,861.026,2781.933,862.893Z" transform="translate(-1869.04 -380.892)" fill="none" stroke="#fff" stroke-linecap="round" stroke-linejoin="round" stroke-width="2.689"/>
    <path id="Trazado_10120" data-name="Trazado 10120" d="M2885.483,916.65l-31.775-15.413c-2.258-1.1-6.23-.68-8.825.923l-30.1,18.6c-.21.13-.4.265-.579.4l-3.435,2.122c-2.6,1.6-2.87,3.812-.612,4.908l31.775,15.413c2.259,1.1,6.23.68,8.826-.924l30.1-18.6c.21-.13.4-.265.579-.4l3.434-2.122C2887.467,919.954,2887.742,917.745,2885.483,916.65Z" transform="translate(-1886.705 -400.399)" fill="#99a1d3" opacity="0.4"/>
    <g id="Grupo_10286" data-name="Grupo 10286" transform="translate(914.266 489.993)">
      <path id="Trazado_10121" data-name="Trazado 10121" d="M2794.981,920.326v10.168l74.371-4.9-.194-9.462Z" transform="translate(-2794.978 -897.203)" fill="#eb2182"/>
      <path id="Trazado_10122" data-name="Trazado 10122" d="M2828.28,941.313,2796.5,925.9c-2.259-1.1-1.983-3.3.611-4.908l30.1-18.6c2.595-1.6,6.566-2.019,8.825-.923l31.775,15.413c2.258,1.1,1.983,3.3-.612,4.907l-30.1,18.6C2834.51,941.993,2830.538,942.409,2828.28,941.313Z" transform="translate(-2794.975 -890.494)" fill="#eb2182"/>
      <path id="Trazado_10123" data-name="Trazado 10123" d="M2828.28,922.835,2796.5,907.422c-2.259-1.1-1.983-3.3.611-4.908l30.1-18.6c2.595-1.6,6.566-2.019,8.825-.923l31.775,15.413c2.258,1.1,1.983,3.3-.612,4.908l-30.1,18.6C2834.51,923.516,2830.538,923.931,2828.28,922.835Z" transform="translate(-2794.975 -882.376)" fill="#ff3d9b"/>
    </g>
    <path id="Trazado_10124" data-name="Trazado 10124" d="M2860.139,904.051l-2.189,5.346a.676.676,0,0,0,.316.834l5.7,3.891c.811.553.2,1.489-1.04,1.582l-8.693.659a1.841,1.841,0,0,0-1.19.5l-4.5,4.828a1.967,1.967,0,0,1-2.671-.039l-3.183-4.939a1.419,1.419,0,0,0-1.052-.528l-8.482-.907c-1.207-.129-1.567-1.078-.611-1.606l6.725-3.711a.862.862,0,0,0,.54-.821l-.745-5.39c-.106-.766,1.25-1.33,2.293-.954l7.339,2.645a2.284,2.284,0,0,0,1.386.02l8.022-2.423C2859.251,902.689,2860.45,903.29,2860.139,904.051Z" transform="translate(-1896.975 -401.299)" fill="none" stroke="#fff" stroke-linecap="round" stroke-linejoin="round" stroke-width="2.689"/>
    <g id="Grupo_10288" data-name="Grupo 10288" transform="translate(824.763 175.666)">
      <path id="Trazado_10125" data-name="Trazado 10125" d="M2647.938,682.488l.35-17.256c-.4-1.628-2.587-1.965-4.324-3.488a2.14,2.14,0,0,0-2.654-.2l-1.646,1.2c-2.442,1.645-2.57,2.135-2.037,4.284l3.166,12.759a8.13,8.13,0,0,0,4.284,5.157l.517.194C2647.416,685.832,2648.471,684.636,2647.938,682.488Z" transform="translate(-2636.237 -470.877)" fill="#1c297d"/>
      <path id="Trazado_10126" data-name="Trazado 10126" d="M2646.931,662.909s.945,11.01,3.643,11.681c0,0,1.731.427,1.787-2.362s.779-8.19.779-8.19Z" transform="translate(-2640.437 -471.638)" fill="#f2957a"/>
      <path id="Trazado_10127" data-name="Trazado 10127" d="M2705.4,680.351l-13.255-9.306a17.046,17.046,0,0,0-7.638-.333,1.946,1.946,0,0,0-1.692,1.993l.138,2.053c.081,2.96.448,3.365,2.682,4.266l13.263,5.354c2.233.9,5.418.8,7.077-.229l.47-.291C2708.1,682.832,2707.629,681.253,2705.4,680.351Z" transform="translate(-2656.197 -474.947)" fill="#1c297d"/>
      <path id="Trazado_10128" data-name="Trazado 10128" d="M2682.143,575.252c.141,3.749,7.761,5.1,7.9,1.294,7.622-43.639,10.435-67.6,12.2-104.932l-23.323-19.632c1.882,32.4,6.15,57.482,5.572,85.457-.075,3.626-2.091,6.734-2.292,10.22C2681.788,554.9,2682.768,568.207,2682.143,575.252Z" transform="translate(-2654.492 -378.979)" fill="#f2957a"/>
      <path id="Trazado_10129" data-name="Trazado 10129" d="M2686.075,549.328c.2-3.486,2.217-6.594,2.292-10.219.579-27.975-3.689-53.057-5.571-85.457l-3.87-3.869c1.882,32.4,6.15,57.482,5.572,85.457-.075,3.626-2.091,6.734-2.292,10.22-.417,7.238.563,20.547-.062,27.593.07,1.858-.014,2.4,1.53,3.743C2684.229,569.657,2685.665,556.433,2686.075,549.328Z" transform="translate(-2654.492 -378.013)" fill="#eb7a59"/>
      <path id="Trazado_10130" data-name="Trazado 10130" d="M2647.03,603.883c-.831,3.289,3.847,6.469,5.939,3.514,6.291-12.959,10.9-22.941,15.182-32.733,3.246-7.417,3.942-16.283,5.3-25.183,3.245-21.231-18.692-26.588-17.6-5.009.447,8.819,1.925,15.889.839,24.69-.526,4.26-4.6,5.859-6,13.015C2649.263,589.443,2648.981,593.5,2647.03,603.883Z" transform="translate(-2640.438 -413.555)" fill="#f2957a"/>
      <path id="Trazado_10131" data-name="Trazado 10131" d="M2652.171,585.231c1.621-8.247,6.9-10.988,7.506-15.9,1.252-10.143.236-16.772-.28-26.936a23.47,23.47,0,0,1,1.275-9.77c-2.955,1.628-5.136,5.821-4.772,12.992.447,8.819,1.925,15.889.839,24.689-.526,4.26-4.6,5.859-6,13.015-1.428,7.268-1.709,11.325-3.661,21.707C2646.6,606.895,2650.593,593.26,2652.171,585.231Z" transform="translate(-2640.484 -414.407)" fill="#eb7a59"/>
      <path id="Trazado_10132" data-name="Trazado 10132" d="M2688.863,674.95s9.476,3.866,11.193,2.733c1.447-.955-5.564-5.538-5.564-5.538Z" transform="translate(-2658.857 -475.696)" fill="#f2957a"/>
      <path id="Trazado_10133" data-name="Trazado 10133" d="M2703.36,589.9s-3.566-4.081-8.83.853l-1.073-1.475,1.345-6.939,9.445.645Z" transform="translate(-2660.876 -436.245)" fill="#eb7a59"/>
      <path id="Trazado_10134" data-name="Trazado 10134" d="M2717.3,402.178l15.922,30.306-6.127,6.716-21.076-34.638Z" transform="translate(-2666.393 -357.101)" fill="#ff9d80"/>
      <path id="Trazado_10135" data-name="Trazado 10135" d="M2723.473,431.627l8.674-4.432s.71,4.725-3.158,5.92S2723.473,431.627,2723.473,431.627Z" transform="translate(-2674.062 -368.09)" fill="#fa835f"/>
      <path id="Trazado_10136" data-name="Trazado 10136" d="M2720.688,427.453s7.48.2,9.024-5.413L2727.4,417.4l-9.728,5.13Z" transform="translate(-2671.515 -363.786)" fill="#fff"/>
      <path id="Trazado_10137" data-name="Trazado 10137" d="M2651.625,339.307s-12.324,2.411-15.349,7.13S2638.6,362.8,2638.6,362.8v-6.081s-7.12-11.7,12.54-14.26C2664.341,340.736,2651.625,339.307,2651.625,339.307Z" transform="translate(-2635.349 -329.482)" fill="#1c297d"/>
      <path id="Trazado_10138" data-name="Trazado 10138" d="M2652.629,339.944s-20.328,13.162-12.793,25.908,27.965,18.236,27.965,18.236l8.3-42.814Z" transform="translate(-2636.584 -329.761)" fill="#1c297d"/>
      <path id="Trazado_10139" data-name="Trazado 10139" d="M2703.13,372.956c4.494-.317,7.251,4.618,9.164,12.489l7.911,14.867s-2.467,10.089-15.054,4.982C2687.717,398.221,2703.13,372.956,2703.13,372.956Z" transform="translate(-2662.363 -344.257)" fill="#eb2182"/>
      <path id="Trazado_10140" data-name="Trazado 10140" d="M2666.538,468.725c-9.636,16.458-1.879,31.96-5.89,60.827,0,0,17.9,14.024,34.332.631l-.76-62.266Z" transform="translate(-2646.463 -385.979)" fill="#3d89ed"/>
      <path id="Trazado_10141" data-name="Trazado 10141" d="M2713.4,531.633c2.619-1.109,2.41-1.573,3.661-2.538,1.3-24.192,1.305-45.885-2.592-63.654l-3.552,1.173c3.461,11.121,3.461,14.663,3.461,28.289C2714.381,513.989,2710.836,526.361,2713.4,531.633Z" transform="translate(-2668.547 -384.892)" fill="#649fed"/>
      <path id="Trazado_10142" data-name="Trazado 10142" d="M2672.015,531.954c-11.982-17.265-.436-16.882-2.094-26.029-3.437-18.975,3.907-23.332.867-43.073l-5.9-2.738c-16.354,14.716-1.879,37.143-5.89,66.01C2659,526.124,2662.89,529.628,2672.015,531.954Z" transform="translate(-2644.814 -382.552)" fill="#2578e6"/>
      <path id="Trazado_10143" data-name="Trazado 10143" d="M2688.647,424.167c.045-2.881,1.651-12.3,2.348-17.755.651-5.1,3.79-4.344,2.69-10.561-.145-3.393-5.277-12.109-5.537-14.587-.413-3.918.267-8.07-7.972-11.926l-3.621.785a23.877,23.877,0,0,0-4.971,1.662c-16.8,7.78-20.458,8.16-19.288,18,.191,5.059,3.2,1.123,4.109,4.473,1.74,6.428,8.526,12.971,6.135,24.243-.483,2.275-2.263,3.824-.237,5.333C2671.083,430.372,2688.528,431.663,2688.647,424.167Z" transform="translate(-2642.706 -342.674)" fill="#ff3d9b"/>
      <g id="Grupo_10287" data-name="Grupo 10287" transform="translate(45.262 36.689)">
        <path id="Trazado_10144" data-name="Trazado 10144" d="M2720.642,467.036c.01.243.021-.017,0,0Z" transform="translate(-2718.08 -422.281)" fill="#ff5cab"/>
        <path id="Trazado_10145" data-name="Trazado 10145" d="M2722.516,402.729c-.144-3.393-6.158-13.034-6.419-15.512l-.025,1.555c.287,2.72,4.215,9.3,4.374,13.029a20.352,20.352,0,0,1-1.584,11.207S2723.451,408.013,2722.516,402.729Z" transform="translate(-2716.072 -387.217)" fill="#ff69b1"/>
      </g>
      <path id="Trazado_10146" data-name="Trazado 10146" d="M2666.012,406.9l-3.515,12.207,4.611,17.673,3.273,2.3V423.588C2667.932,418.749,2666.9,412.88,2666.012,406.9Z" transform="translate(-2647.275 -359.174)" fill="#eb2182"/>
      <path id="Trazado_10147" data-name="Trazado 10147" d="M2752.017,475.488l-3.348,1.9c-1.635.93-3.739.884-4.677-.1l-.656-.691c-.937-.988-.365-2.558,1.271-3.489l3.348-1.9c1.635-.93,3.74-.884,4.677.1l.656.691C2754.225,472.987,2753.653,474.557,2752.017,475.488Z" transform="translate(-2682.589 -387.13)" fill="#ff9d80"/>
      <path id="Trazado_10148" data-name="Trazado 10148" d="M2695.2,467.682l-.1-.711,1.188.342.176-.455,26.438-13.541a1.834,1.834,0,0,1,1.347.03l13.081,5.564-.024-.159,2.372.708.113.756h-.016a.324.324,0,0,1-.186.2l-27.512,14.091a1.835,1.835,0,0,1-1.347-.03l-15.151-6.444c-.231-.1-.36-.226-.379-.349Z" transform="translate(-2661.599 -379.515)" fill="#a8c4e5"/>
      <path id="Trazado_10149" data-name="Trazado 10149" d="M2711.988,473.163l27.512-14.091c.318-.163.233-.443-.189-.623L2724.16,452a1.834,1.834,0,0,0-1.347-.03L2695.3,466.066c-.318.163-.233.443.189.623l15.151,6.444A1.834,1.834,0,0,0,2711.988,473.163Z" transform="translate(-2661.601 -378.926)" fill="#e1eaf4"/>
      <path id="Trazado_10150" data-name="Trazado 10150" d="M2716.051,470.036l6.659-3.41c.077-.039.056-.107-.046-.151L2719,464.915a.44.44,0,0,0-.326-.007l-6.659,3.41c-.078.039-.057.107.046.151l3.667,1.559A.442.442,0,0,0,2716.051,470.036Z" transform="translate(-2669.006 -384.645)" fill="#a8c4e5"/>
      <path id="Trazado_10151" data-name="Trazado 10151" d="M2674.794,454.942a56.521,56.521,0,0,1-26.654-7.7c-2.141-1.247-2.877-3.347-2.929-5.74-.117-5.484.449-15.985,2.3-17.569l7.191,9.1-.845,8.054c9.3,4.094,14.942,8.675,20.622,10.4Z" transform="translate(-2639.675 -366.656)" fill="#ff9d80"/>
      <path id="Trazado_10152" data-name="Trazado 10152" d="M2649.955,447.257c-1.926-1.563-2.627-4.782-2.678-7.175a82.429,82.429,0,0,1,.588-13.589l-.622-.713c-1.854,1.584-1.919,11.317-1.8,16.8a7.07,7.07,0,0,0,3.544,5.9,56.527,56.527,0,0,0,26.654,7.7S2658.221,453.97,2649.955,447.257Z" transform="translate(-2639.767 -367.469)" fill="#fa835f"/>
      <path id="Trazado_10153" data-name="Trazado 10153" d="M2670.317,376.124s6.5,15.576,15.943,11.518,2.6-18.147,2.6-18.147A79.822,79.822,0,0,0,2670.317,376.124Z" transform="translate(-2650.71 -342.743)" fill="#ff9d80"/>
      <path id="Trazado_10154" data-name="Trazado 10154" d="M2685.473,372.7l.636.128a3.588,3.588,0,0,0,4.411-2.9l1.554-11.447a4.182,4.182,0,0,0-3.408-4.477l-.637-.128a3.589,3.589,0,0,0-4.411,2.905l-3.206,10.655C2680.138,369.465,2683.323,372.271,2685.473,372.7Z" transform="translate(-2655.138 -335.845)" fill="#ff9d80"/>
      <path id="Trazado_10155" data-name="Trazado 10155" d="M2693.132,469.855s7.3-2.932,10.254-1.933c2.168.733,5.532,3.207,7.169,4.472a.315.315,0,0,1-.23.57l-3.179-.5,2.693,2.191-1.5,1.921a2.034,2.034,0,0,1-2.726.383l-4.644-3.017s-.6,2.179-6.943.654C2692.541,474.237,2693.132,469.855,2693.132,469.855Z" transform="translate(-2660.682 -385.89)" fill="#ff9d80"/>
      <path id="Trazado_10156" data-name="Trazado 10156" d="M2724.21,450.674a2.76,2.76,0,0,1,1.353-1.655l29.077-14.554a.935.935,0,0,1,.643-.119h0l0,0a.381.381,0,0,1,.15.08l.958.717-.874,0-2.8,13.923a2.762,2.762,0,0,1-1.352,1.655l-27.494,13.762-.889.824-.111.2a4.584,4.584,0,0,1-1.883-.516Z" transform="translate(-2672.97 -371.223)" fill="#fff"/>
      <path id="Trazado_10157" data-name="Trazado 10157" d="M2726.418,440.584a2.763,2.763,0,0,1,1.352-1.655l29.076-14.554a.935.935,0,0,1,.643-.12h0l0,0a.384.384,0,0,1,.149.08l.959.717-.874,0-2.8,13.923a2.765,2.765,0,0,1-1.352,1.655l-27.494,13.762-.889.824-.111.2a4.584,4.584,0,0,1-1.883-.515Z" transform="translate(-2673.941 -366.791)" fill="#fff"/>
      <path id="Trazado_10158" data-name="Trazado 10158" d="M2757.9,425.728l-29.077,14.554a2.762,2.762,0,0,0-1.353,1.655l-2.834,14.077c0,.01,0,.018,0,.028l-1.135,5.635c-.121.6.288.834.914.521l29.077-14.554a2.758,2.758,0,0,0,1.352-1.655l2.835-14.077c0-.01,0-.018,0-.028l1.135-5.635C2758.93,425.648,2758.521,425.415,2757.9,425.728Z" transform="translate(-2674.061 -367.385)" fill="url(#linear-gradient)"/>
      <path id="Trazado_10159" data-name="Trazado 10159" d="M2754.531,457.032c-.032,1.024.932,1.357,2.153.743a4.1,4.1,0,0,0,2.268-2.968c.032-1.025-.932-1.357-2.152-.743A4.1,4.1,0,0,0,2754.531,457.032Z" transform="translate(-2687.705 -379.758)" fill="#fff"/>
      <path id="Trazado_10160" data-name="Trazado 10160" d="M2671.57,376.016s5.726,16.061,15.153,11.8c7.315-3.309,2.008-16.594,2.008-16.594l1.972.38s6.316,15.6-4.365,19.956c-9.4,3.835-17.279-14.334-17.279-14.334Z" transform="translate(-2650.158 -343.5)" fill="#fff"/>
      <path id="Trazado_10161" data-name="Trazado 10161" d="M2679.217,326.915c1.94-3.117,4.9-3.664,7.648-1.87,2.693-1.093,5.945.514,8.343,4.592,3.34,5.678,3.008,13.561.923,18.513-1.129,2.682-2.456,4.55-8.873,3.43-4.349-.834-6.8-2.11-9.259-6.3C2674.659,339.607,2676.387,331.461,2679.217,326.915Z" transform="translate(-2653.281 -322.769)" fill="#ff9d80"/>
      <path id="Trazado_10162" data-name="Trazado 10162" d="M2693.027,369.582a11.981,11.981,0,0,1-8.741-4.978s3.563,7.371,8.307,8.178Z" transform="translate(-2656.847 -340.594)" fill="#fa835f"/>
      <path id="Trazado_10163" data-name="Trazado 10163" d="M2673.537,372.005a19.088,19.088,0,0,1,4.146-1.866l2.354-8.051s-1.115,1.629,1.359,4.086l-.435,1.636a8.607,8.607,0,0,1-3.954,5.224l-2.511,1.253Z" transform="translate(-2652.125 -339.489)" fill="#fa835f"/>
      <path id="Trazado_10164" data-name="Trazado 10164" d="M2669.722,413.226c2.312,5.5,3.813,12.54,16.8,15.805,0,0-11.5,2.254-14.43,1.255S2669.722,413.226,2669.722,413.226Z" transform="translate(-2650.43 -361.954)" fill="#eb2182"/>
      <path id="Trazado_10165" data-name="Trazado 10165" d="M2719.011,431.628s-.344.42-.446.565c-.5.705-2.13,2.832-3.8,3.361l3.489.23" transform="translate(-2670.237 -370.038)" fill="#eb2182"/>
      <path id="Trazado_10166" data-name="Trazado 10166" d="M2688.742,346.582s6.571,2.589,10.608-6.249c0,0,1.434-3.032.821-4.318S2688.742,346.582,2688.742,346.582Z" transform="translate(-2658.804 -327.992)" fill="#fa835f"/>
      <path id="Trazado_10167" data-name="Trazado 10167" d="M2688.057,330.844c-7.718,11.937-12.211,8.51-12.4,10.375,0,0-1.3,4.952-1.306,4.963-.782,3.7-4.542,2.2-8.155,3.4l-.011,0s-11.857-13.721,2.88-24.744c9.973-7.46,23.769-.114,22.276,9.7Z" transform="translate(-2646.916 -321.784)" fill="#1c297d"/>
      <path id="Trazado_10168" data-name="Trazado 10168" d="M2645.978,365.852s11.1-5.444,12.072-8.971,6.338-3.957,7.615-7.886l4.29-2.375s5.85.493,11.2-9.529c0,0,1.074-1.4-1.469-1.022s-4.008,6.823-7.185,7.09-6.76,4.792-9.162,6.323-6.393-.46-9.691,4.328S2645.978,365.852,2645.978,365.852Z" transform="translate(-2640.019 -328.031)" fill="#2e3d9e"/>
      <path id="Trazado_10169" data-name="Trazado 10169" d="M2679.516,356.119a3.135,3.135,0,0,0,3.969,1.294,2.572,2.572,0,0,0,1.028-3.706,3.134,3.134,0,0,0-3.969-1.294A2.573,2.573,0,0,0,2679.516,356.119Z" transform="translate(-2654.575 -335.118)" fill="#ff9d80"/>
      <path id="Trazado_10170" data-name="Trazado 10170" d="M2683.765,356.19a.675.675,0,0,0,.049-1.032c-.437-.436-1.106-.847-1.6,0s.044,1.96.524,2.663a.132.132,0,0,0,.241-.1,1.05,1.05,0,0,1,.333-1.237C2683.494,356.377,2683.644,356.278,2683.765,356.19Z" transform="translate(-2655.847 -336.228)" fill="#fa835f"/>
      <path id="Trazado_10171" data-name="Trazado 10171" d="M2701.715,331.355l3.288,3.7a9.074,9.074,0,0,0-2.042-7.549s-3.236-3.885-6.731-4.53-6.385,11.151,2,10.36Z" transform="translate(-2660.573 -322.294)" fill="#2e3d9e"/>
      <path id="Trazado_10172" data-name="Trazado 10172" d="M2647.426,445.353l8.071-.412s-3.177,3.869-7.973,2.469Z" transform="translate(-2640.655 -375.886)" fill="#fa835f"/>
      <path id="Trazado_10173" data-name="Trazado 10173" d="M2644.946,440.569s3.758,2.916,9.531.54l.332-4.156-9.863-.7Z" transform="translate(-2639.565 -372.07)" fill="#fff"/>
      <path id="Trazado_10174" data-name="Trazado 10174" d="M2659.214,397.132l-2.649,16.8a4.813,4.813,0,0,1-4.5,4.234c-3.376.132-7.717-.464-7.724-4.4a67.315,67.315,0,0,1,4.385-24.346c.842-2.163,3.246-2.673,5.943-4.358.436-.273.127,2.132.612,2.484h0A10.06,10.06,0,0,1,2659.214,397.132Z" transform="translate(-2639.3 -349.571)" fill="#ff3d9b"/>
      <path id="Trazado_10175" data-name="Trazado 10175" d="M2648.6,392.849s-5.538,15.038-4.385,24.88a3.685,3.685,0,0,0,3.148,3.393,13.049,13.049,0,0,1-1.035-5.342c.077-2.985,1.346,1.052,1.807-.027s.7-5.075.465-7.863,1.487-10.773.656-12.66S2648.6,392.849,2648.6,392.849Z" transform="translate(-2639.176 -353.002)" fill="#eb2182"/>
    </g>
    <g id="Grupo_10313" data-name="Grupo 10313" transform="translate(954.403 348.407)">
      <g id="Grupo_10289" data-name="Grupo 10289" transform="translate(31.276 64.058)" opacity="0.4" style="mix-blend-mode: multiply;isolation: isolate">
        <path id="Trazado_10176" data-name="Trazado 10176" d="M2928.537,759.937l0,0,.022-.01a18.1,18.1,0,0,1,4.121-1.747l4.75-2.013c.231-.1.419.131.659.034l-.022.323h0c6.365-3.1,15.716-2.63,26.974.742l49.688-2.232c.178-.031.369-.141.547-.169,3.608-1.391,26.063-9.252,27.06-9.442,2.771-1.563,7.616-1.708,13.817-.016.454.125.911.248,1.367.388,1.46-.495,2.464-.83,2.626-.861,1.873-1.056,5.146-1.143,9.339,0,8.16,2.227,16.7,8.254,19.07,13.463,1.49,3.272.192,5.441-3,6.051-.081.045-.577.233-1.356.517.054.112.113.225.165.337,2.2,4.84.284,8.048-4.438,8.95-.576.325-15.264,5.477-22.956,8.1l-.462.456a7.652,7.652,0,0,1,1.083,5.708l-.611,3.056c-1.075,5.375-7.452,9.431-14.169,9.013l-.341-.021a14.188,14.188,0,0,1-3.331-.6l-13.472,13.3c-.311,5.493-3.439,9.379-8.685,11.405l0,0-6.328,2.537q-.728.331-1.52.609l-.049.02,0,0c-7.2,2.516-18.105,1.715-31.071-3.005-26.181-9.532-50.831-31.431-55.055-48.913C2921.153,768.442,2923.37,762.991,2928.537,759.937Z" transform="translate(-2922.337 -744.108)" fill="#d0e1f5"/>
      </g>
      <g id="Grupo_10290" data-name="Grupo 10290" transform="translate(33.69 15.038)">
        <path id="Trazado_10177" data-name="Trazado 10177" d="M2982.012,778.25l9.15-4.664-53.523-116.9-11,5.451Z" transform="translate(-2926.643 -656.682)" fill="#2578e6"/>
      </g>
      <g id="Grupo_10291" data-name="Grupo 10291" transform="translate(141.638 5.823)">
        <path id="Trazado_10178" data-name="Trazado 10178" d="M3124.935,651.488c.674-.463,21.723-9.818,22.549-10.019,2.44-1.675,5.958-1.693,9.934.351,7.736,3.978,14.262,14.244,14.577,22.928.2,5.456-2.1,8.988-5.758,9.876-.674.462-21.723,9.818-22.548,10.019-2.44,1.674-5.958,1.692-9.934-.351-7.736-3.978-14.263-14.244-14.577-22.928C3118.979,655.909,3121.279,652.377,3124.935,651.488Z" transform="translate(-3119.165 -640.248)" fill="#eb2182"/>
      </g>
      <g id="Grupo_10292" data-name="Grupo 10292" transform="translate(139.141 6.68)">
        <path id="Trazado_10179" data-name="Trazado 10179" d="M3120.482,653.016c.674-.463,21.722-9.818,22.548-10.019,2.441-1.675,5.959-1.693,9.935.351,7.735,3.978,14.262,14.244,14.577,22.929.2,5.455-2.1,8.987-5.758,9.876-.675.463-21.723,9.819-22.549,10.019-2.441,1.674-5.958,1.693-9.933-.352-7.736-3.978-14.263-14.243-14.577-22.928C3114.526,657.437,3116.826,653.9,3120.482,653.016Z" transform="translate(-3114.712 -641.775)" fill="#c9186d"/>
      </g>
      <g id="Grupo_10293" data-name="Grupo 10293" transform="translate(132.901 20.273)">
        <path id="Trazado_10180" data-name="Trazado 10180" d="M3144.689,680.839c1.281-7.365-3.871-13.852-11.507-14.489l-3.384-.282c-7.637-.636-14.865,4.819-16.146,12.185l-9.873,56.77c-1.281,7.365,3.87,13.852,11.507,14.489l3.384.282c7.636.636,14.865-4.819,16.146-12.185Z" transform="translate(-3103.583 -666.018)" fill="#213b82"/>
      </g>
      <g id="Grupo_10295" data-name="Grupo 10295" transform="translate(108.938 5.326)">
        <g id="Grupo_10294" data-name="Grupo 10294">
          <path id="Trazado_10181" data-name="Trazado 10181" d="M3069.379,655.988c1-.685,32.13-14.523,33.352-14.819,3.611-2.477,8.814-2.5,14.693.519,11.442,5.884,21.1,21.068,21.562,33.915.292,8.069-3.111,13.294-8.517,14.608-1,.684-32.13,14.522-33.352,14.819-3.611,2.477-8.814,2.5-14.693-.519-11.442-5.884-21.1-21.068-21.562-33.914C3060.569,662.527,3063.973,657.3,3069.379,655.988Z" transform="translate(-3060.844 -639.362)" fill="#eb2182"/>
        </g>
      </g>
      <g id="Grupo_10296" data-name="Grupo 10296" transform="translate(110.794 20.415)">
        <path id="Trazado_10182" data-name="Trazado 10182" d="M3133.169,666.272a39.47,39.47,0,0,1,5.509,17.656c.292,8.069-3.111,13.294-8.517,14.608-1,.684-32.131,14.522-33.352,14.819-3.611,2.477-8.814,2.5-14.693-.52-8.292-4.264-14.363-10.352-17.96-19.954Z" transform="translate(-3064.156 -666.272)" fill="#c9186d"/>
      </g>
      <g id="Grupo_10297" data-name="Grupo 10297" transform="translate(31.694 21.269)">
        <path id="Trazado_10183" data-name="Trazado 10183" d="M3008.841,668.294l-85.759,2.507,54.135,114.115,67.938-72.989C3043.181,687.689,3027.989,664.036,3008.841,668.294Z" transform="translate(-2923.082 -667.794)" fill="#dce7ff"/>
      </g>
      <g id="Grupo_10298" data-name="Grupo 10298" transform="translate(53.533 34.751)">
        <path id="Trazado_10184" data-name="Trazado 10184" d="M2962.032,727.4l30.484,61.109s69.385-69.61,69.1-71.389a63.111,63.111,0,0,0-9.721-25.282Z" transform="translate(-2962.032 -691.839)" fill="#bac9e8"/>
      </g>
      <g id="Grupo_10299" data-name="Grupo 10299" transform="translate(71.456 23.855)">
        <path id="Trazado_10185" data-name="Trazado 10185" d="M3046.18,672.407,2994,674.162l14.379,12.952,43.549-7.915Z" transform="translate(-2993.996 -672.407)" fill="#fff"/>
      </g>
      <g id="Grupo_10300" data-name="Grupo 10300" transform="translate(131.547 8.17)" opacity="0.43">
        <path id="Trazado_10186" data-name="Trazado 10186" d="M3135.686,648.754l-27.877,13.05-6.642-4.614,28.353-12.756Z" transform="translate(-3101.167 -644.433)" fill="#fff"/>
      </g>
      <g id="Grupo_10302" data-name="Grupo 10302" transform="translate(9.021 0)">
        <g id="Grupo_10301" data-name="Grupo 10301">
          <ellipse id="Elipse_628" data-name="Elipse 628" cx="37.675" cy="64.348" rx="37.675" ry="64.348" transform="translate(0 31.219) rotate(-24.477)" fill="#eb2182"/>
        </g>
      </g>
      <g id="Grupo_10304" data-name="Grupo 10304" transform="translate(0 4.595)">
        <g id="Grupo_10303" data-name="Grupo 10303" transform="translate(0 0)">
          <ellipse id="Elipse_629" data-name="Elipse 629" cx="37.675" cy="64.348" rx="37.675" ry="64.348" transform="translate(0 31.219) rotate(-24.477)" fill="#eb2182"/>
        </g>
      </g>
      <g id="Grupo_10305" data-name="Grupo 10305" transform="translate(8.042 7.432)">
        <ellipse id="Elipse_630" data-name="Elipse 630" cx="34.937" cy="59.671" rx="34.937" ry="59.671" transform="translate(0 28.95) rotate(-24.477)" fill="#fff"/>
      </g>
      <g id="Grupo_10306" data-name="Grupo 10306" transform="translate(24.236 20.077)">
        <path id="Trazado_10187" data-name="Trazado 10187" d="M2978.764,700.547a83.225,83.225,0,0,0-23.715-27.372c-22.079-15.488-42.172-6.237-44.88,20.663-.775,7.7-.941,16.4,4.981,34.671C2926.562,698.543,2953.6,694,2978.764,700.547Z" transform="translate(-2909.782 -665.669)" fill="#dce7ff"/>
      </g>
      <g id="Grupo_10307" data-name="Grupo 10307" transform="translate(49.012 48.147)">
        <path id="Trazado_10188" data-name="Trazado 10188" d="M3006.918,752.625c1.179-11.716-6.354-26.743-16.827-33.564-5.027-3.273-9.813-4.055-13.566-2.694l0,0-.163.067c-.166.063-.331.13-.493.2l-13.849,5.688a9.988,9.988,0,0,0-1.585.651l0,0h0c-3.428,1.779-5.789,5.564-6.34,11.044-1.18,11.716,6.354,26.743,16.827,33.563,4.932,3.212,9.635,4.029,13.354,2.773h0l.028-.012a9.838,9.838,0,0,0,1.194-.5l12.752-5.317a10,10,0,0,0,3.05-1.272l.008,0h0C3004.336,761.333,3006.407,757.71,3006.918,752.625Z" transform="translate(-2953.968 -715.73)" fill="#d0e7f4"/>
      </g>
      <g id="Grupo_10308" data-name="Grupo 10308" transform="translate(50.167 37.695)">
        <path id="Trazado_10189" data-name="Trazado 10189" d="M2986.686,697.09c-.154.064-23.114,10.561-23.114,10.561-.509.177-1.014.646-1.467.627h0l0,.051c-3.718,1.778-5.391,5.607-5.943,11.088-1.179,11.716,5.613,26.685,15.229,33.431,4.529,3.177,7.769,3.919,12.262,2.683v0l.072-.009a9.213,9.213,0,0,0,1.13-.5s23.589-11.144,24.454-11.738A96.433,96.433,0,0,0,2986.686,697.09Z" transform="translate(-2956.03 -697.09)" fill="#213b82"/>
      </g>
      <g id="Grupo_10309" data-name="Grupo 10309" transform="translate(47.478 50.133)">
        <ellipse id="Elipse_631" data-name="Elipse 631" cx="10.376" cy="19.863" rx="10.376" ry="19.863" transform="translate(0 9.263) rotate(-26.51)" fill="#36539e"/>
      </g>
      <g id="Grupo_10312" data-name="Grupo 10312" transform="translate(76.544 37.695)">
        <g id="Grupo_10311" data-name="Grupo 10311">
          <g id="Grupo_10310" data-name="Grupo 10310">
            <path id="Trazado_10190" data-name="Trazado 10190" d="M3029.986,743.283s-.864-11.583-8.91-26.505a86.871,86.871,0,0,0-13.724-19.688l-4.28,1.959s17.451,18.81,21.257,47.03Z" transform="translate(-3003.072 -697.09)" fill="#1c297d"/>
          </g>
        </g>
      </g>
    </g>
    <g id="Grupo_10320" data-name="Grupo 10320" transform="translate(746.453 223.539)">
      <g id="Grupo_10316" data-name="Grupo 10316" transform="translate(55.91 21.502)">
        <path id="Trazado_10191" data-name="Trazado 10191" d="M2609.285,472.526l-11.419-3.393a1.551,1.551,0,0,1-.97-1.784l3.723-20.714a1.219,1.219,0,0,1,1.484-1.083l11.313,3.231a1.552,1.552,0,0,1,.97,1.784l-3.706,20.615c-.094.521-.312.657-.755.928Z" transform="translate(-2596.045 -445.51)" fill="#97cbff"/>
        <path id="Trazado_10192" data-name="Trazado 10192" d="M2604.863,454.383s-8.089,13.758-7.946,12.966l3.541-21.322.854-.384a1.068,1.068,0,0,1,.812-.09l11.314,3.231a1.332,1.332,0,0,1,.779.645Z" transform="translate(-2596.065 -445.51)" fill="#97cbff"/>
        <path id="Trazado_10193" data-name="Trazado 10193" d="M2607.65,473.039l-11.283-3.237a1.542,1.542,0,0,1-.939-1.789l3.723-20.714a1.2,1.2,0,0,1,1.469-1.079l11.276,3.238a1.539,1.539,0,0,1,.933,1.791l-3.723,20.714A1.19,1.19,0,0,1,2607.65,473.039Z" transform="translate(-2595.399 -445.803)" fill="#22009c"/>
        <g id="Grupo_10315" data-name="Grupo 10315" transform="translate(1.703 2.414)">
          <g id="Grupo_10314" data-name="Grupo 10314">
            <path id="Trazado_10194" data-name="Trazado 10194" d="M2609.544,471.242l-11.107-3.171,3.23-18.254,11.039,3.152-3.437,17.873C2609.242,471,2609.7,471.285,2609.544,471.242Z" transform="translate(-2598.437 -449.816)" fill="#f5f9ff"/>
          </g>
        </g>
      </g>
      <path id="Trazado_10195" data-name="Trazado 10195" d="M2615.351,470.587c.309.811-.217,3.018-.141,4.309a39.559,39.559,0,0,0,1.033,6.665s-2.107,2.987-4.3.763.094-7.475.094-7.475l1.376-6.211S2614.212,467.6,2615.351,470.587Z" transform="translate(-2546.338 -434.092)" fill="#ff9d80"/>
      <path id="Trazado_10196" data-name="Trazado 10196" d="M2626.187,468.957c-.108-1.123-.233-2.367-.233-2.367a7.364,7.364,0,0,0-2.882-4.938,8.185,8.185,0,0,1-1.069-.941l-.6,3.35c0,.018-.423,2.132-.756,3.811-2,2.093-3.652,3.315-3.6,4.824l-1.2.946a.624.624,0,0,0-.229.572l.835,6.491a.624.624,0,0,0,1.069.375c.384-.416.908-1.036,1.509-1.77l1,2.016s4.086-6.435,5.454-9.305c.013-.029.03-.062.051-.1A5.072,5.072,0,0,0,2626.187,468.957Z" transform="translate(-2548.365 -430.686)" fill="#ff9d80"/>
      <path id="Trazado_10197" data-name="Trazado 10197" d="M2611.137,490.4l-1.909,7.385,7.957,2.4,1.18-8.527Z" transform="translate(-2545.564 -443.73)" fill="#ff9d80"/>
      <path id="Trazado_10198" data-name="Trazado 10198" d="M2605.287,529.487c2.5-11.23,3.4-11.942,6.186-27.774l-10.244-2.731c-2.321,12.362-5.3,16.234-9.024,26.973a6.794,6.794,0,0,0,2.983,8.115h0A6.794,6.794,0,0,0,2605.287,529.487Z" transform="translate(-2537.917 -447.498)" fill="#3d89ed"/>
      <path id="Trazado_10199" data-name="Trazado 10199" d="M2609.652,497.336l.59-2.458,8.666,2.648-.608,2.116Z" transform="translate(-2545.75 -445.695)" fill="#cfe4fa"/>
      <path id="Trazado_10200" data-name="Trazado 10200" d="M2601.365,521.1l3.464,4.2-1.612-8.921Z" transform="translate(-2542.11 -455.143)" fill="#2973d6"/>
      <path id="Trazado_10201" data-name="Trazado 10201" d="M2501.364,599.758c.432,1.042.916,2.2.916,2.2a7.365,7.365,0,0,0,4.2,3.877,8.193,8.193,0,0,1,1.3.586l-.406-3.38c0-.018-.221-2.162-.394-3.865,1.3-2.586,2.52-4.24,2.029-5.667l.875-1.257a.625.625,0,0,0,.052-.615l-2.7-5.96a.625.625,0,0,0-1.133-.046c-.245.51-.564,1.256-.924,2.135l-1.548-1.634s-2.022,7.35-2.487,10.5c0,.031-.011.068-.02.108A5.068,5.068,0,0,0,2501.364,599.758Z" transform="translate(-2498.019 -485.412)" fill="#ff9d80"/>
      <path id="Trazado_10202" data-name="Trazado 10202" d="M2574.676,439.131l2.637.539a1.872,1.872,0,0,0,2.225-1.977l.006-.323a2.922,2.922,0,0,0-2.14-2.869l-2.637-.539a1.871,1.871,0,0,0-2.225,1.977l-.007.324A2.923,2.923,0,0,0,2574.676,439.131Z" transform="translate(-2529.445 -418.917)" fill="none" stroke="#082187" stroke-linecap="round" stroke-linejoin="round" stroke-width="0.849"/>
      <path id="Trazado_10203" data-name="Trazado 10203" d="M2503.256,484.652l-7.058,25.407c-1.289,3.484.211,8.9.641,12.588l2.9,23.81,14.011-4.255s-6.277-49.373-6.308-49.866S2503.256,484.652,2503.256,484.652Z" transform="translate(-2495.686 -441.203)" fill="#2d75d4"/>
      <g id="Grupo_10317" data-name="Grupo 10317" transform="translate(8.202 200.794)">
        <path id="Trazado_10204" data-name="Trazado 10204" d="M2514.245,779.833a1.428,1.428,0,0,0-1.693.814c-1.036,2.4-3.16,7.925-1.794,10.031,1.06,1.633,2.037,1.627,3.278,2.143a4.625,4.625,0,0,0,2.593.278l12.378-7.891c1.613-.338-.862-4.731-3.246-4.8-3.219-.092-4.412,1.392-4.412,1.392Z" transform="translate(-2510.313 -771.646)" fill="#082187"/>
        <path id="Trazado_10205" data-name="Trazado 10205" d="M2531.279,783.01a3.342,3.342,0,0,1,2.988,1.977" transform="translate(-2519.523 -773.064)" fill="none" stroke="#fff" stroke-linecap="round" stroke-linejoin="round" stroke-width="0.734"/>
        <path id="Trazado_10206" data-name="Trazado 10206" d="M2524.58,769.245l-.456,8.615s-3.592.321-4.375-1.755a4.084,4.084,0,0,0-2.764-2.433l-1.113-.308-1.059-8.09Z" transform="translate(-2512.291 -765.273)" fill="#ff9d80"/>
      </g>
      <path id="Trazado_10207" data-name="Trazado 10207" d="M2513.931,587.39l-3.978.827-.393,13.021a15.907,15.907,0,0,0,1.341,7.707h0c.641,7.274,2.1,20.6.852,33.066-.855,8.567-1.575,15.47-1.544,17.8.07,5.291-.239,35.052-.239,35.052s5.046,3.987,12.438.658l7.317-52.718-.338-48.185Z" transform="translate(-2501.76 -486.336)" fill="#082187"/>
      <g id="Grupo_10318" data-name="Grupo 10318" transform="translate(31.656 209.943)">
        <path id="Trazado_10208" data-name="Trazado 10208" d="M2555.3,796.577a1.315,1.315,0,0,0-1.714.675c-.811,2.279-2.4,7.545-.675,9.71,1.338,1.679,2.108,2.835,5.675,2.891l19.016-3.667c1.686-.215,2.78-6.446-2.211-6.841-3.456-.274-12.844-1.786-12.844-1.786Z" transform="translate(-2552.144 -788.137)" fill="#082187"/>
        <path id="Trazado_10209" data-name="Trazado 10209" d="M2564.7,783.7l.8,11.865s-4.312-.594-5.409-2.687a5.564,5.564,0,0,0-3.264-2.587l-1.229-.383-1.9-8.32Z" transform="translate(-2552.83 -781.589)" fill="#ff9d80"/>
        <path id="Trazado_10210" data-name="Trazado 10210" d="M2575.664,799.328s3.645,1.47,3.93,3.991" transform="translate(-2562.476 -789.382)" fill="none" stroke="#fff" stroke-linecap="round" stroke-linejoin="round" stroke-width="0.724"/>
        <path id="Trazado_10211" data-name="Trazado 10211" d="M2581.248,800.294s3.264.7,3.535,3.1" transform="translate(-2564.929 -789.806)" fill="none" stroke="#fff" stroke-linecap="round" stroke-linejoin="round" stroke-width="0.724"/>
      </g>
      <path id="Trazado_10212" data-name="Trazado 10212" d="M2536.853,661.492l.116-21.741-11.553-12.306-.761-1.083c-.329,5.844,2.457,9.171,4.854,11.576a94.827,94.827,0,0,1,2.453,10.349c-.654,3.09-1.257,6.346-.094,8.19,1.087,1.725.9,5.115.425,8.33s-1.221,6.255-1.251,7.28c-.061,2.05-6.226,10.064-5.019,14.49s-.708,15.23-1.766,18.254,1.314,8.888,1.314,8.888a41.34,41.34,0,0,0,5.109-1.73l2.946-28.391L2535.374,671Z" transform="translate(-2508.117 -503.456)" fill="#2e3d9e"/>
      <path id="Trazado_10213" data-name="Trazado 10213" d="M2540,593.906l5.437,62.279s.823,21.169,1.028,49.105c3.288,2.361,10.226,3.116,13.7.978,0,0,3.9-48.206,3.761-49.758l-.5-63.346Z" transform="translate(-2515.155 -488.872)" fill="#082187"/>
      <path id="Trazado_10214" data-name="Trazado 10214" d="M2573.3,656.51l-.5-63.346-4.737.15.5,63.113c.142,1.551-3.761,49.757-3.761,49.757a8.982,8.982,0,0,1-3.464,1.122c2.973.466,6.176.209,8.2-1.039C2569.542,706.268,2573.443,658.062,2573.3,656.51Z" transform="translate(-2524.526 -488.872)" fill="#2e3d9e"/>
      <path id="Trazado_10215" data-name="Trazado 10215" d="M2539.644,464.593l6.243-16.607,10.071.34-3.947,17.3Z" transform="translate(-2514.996 -425.096)" fill="#ff9d80"/>
      <path id="Trazado_10216" data-name="Trazado 10216" d="M2542.9,418.371s-4.577,23.051,14.647,23.035c0,0,7.8,2.316,6.156-17.536S2550.714,413.05,2542.9,418.371Z" transform="translate(-2516.216 -409.128)" fill="#ff9d80"/>
      <path id="Trazado_10217" data-name="Trazado 10217" d="M2558.829,457.663a24.2,24.2,0,0,1-7.985-8.566l-8.729,4.387-1.613,10.24,12.379,1.245,1.224-6.9S2557.6,458.452,2558.829,457.663Z" transform="translate(-2515.373 -425.584)" fill="#fa835f"/>
      <path id="Trazado_10218" data-name="Trazado 10218" d="M2537.494,436.077l3.369.771a4.249,4.249,0,0,0,4.59-1.952,20.922,20.922,0,0,0,1.677-3.157c.619-2.108.936-1.859,1.461-5.027.208-1.255,2.787-.853,3.181-3.121.726-4.176,5.513-8.464,5.513-8.464s2.393-1,1.683-3.044c-1.038-2.992-2.7-2.442-4.9-3.867-3.322-2.151-17.209-1.013-19.93,3.447-.681,1.116-1.61,2.167-2.316,3.492C2527.344,423.563,2537.494,436.077,2537.494,436.077Z" transform="translate(-2511.059 -407.163)" fill="#2e3d9e"/>
      <g id="Grupo_10319" data-name="Grupo 10319" transform="translate(19.619 2.767)">
        <path id="Trazado_10219" data-name="Trazado 10219" d="M2548.105,426.994h0a11.415,11.415,0,0,1-7.107-5.018,43.192,43.192,0,0,1-4.73-9.878,5.948,5.948,0,0,0-2.136,1.918c-.681,1.116-1.611,2.167-2.316,3.493-4.477,8.407,5.672,20.92,5.672,20.92l3.368.771a4.249,4.249,0,0,0,4.591-1.952,21.006,21.006,0,0,0,1.678-3.157c.619-2.109.935-1.86,1.461-5.027.183-1.106,2.206-.927,2.954-2.42A5.383,5.383,0,0,1,2548.105,426.994Z" transform="translate(-2530.675 -412.097)" fill="#082187"/>
      </g>
      <path id="Trazado_10220" data-name="Trazado 10220" d="M2563.34,442.128c.071,1.962-1.131,3.6-2.685,3.656s-2.873-1.487-2.945-3.45,1.13-3.6,2.685-3.656S2563.268,440.166,2563.34,442.128Z" transform="translate(-2522.931 -421.006)" fill="#fa835f"/>
      <path id="Trazado_10221" data-name="Trazado 10221" d="M2554.83,493.836c3.877-10.4-17.372-21.647-17.372-21.647l-11.948-3.938-11.749,2.686c-7.706,2.788-8.416,12.229-8.21,17.041,0,.081,2.236,17.995,1.877,26.966-.127,3.164-.71,21.791-.359,23.17,1.024,4.03,40.336,14.932,43.22,3.435,0,0-2.872-25.1.556-35.307C2552.6,501.018,2553.81,496.573,2554.83,493.836Z" transform="translate(-2500.006 -433.999)" fill="#3d89ed"/>
      <path id="Trazado_10222" data-name="Trazado 10222" d="M2575.875,413.959c-.1,1.916-2.132,3.529-4.871,3.6s-5-1.429-5.047-3.346-1.857-7.171.831-6.644C2570.188,408.235,2576.229,407.081,2575.875,413.959Z" transform="translate(-2526.274 -407.325)" fill="#2e3d9e"/>
      <rect id="Rectángulo_2658" data-name="Rectángulo 2658" width="13.909" height="42.457" rx="6.955" transform="translate(38.417 51.87) rotate(-24.54)" fill="#3d89ed"/>
      <path id="Trazado_10223" data-name="Trazado 10223" d="M2538.911,463.872l12.029,3.721,4.732,6.01a15.885,15.885,0,0,0-4.919-1.3c-7.631-1.074-13.679-2.6-16.141-5.142A4.118,4.118,0,0,1,2538.911,463.872Z" transform="translate(-2512.786 -432.064)" fill="#cfe4fa"/>
      <path id="Trazado_10224" data-name="Trazado 10224" d="M2542.884,466.769a5.111,5.111,0,0,1,1.623-1.166l-5.6-1.731a4.118,4.118,0,0,0-4.3,3.286c1.611,1.665,4.765,2.891,8.887,3.842l-.024-.015A2.752,2.752,0,0,1,2542.884,466.769Z" transform="translate(-2512.786 -432.064)" fill="#a8c4e0"/>
      <path id="Trazado_10225" data-name="Trazado 10225" d="M2567.4,448.888s-2.581-2.964-1.361-6.508,2.642-10.651.816-12.79-3.389,3.749-3.389,3.749l-.348,5.991-3.1,2.056.635,7.182Z" transform="translate(-2523.947 -416.809)" fill="#fa835f"/>
      <path id="Trazado_10226" data-name="Trazado 10226" d="M2565.653,435.147h0a1.573,1.573,0,0,1-1.608-1.529l-.126-4.957a1.574,1.574,0,0,1,1.529-1.609h0c.863-.022,3.136-1.822,3.159-.959l-1.424,7.444A1.573,1.573,0,0,1,2565.653,435.147Z" transform="translate(-2525.66 -415.376)" fill="#2e3d9e"/>
      <path id="Trazado_10227" data-name="Trazado 10227" d="M2545.295,501.736c3.3-8.849-10.269-17.334-14.393-19.671a11.471,11.471,0,0,0-2.216-.964h0a44.645,44.645,0,0,0-13.679-2.057l-1.427.009c-7.706,2.788-8.239,8.855-8.032,13.667,0,.081,2.236,17.995,1.877,26.966-.127,3.164-.71,21.791-.359,23.17,1.024,4.03,39.93,17.431,43.22,3.435,0,0-7.383-23.18-3.956-33.381C2548.085,507.684,2544.275,504.472,2545.295,501.736Z" transform="translate(-2500.003 -438.739)" fill="#2c7ce6"/>
      <path id="Trazado_10228" data-name="Trazado 10228" d="M2573.093,518.16c-.891,2.391-1.961-.58-2.469,3.859-.073.639-.493,7.445-.523,8.138-.217,4.953,2.254,11.242,2.04,15.889a47.561,47.561,0,0,1-3.529,16.425c-.072,1.611.792,6.291-.762,7.276,6.577-.465,9.649-2.484,9.819-6.273,0,0-.932-27.009.678-38.546Z" transform="translate(-2527.387 -455.923)" fill="#3d89ed"/>
      <path id="Trazado_10229" data-name="Trazado 10229" d="M2595.009,538.081a6.3,6.3,0,0,1-8.326-3.106L2576.148,511.9l-2.93,4.214,9.969,21.834a6.3,6.3,0,0,0,8.326,3.106l1.22-.557a6.239,6.239,0,0,0,2.885-2.7Z" transform="translate(-2529.745 -453.174)" fill="#2c7ce6"/>
      <line id="Línea_113" data-name="Línea 113" x1="8.262" y2="1.064" transform="translate(41.522 17.098)" fill="none" stroke="#082187" stroke-linecap="round" stroke-linejoin="round" stroke-width="0.849"/>
    </g>
    <path id="Trazado_10230" data-name="Trazado 10230" d="M2899.825,318.253l-61.671-28.017c-3.176-1.443-6.067-.512-6.462,2.078l-2.515,16.488a3.432,3.432,0,0,0-.155.6l-8.208,53.806Z" transform="translate(-1892.06 -131.961)" fill="#9ca8ff" opacity="0.27"/>
    <g id="Grupo_10329" data-name="Grupo 10329" transform="translate(982.646 160.584)">
      <path id="Trazado_10231" data-name="Trazado 10231" d="M3020.745,496.962l-103.816-47.349,27.553-154.729L3048.3,342.234Z" transform="translate(-2916.928 -294.885)" fill="#fff"/>
      <g id="Grupo_10327" data-name="Grupo 10327" transform="translate(28.62 27.657)">
        <g id="Grupo_10326" data-name="Grupo 10326" transform="translate(0 0)">
          <ellipse id="Elipse_632" data-name="Elipse 632" cx="30.858" cy="41.372" rx="30.858" ry="41.372" transform="matrix(0.95, -0.313, 0.313, 0.95, 0, 19.307)" fill="#173891"/>
          <path id="Trazado_10232" data-name="Trazado 10232" d="M3016.808,450.415c-.12-.137-.057-.2.136-.253.628-.156,1.183-.533,1.811-.689a1.758,1.758,0,0,0,.392-.1,6.864,6.864,0,0,0,.148-.7l1.05-4.618c.076-.331.5-.153.425.18-.026.116-.052.233-.078.35l.44-1.605,12.455,5.261a10.267,10.267,0,0,0-.37,1.066c.147-.077.375.086.317.337q-.514,2.266-1.029,4.532a4.852,4.852,0,0,0-.131.513c.047-.081.289.51.358.64.376.7,1.345,1.858,1.721,2.563.164.307,1.814,3.417,1.651,3.112-.179-.337.9,4.166-.9.975.368.874,4.913,6.266,4.913,6.266l-16.871-5.023L3011.9,452.6Z" transform="translate(-2987.267 -387.6)" fill="#fff"/>
          <g id="Grupo_10321" data-name="Grupo 10321" transform="translate(29.623 37.885)">
            <path id="Trazado_10233" data-name="Trazado 10233" d="M3023.927,412.035c.263.16.16.7-.108.533-2.123-1.288-2.443,3.811-2.549,5.34.113-1.39.181-3.867.711-5.045.2-.436.858-.688,1.215-.912s.5.671.851.98l-.617,10.44c-.029-.006-.058-.014-.087-.02.015.17-.094.362-.272.308-2.474-.748-2.378-4.326-2.177-6.677C3021.047,415.2,3021.646,410.652,3023.927,412.035Z" transform="translate(-3020.802 -411.777)" fill="#fff"/>
            <path id="Trazado_10234" data-name="Trazado 10234" d="M3055.844,437.992c2.337,1.368,3.657-1.682,4.4-3.794.569-1.626,1.829-5.849-.6-6.536-.283-.08-.392.452-.107.533.021.006.035.017.054.023a.8.8,0,0,0-.174-.049l-3.545,9.153a4.564,4.564,0,0,0,.548.34,2.245,2.245,0,0,1-.464-.2C3055.682,437.3,3055.577,437.836,3055.844,437.992Z" transform="translate(-3036.127 -418.752)" fill="#fff"/>
          </g>
          <path id="Trazado_10235" data-name="Trazado 10235" d="M3028.722,395.681a6.406,6.406,0,0,1,7.374-2.774c.808.254,1.606.615,2.4.939h0l.122.052h0c2.383,1.047,4.7,2.2,6.224,5a15.753,15.753,0,0,1,1.409,8.823,48.666,48.666,0,0,1-2.238,10.233c-.751,2.435-1.276,5.28-2.6,7.282-1.754,2.643-4.217,3.159-6.917,3.237-2.762.08-5.058-1.776-7.155-4.078a12.662,12.662,0,0,1-2.839-9.906c.333-2.933.592-5.9,1.037-8.8C3026.08,402.142,3026.888,398.413,3028.722,395.681Z" transform="translate(-2992.762 -365.488)" fill="#fff"/>
          <g id="Grupo_10323" data-name="Grupo 10323" transform="translate(34.244 39.712)">
            <g id="Grupo_10322" data-name="Grupo 10322">
              <path id="Trazado_10236" data-name="Trazado 10236" d="M3029.121,417.151a.934.934,0,0,1,.353-1.169c.109-.066.219-.135.33-.2a2.723,2.723,0,0,1,2.533-.6,11.535,11.535,0,0,1,2.856,1.664,1.433,1.433,0,0,1,.32,1.589.6.6,0,0,1-.946.34h0a11.092,11.092,0,0,0-1.261-.731c-.351-.183-.713-.373-1.075-.6a1.781,1.781,0,0,0-2.125.066.64.64,0,0,1-.6.064A.764.764,0,0,1,3029.121,417.151Zm5.791.729Z" transform="translate(-3029.044 -415.035)" fill="#4f64e3"/>
            </g>
          </g>
          <g id="Grupo_10325" data-name="Grupo 10325" transform="translate(44.587 44.597)">
            <g id="Grupo_10324" data-name="Grupo 10324">
              <path id="Trazado_10237" data-name="Trazado 10237" d="M3052.389,428.278c-.51-1.059-1.005-1.541-1.766-1.715-.391-.09-.766-.213-1.13-.332a9.37,9.37,0,0,0-1.333-.368h0a.943.943,0,0,1-.671-1.025c.008-.562.338-1.138.86-1.088a9.943,9.943,0,0,1,3.025.828,4.589,4.589,0,0,1,1.909,2.487c.067.145.134.289.2.43a1.209,1.209,0,0,1,.076.991.527.527,0,0,1-.51.354.54.54,0,0,1-.182-.044A1.018,1.018,0,0,1,3052.389,428.278Zm.712-.427Zm-4.9-3Z" transform="translate(-3047.489 -423.748)" fill="#4f64e3"/>
            </g>
          </g>
          <path id="Trazado_10238" data-name="Trazado 10238" d="M3040.307,397.746h0q-3.651-1.674-7.256-3.549a10.094,10.094,0,0,1-2.385-1.562,2.152,2.152,0,0,1-.72-1.219,2.839,2.839,0,0,1,.547-1.916,8.268,8.268,0,0,1,7.953-4.033c2.9.336,5.642,2.136,8.081,4.438,1.792,1.692,4.052,4.566,3.459,8.086-.456,2.7-3.677,1.745-5.016,1.462A22.674,22.674,0,0,1,3040.307,397.746Z" transform="translate(-2995.186 -362.311)" fill="#4f64e3"/>
          <path id="Trazado_10239" data-name="Trazado 10239" d="M3060.323,410.607h0a.911.911,0,0,1,.127-.406.582.582,0,0,1,.335-.185l1.181-.329a1.063,1.063,0,0,1,.669-.036c.409.155.639.724.762,1.239a9.925,9.925,0,0,1-.034,4.373,19.655,19.655,0,0,1-1.392,3.908,10.715,10.715,0,0,1-1.457,2.871c-.429-.4-.4-1.956-.451-2.564q-.134-1.508-.148-3.014A36.543,36.543,0,0,1,3060.323,410.607Z" transform="translate(-3008.361 -372.94)" fill="#4f64e3"/>
          <path id="Trazado_10240" data-name="Trazado 10240" d="M3029.92,397.807h0a1.037,1.037,0,0,0,.043-.442,1.055,1.055,0,0,0-.213-.418l-.874-1.2a1.642,1.642,0,0,0-.549-.553c-.4-.189-.808.11-1.1.45a7.859,7.859,0,0,0-1.6,3.711,23.2,23.2,0,0,0-.279,4.379,14.392,14.392,0,0,0,.16,3.556c.51,0,1.062-1.338,1.333-1.808q.674-1.166,1.246-2.423A31.171,31.171,0,0,0,3029.92,397.807Z" transform="translate(-2993.163 -366.582)" fill="#4f64e3"/>
          <path id="Trazado_10241" data-name="Trazado 10241" d="M2994.171,456.391a2.476,2.476,0,0,1,.442-.252h0a9.764,9.764,0,0,1,4.244-.4c1.392.076,3.235.035,5.017,0s3.64-.081,5.047,0l.238.013.025.3c-1.208,3.922,1.5,8.471,5.111,10.122,3.811,1.743,11.4,2.684,12.084-2.938l.136-.213.2.166a43.934,43.934,0,0,1,3.7,3.762,43.328,43.328,0,0,0,3.642,3.707,15.7,15.7,0,0,1,3.427,3.651,17.07,17.07,0,0,1,1.507,5.192,23.73,23.73,0,0,1-17.372,2.458C3009.929,479.326,2999.733,469.258,2994.171,456.391Z" transform="translate(-2979.48 -393.18)" fill="#4f64e3"/>
          <path id="Trazado_10242" data-name="Trazado 10242" d="M3042.139,439.289l-.881-1.009a29.218,29.218,0,0,0-7.388-6.219l-.1-.056a16.307,16.307,0,0,0-5.811-2.083l-3.773-.51-.471,3.8s-1.737,7.407,6.042,11.517C3040.483,450.4,3042.139,439.289,3042.139,439.289Z" transform="translate(-2992.386 -381.639)" fill="#4f64e3"/>
          <path id="Trazado_10243" data-name="Trazado 10243" d="M3039.76,441.939l-.951-1.017a9.494,9.494,0,0,0-2.5-1.956l-1.13-.588a5.314,5.314,0,0,0-1.888-.6l-1.983-.2-.3,2.013s-.312,3.454,3.726,5.689C3039.816,448.091,3039.76,441.939,3039.76,441.939Z" transform="translate(-2995.66 -385.224)" fill="#fff"/>
          <path id="Trazado_10244" data-name="Trazado 10244" d="M3035.338,450.631l.455.246c1.19.643,2.3-.012,2.487-1.461l.223-1.767a4.008,4.008,0,0,0-1.824-3.788l-.455-.246c-1.189-.643-2.3.012-2.487,1.461l-.223,1.767A4.009,4.009,0,0,0,3035.338,450.631Z" transform="translate(-2996.752 -387.77)" fill="#4f64e3"/>
        </g>
      </g>
      <line id="Línea_114" data-name="Línea 114" x2="72.988" y2="32.58" transform="translate(18.339 132.923)" fill="none" stroke="#173891" stroke-linecap="round" stroke-linejoin="round" stroke-width="4"/>
      <line id="Línea_115" data-name="Línea 115" x2="44.231" y2="19.744" transform="translate(30.846 151.144)" fill="none" stroke="#173891" stroke-linecap="round" stroke-linejoin="round" stroke-width="4"/>
      <ellipse id="Elipse_633" data-name="Elipse 633" cx="13.92" cy="16.535" rx="13.92" ry="16.535" transform="translate(86.653 58.277) rotate(-25.032)" fill="#ff3d9b"/>
      <path id="Trazado_10245" data-name="Trazado 10245" d="M3096.754,410.136l1.913,7.916,11.427-7.485" transform="translate(-2995.925 -345.514)" fill="none" stroke="#fff" stroke-linecap="round" stroke-linejoin="round" stroke-width="2.838"/>
      <g id="Grupo_10328" data-name="Grupo 10328" transform="translate(17.415 104.428)">
        <path id="Trazado_10246" data-name="Trazado 10246" d="M3085.555,546.861l1.053,4.8a1.022,1.022,0,0,0,.434.644l3.755,2.333c.535.332.624,1.208.151,1.483l-3.32,1.932a.69.69,0,0,0-.307.6l-.082,4.736a.6.6,0,0,1-1.108.393l-3.1-3.606a.7.7,0,0,0-.624-.271l-3.806.594c-.541.085-1.036-.648-.835-1.24l1.4-4.161a1.012,1.012,0,0,0-.078-.77l-2.271-4.369c-.323-.621.026-1.306.592-1.16l3.971,1.035a.526.526,0,0,0,.575-.2l2.4-3.295C3084.7,545.869,3085.406,546.179,3085.555,546.861Z" transform="translate(-3004.526 -509.677)" fill="#fed32e"/>
        <path id="Trazado_10247" data-name="Trazado 10247" d="M3053.38,530.615l1.053,4.8a1.016,1.016,0,0,0,.434.644l3.754,2.333c.535.331.624,1.208.151,1.483l-3.32,1.932a.687.687,0,0,0-.307.6l-.082,4.736a.6.6,0,0,1-1.108.393l-3.1-3.607a.7.7,0,0,0-.624-.271l-3.805.594c-.541.085-1.035-.648-.836-1.24l1.4-4.161a1.01,1.01,0,0,0-.078-.77l-2.271-4.368c-.323-.621.027-1.306.591-1.159l3.972,1.034a.526.526,0,0,0,.575-.2l2.4-3.295C3052.521,529.623,3053.23,529.932,3053.38,530.615Z" transform="translate(-2990.392 -502.54)" fill="#fed32e"/>
        <path id="Trazado_10248" data-name="Trazado 10248" d="M3021.2,514.369l1.053,4.8a1.02,1.02,0,0,0,.434.644l3.755,2.333c.534.331.624,1.208.151,1.483l-3.321,1.932a.691.691,0,0,0-.306.6l-.082,4.736a.6.6,0,0,1-1.108.393l-3.1-3.607a.7.7,0,0,0-.624-.271l-3.806.594c-.542.085-1.036-.648-.836-1.24l1.4-4.161a1.008,1.008,0,0,0-.079-.77l-2.27-4.369c-.323-.622.026-1.306.591-1.16l3.971,1.035a.527.527,0,0,0,.575-.2l2.4-3.295C3020.345,513.377,3021.055,513.686,3021.2,514.369Z" transform="translate(-2976.257 -495.403)" fill="#fed32e"/>
        <path id="Trazado_10249" data-name="Trazado 10249" d="M2989.029,498.123l1.053,4.8a1.022,1.022,0,0,0,.434.644l3.755,2.333c.534.331.624,1.208.152,1.483l-3.321,1.932a.688.688,0,0,0-.307.6l-.082,4.736a.6.6,0,0,1-1.108.393l-3.1-3.606a.7.7,0,0,0-.624-.271l-3.805.594c-.541.085-1.035-.648-.836-1.24l1.4-4.161a1.01,1.01,0,0,0-.078-.77l-2.271-4.368c-.323-.622.026-1.307.591-1.16l3.972,1.034a.525.525,0,0,0,.575-.2l2.4-3.295C2988.169,497.131,2988.879,497.44,2989.029,498.123Z" transform="translate(-2962.123 -488.266)" fill="#fed32e"/>
        <path id="Trazado_10250" data-name="Trazado 10250" d="M2956.854,481.877l1.053,4.8a1.02,1.02,0,0,0,.434.643l3.755,2.333c.534.331.624,1.208.151,1.483l-3.321,1.932a.688.688,0,0,0-.307.6l-.082,4.736a.6.6,0,0,1-1.108.393l-3.105-3.606a.7.7,0,0,0-.624-.271l-3.805.594c-.541.085-1.035-.648-.835-1.24l1.4-4.161a1.009,1.009,0,0,0-.079-.77l-2.27-4.368c-.322-.622.027-1.307.592-1.16l3.971,1.035a.527.527,0,0,0,.575-.2l2.4-3.295C2955.994,480.885,2956.7,481.194,2956.854,481.877Z" transform="translate(-2947.988 -481.129)" fill="#fed32e"/>
      </g>
    </g>
  </g>
</svg>
